<svg id="Advanced" xmlns="http://www.w3.org/2000/svg" width="51.917" height="45.671" viewBox="0 0 51.917 45.671">
  <ellipse id="Ellipse_2253" data-name="Ellipse 2253" cx="7.998" cy="3.738" rx="7.998" ry="3.738" transform="translate(35.026 37.383)" fill="#ffe177"/>
  <path id="Path_7794" data-name="Path 7794" d="M419.5,399.473c4.417,0,8,1.674,8,3.738s-3.581,3.738-8,3.738q-.273,0-.542-.009c4.165-.13,7.457-1.75,7.457-3.729s-3.292-3.6-7.457-3.729Q419.232,399.473,419.5,399.473Z" transform="translate(-376.48 -362.089)" fill="#ffd064" fill-rule="evenodd"/>
  <path id="Path_7795" data-name="Path 7795" d="M357.352,145.752v12.438a.95.95,0,0,1-.949.949h-7.417a.95.95,0,0,1-.949-.949V145.752a3.36,3.36,0,0,1-3.424-3.271V131.72c0-1.8,1.606-2.8,3.424-3.271a18.714,18.714,0,0,1,9.314,0c1.823.452,3.424,1.473,3.424,3.271v10.761A3.36,3.36,0,0,1,357.352,145.752Z" transform="translate(-309.67 -118.018)" fill="#80b4fb" fill-rule="evenodd"/>
  <path id="Path_7796" data-name="Path 7796" d="M426.87,131.721c0-1.8-1.6-2.819-3.424-3.271a19.6,19.6,0,0,0-4.224-.583,19.329,19.329,0,0,1,5.173.583c1.823.452,3.424,1.473,3.424,3.271v10.761a3.185,3.185,0,0,1-.948,2.254Z" transform="translate(-376.713 -118.019)" fill="#61a2f9" fill-rule="evenodd"/>
  <path id="Path_7797" data-name="Path 7797" d="M387.695,304.316v12.438a.95.95,0,0,1-.949.949h-7.417a.95.95,0,0,1-.948-.949V304.316Z" transform="translate(-340.013 -276.581)" fill="#837683" fill-rule="evenodd"/>
  <path id="Path_7798" data-name="Path 7798" d="M453.422,304.316v12.438a.95.95,0,0,1-.948.948h-.949a.95.95,0,0,0,.949-.948V304.316Z" transform="translate(-405.74 -276.581)" fill="#685e68" fill-rule="evenodd"/>
  <path id="Path_7799" data-name="Path 7799" d="M392.453,38.8a3.367,3.367,0,0,1,3.594,3.74c0,2.609-1.609,4.724-3.594,4.724s-3.595-2.115-3.595-4.724A3.367,3.367,0,0,1,392.453,38.8Z" transform="translate(-349.428 -37.989)" fill="#f6dccd" fill-rule="evenodd"/>
  <path id="Path_7800" data-name="Path 7800" d="M420.1,38.8a3.367,3.367,0,0,1,3.595,3.74c0,2.609-1.609,4.724-3.595,4.724a2.776,2.776,0,0,1-.474-.041c1.761-.305,3.12-2.285,3.12-4.683s-1.359-3.547-3.12-3.718Q419.866,38.8,420.1,38.8Z" transform="translate(-377.079 -37.989)" fill="#f1cbbc" fill-rule="evenodd"/>
  <path id="Path_7801" data-name="Path 7801" d="M110.861,238.277h2.364a1.016,1.016,0,0,1,1.014,1.014V252.68a1.016,1.016,0,0,1-1.014,1.014h-2.364a1.016,1.016,0,0,1-1.014-1.014V239.291A1.016,1.016,0,0,1,110.861,238.277Z" transform="translate(-98.708 -217.239)" fill="#ffe177" fill-rule="evenodd"/>
  <path id="Path_7802" data-name="Path 7802" d="M133.163,238.277h1.014a1.016,1.016,0,0,1,1.014,1.014V252.68a1.016,1.016,0,0,1-1.014,1.014h-.649c.379-.009.649-.078.649-.508v-13.9A1.016,1.016,0,0,0,133.163,238.277Z" transform="translate(-119.66 -217.239)" fill="#ffd064" fill-rule="evenodd"/>
  <path id="Path_7803" data-name="Path 7803" d="M191.293,267.818h2.364a1.016,1.016,0,0,1,1.014,1.014v10.394a1.016,1.016,0,0,1-1.014,1.014h-2.364a1.016,1.016,0,0,1-1.014-1.014V268.832a1.016,1.016,0,0,1,1.014-1.014Z" transform="translate(-170.985 -243.784)" fill="#6cf5c2" fill-rule="evenodd"/>
  <path id="Path_7804" data-name="Path 7804" d="M213.6,267.818h1.014a1.016,1.016,0,0,1,1.014,1.014v10.394a1.016,1.016,0,0,1-1.014,1.014H213.6c.559,0,1.014-.058,1.014-.617V268.832A1.016,1.016,0,0,0,213.6,267.818Z" transform="translate(-191.937 -243.784)" fill="#00e499" fill-rule="evenodd"/>
  <path id="Path_7805" data-name="Path 7805" d="M271.725,181.455h2.365a1.016,1.016,0,0,1,1.014,1.014V201.62a1.016,1.016,0,0,1-1.014,1.014h-2.365a1.016,1.016,0,0,1-1.014-1.014V182.469A1.016,1.016,0,0,1,271.725,181.455Z" transform="translate(-243.261 -166.179)" fill="#8ac9fe" fill-rule="evenodd"/>
  <path id="Path_7806" data-name="Path 7806" d="M294.028,181.455h1.014a1.016,1.016,0,0,1,1.014,1.014V201.62a1.016,1.016,0,0,1-1.014,1.014h-.911c.51,0,.911-.023.911-.547V182.469A1.016,1.016,0,0,0,294.028,181.455Z" transform="translate(-264.213 -166.179)" fill="#60b7ff" fill-rule="evenodd"/>
  <path id="Path_7807" data-name="Path 7807" d="M30.428,311.358h2.364a1.016,1.016,0,0,1,1.014,1.014v5.979a1.016,1.016,0,0,1-1.014,1.014H30.428a1.016,1.016,0,0,1-1.014-1.014v-5.979A1.016,1.016,0,0,1,30.428,311.358Z" transform="translate(-26.431 -282.909)" fill="#fe646f" fill-rule="evenodd"/>
  <path id="Path_7808" data-name="Path 7808" d="M52.731,311.358h1.014a1.016,1.016,0,0,1,1.014,1.014v5.979a1.016,1.016,0,0,1-1.014,1.014h-.772c.442,0,.772-.052.772-.527v-6.465A1.016,1.016,0,0,0,52.731,311.358Z" transform="translate(-47.384 -282.909)" fill="#fd4755" fill-rule="evenodd"/>
  <path id="Path_7809" data-name="Path 7809" d="M8.608,381.769H40.594a.61.61,0,0,1,.608.608v1.047a.61.61,0,0,1-.608.608H8.608A.61.61,0,0,1,8,383.425v-1.047A.61.61,0,0,1,8.608,381.769Z" transform="translate(-7.189 -346.181)" fill="#a79ba7" fill-rule="evenodd"/>
  <path id="Path_7810" data-name="Path 7810" d="M41.2,392.934v.524a.61.61,0,0,1-.608.608H8.608A.61.61,0,0,1,8,393.458v-.524Z" transform="translate(-7.189 -356.213)" fill="#837683" fill-rule="evenodd"/>
  <circle id="Ellipse_2254" data-name="Ellipse 2254" cx="1.884" cy="1.884" r="1.884" transform="translate(11.45 13.691)" fill="#fff"/>
  <circle id="Ellipse_2255" data-name="Ellipse 2255" cx="1.884" cy="1.884" r="1.884" transform="translate(27.762 8.109)" fill="#fff"/>
  <path id="Path_7811" data-name="Path 7811" d="M191.719,178.787a2.282,2.282,0,1,1-1.613.668,2.274,2.274,0,0,1,1.613-.668Z" transform="translate(-170.229 -163.781)" fill="#6cf5c2" fill-rule="evenodd"/>
  <path id="Path_7812" data-name="Path 7812" d="M111.286,161.9a2.282,2.282,0,1,1-1.613.668A2.274,2.274,0,0,1,111.286,161.9Z" transform="translate(-97.952 -148.606)" fill="#ffe177" fill-rule="evenodd"/>
  <path id="Path_7813" data-name="Path 7813" d="M30.854,224.529a2.282,2.282,0,1,1-1.613.668A2.274,2.274,0,0,1,30.854,224.529Z" transform="translate(-25.675 -204.885)" fill="#fe646f" fill-rule="evenodd"/>
  <path id="Path_7814" data-name="Path 7814" d="M272.15,106.851a2.281,2.281,0,1,1-1.613.668A2.274,2.274,0,0,1,272.15,106.851Z" transform="translate(-242.504 -99.139)" fill="#8ac9fe" fill-rule="evenodd"/>
  <path id="Path_7815" data-name="Path 7815" d="M50.214,71.922c0,1.381-3.076,2.926-7.189,2.926s-7.188-1.545-7.188-2.926c0-.625.648-1.3,1.719-1.831v1.831a.812.812,0,0,0,.811.811h9.316a.811.811,0,0,0,.808-.811V70.091C49.564,70.626,50.214,71.3,50.214,71.922ZM35.756,54.315a2.483,2.483,0,0,0,1.8,2.338V47.7a.811.811,0,0,1,1.622,0V71.111h3.163V60.136a.811.811,0,0,1,1.622,0V71.111h2.906V47.7a.811.811,0,1,1,1.622,0v8.955a2.481,2.481,0,0,0,1.8-2.338V44.5c0-1.555-1.76-2.224-2.808-2.484a18.01,18.01,0,0,0-8.917,0c-1.285.33-2.815,1.029-2.815,2.485Zm7.269-21.893c1.039,0,2.783.381,2.783,2.93,0,2.158-1.249,3.913-2.783,3.913s-2.784-1.755-2.784-3.913C40.242,32.8,41.986,32.423,43.026,32.423Zm5.467,25.9a4.129,4.129,0,0,0,3.425-4.007V44.5c0-1.942-1.473-3.422-4.042-4.059a20.588,20.588,0,0,0-2.449-.456,5.99,5.99,0,0,0,2-4.635c0-2.808-1.688-4.552-4.4-4.552s-4.406,1.744-4.406,4.552a6,6,0,0,0,1.995,4.629,19.619,19.619,0,0,0-2.448.464c-2.6.669-4.033,2.11-4.033,4.057v9.813a4.131,4.131,0,0,0,3.423,4.007v9.993c-2.131.844-3.341,2.139-3.341,3.607,0,1.331,1,2.531,2.81,3.377a14.543,14.543,0,0,0,6,1.171,14.536,14.536,0,0,0,6-1.171c1.813-.847,2.813-2.046,2.813-3.377,0-1.468-1.21-2.763-3.343-3.607ZM33.2,67.842H1.622V67.2H33.2ZM3.795,60.06H6.564v5.517H3.795Zm8.156-7.41H14.72V65.578H11.95Zm8.155,3h2.77v9.932h-2.77Zm8.156-8.757h2.77V65.578h-2.77Zm6.563,21.764a.811.811,0,0,1-.811.811H.811A.811.811,0,0,1,0,68.653V66.389a.811.811,0,0,1,.811-.811H2.172V59.249a.811.811,0,0,1,.811-.811H7.375a.811.811,0,0,1,.811.811v6.329h2.141V51.839a.811.811,0,0,1,.811-.811h4.392a.811.811,0,0,1,.811.811V65.578h2.142V54.834a.811.811,0,0,1,.811-.811h4.392a.812.812,0,0,1,.811.811V65.578h2.14v-19.5a.811.811,0,0,1,.811-.811h4.393a.811.811,0,0,1,.811.811v19.5h1.36a.811.811,0,0,1,.811.811v2.264Zm-29.646-17a1.073,1.073,0,1,0,1.073,1.073A1.075,1.075,0,0,0,5.179,51.653ZM13.334,45.3a1.073,1.073,0,1,0,1.074,1.073A1.074,1.074,0,0,0,13.334,45.3Zm8.157,1.712a1.073,1.073,0,1,0,1.073,1.073A1.073,1.073,0,0,0,21.491,47.015Zm8.155-7.294a1.073,1.073,0,1,1-1.073,1.073,1.075,1.075,0,0,1,1.073-1.073ZM5.179,55.421a2.7,2.7,0,0,0,2.527-3.634l4.1-3.193a2.692,2.692,0,0,0,3.877-.9l3.126.656a2.7,2.7,0,1,0,5.138-1.374l4.326-3.868a2.7,2.7,0,1,0-1.082-1.21L22.865,45.77a2.693,2.693,0,0,0-3.721,1l-3.126-.656a2.7,2.7,0,1,0-5.209,1.2l-4.1,3.193a2.695,2.695,0,1,0-1.529,4.914Z" transform="translate(0 -30.8)" fill="#434343" fill-rule="evenodd"/>
</svg>
