<svg xmlns="http://www.w3.org/2000/svg" width="33.866" height="45.618" viewBox="0 0 33.866 45.618">
  <g id="android" transform="translate(-43.216 1)">
    <path id="Path_3209" data-name="Path 3209" d="M63.382,45.618a2.777,2.777,0,0,0,2.538-2.855V36.094h1.695a1.709,1.709,0,0,0,1.695-1.907V15.141H48.987V34.188a1.709,1.709,0,0,0,1.695,1.907h1.7v6.669a2.556,2.556,0,1,0,5.077,0V36.094h3.39v6.669A2.777,2.777,0,0,0,63.382,45.618Zm10.162-11.43a2.777,2.777,0,0,0,2.538-2.855V18a2.556,2.556,0,1,0-5.077,0V31.332A2.777,2.777,0,0,0,73.544,34.188Zm-28.79,0a2.777,2.777,0,0,0,2.538-2.855V18a2.781,2.781,0,0,0-2.538-2.854A2.781,2.781,0,0,0,42.216,18V31.332A2.777,2.777,0,0,0,44.754,34.188ZM67.276.288a.751.751,0,0,0-1.182,0L63.821,2.837l-.1.118a9.125,9.125,0,0,0-4.542-1.142h-.05a9.125,9.125,0,0,0-4.542,1.142l-.105-.118L52.2.288a.751.751,0,0,0-1.182,0,1,1,0,0,0,0,1.329l2.2,2.474a9.632,9.632,0,0,0-1.91,1.928A12.011,12.011,0,0,0,49,12.639c0,.026,0,.052,0,.078q-.011.258-.011.516H69.31q0-.259-.011-.516c0-.026,0-.052,0-.078a12.007,12.007,0,0,0-2.308-6.62,9.626,9.626,0,0,0-1.91-1.928l2.2-2.474a1,1,0,0,0,0-1.329ZM54.913,9.9a1.356,1.356,0,0,1-1.27-1.428,1.279,1.279,0,1,1,2.54,0A1.356,1.356,0,0,1,54.913,9.9Zm8.473,0a1.356,1.356,0,0,1-1.27-1.428,1.279,1.279,0,1,1,2.539,0A1.356,1.356,0,0,1,63.385,9.9Z" transform="translate(1 -1)" fill="#a6d864"/>
  </g>
</svg>
