<svg xmlns="http://www.w3.org/2000/svg" width="59.54" height="59.54" viewBox="0 0 59.54 59.54">
  <g id="augmented" transform="translate(0 -0.001)">
    <g id="Group_4597" data-name="Group 4597" transform="translate(0 0.001)">
      <path id="Path_3667" data-name="Path 3667" d="M58.9,52.893a2.044,2.044,0,0,1-2.1,1.985h-3.85L51.066,50.6h-.109l-2.9-.486a1.985,1.985,0,0,1-1.558-1.33L45.439,45.6a1.985,1.985,0,0,1,.992-2.411l1.052-.526h.109L45.995,39h1.756a4.267,4.267,0,0,1,3.562,1.866l7.254,10.975a1.852,1.852,0,0,1,.327,1.052Z" transform="translate(-0.348 -0.3)" fill="#3f51b5"/>
      <path id="Path_3668" data-name="Path 3668" d="M58.573,51.841,51.319,40.866A4.267,4.267,0,0,0,47.756,39H46l.09.206a4.192,4.192,0,0,1,2.252,1.659L55.6,51.841a1.852,1.852,0,0,1,.327,1.052,2.044,2.044,0,0,1-2.1,1.985H56.8a2.044,2.044,0,0,0,2.1-1.985A1.852,1.852,0,0,0,58.573,51.841Z" transform="translate(-0.353 -0.3)" fill="#283593"/>
      <path id="Path_3669" data-name="Path 3669" d="M52.655,54.877H8L14.946,39h2.4l4.545,6.946H37.77L42.315,39h3.394l1.6,3.662H47.2l-1.052.526a1.985,1.985,0,0,0-.992,2.411l1.062,3.185a1.985,1.985,0,0,0,1.558,1.33l2.9.486h.109Z" transform="translate(-0.061 -0.3)" fill="#02a9f4"/>
      <path id="Path_3670" data-name="Path 3670" d="M14.893,39,7.946,54.877H3.1A2.044,2.044,0,0,1,1,52.893a1.852,1.852,0,0,1,.327-1.052L8.581,40.866A4.267,4.267,0,0,1,12.144,39Z" transform="translate(-0.008 -0.3)" fill="#3f51b5"/>
      <path id="Path_3671" data-name="Path 3671" d="M58.555,53v3.969a1.991,1.991,0,0,1-1.985,1.985H2.985A1.991,1.991,0,0,1,1,56.969V53a2.044,2.044,0,0,0,2.1,1.985H56.452A2.044,2.044,0,0,0,58.555,53Z" transform="translate(-0.008 -0.407)" fill="#3f51b5"/>
      <path id="Path_3672" data-name="Path 3672" d="M56.858,54.985h-.873v1.985A1.991,1.991,0,0,1,54,58.954h2.977a1.991,1.991,0,0,0,1.985-1.985V53a2.044,2.044,0,0,1-2.1,1.985Z" transform="translate(-0.414 -0.407)" fill="#283593"/>
      <path id="Path_3673" data-name="Path 3673" d="M42.8,7.946V21.839L29.9,28.785,17,21.839V7.946L29.9,1Z" transform="translate(-0.13 -0.008)" fill="#ffdc00"/>
      <path id="Path_3674" data-name="Path 3674" d="M29.989,1,28.5,1.8,39.912,7.946V21.839L28.5,27.984l1.489.8,12.9-6.946V7.946Z" transform="translate(-0.218 -0.008)" fill="#fec108"/>
      <g id="Group_4596" data-name="Group 4596" transform="translate(15.877 6.945)">
        <path id="Path_3675" data-name="Path 3675" d="M33.392,11.931l-3.5,1.881-3.5-1.885a.993.993,0,0,0-.941,1.748L28.9,15.534v2.382a.992.992,0,1,0,1.985,0V15.534l3.447-1.853a.993.993,0,1,0-.941-1.748ZM21.432,9.252,17.463,7.118a.993.993,0,1,0-.941,1.748L20.491,11a.993.993,0,0,0,.941-1.748Zm22.235-1.73a.992.992,0,0,0-1.345-.4L38.353,9.252A.993.993,0,0,0,39.294,11l3.969-2.134a.992.992,0,0,0,.4-1.345ZM29.893,22.877a.992.992,0,0,0-.992.992v4.962a.992.992,0,1,0,1.985,0V23.87A.992.992,0,0,0,29.893,22.877Z" transform="translate(-15.999 -6.999)" fill="#ff9801"/>
      </g>
      <path id="Path_3676" data-name="Path 3676" d="M51.792,40.162A5.242,5.242,0,0,0,47.4,37.854H44.085L55.409,20.535a.992.992,0,1,0-1.661-1.086L37.172,44.8h-14.8L5.792,19.45a.992.992,0,1,0-1.661,1.086L15.455,37.854H12.136a5.242,5.242,0,0,0-4.39,2.311L.5,51.131A2.82,2.82,0,0,0,0,52.739v3.969a2.977,2.977,0,0,0,2.977,2.977H56.563a2.977,2.977,0,0,0,2.977-2.977V52.739a2.805,2.805,0,0,0-.5-1.6Zm-36.258-.323h1.219L21,46.336a.992.992,0,0,0,.831.45H37.709a.992.992,0,0,0,.831-.449l4.248-6.5H45L45.94,42l-.3.152a3,3,0,0,0-1.488,3.61l1.061,3.181a2.959,2.959,0,0,0,2.337,2l2.486.417,1.043,2.375H9.456ZM2.147,52.234,9.4,41.263a3.263,3.263,0,0,1,2.737-1.424h1.231L7.29,53.732H3.1a1.057,1.057,0,0,1-1.111-.992A.87.87,0,0,1,2.147,52.234Zm55.408,4.474a.992.992,0,0,1-.992.992H2.977a.992.992,0,0,1-.992-.992v-1.2a3.176,3.176,0,0,0,1.111.206H56.444a3.176,3.176,0,0,0,1.111-.206Zm-1.111-2.977h-3.2l-1.616-3.683a.992.992,0,0,0-.909-.6l-2.846-.473a.992.992,0,0,1-.777-.664l-1.063-3.188a.992.992,0,0,1,.5-1.207l.863-.432a.992.992,0,0,0,.763-1.378l-.992-2.272h.24a3.263,3.263,0,0,1,2.735,1.42L57.4,52.243a.867.867,0,0,1,.156.5,1.057,1.057,0,0,1-1.111.992Z" transform="translate(0 -0.146)"/>
      <path id="Path_3677" data-name="Path 3677" d="M16.522,22.7l12.9,6.946a.992.992,0,0,0,.941,0l12.9-6.946a.992.992,0,0,0,.522-.873V7.939a.992.992,0,0,0-.522-.873L30.363.119a.992.992,0,0,0-.941,0l-12.9,6.946A.992.992,0,0,0,16,7.939V21.831a.992.992,0,0,0,.522.873ZM17.985,8.534,29.893,2.12,41.8,8.534v12.7L29.893,27.65,17.985,21.236Z" transform="translate(-0.123 -0.001)"/>
    </g>
  </g>
</svg>
