<svg xmlns="http://www.w3.org/2000/svg" width="45.188" height="45.188" viewBox="0 0 45.188 45.188">
  <g id="Automation" transform="translate(-3 -3)">
    <path id="Path_7688" data-name="Path 7688" d="M40.4,23.257V6.116A3.116,3.116,0,0,0,37.28,3H6.116A3.116,3.116,0,0,0,3,6.116v17.14S40.3,23.208,40.4,23.257Z" transform="translate(0 0)" fill="#d5dbdb"/>
    <path id="Path_7689" data-name="Path 7689" d="M23.141,24.14h1.871l0,0-.753-2.483.9-.651a16.439,16.439,0,0,1,2.815-1.636L29,18.9l1.786,1.917q.293-.086.592-.16l.592-2.537,1.092-.124a14.708,14.708,0,0,1,1.649-.087A14.5,14.5,0,0,1,36.358,18l.689.078V7H9V24.14H21.865l.229-.316Z" transform="translate(-1.325 -0.884)" fill="#edfcfc"/>
    <path id="Path_7690" data-name="Path 7690" d="M9,7H37.048v6.233H9Z" transform="translate(-1.325 -0.884)" fill="#fda22e"/>
    <path id="Path_7691" data-name="Path 7691" d="M19.339,49.039,20.451,48H9a3.116,3.116,0,0,0,3.116,3.116h8.225q-.284-.518-.532-1.055Z" transform="translate(-1.325 -9.94)" fill="#4bbee5"/>
    <path id="Path_7692" data-name="Path 7692" d="M22.582,44.818q-.087-.293-.159-.591l-2.539-.592-.122-1.095a15.558,15.558,0,0,1,0-3.291l.122-1.095,2.538-.592c.046-.189.1-.376.153-.563h-4.46L15,45.57h6.777Z" transform="translate(-2.651 -7.511)" fill="#3c7eb0"/>
    <path id="Path_7693" data-name="Path 7693" d="M19.933,35.2l-1.9-1.782.454-1.014a15.829,15.829,0,0,1,1.633-2.826l.421-.58H3v3.116a3.116,3.116,0,0,0,3.116,3.116H19.925q0-.015.008-.03Zm3.321-5.768c.142-.148.286-.292.433-.434H21.815Z" transform="translate(0 -5.743)" fill="#4bbee5"/>
    <path id="Path_7694" data-name="Path 7694" d="M48.363,22.06l-1.773,1.9q-.3-.087-.6-.16L45.4,21.258l-.4-.045V27.28h4.675V22.652c-.1-.048-.2-.1-.3-.15Z" transform="translate(-9.278 -4.023)" fill="#b9baba"/>
    <path id="Path_7695" data-name="Path 7695" d="M40.006,21.088a15.465,15.465,0,0,0-3.3,0l-1.092.124-.592,2.537c-.2.048-.4.1-.592.16l-1.786-1.917-1.022.467a16.387,16.387,0,0,0-2.815,1.636l-.9.651.753,2.483,0,0H40.7V21.167ZM25.742,26.917l-.23.316h1.276Z" transform="translate(-4.973 -3.976)" fill="#d5dbdb"/>
    <path id="Path_7696" data-name="Path 7696" d="M24.155,49.41,25.667,48H23.382l-1.113,1.039.471,1.022c.168.366.348.718.532,1.055h1.8A14.981,14.981,0,0,1,24.155,49.41Z" transform="translate(-4.257 -9.94)" fill="#4198ce"/>
    <path id="Path_7697" data-name="Path 7697" d="M23.748,37.563l-2.538.592-.122,1.095a15.558,15.558,0,0,0,0,3.291l.122,1.095,2.539.592q.072.3.159.591l-.806.752h2.284l.319-.3a11.752,11.752,0,0,1-.631-2.337l-2.439-.569a13.954,13.954,0,0,1,0-2.945l2.439-.569A11.317,11.317,0,0,1,25.534,37H23.9q-.083.28-.153.563Z" transform="translate(-3.976 -7.511)" fill="#296991"/>
    <path id="Path_7698" data-name="Path 7698" d="M27.515,29.434,26.077,29H24.8l-.421.58a15.951,15.951,0,0,0-1.633,2.826l-.454,1.014,1.9,1.782q0,.015-.008.03H25.82c.055-.164.109-.327.171-.483l-1.823-1.706A14.257,14.257,0,0,1,25.641,30.5l2.376.717A12.726,12.726,0,0,1,29.731,29.5l-.148-.5H27.948c-.147.142-.291.286-.433.434Z" transform="translate(-4.262 -5.743)" fill="#4198ce"/>
    <path id="Path_7699" data-name="Path 7699" d="M25.828,42.478l.319-.3a11.752,11.752,0,0,1-.631-2.337l-2.439-.569a13.954,13.954,0,0,1,0-2.945l2.439-.569a11.317,11.317,0,0,1,.46-1.854c.055-.164.109-.327.171-.483l-1.823-1.706A14.258,14.258,0,0,1,25.8,29.17l2.376.717a12.726,12.726,0,0,1,1.714-1.714l-.148-.5L29.17,25.8a14.782,14.782,0,0,1,2.548-1.48l1.706,1.831a11.752,11.752,0,0,1,2.337-.631l.569-2.439a13.954,13.954,0,0,1,2.945,0l.569,2.439a11.752,11.752,0,0,1,2.337.631l1.706-1.823c.319.14.623.3.927.46A13.417,13.417,0,0,1,46.435,25.8l-.717,2.376a12.726,12.726,0,0,1,1.714,1.714l2.376-.717a14.782,14.782,0,0,1,1.48,2.548l-1.831,1.706a11.752,11.752,0,0,1,.631,2.337l2.439.569a13.954,13.954,0,0,1,0,2.945l-2.439.569a11.752,11.752,0,0,1-.631,2.337l1.823,1.706a14.258,14.258,0,0,1-1.472,2.548l-2.376-.717a12.726,12.726,0,0,1-1.714,1.714l.717,2.376a14.782,14.782,0,0,1-2.548,1.48l-1.706-1.831a11.752,11.752,0,0,1-2.337.631l-.569,2.439a13.955,13.955,0,0,1-2.945,0l-.569-2.439a11.752,11.752,0,0,1-2.337-.631l-1.706,1.823a14.258,14.258,0,0,1-2.548-1.472l.717-2.376a12.726,12.726,0,0,1-1.714-1.714l-2.376.717c-.195-.273-.39-.553-.561-.841a14.939,14.939,0,0,1-.919-1.706ZM42.478,37.8A4.675,4.675,0,1,0,37.8,42.478,4.678,4.678,0,0,0,42.478,37.8Z" transform="translate(-4.418 -4.418)" fill="#f82f45"/>
    <path id="Path_7700" data-name="Path 7700" d="M40.233,34a6.233,6.233,0,1,0,6.233,6.233A6.233,6.233,0,0,0,40.233,34Zm0,10.907a4.675,4.675,0,1,1,4.675-4.675A4.675,4.675,0,0,1,40.233,44.907Z" transform="translate(-6.848 -6.848)" fill="#d22435"/>
    <g id="Group_4869" data-name="Group 4869" transform="translate(10.012 8.454)">
      <path id="Path_7701" data-name="Path 7701" d="M32.028,11.007l-1.1,1.1L32.713,13.9H22.907a3.9,3.9,0,0,0-3.9,3.9v4.675H20.57V17.791a2.34,2.34,0,0,1,2.337-2.337h9.806L30.927,17.24l1.1,1.1L35.7,14.675ZM12,10h1.558v1.558H12Zm3.116,0h1.558v1.558H15.116Zm3.116,0h1.558v1.558H18.233Z" transform="translate(-12 -10)" fill="#2d366d"/>
    </g>
    <path id="Path_7702" data-name="Path 7702" d="M39.777,48.692l-.07-1.557a7.841,7.841,0,0,0,1.384-.187l.347,1.519a9.5,9.5,0,0,1-1.66.224Zm-2.5-.22a9.282,9.282,0,0,1-1.6-.516l.612-1.434a7.731,7.731,0,0,0,1.327.429Zm6.505-.888-.739-1.371a7.924,7.924,0,0,0,1.164-.771l.972,1.217a9.269,9.269,0,0,1-1.4.925ZM33.53,46.67a9.4,9.4,0,0,1-1.213-1.156l1.172-1.027a7.825,7.825,0,0,0,1.01.964Zm13.385-1.825-1.26-.917a7.822,7.822,0,0,0,.717-1.2l1.4.676a9.318,9.318,0,0,1-.86,1.439ZM30.931,43.424a9.347,9.347,0,0,1-.591-1.568l1.5-.414a7.7,7.7,0,0,0,.492,1.3Zm17.619-2.4-1.534-.277a7.872,7.872,0,0,0,.124-1.391l1.558-.034v.034A9.439,9.439,0,0,1,48.55,41.02ZM30,39.369v-.017a9.327,9.327,0,0,1,.146-1.649l1.534.273a7.869,7.869,0,0,0-.122,1.376Zm16.853-2.12a7.614,7.614,0,0,0-.494-1.3l1.4-.682a9.29,9.29,0,0,1,.6,1.568ZM32.32,35.988l-1.4-.674a9.324,9.324,0,0,1,.858-1.44l1.261.914a7.8,7.8,0,0,0-.714,1.2ZM45.2,34.207a7.9,7.9,0,0,0-1.014-.963l.969-1.22a9.433,9.433,0,0,1,1.214,1.153Zm-10.723-.935L33.5,32.057A9.416,9.416,0,0,1,34.9,31.13l.744,1.37a7.8,7.8,0,0,0-1.162.773Zm7.91-1.1a7.736,7.736,0,0,0-1.328-.427l.341-1.52a9.24,9.24,0,0,1,1.6.513Zm-4.794-.416-.35-1.518a9.3,9.3,0,0,1,1.66-.227l.073,1.557A7.863,7.863,0,0,0,37.593,31.76Z" transform="translate(-5.964 -5.967)" fill="#d5dbdb"/>
  </g>
</svg>
