<svg id="Group_4481" data-name="Group 4481" xmlns="http://www.w3.org/2000/svg" width="274" height="274" viewBox="0 0 274 274">
  <path id="Path_2958" data-name="Path 2958" d="M56.675,32.322H43.561A4.905,4.905,0,0,1,39,27.761,4.905,4.905,0,0,1,43.561,23.2H56.675a4.905,4.905,0,0,1,4.561,4.561A4.905,4.905,0,0,1,56.675,32.322Z" transform="translate(183.358 109.075)" fill="#3caed6"/>
  <ellipse id="Ellipse_2164" data-name="Ellipse 2164" cx="17.5" cy="17" rx="17.5" ry="17" transform="translate(239 120)" fill="#56cced"/>
  <path id="Path_2959" data-name="Path 2959" d="M40.079,42.578a8.1,8.1,0,0,1-3.421-1.14,4.474,4.474,0,0,1,0-6.272L57.183,14.64A4.82,4.82,0,0,1,60.6,13.5H73.718a4.905,4.905,0,0,1,4.561,4.561,4.905,4.905,0,0,1-4.561,4.561h-11.4L42.929,42.007a24.693,24.693,0,0,1-2.851.57Z" transform="translate(166.315 63.47)" fill="#efc75e"/>
  <circle id="Ellipse_2165" data-name="Ellipse 2165" cx="17.104" cy="17.104" r="17.104" transform="translate(239.463 63.857)" fill="#ffd576"/>
  <path id="Path_2960" data-name="Path 2960" d="M73.718,58.7H60.6a8.1,8.1,0,0,1-3.421-1.14L36.658,37.029a4.435,4.435,0,0,1,6.272-6.272L62.315,50.143h11.4A4.905,4.905,0,0,1,78.279,54.7c0,2.281-2.281,3.991-4.561,3.991Z" transform="translate(166.315 138.577)" fill="#ccd0d2"/>
  <circle id="Ellipse_2166" data-name="Ellipse 2166" cx="17.104" cy="17.104" r="17.104" transform="translate(239.463 175.606)" fill="#e4e7e7"/>
  <path id="Path_2961" data-name="Path 2961" d="M22.775,32.322H9.661A4.905,4.905,0,0,1,5.1,27.761,4.905,4.905,0,0,1,9.661,23.2H22.775a4.561,4.561,0,1,1,0,9.122Z" transform="translate(23.978 109.075)" fill="#ed655f"/>
  <circle id="Ellipse_2167" data-name="Ellipse 2167" cx="17" cy="17" r="17" transform="translate(0 120)" fill="#ff8080"/>
  <path id="Path_2962" data-name="Path 2962" d="M22.775,59.165H9.661A4.905,4.905,0,0,1,5.1,54.6a4.905,4.905,0,0,1,4.561-4.561h11.4L40.449,30.658a4.435,4.435,0,0,1,6.272,6.272L26.2,57.455a4.928,4.928,0,0,1-3.421,1.71Z" transform="translate(23.978 138.106)" fill="#3caed6"/>
  <circle id="Ellipse_2168" data-name="Ellipse 2168" cx="17.104" cy="17.104" r="17.104" transform="translate(0 175.606)" fill="#56cced"/>
  <path id="Path_2963" data-name="Path 2963" d="M43.77,43.048a8.1,8.1,0,0,1-3.421-1.14L20.964,22.522H9.561A4.905,4.905,0,0,1,5,17.961,4.905,4.905,0,0,1,9.561,13.4H22.675A8.1,8.1,0,0,1,26.1,14.54L46.621,35.066a4.474,4.474,0,0,1,0,6.272,3.135,3.135,0,0,1-2.851,1.71Z" transform="translate(23.507 63)" fill="#51bba8"/>
  <circle id="Ellipse_2169" data-name="Ellipse 2169" cx="17.104" cy="17.104" r="17.104" transform="translate(0 63.857)" fill="#72d6c3"/>
  <path id="Path_2964" data-name="Path 2964" d="M27.761,61.236A4.905,4.905,0,0,1,23.2,56.675V43.561A4.905,4.905,0,0,1,27.761,39a4.905,4.905,0,0,1,4.561,4.561V56.675A4.905,4.905,0,0,1,27.761,61.236Z" transform="translate(109.075 183.358)" fill="#51bba8"/>
  <ellipse id="Ellipse_2170" data-name="Ellipse 2170" cx="17" cy="17.5" rx="17" ry="17.5" transform="translate(120 239)" fill="#72d6c3"/>
  <path id="Path_2965" data-name="Path 2965" d="M54.6,78.279a4.905,4.905,0,0,1-4.561-4.561v-11.4L30.658,42.929a4.435,4.435,0,0,1,6.272-6.272L57.455,57.183A4.82,4.82,0,0,1,58.6,60.6V73.718c.57,2.281-1.14,4.561-3.991,4.561Z" transform="translate(138.106 166.315)" fill="#ed655f"/>
  <circle id="Ellipse_2171" data-name="Ellipse 2171" cx="17.104" cy="17.104" r="17.104" transform="translate(175.606 239.463)" fill="#ff8080"/>
  <path id="Path_2966" data-name="Path 2966" d="M17.961,78.279A4.905,4.905,0,0,1,13.4,73.718V60.6a8.1,8.1,0,0,1,1.14-3.421L35.066,36.658a4.435,4.435,0,0,1,6.272,6.272L21.952,62.315v11.4c0,2.281-1.71,4.561-3.991,4.561Z" transform="translate(63 166.316)" fill="#efc75e"/>
  <circle id="Ellipse_2172" data-name="Ellipse 2172" cx="17.104" cy="17.104" r="17.104" transform="translate(63.857 239.463)" fill="#ffd576"/>
  <path id="Path_2967" data-name="Path 2967" d="M27.761,27.336A4.905,4.905,0,0,1,23.2,22.775V9.661A4.905,4.905,0,0,1,27.761,5.1a4.905,4.905,0,0,1,4.561,4.561V22.775A4.5,4.5,0,0,1,27.761,27.336Z" transform="translate(109.075 23.978)" fill="#ed655f"/>
  <circle id="Ellipse_2173" data-name="Ellipse 2173" cx="17" cy="17" r="17" transform="translate(120)" fill="#ff8080"/>
  <path id="Path_2968" data-name="Path 2968" d="M38.487,47.861a8.1,8.1,0,0,1-3.421-1.14L14.54,26.2a4.82,4.82,0,0,1-1.14-3.421V9.661A4.905,4.905,0,0,1,17.961,5.1a4.905,4.905,0,0,1,4.561,4.561v11.4L41.907,40.449a4.474,4.474,0,0,1,0,6.272A4.189,4.189,0,0,1,38.487,47.861Z" transform="translate(63 23.978)" fill="#ccd0d2"/>
  <circle id="Ellipse_2174" data-name="Ellipse 2174" cx="17.104" cy="17.104" r="17.104" transform="translate(63.857)" fill="#e4e7e7"/>
  <path id="Path_2969" data-name="Path 2969" d="M34.079,47.861a8.1,8.1,0,0,1-3.421-1.14,4.474,4.474,0,0,1,0-6.272L50.043,21.064V9.661A4.905,4.905,0,0,1,54.6,5.1a4.905,4.905,0,0,1,4.561,4.561V22.775a8.1,8.1,0,0,1-1.14,3.421L37.5,46.721a4.189,4.189,0,0,1-3.421,1.14Z" transform="translate(138.106 23.978)" fill="#51bba8"/>
  <circle id="Ellipse_2175" data-name="Ellipse 2175" cx="17.104" cy="17.104" r="17.104" transform="translate(175.606)" fill="#72d6c3"/>
  <path id="Path_2970" data-name="Path 2970" d="M121.428,87.59a38.285,38.285,0,0,1-5.7,13.113l9.693,12.543L111.736,126.93l-12.543-9.693a53.776,53.776,0,0,1-13.113,5.7l-1.71,15.394H64.984l-1.14-15.964a38.285,38.285,0,0,1-13.113-5.7L38.187,126.36,24.5,112.676,34.2,100.133a53.775,53.775,0,0,1-5.7-13.113L13.1,85.309V65.924l15.394-1.71A38.284,38.284,0,0,1,34.2,51.1L24.5,38.557,38.187,24.873,50.73,34.566a53.775,53.775,0,0,1,13.113-5.7L65.554,12.9H84.939l1.71,15.394A38.284,38.284,0,0,1,99.763,34L112.306,24.3,125.99,37.987,116.3,50.53A53.776,53.776,0,0,1,122,63.643l15.394,1.71V84.739Z" transform="translate(61.59 60.649)" fill="#4d6a77"/>
  <circle id="Ellipse_2176" data-name="Ellipse 2176" cx="21.096" cy="21.096" r="21.096" transform="translate(115.74 115.74)" fill="#fff"/>
</svg>
