<svg xmlns="http://www.w3.org/2000/svg" width="512.002" height="512.102" viewBox="0 0 512.002 512.102">
  <g id="Group_4483" data-name="Group 4483" transform="translate(-0.051)">
    <g id="Group_4482" data-name="Group 4482">
      <path id="Path_2971" data-name="Path 2971" d="M397.6,399.2l-97.657-93.217a7.727,7.727,0,1,1,10.67-11.178l97.657,93.217A7.727,7.727,0,1,1,397.6,399.2ZM206.97,216.693l-97.856-93.746a7.727,7.727,0,1,1,10.691-11.16l97.856,93.747a7.727,7.727,0,1,1-10.692,11.16ZM103.578,398.947a7.727,7.727,0,0,1,.255-10.924L201.5,294.806a7.727,7.727,0,1,1,10.669,11.179L114.5,399.2a7.728,7.728,0,0,1-10.924-.255ZM291.34,219.205a7.728,7.728,0,0,1,.234-10.925L392.3,111.787a7.727,7.727,0,1,1,10.692,11.16L302.265,219.44a7.728,7.728,0,0,1-10.925-.235ZM388,78.565H122.216a7.726,7.726,0,0,1,0-15.452H388a7.726,7.726,0,1,1,0,15.452Zm0,370.323H122.216a7.726,7.726,0,0,1,0-15.452H388a7.726,7.726,0,1,1,0,15.452ZM65.89,377.83a7.726,7.726,0,0,1-7.726-7.726V139.344a7.726,7.726,0,1,1,15.452,0V370.1A7.726,7.726,0,0,1,65.89,377.83Zm380.322,0a7.726,7.726,0,0,1-7.726-7.726V139.344a7.726,7.726,0,1,1,15.452,0V370.1a7.726,7.726,0,0,1-7.726,7.726Z" fill="#dfebfa"/>
    </g>
    <path id="Path_2972" data-name="Path 2972" d="M122.984,30.95,69.574.963a7.526,7.526,0,0,0-7.367,0L8.8,30.95A14.9,14.9,0,0,0,2.756,37.3L65.891,73.929,129.026,37.3a14.9,14.9,0,0,0-6.042-6.347Z" fill="#fee55a"/>
    <path id="Path_2973" data-name="Path 2973" d="M34.418,54.481a15.549,15.549,0,0,1,6.305-6.624L96.462,16.563c.158-.088.323-.155.485-.232L69.574.963a7.526,7.526,0,0,0-7.367,0L8.8,30.95A14.9,14.9,0,0,0,2.756,37.3l31.229,18.12C34.126,55.1,34.264,54.789,34.418,54.481Z" fill="#ffd301"/>
    <path id="Path_2974" data-name="Path 2974" d="M2.756,37.3A25.768,25.768,0,0,0,.051,48.79v62.094a7.523,7.523,0,0,0,3.994,6.644L56.208,145.24a20.642,20.642,0,0,0,9.683,2.413l1.37-76.172Z" fill="#ffc20c"/>
    <path id="Path_2975" data-name="Path 2975" d="M31.595,131.276v-64.8a26.9,26.9,0,0,1,2.822-11.994c.053-.107.116-.208.171-.314L2.756,37.3A25.767,25.767,0,0,0,.052,48.79v62.094a7.523,7.523,0,0,0,3.994,6.644L31.66,132.2a7.62,7.62,0,0,1-.065-.922Z" fill="#ffa90f"/>
    <path id="Path_2976" data-name="Path 2976" d="M129.025,37.3,65.891,70.838v76.814a20.631,20.631,0,0,0,9.684-2.414l52.162-27.711a7.523,7.523,0,0,0,3.994-6.644V48.79a25.777,25.777,0,0,0-2.7-11.488Z" fill="#ffd301"/>
    <path id="Path_2977" data-name="Path 2977" d="M313.145,213.226l-53.41-29.986a7.526,7.526,0,0,0-7.367,0l-53.41,29.986a14.9,14.9,0,0,0-6.041,6.347L256.052,256.2l63.135-36.632a14.9,14.9,0,0,0-6.042-6.347Z" fill="#60b8fe"/>
    <path id="Path_2978" data-name="Path 2978" d="M224.579,236.757a15.549,15.549,0,0,1,6.3-6.624l55.739-31.294c.158-.088.323-.155.485-.232l-27.372-15.368a7.526,7.526,0,0,0-7.367,0l-53.41,29.986a14.9,14.9,0,0,0-6.041,6.347l31.229,18.12c.14-.313.278-.627.432-.935Z" fill="#22a7ff"/>
    <path id="Path_2979" data-name="Path 2979" d="M192.917,219.573a25.768,25.768,0,0,0-2.705,11.493V293.16a7.523,7.523,0,0,0,3.994,6.644l52.163,27.712a20.641,20.641,0,0,0,9.683,2.413l1.37-76.172Z" fill="#0094fd"/>
    <path id="Path_2980" data-name="Path 2980" d="M221.756,313.552v-64.8a26.9,26.9,0,0,1,2.822-11.994c.053-.107.116-.208.171-.314l-31.833-16.87a25.767,25.767,0,0,0-2.7,11.493V293.16a7.523,7.523,0,0,0,3.994,6.644l27.614,14.67a7.829,7.829,0,0,1-.064-.922Z" fill="#0084fd"/>
    <path id="Path_2981" data-name="Path 2981" d="M319.186,219.573l-63.135,33.542v76.814a20.631,20.631,0,0,0,9.684-2.414L317.9,299.8a7.523,7.523,0,0,0,3.994-6.644V231.066a25.768,25.768,0,0,0-2.7-11.493Z" fill="#22a7ff"/>
    <path id="Path_2982" data-name="Path 2982" d="M122.984,395.4l-53.41-29.986a7.526,7.526,0,0,0-7.367,0L8.8,395.4a14.9,14.9,0,0,0-6.041,6.347l63.135,36.632,63.135-36.632a14.915,14.915,0,0,0-6.042-6.347Z" fill="#fee55a"/>
    <path id="Path_2983" data-name="Path 2983" d="M34.418,418.93a15.549,15.549,0,0,1,6.305-6.624l55.739-31.294c.158-.088.323-.155.485-.232L69.575,365.412a7.526,7.526,0,0,0-7.367,0L8.8,395.4a14.9,14.9,0,0,0-6.041,6.347l31.229,18.12c.14-.312.278-.627.432-.935Z" fill="#ffd301"/>
    <path id="Path_2984" data-name="Path 2984" d="M2.756,401.746a25.768,25.768,0,0,0-2.7,11.493v62.094a7.523,7.523,0,0,0,3.994,6.644l52.163,27.712a20.641,20.641,0,0,0,9.683,2.413l1.37-76.172Z" fill="#ffc20c"/>
    <path id="Path_2985" data-name="Path 2985" d="M31.595,495.726v-64.8a26.9,26.9,0,0,1,2.822-11.994c.053-.107.116-.208.171-.314L2.755,401.747a25.767,25.767,0,0,0-2.7,11.493v62.094a7.523,7.523,0,0,0,3.994,6.644l27.614,14.67a7.831,7.831,0,0,1-.064-.922Z" fill="#ffa90f"/>
    <path id="Path_2986" data-name="Path 2986" d="M129.025,401.746,65.89,435.288V512.1a20.631,20.631,0,0,0,9.684-2.414l52.162-27.711a7.523,7.523,0,0,0,3.994-6.644V413.239a25.774,25.774,0,0,0-2.705-11.493Z" fill="#ffd301"/>
    <path id="Path_2987" data-name="Path 2987" d="M503.3,30.95,449.895.964a7.526,7.526,0,0,0-7.367,0L389.118,30.95a14.9,14.9,0,0,0-6.041,6.347l63.135,36.632L509.347,37.3A14.893,14.893,0,0,0,503.3,30.95Z" fill="#fee55a"/>
    <path id="Path_2988" data-name="Path 2988" d="M414.739,54.481a15.549,15.549,0,0,1,6.3-6.624l55.739-31.294c.158-.088.323-.155.485-.232L449.9.963a7.526,7.526,0,0,0-7.367,0l-53.41,29.986a14.9,14.9,0,0,0-6.041,6.347l31.229,18.12C414.448,55.1,414.586,54.789,414.739,54.481Z" fill="#ffd301"/>
    <path id="Path_2989" data-name="Path 2989" d="M383.077,37.3a25.768,25.768,0,0,0-2.7,11.493v62.094a7.523,7.523,0,0,0,3.994,6.644l52.163,27.712a20.642,20.642,0,0,0,9.683,2.413l1.37-76.172Z" fill="#ffc20c"/>
    <path id="Path_2990" data-name="Path 2990" d="M411.917,131.276v-64.8a26.9,26.9,0,0,1,2.822-11.994c.053-.107.116-.208.171-.314L383.077,37.3a25.767,25.767,0,0,0-2.7,11.493v62.094a7.523,7.523,0,0,0,3.994,6.644l27.614,14.67a7.623,7.623,0,0,1-.064-.922Z" fill="#ffa90f"/>
    <path id="Path_2991" data-name="Path 2991" d="M509.347,37.3,446.212,70.839v76.814a20.631,20.631,0,0,0,9.684-2.414l52.162-27.711a7.523,7.523,0,0,0,3.994-6.644V48.79a25.788,25.788,0,0,0-2.7-11.488Z" fill="#ffd301"/>
    <path id="Path_2992" data-name="Path 2992" d="M503.3,395.4l-53.41-29.986a7.526,7.526,0,0,0-7.367,0L389.118,395.4a14.9,14.9,0,0,0-6.041,6.347l63.135,36.632,63.135-36.632a14.9,14.9,0,0,0-6.042-6.347Z" fill="#fee55a"/>
    <path id="Path_2993" data-name="Path 2993" d="M414.739,418.93a15.549,15.549,0,0,1,6.3-6.624l55.739-31.294c.158-.088.323-.155.485-.232L449.9,365.412a7.526,7.526,0,0,0-7.367,0L389.119,395.4a14.9,14.9,0,0,0-6.041,6.347l31.229,18.12C414.448,419.553,414.586,419.238,414.739,418.93Z" fill="#ffd301"/>
    <path id="Path_2994" data-name="Path 2994" d="M383.077,401.746a25.768,25.768,0,0,0-2.7,11.493v62.094a7.523,7.523,0,0,0,3.994,6.644l52.163,27.712a20.642,20.642,0,0,0,9.683,2.413l1.37-76.172Z" fill="#ffc20c"/>
    <path id="Path_2995" data-name="Path 2995" d="M411.917,495.726v-64.8a26.9,26.9,0,0,1,2.822-11.994c.053-.107.116-.208.171-.314l-31.833-16.87a25.767,25.767,0,0,0-2.7,11.493v62.094a7.523,7.523,0,0,0,3.994,6.644l27.614,14.67a7.623,7.623,0,0,1-.064-.922Z" fill="#ffa90f"/>
    <path id="Path_2996" data-name="Path 2996" d="M509.347,401.746l-63.135,33.542V512.1a20.631,20.631,0,0,0,9.684-2.414l52.162-27.711a7.523,7.523,0,0,0,3.994-6.644V413.239a25.8,25.8,0,0,0-2.7-11.493Z" fill="#ffd301"/>
  </g>
</svg>
