<svg id="calender" xmlns="http://www.w3.org/2000/svg" width="15.224" height="16.785" viewBox="0 0 15.224 16.785">
  <g id="Group_4632" data-name="Group 4632">
    <path id="Path_7659" data-name="Path 7659" d="M6.849,4.763a.59.59,0,0,1-.586-.586V1.836a.586.586,0,0,1,1.171,0V4.178A.59.59,0,0,1,6.849,4.763Zm6.246,0a.59.59,0,0,1-.586-.586V1.836a.586.586,0,1,1,1.171,0V4.178A.59.59,0,0,1,13.094,4.763ZM7.239,11.594a.777.777,0,0,1-.3-.062.749.749,0,0,1-.484-.718.777.777,0,0,1,.062-.3.9.9,0,0,1,.164-.258.806.806,0,0,1,.258-.164.8.8,0,0,1,.851.164.821.821,0,0,1,.226.554A1.173,1.173,0,0,1,8,10.97a.5.5,0,0,1-.047.141.591.591,0,0,1-.07.141,1.23,1.23,0,0,1-.094.117A.821.821,0,0,1,7.239,11.594Zm2.732,0a.777.777,0,0,1-.3-.062.749.749,0,0,1-.484-.718.777.777,0,0,1,.062-.3.9.9,0,0,1,.164-.258.806.806,0,0,1,.258-.164.783.783,0,0,1,.851.164.821.821,0,0,1,.226.554,1.173,1.173,0,0,1-.016.156.5.5,0,0,1-.047.141.591.591,0,0,1-.07.141,1.23,1.23,0,0,1-.094.117.821.821,0,0,1-.554.226Zm2.732,0a.777.777,0,0,1-.3-.062.806.806,0,0,1-.258-.164l-.094-.117a.591.591,0,0,1-.07-.141.5.5,0,0,1-.047-.141,1.173,1.173,0,0,1-.016-.156.821.821,0,0,1,.226-.554.806.806,0,0,1,.258-.164.78.78,0,0,1,.851.164.821.821,0,0,1,.226.554,1.173,1.173,0,0,1-.016.156.5.5,0,0,1-.047.141.591.591,0,0,1-.07.141,1.23,1.23,0,0,1-.094.117.821.821,0,0,1-.554.226ZM7.239,14.327a.777.777,0,0,1-.3-.062.9.9,0,0,1-.258-.164.821.821,0,0,1-.226-.554.777.777,0,0,1,.062-.3.729.729,0,0,1,.164-.258.784.784,0,1,1,.554,1.335Zm2.732,0a.773.773,0,0,1-.781-.781.777.777,0,0,1,.062-.3.729.729,0,0,1,.164-.258.817.817,0,0,1,1.109,0,.729.729,0,0,1,.164.258.777.777,0,0,1,.062.3.773.773,0,0,1-.781.781Zm2.732,0a.821.821,0,0,1-.554-.226.728.728,0,0,1-.164-.258.736.736,0,0,1,0-.593.729.729,0,0,1,.164-.258.779.779,0,0,1,.7-.211.471.471,0,0,1,.148.047.591.591,0,0,1,.141.07,1.23,1.23,0,0,1,.117.094.781.781,0,0,1-.554,1.335Zm3.9-6.371H3.336a.586.586,0,1,1,0-1.171H16.608a.586.586,0,1,1,0,1.171Z" transform="translate(-2.36 -1.25)" fill="#fc7e58"/>
    <path id="Path_7660" data-name="Path 7660" d="M12.985,18.364H6.739c-2.85,0-4.489-1.639-4.489-4.489V7.239c0-2.85,1.639-4.489,4.489-4.489h6.246c2.85,0,4.489,1.639,4.489,4.489v6.636C17.474,16.725,15.834,18.364,12.985,18.364ZM6.739,3.921c-2.233,0-3.318,1.085-3.318,3.318v6.636c0,2.233,1.085,3.318,3.318,3.318h6.246c2.233,0,3.318-1.085,3.318-3.318V7.239c0-2.233-1.085-3.318-3.318-3.318Z" transform="translate(-2.25 -1.579)" fill="#fc7e58"/>
  </g>
</svg>
