<svg xmlns="http://www.w3.org/2000/svg" width="512.023" height="512" viewBox="0 0 512.023 512">
  <g id="Group_4479" data-name="Group 4479" transform="translate(0 -0.012)">
    <g id="Group_4477" data-name="Group 4477">
      <path id="Path_2913" data-name="Path 2913" d="M225.822,465.207,209,482.02H37.526v15H212.112a7.5,7.5,0,0,0,5.422-2.319l20.937-20.929a7.5,7.5,0,0,0,2.351-5.453V368.983h-15Z" fill="#56788b"/>
      <path id="Path_2914" data-name="Path 2914" d="M170.208,358.8h15v51.184h-15Zm0,66.176a7.5,7.5,0,0,0-7.5-7.5H7.526a7.5,7.5,0,0,0,0,15H162.708a7.5,7.5,0,0,0,7.5-7.5ZM326.842,358.8h15v51.18h-15Zm177.682,58.671H349.342a7.5,7.5,0,0,0,0,15H504.524a7.5,7.5,0,1,0,0-15Z" fill="#56788b"/>
      <path id="Path_2915" data-name="Path 2915" d="M286.228,465.207V368.982h-15v99.336a7.5,7.5,0,0,0,2.32,5.423l20.938,20.93a7.5,7.5,0,0,0,5.451,2.349H474.523v-15H303.047Z" fill="#56788b"/>
    </g>
    <path id="Path_2916" data-name="Path 2916" d="M37.526,467.029h-30a7.5,7.5,0,0,0-7.5,7.5v29.983a7.5,7.5,0,0,0,7.5,7.5h30a7.5,7.5,0,0,0,7.5-7.5V474.529a7.5,7.5,0,0,0-7.5-7.5Zm467,0h-30a7.5,7.5,0,0,0-7.5,7.5v29.981a7.5,7.5,0,0,0,7.5,7.5h30a7.5,7.5,0,0,0,7.5-7.5V474.53A7.5,7.5,0,0,0,504.524,467.03Z" fill="#ff4656"/>
    <g id="Group_4478" data-name="Group 4478">
      <path id="Path_2917" data-name="Path 2917" d="M349.342,402.485h-30a7.5,7.5,0,0,0-7.5,7.5v29.981a7.5,7.5,0,0,0,7.5,7.5h30a7.5,7.5,0,0,0,7.5-7.5V409.985A7.5,7.5,0,0,0,349.342,402.485Zm-156.634,0h-30a7.5,7.5,0,0,0-7.5,7.5v29.981a7.5,7.5,0,0,0,7.5,7.5h30a7.5,7.5,0,0,0,7.5-7.5V409.985A7.5,7.5,0,0,0,192.708,402.485Z" fill="#00cec8"/>
    </g>
    <path id="Path_2918" data-name="Path 2918" d="M511.995,245.642a121.508,121.508,0,0,1-83.5,115.06c-.15.05-.29.09-.44.14a121.035,121.035,0,0,1-37.26,5.82H100.625a100.763,100.763,0,0,1-17.67-199.94c-.05-1.48-.08-2.96-.08-4.43A162.845,162.845,0,0,1,189.425,10.1h.01a162.657,162.657,0,0,1,214.32,114.55,121.4,121.4,0,0,1,108.24,120.99Z" fill="#99e7fa"/>
    <path id="Path_2919" data-name="Path 2919" d="M512,245.638a121.492,121.492,0,0,1-83.94,115.206,121.991,121.991,0,0,0,21.21-17.149,123.392,123.392,0,0,0,35.73-87c.17-63.278-46.93-116.146-108.24-122.815a164.15,164.15,0,0,0-68.64-99.2A159.469,159.469,0,0,0,189.437,10.1a162.67,162.67,0,0,1,214.32,114.555A121.4,121.4,0,0,1,512,245.638Z" fill="#4dd4f7"/>
    <path id="Path_2920" data-name="Path 2920" d="M389.985,174.442v192.22H122.065V174.442c0-15.48,8.59-36.75,49.52-50.16,22.82-7.47,52.81-11.59,84.44-11.59s61.61,4.12,84.44,11.59c40.93,13.41,49.52,34.68,49.52,50.16Z" fill="#4dd4f7"/>
    <path id="Path_2921" data-name="Path 2921" d="M369.96,287.077v68.51c0,27.41-57.33,41.75-113.96,41.75q-5.01,0-10-.15c-53.19-1.58-103.96-15.8-103.96-41.6v-68.51Z" fill="#dae1ea"/>
    <path id="Path_2922" data-name="Path 2922" d="M369.96,287.077v68.51c0,27.41-57.33,41.75-113.96,41.75q-5.01,0-10-.15c53.18-1.58,103.96-15.8,103.96-41.6v-68.51Z" fill="#b9cfdf"/>
    <ellipse id="Ellipse_2151" data-name="Ellipse 2151" cx="113.96" cy="41.753" rx="113.96" ry="41.753" transform="translate(142.036 245.327)" fill="#eef0f5"/>
    <circle id="Ellipse_2152" data-name="Ellipse 2152" cx="7.501" cy="7.501" r="7.501" transform="translate(248.471 355.114)" fill="#90abbd"/>
    <circle id="Ellipse_2153" data-name="Ellipse 2153" cx="7.501" cy="7.501" r="7.501" transform="translate(209.851 352.803)" fill="#ff4656"/>
    <circle id="Ellipse_2154" data-name="Ellipse 2154" cx="7.501" cy="7.501" r="7.501" transform="translate(286.682 352.803)" fill="#00cec8"/>
    <path id="Path_2923" data-name="Path 2923" d="M369.986,174.444v68.51c0,27.41-57.33,41.75-113.96,41.75q-5.01,0-10-.15c-53.19-1.58-103.96-15.8-103.96-41.6v-68.51Z" fill="#dae1ea"/>
    <path id="Path_2924" data-name="Path 2924" d="M369.986,174.444v68.51c0,27.41-57.33,41.75-113.96,41.75q-5.01,0-10-.15c53.18-1.58,103.96-15.8,103.96-41.6v-68.51Z" fill="#b9cfdf"/>
    <ellipse id="Ellipse_2155" data-name="Ellipse 2155" cx="113.96" cy="41.753" rx="113.96" ry="41.753" transform="translate(142.062 132.694)" fill="#eef0f5"/>
    <circle id="Ellipse_2156" data-name="Ellipse 2156" cx="7.501" cy="7.501" r="7.501" transform="translate(248.497 242.481)" fill="#90abbd"/>
    <circle id="Ellipse_2157" data-name="Ellipse 2157" cx="7.501" cy="7.501" r="7.501" transform="translate(209.877 240.17)" fill="#ff4656"/>
    <circle id="Ellipse_2158" data-name="Ellipse 2158" cx="7.501" cy="7.501" r="7.501" transform="translate(286.708 240.17)" fill="#00cec8"/>
  </g>
</svg>
