<svg xmlns="http://www.w3.org/2000/svg" width="325.486" height="391.177" viewBox="0 0 325.486 391.177">
  <g id="Group_4480" data-name="Group 4480" transform="translate(-21.494)">
    <path id="Path_2925" data-name="Path 2925" d="M113.652,166.083a3.235,3.235,0,0,1-.857-2.2,56.526,56.526,0,0,1-6.367.4c-1.594,0-3.166-.089-4.728-.219a3.212,3.212,0,0,1-.842,2.026l-5.782,6.265a14.845,14.845,0,0,0,24.36,0Z" transform="translate(38.854 86.533)" fill="#5290db"/>
    <path id="Path_2926" data-name="Path 2926" d="M139.136,134.916a56.407,56.407,0,0,1-52.4,0v9.255a19.607,19.607,0,0,1-2.428,9.443l22.195,23.333a3.216,3.216,0,0,1,.876,2.4c1.562.13,3.134.219,4.728.219a56.163,56.163,0,0,0,6.367-.4v.006a3.23,3.23,0,0,1,.891-2.232l22.195-23.333a19.607,19.607,0,0,1-2.428-9.443v-9.254Z" transform="translate(33.17 71.24)" fill="#f9d0b4"/>
    <path id="Path_2927" data-name="Path 2927" d="M142.513,157.862a3.822,3.822,0,0,1-3.4-2.074,23.538,23.538,0,0,1-2.6-10.721v-7.889a3.82,3.82,0,0,1,7.64,0v7.889a15.878,15.878,0,0,0,1.754,7.226,3.82,3.82,0,0,1-3.392,5.568Zm-29.205,26.424c-1.354,0-2.792-.06-4.4-.18a3.823,3.823,0,0,1,.579-7.62c1.412.107,2.662.159,3.82.159a49.721,49.721,0,0,0,5.052-.28,3.82,3.82,0,0,1,.773,7.6,57.025,57.025,0,0,1-5.825.321Zm-27.443-26.64a3.82,3.82,0,0,1-3.414-5.528,15.875,15.875,0,0,0,1.667-7.052v-8.027a3.82,3.82,0,0,1,7.64,0v8.027a23.563,23.563,0,0,1-2.472,10.464,3.822,3.822,0,0,1-3.421,2.116Z" transform="translate(31.974 70.344)"/>
    <path id="Path_2928" data-name="Path 2928" d="M171.438,58.525a10.42,10.42,0,0,0-14-.932,55.535,55.535,0,0,1-34.676,11.763,55.88,55.88,0,0,1-34.806-11.8,10.413,10.413,0,0,0-13.98.949l-.02.02a29.4,29.4,0,0,0-8.123,20.291v47.725a56.866,56.866,0,1,0,113.732,0V78.816a29.4,29.4,0,0,0-8.125-20.291Z" transform="translate(23.411 29.202)" fill="#f9d0b4"/>
    <path id="Path_2929" data-name="Path 2929" d="M192.677,73.561a23.93,23.93,0,0,0-3.649.289V116.9c0,1.282-.058,2.552-.144,3.814a23.729,23.729,0,1,0,3.793-47.152ZM75.3,116.9V73.85a23.752,23.752,0,1,0,.144,46.863v0q-.136-1.9-.144-3.812Z" transform="translate(13.946 38.843)" fill="#f9d0b4"/>
    <path id="Path_2930" data-name="Path 2930" d="M184.741,54.6a3.518,3.518,0,0,1-3.582-3.372c-.436-31.687-36.621-37.64-72.656-31.416A63.713,63.713,0,0,0,55.621,82.581v23.775a23.5,23.5,0,0,1,15.6-2.963V98.719a29.407,29.407,0,0,1,8.123-20.291l.02-.02a10.413,10.413,0,0,1,13.98-.949,55.884,55.884,0,0,0,34.806,11.8A55.527,55.527,0,0,0,162.825,77.5a10.419,10.419,0,0,1,14,.932,29.4,29.4,0,0,1,8.123,20.291v4.674a23.489,23.489,0,0,1,15.725,3.039V86.913C200.68,58.538,190.433,54.6,184.741,54.6Z" transform="translate(18.02 9.299)" fill="#754e34"/>
    <path id="Path_2931" data-name="Path 2931" d="M124.017,188.55a60.756,60.756,0,0,1-60.686-60.687V80.138a33.076,33.076,0,0,1,9.18-22.927,14.205,14.205,0,0,1,19.117-1.342,52.007,52.007,0,0,0,32.451,10.99A51.664,51.664,0,0,0,156.4,55.911a14.209,14.209,0,0,1,19.126,1.3,33.076,33.076,0,0,1,9.18,22.927v47.724a60.757,60.757,0,0,1-60.686,60.687ZM82.778,60.446a6.49,6.49,0,0,0-4.719,2.019,25.481,25.481,0,0,0-7.089,17.673v47.724a53.046,53.046,0,1,0,106.091,0V80.138A25.472,25.472,0,0,0,170,62.484l0,0a6.593,6.593,0,0,0-8.881-.562A59.241,59.241,0,0,1,124.08,74.5a59.581,59.581,0,0,1-37.16-12.612,6.711,6.711,0,0,0-4.141-1.441Z" transform="translate(22.091 27.879)"/>
    <path id="Path_2932" data-name="Path 2932" d="M194,126.185a25.513,25.513,0,0,1-2.879-.168,3.821,3.821,0,0,1,.86-7.593,17.5,17.5,0,0,0,2.019.121A19.922,19.922,0,0,0,194,78.7c-.62,0-1.261.032-1.9.1a3.819,3.819,0,0,1-.755-7.6A26.545,26.545,0,0,1,194,71.063a27.561,27.561,0,1,1,0,55.122Zm-121.031,0a27.562,27.562,0,0,1,0-55.124,26.694,26.694,0,0,1,2.868.156,3.82,3.82,0,1,1-.811,7.6,19.92,19.92,0,1,0-2.057,39.733c.53,0,1.051-.028,1.566-.075a3.82,3.82,0,0,1,.7,7.608q-1.131.1-2.268.105Z" transform="translate(12.626 37.523)"/>
    <path id="Path_2933" data-name="Path 2933" d="M202,110.153a3.82,3.82,0,0,1-3.82-3.82V88.226c0-18.109-4.418-28.493-12.119-28.493a7.351,7.351,0,0,1-7.4-7.142c-.116-8.542-3.163-15.355-9.057-20.248-11.19-9.292-32.746-12.009-59.129-7.455A59.764,59.764,0,0,0,60.762,83.9v22.438a3.82,3.82,0,0,1-7.64,0V83.9a67.392,67.392,0,0,1,56.051-66.538c28.594-4.939,52.4-1.618,65.311,9.107,7.6,6.309,11.569,14.93,11.809,25.628,7.4.1,19.527,5.02,19.527,36.132v18.107a3.82,3.82,0,0,1-3.82,3.822Z" transform="translate(16.701 7.983)"/>
    <path id="Path_2934" data-name="Path 2934" d="M24.015,299.269,31.422,195.48a27.04,27.04,0,0,1,16.39-23.032l51.458-21.9a4.722,4.722,0,0,1,6.431,3.213L144.788,308.06H32.2a8.205,8.205,0,0,1-8.186-8.791ZM260.55,229.063h-1.861a4.253,4.253,0,0,1-4.251-4.253V214.9a4.138,4.138,0,0,0-3.045-4,58.55,58.55,0,0,1-13.859-5.748,4.139,4.139,0,0,0-4.988.669l-7.014,7.014a4.251,4.251,0,0,1-6.011,0l-11.5-11.5a4.251,4.251,0,0,1,0-6.013l7.014-7.014a4.136,4.136,0,0,0,.669-4.988,58.514,58.514,0,0,1-5.748-13.858,4.135,4.135,0,0,0-4-3.045h-9.909a4.252,4.252,0,0,1-4.251-4.253V151.186l-1.491-.636a4.722,4.722,0,0,0-6.432,3.213l-39.086,154.3H257.375a8.206,8.206,0,0,0,8.186-8.791Z" transform="translate(1.32 79.297)" fill="#5b5d60"/>
    <path id="Path_2935" data-name="Path 2935" d="M260.55,229.063h-1.861a4.253,4.253,0,0,1-4.251-4.253V214.9a4.138,4.138,0,0,0-3.045-4,58.55,58.55,0,0,1-13.859-5.748,4.139,4.139,0,0,0-4.988.669l-6.677,6.678a39.5,39.5,0,0,0-2.318,13.308v82.249h33.825a8.206,8.206,0,0,0,8.186-8.791ZM66.025,225.81a39.528,39.528,0,0,0-12.5-28.848L36.706,181.208a27,27,0,0,0-5.284,14.272L24.015,299.268a8.206,8.206,0,0,0,8.186,8.791H66.025ZM105.7,153.766a4.72,4.72,0,0,0-6.431-3.213l-11.019,4.69v61.95a2.82,2.82,0,0,0,2.185,2.747l14.394,3.322a2.821,2.821,0,0,1,1.957,3.858l-6.526,15.227a7.468,7.468,0,0,0,.093,6.091l27.732,59.622h16.7Zm90.346,12.657a4.253,4.253,0,0,1-4.251-4.253V151.187l-1.491-.636a4.722,4.722,0,0,0-6.432,3.213L144.788,308.059h16.7l27.732-59.625a7.467,7.467,0,0,0,.093-6.091l-6.526-15.227a2.818,2.818,0,0,1,1.957-3.857l14.394-3.322a2.818,2.818,0,0,0,2.185-2.747V166.421h-5.278Z" transform="translate(1.32 79.297)" fill="#818182"/>
    <path id="Path_2936" data-name="Path 2936" d="M78.479,156.314l5.4,21.311,9.582,11.6a3.481,3.481,0,0,0,5.243.144l12.464-13.5a3.239,3.239,0,0,0-.034-4.43l-23.97-25.2a2.862,2.862,0,0,0-4-.141l-7.614,6.953a4.672,4.672,0,0,1,2.931,3.264Zm57.949,33.056a3.482,3.482,0,0,0,5.243-.144l9.582-11.6,5.4-21.313a4.678,4.678,0,0,1,2.931-3.264l-7.614-6.953a2.862,2.862,0,0,0-4,.141L124,171.438a3.239,3.239,0,0,0-.034,4.43Z" transform="translate(28.542 76.749)" fill="#9be5f9"/>
    <path id="Path_2937" data-name="Path 2937" d="M138.792,178.071a3.481,3.481,0,0,1-5.243.144l-6.682-7.238a14.845,14.845,0,0,1-24.36,0l-6.682,7.238a3.482,3.482,0,0,1-5.243-.144L81,166.472l33.687,132.982,33.687-132.982Z" transform="translate(31.421 87.903)" fill="#70d6f9"/>
    <path id="Path_2938" data-name="Path 2938" d="M107.929,295.68l.584-.778,14.3-56.436-7.015-66.291a14.778,14.778,0,0,1-15.345,0l-7.015,66.291Z" transform="translate(37.987 90.914)" fill="#5290db"/>
    <path id="Path_2939" data-name="Path 2939" d="M146.108,123.5c-7.3,0-14.153-2.978-18.335-7.97a3.82,3.82,0,1,1,5.855-4.907c2.749,3.279,7.414,5.238,12.479,5.238s9.731-1.957,12.479-5.238a3.82,3.82,0,1,1,5.856,4.907C160.261,120.517,153.406,123.5,146.108,123.5Zm0,209.993H33.521a12.03,12.03,0,0,1-12-12.883l7.408-103.789a30.72,30.72,0,0,1,18.7-26.275l51.46-21.9a8.544,8.544,0,0,1,11.636,5.816l39.081,154.27a3.823,3.823,0,0,1-3.7,4.758ZM29.146,321.149a4.384,4.384,0,0,0,4.376,4.7H141.2L103.32,176.313a.891.891,0,0,0-.478-.614.869.869,0,0,0-.755-.023l-51.46,21.9A23.113,23.113,0,0,0,36.554,217.35Z" transform="translate(0 57.688)"/>
    <path id="Path_2940" data-name="Path 2940" d="M216.954,313.2H104.366a3.822,3.822,0,0,1-3.7-4.758l39.086-154.295a8.544,8.544,0,0,1,11.634-5.788,3.819,3.819,0,1,1-2.993,7.027.9.9,0,0,0-1.229.614L109.275,305.559H216.954a4.384,4.384,0,0,0,4.376-4.7l-4.907-68.739a3.821,3.821,0,0,1,7.622-.544l4.906,68.739a12.03,12.03,0,0,1-12,12.883Z" transform="translate(41.742 77.977)"/>
    <path id="Path_2941" data-name="Path 2941" d="M220.153,314.1a3.82,3.82,0,0,1-3.82-3.82V229.673a43.245,43.245,0,0,1,2.365-14.092,3.823,3.823,0,0,1,7.226,2.486,35.591,35.591,0,0,0-1.95,11.605V310.28a3.822,3.822,0,0,1-3.822,3.82Zm-157.525,0a3.82,3.82,0,0,1-3.82-3.82V229.673a35.832,35.832,0,0,0-11.3-26.059L31.637,188.742a3.819,3.819,0,1,1,5.223-5.574L52.736,198.04a43.5,43.5,0,0,1,13.713,31.633V310.28a3.82,3.82,0,0,1-3.82,3.82Zm61.54.52a3.825,3.825,0,0,1-3.467-2.21l-27.208-58.5a11.3,11.3,0,0,1-.141-9.208l6.054-14.125-13.228-3.053a6.609,6.609,0,0,1-5.145-6.468V159.934a3.82,3.82,0,0,1,7.64,0v60.325l13.618,3.143a6.64,6.64,0,0,1,4.609,9.086l-6.526,15.225a3.644,3.644,0,0,0,.044,2.975l27.21,58.5a3.82,3.82,0,0,1-3.459,5.432Zm34.275.362a3.82,3.82,0,0,1-3.461-5.432l27.378-58.861a3.647,3.647,0,0,0,.046-2.974l-6.526-15.227a6.641,6.641,0,0,1,4.612-9.087l13.615-3.142V171.053a3.82,3.82,0,0,1,7.64,0v50a6.609,6.609,0,0,1-5.145,6.468l-13.228,3.053,6.056,14.127a11.3,11.3,0,0,1-.142,9.206l-27.378,58.861a3.82,3.82,0,0,1-3.466,2.211ZM119.971,195.626l-.2,0a7.306,7.306,0,0,1-5.429-2.648l-9.327-11.292a3.821,3.821,0,1,1,5.892-4.865l9.08,10.991,11.833-12.82L108.87,150.868l-6.424,5.866a3.82,3.82,0,1,1-5.151-5.643l7.118-6.5a6.717,6.717,0,0,1,9.345.33l23.972,25.2a7.076,7.076,0,0,1,.072,9.653l-12.464,13.5a7.307,7.307,0,0,1-5.366,2.349Zm42.84,0a7.3,7.3,0,0,1-5.365-2.347l-12.465-13.5a7.076,7.076,0,0,1,.072-9.653l23.972-25.2a6.71,6.71,0,0,1,9.345-.329l7.4,6.757a3.82,3.82,0,1,1-5.151,5.643l-6.71-6.126-22.95,24.123,11.833,12.82,9.232-11.176a3.821,3.821,0,0,1,5.892,4.865l-9.478,11.476a7.3,7.3,0,0,1-5.428,2.648Z" transform="translate(4.717 75.434)"/>
    <path id="Path_2942" data-name="Path 2942" d="M124.031,242.648a3.819,3.819,0,0,1-3.794-3.418l-6.846-64.706a3.821,3.821,0,0,1,7.6-.8l6.846,64.706a3.82,3.82,0,0,1-3.8,4.22Zm-29.227,0a3.822,3.822,0,0,1-3.8-4.222l6.85-64.744a3.821,3.821,0,1,1,7.6.8L98.6,239.228a3.82,3.82,0,0,1-3.794,3.42Z" transform="translate(36.69 89.906)"/>
    <path id="Path_2943" data-name="Path 2943" d="M108.3,180.557A18.648,18.648,0,0,1,94,173.882a3.82,3.82,0,0,1,5.849-4.914,11.019,11.019,0,0,0,16.906,0,3.82,3.82,0,0,1,5.849,4.914,18.648,18.648,0,0,1-14.3,6.674Z" transform="translate(37.81 88.501)"/>
    <circle id="Ellipse_2159" data-name="Ellipse 2159" cx="7.64" cy="7.64" r="7.64" transform="translate(164.122 131.13)"/>
    <circle id="Ellipse_2160" data-name="Ellipse 2160" cx="7.64" cy="7.64" r="7.64" transform="translate(112.812 131.13)"/>
    <path id="Path_2944" data-name="Path 2944" d="M162.566,121.871H148.452a20.689,20.689,0,0,1-20.665-20.665V91.442a15.474,15.474,0,0,1,15.456-15.456h24.536a15.473,15.473,0,0,1,15.455,15.456v9.764A20.69,20.69,0,0,1,162.566,121.871ZM143.242,83.625a7.825,7.825,0,0,0-7.816,7.816V101.2a13.04,13.04,0,0,0,13.025,13.025h14.114A13.04,13.04,0,0,0,175.591,101.2V91.441a7.824,7.824,0,0,0-7.814-7.816ZM98.827,121.871H84.711a20.689,20.689,0,0,1-20.665-20.665V91.442A15.473,15.473,0,0,1,79.5,75.986h24.536a15.474,15.474,0,0,1,15.456,15.456v9.764a20.69,20.69,0,0,1-20.665,20.665ZM79.5,83.625a7.824,7.824,0,0,0-7.814,7.816V101.2A13.04,13.04,0,0,0,84.711,114.23H98.826A13.04,13.04,0,0,0,111.851,101.2V91.441a7.825,7.825,0,0,0-7.816-7.816Z" transform="translate(22.469 40.123)"/>
    <path id="Path_2945" data-name="Path 2945" d="M112.944,92.565h-12.75a3.82,3.82,0,0,1,0-7.64h12.75a3.82,3.82,0,1,1,0,7.64Z" transform="translate(39.539 44.843)"/>
    <path id="Path_2946" data-name="Path 2946" d="M279.606,166.248H269.7a4.138,4.138,0,0,1-4-3.045,58.494,58.494,0,0,0-5.75-13.859,4.136,4.136,0,0,1,.669-4.986l7.014-7.015a4.251,4.251,0,0,0,0-6.013l-11.5-11.5a4.251,4.251,0,0,0-6.011,0l-7.014,7.012a4.136,4.136,0,0,1-4.987.669,58.477,58.477,0,0,0-13.858-5.748,4.136,4.136,0,0,1-3.045-4v-9.909a4.251,4.251,0,0,0-4.251-4.251H200.7a4.249,4.249,0,0,0-4.251,4.251v9.909a4.136,4.136,0,0,1-3.045,4,58.489,58.489,0,0,0-13.859,5.748,4.139,4.139,0,0,1-4.988-.669l-7.014-7.012a4.251,4.251,0,0,0-6.011,0l-11.5,11.5a4.251,4.251,0,0,0,0,6.013l7.014,7.015a4.135,4.135,0,0,1,.669,4.986,58.549,58.549,0,0,0-5.748,13.859,4.136,4.136,0,0,1-4,3.045h-9.909a4.251,4.251,0,0,0-4.251,4.251v16.263a4.251,4.251,0,0,0,4.251,4.253h9.909a4.136,4.136,0,0,1,4,3.045,58.513,58.513,0,0,0,5.748,13.858,4.139,4.139,0,0,1-.669,4.987l-7.014,7.014a4.251,4.251,0,0,0,0,6.013l11.5,11.5a4.251,4.251,0,0,0,6.011,0l7.014-7.014a4.136,4.136,0,0,1,4.988-.669A58.551,58.551,0,0,0,193.4,235.5a4.138,4.138,0,0,1,3.045,4V249.4a4.249,4.249,0,0,0,4.251,4.251h16.263a4.251,4.251,0,0,0,4.251-4.251v-9.909a4.138,4.138,0,0,1,3.045-4,58.514,58.514,0,0,0,13.858-5.748,4.139,4.139,0,0,1,4.988.669l7.014,7.014a4.251,4.251,0,0,0,6.011,0l11.5-11.5a4.251,4.251,0,0,0,0-6.013l-7.014-7.014a4.136,4.136,0,0,1-.669-4.988,58.609,58.609,0,0,0,5.75-13.858,4.135,4.135,0,0,1,4-3.045h9.909a4.253,4.253,0,0,0,4.251-4.253V170.5A4.251,4.251,0,0,0,279.606,166.248Z" transform="translate(59.307 54.707)" fill="#edf4fc"/>
    <circle id="Ellipse_2161" data-name="Ellipse 2161" cx="39.729" cy="39.729" r="39.729" transform="translate(228.411 193.608)" fill="#fcdd86"/>
    <path id="Path_2947" data-name="Path 2947" d="M189.709,135.793a23.021,23.021,0,0,0-21.736,22.083,22.775,22.775,0,0,0,9.941,19.56,6.312,6.312,0,0,1,2.7,5.223v2.378a4.243,4.243,0,0,0,4.243,4.243h11.887a4.243,4.243,0,0,0,4.243-4.243v-2.378a6.335,6.335,0,0,1,2.72-5.237,22.823,22.823,0,0,0-14-41.63Z" transform="translate(77.34 71.69)" fill="#f5c84c"/>
    <path id="Path_2948" data-name="Path 2948" d="M191.607,170.975H179.721a4.19,4.19,0,0,1-2.034-.541v11.835a40.055,40.055,0,0,0,15.953,0V170.434a4.18,4.18,0,0,1-2.032.541Z" transform="translate(82.475 89.995)" fill="#70d6f9"/>
    <path id="Path_2949" data-name="Path 2949" d="M218.283,258.791H202.02a8.079,8.079,0,0,1-8.071-8.071v-9.909a.316.316,0,0,0-.223-.31,62.455,62.455,0,0,1-14.762-6.124.316.316,0,0,0-.382.057l-7.017,7.015a8.066,8.066,0,0,1-11.413,0l-11.5-11.5a8.079,8.079,0,0,1,0-11.414l7.014-7.014a.321.321,0,0,0,.06-.384,62.428,62.428,0,0,1-6.124-14.762.316.316,0,0,0-.312-.223h-9.908a8.079,8.079,0,0,1-8.071-8.071V171.819a8.079,8.079,0,0,1,8.071-8.071h9.908a.321.321,0,0,0,.313-.226,62.387,62.387,0,0,1,6.121-14.759.315.315,0,0,0-.058-.384l-7.014-7.015a8.08,8.08,0,0,1,0-11.413l11.5-11.5a8.066,8.066,0,0,1,11.414,0l7.014,7.009a.323.323,0,0,0,.382.061,62.35,62.35,0,0,1,14.764-6.126.312.312,0,0,0,.223-.31v-9.909a8.079,8.079,0,0,1,8.071-8.07h16.263a8.079,8.079,0,0,1,8.071,8.07v9.909a.311.311,0,0,0,.222.309,62.412,62.412,0,0,1,14.765,6.126.321.321,0,0,0,.382-.057l7.015-7.014a8.066,8.066,0,0,1,11.414,0l11.5,11.5a8.066,8.066,0,0,1,0,11.414l-7.012,7.014a.321.321,0,0,0-.058.384,62.376,62.376,0,0,1,6.124,14.762.316.316,0,0,0,.312.223h9.908a8.079,8.079,0,0,1,8.071,8.071V188.08a8.079,8.079,0,0,1-8.071,8.071h-9.908a.318.318,0,0,0-.312.223,62.265,62.265,0,0,1-6.126,14.762.325.325,0,0,0,.061.385l7.014,7.012a8.079,8.079,0,0,1,0,11.414l-11.5,11.5a8.066,8.066,0,0,1-11.413,0l-7.014-7.014a.321.321,0,0,0-.382-.06,62.412,62.412,0,0,1-14.764,6.126.313.313,0,0,0-.223.31v9.909a8.08,8.08,0,0,1-8.073,8.073ZM178.819,226.7a7.928,7.928,0,0,1,3.951,1.053,54.839,54.839,0,0,0,12.953,5.374,7.969,7.969,0,0,1,5.868,7.684v9.909a.432.432,0,0,0,.431.431h16.263a.432.432,0,0,0,.431-.431v-9.909a7.967,7.967,0,0,1,5.867-7.684,54.73,54.73,0,0,0,12.956-5.376,7.97,7.97,0,0,1,9.591,1.284l7.012,7.012a.437.437,0,0,0,.608,0l11.5-11.5a.434.434,0,0,0,0-.61l-7.015-7.014a7.979,7.979,0,0,1-1.282-9.591,54.7,54.7,0,0,0,5.376-12.953,7.97,7.97,0,0,1,7.686-5.868h9.908a.432.432,0,0,0,.431-.431V171.817a.432.432,0,0,0-.431-.431h-9.908a7.97,7.97,0,0,1-7.685-5.866,54.671,54.671,0,0,0-5.376-12.956,7.976,7.976,0,0,1,1.281-9.588l7.015-7.017a.43.43,0,0,0,0-.61l-11.5-11.5a.432.432,0,0,0-.61,0l-7.014,7.012a7.972,7.972,0,0,1-9.591,1.28,54.759,54.759,0,0,0-12.953-5.374,7.967,7.967,0,0,1-5.868-7.684v-9.909a.431.431,0,0,0-.431-.429H202.022a.431.431,0,0,0-.431.429v9.909a7.967,7.967,0,0,1-5.87,7.686,54.707,54.707,0,0,0-12.95,5.373,7.961,7.961,0,0,1-9.593-1.282l-7.014-7.009a.431.431,0,0,0-.61,0l-11.5,11.5a.434.434,0,0,0,0,.61l7.014,7.015a7.967,7.967,0,0,1,1.28,9.591,54.871,54.871,0,0,0-5.373,12.953,7.975,7.975,0,0,1-7.686,5.868h-9.908a.432.432,0,0,0-.431.431V188.08a.432.432,0,0,0,.431.431h9.908a7.973,7.973,0,0,1,7.686,5.865,54.692,54.692,0,0,0,5.374,12.956,7.97,7.97,0,0,1-1.282,9.591l-7.014,7.014a.434.434,0,0,0,0,.61l11.5,11.5a.437.437,0,0,0,.608,0l7.017-7.015a7.967,7.967,0,0,1,5.64-2.333Z" transform="translate(57.988 53.389)"/>
    <path id="Path_2950" data-name="Path 2950" d="M184.228,180.857a3.82,3.82,0,0,1-3.82-3.82V157.172a3.82,3.82,0,1,1,7.64,0v19.864A3.82,3.82,0,0,1,184.228,180.857Z" transform="translate(83.912 80.975)"/>
    <path id="Path_2951" data-name="Path 2951" d="M190.4,159.992h-9.168a3.82,3.82,0,0,1,0-7.64H190.4a3.82,3.82,0,0,1,0,7.64Z" transform="translate(82.328 80.447)"/>
    <path id="Path_2952" data-name="Path 2952" d="M197.957,211.3a43.549,43.549,0,1,1,43.549-43.549A43.6,43.6,0,0,1,197.957,211.3Zm0-79.458a35.909,35.909,0,1,0,35.909,35.909A35.949,35.949,0,0,0,197.957,131.844Z" transform="translate(70.183 65.584)"/>
    <path id="Path_2953" data-name="Path 2953" d="M198.064,194.42H186.177a8.071,8.071,0,0,1-8.062-8.062v-2.378a2.487,2.487,0,0,0-1.038-2.072,26.656,26.656,0,1,1,30.108-.014,2.51,2.51,0,0,0-1.06,2.086v2.379a8.071,8.071,0,0,1-8.062,8.06Zm-6.856-53.492a19,19,0,0,0-9.815,34.676,10.119,10.119,0,0,1,4.361,8.375v2.378a.423.423,0,0,0,.422.422h11.887a.423.423,0,0,0,.422-.422v-2.379a10.142,10.142,0,0,1,4.379-8.386,19.006,19.006,0,0,0-11.656-34.663Z" transform="translate(76.02 70.37)"/>
    <path id="Path_2954" data-name="Path 2954" d="M194.961,186.148a3.82,3.82,0,0,1-3.82-3.82v-9.552a3.82,3.82,0,1,1,7.64,0v9.552a3.82,3.82,0,0,1-3.82,3.82Zm-15.953-.008a3.82,3.82,0,0,1-3.82-3.82v-9.752a3.82,3.82,0,1,1,7.64,0v9.752A3.82,3.82,0,0,1,179.008,186.14Z" transform="translate(81.156 89.105)"/>
    <path id="Path_2955" data-name="Path 2955" d="M55.4,122.021a16.96,16.96,0,0,1-13.6-13.318.306.306,0,0,0-.6,0,16.958,16.958,0,0,1-13.6,13.318.3.3,0,0,0,0,.591,16.96,16.96,0,0,1,13.6,13.32.306.306,0,0,0,.6,0,16.962,16.962,0,0,1,13.6-13.32.3.3,0,0,0,0-.591Z" transform="translate(3.091 57.263)" fill="#f5c84c"/>
    <path id="Path_2956" data-name="Path 2956" d="M186.572,86.087a10.8,10.8,0,0,1-8.653-8.476.194.194,0,0,0-.384,0,10.792,10.792,0,0,1-8.653,8.476.189.189,0,0,0,0,.376,10.8,10.8,0,0,1,8.653,8.476.194.194,0,0,0,.384,0,10.792,10.792,0,0,1,8.653-8.476.189.189,0,0,0,0-.376Z" transform="translate(77.739 40.894)" fill="#fc657e"/>
    <path id="Path_2957" data-name="Path 2957" d="M154.8,17.647h3.56v-3.56a4.824,4.824,0,1,1,9.648,0v3.56h3.559a4.824,4.824,0,0,1,0,9.648h-3.559v3.56a4.824,4.824,0,0,1-9.648,0V27.3H154.8a4.824,4.824,0,0,1,0-9.648Z" transform="translate(67.843 4.891)" fill="#70d6f9"/>
    <circle id="Ellipse_2162" data-name="Ellipse 2162" cx="5.16" cy="5.16" r="5.16" transform="translate(22.672 222.249)" fill="#87d147"/>
    <circle id="Ellipse_2163" data-name="Ellipse 2163" cx="5.16" cy="5.16" r="5.16" transform="translate(190.756 0)" fill="#f5c84c"/>
  </g>
</svg>
