<svg xmlns="http://www.w3.org/2000/svg" width="250.049" height="211.659" viewBox="0 0 250.049 211.659">
  <g id="Group_4486" data-name="Group 4486" transform="translate(-0.043 -2.493)">
    <path id="Path_3009" data-name="Path 3009" d="M211.7,53.069V19.558A17.065,17.065,0,0,0,194.637,2.493H17.108A17.065,17.065,0,0,0,.043,19.558V53.069Z" fill="#6f7070"/>
    <path id="Path_3010" data-name="Path 3010" d="M211.672,8.947v144.01a17.07,17.07,0,0,1-17.081,17.081H17.125A17.07,17.07,0,0,1,.044,152.957V8.947Z" transform="translate(0.007 44.114)" fill="#e5e5e5"/>
    <circle id="Ellipse_2177" data-name="Ellipse 2177" cx="10.123" cy="10.123" r="10.123" transform="translate(13.128 17.654)" fill="#8bd5ec"/>
    <circle id="Ellipse_2178" data-name="Ellipse 2178" cx="10.123" cy="10.123" r="10.123" transform="translate(42.8 17.654)" fill="#ffcc5b"/>
    <circle id="Ellipse_2179" data-name="Ellipse 2179" cx="10.123" cy="10.123" r="10.123" transform="translate(72.471 17.654)" fill="#f89e62"/>
    <path id="Path_3011" data-name="Path 3011" d="M95.663,157.965a12.058,12.058,0,0,0-12.058-12.058H67.472a10.1,10.1,0,0,1-10.084-10.139v-.133c0-.251-.008-.494-.024-.737A9.543,9.543,0,0,1,66.9,124.767H88.267c6.527,0,12.38-4.889,12.724-11.408a12.066,12.066,0,0,0-12.043-12.709H82.344a10.107,10.107,0,0,1-10.107-10.17l.008-.7v-.141A10.679,10.679,0,0,1,82.9,78.916h8.54c6.527,0,12.38-4.889,12.724-11.408A12.066,12.066,0,0,0,92.122,54.8H61.3c-5.829,0-10.178-4.9-10.107-10.726v-.282C51.12,37.962,55.469,33.065,61.3,33.065h9.966c6.527,0,12.38-4.889,12.724-11.408A12.066,12.066,0,0,0,71.946,8.948H.043V152.966a17.064,17.064,0,0,0,17.065,17.065H83.6A12.066,12.066,0,0,0,95.663,157.965Z" transform="translate(0 44.121)" fill="#f3f3f3"/>
    <path id="Path_3012" data-name="Path 3012" d="M2.907,11.975H169.686V125.616H2.907Z" transform="translate(19.576 64.811)" fill="#fff" opacity="0.6"/>
    <path id="Path_3013" data-name="Path 3013" d="M56.407,4.892H23.045a6.5,6.5,0,1,0,0,12.991H56.407a6.5,6.5,0,0,0,0-12.991Zm23.741,0H72.72a6.5,6.5,0,1,0,0,12.991h7.428a6.5,6.5,0,1,0,0-12.991Z" transform="translate(112.828 16.398)" fill="#686969"/>
    <path id="Path_3014" data-name="Path 3014" d="M4.3,14.125H70.011V29.8H4.3Zm0,32.14H70.011v15.67H4.3Zm0,32.148H93.179v15.67H4.3Z" transform="translate(29.077 79.507)" fill="#ed6362"/>
    <path id="Path_3015" data-name="Path 3015" d="M98.481,14.284v112.9A17.07,17.07,0,0,1,81.4,144.269H63.067L16.6,97.729l78.43-85.012Z" transform="translate(113.197 69.883)" fill="#010101" opacity="0.1"/>
    <path id="Path_3016" data-name="Path 3016" d="M100.828,9.648l19.118,19.126-83.4,83.405L17.43,93.053Z" transform="translate(118.843 48.906)" fill="#4b9fd8"/>
    <path id="Path_3017" data-name="Path 3017" d="M32.36,9.647,51.485,28.78l-4.9,4.9L27.447,14.56Z" transform="translate(187.311 48.899)" fill="#f3f3f3"/>
    <path id="Path_3018" data-name="Path 3018" d="M54.527,12.174a13.531,13.531,0,0,0-19.133,0l-7.318,7.318L47.208,38.626l7.318-7.318a13.531,13.531,0,0,0,0-19.133Z" transform="translate(191.603 39.093)" fill="#e95454"/>
    <path id="Path_3019" data-name="Path 3019" d="M42.229,39.431,23.1,20.3,16.6,45.927Z" transform="translate(113.17 121.7)" fill="#ffcc5b"/>
    <path id="Path_3020" data-name="Path 3020" d="M27.35,30.22,19.327,22.2,16.6,32.947Z" transform="translate(113.17 134.68)" fill="#464646"/>
    <path id="Path_3021" data-name="Path 3021" d="M37.467,40.774a6.683,6.683,0,0,1,0-9.457l14.6-14.6a6.687,6.687,0,0,1,9.457,9.457l-14.6,14.6a6.676,6.676,0,0,1-9.457,0ZM21.8,56.437a6.683,6.683,0,0,1,0-9.457l2.037-2.037A6.687,6.687,0,1,1,33.3,54.4l-2.037,2.037a6.683,6.683,0,0,1-9.457,0Z" transform="translate(135.349 83.806)" fill="#51b7e8"/>
  </g>
</svg>
