<svg id="Group_4489" data-name="Group 4489" xmlns="http://www.w3.org/2000/svg" width="512" height="512" viewBox="0 0 512 512">
  <path id="Path_3037" data-name="Path 3037" d="M19.176,385.96l.227.234a99.311,99.311,0,0,0-.276,21.179L0,427.025l12.215,29.681L38.2,457a94.356,94.356,0,0,0,16.459,17.012l.273,25.673,29.511,12.3L102.7,494.038a93.6,93.6,0,0,0,23.6-.314L144.877,512,174.4,499.713l.312-27.495a98.61,98.61,0,0,0,14.709-15.164l27.727-.3,12.236-29.676L210,407.138a99.309,99.309,0,0,0,.276-21.179H165.34l-49.443,30.9-51.829-30.9Z" fill="#d9ddff"/>
  <path id="Path_3038" data-name="Path 3038" d="M165.339,385.96a51.8,51.8,0,1,1-101.271,0H165.339Z" fill="#fff"/>
  <path id="Path_3039" data-name="Path 3039" d="M415.638,350.238a22.542,22.542,0,0,1-21.367-15.682c-.076-.23-.148-.461-.214-.693L371.313,255.2l-13.747,77.732a19.357,19.357,0,0,1-18.911,16.15,18.964,18.964,0,0,1-3.437-.315,19.609,19.609,0,0,1-15.52-22.809l25.7-145.3.043-.228a22.718,22.718,0,0,1,20.63-18.6q.755-.052,1.512-.051a22.6,22.6,0,0,1,21.362,15.682c.075.23.147.461.214.694l26.221,90.7,25.279-90.5c.064-.228.133-.456.2-.681a22.61,22.61,0,0,1,21.435-15.9c.425,0,.85.012,1.279.037a22.708,22.708,0,0,1,20.815,18.375l.045.234,27.219,145.345a19.617,19.617,0,0,1-15.286,22.971,18.957,18.957,0,0,1-3.632.353,19.351,19.351,0,0,1-18.876-15.952L459.24,255.06l-21.955,78.6c-.064.228-.133.455-.2.681a22.554,22.554,0,0,1-21.329,15.9h-.114Z" fill="#7776d0"/>
  <path id="Path_3040" data-name="Path 3040" d="M511.655,325.753l-27.22-145.345-.045-.234A22.708,22.708,0,0,0,463.575,161.8q-.639-.037-1.279-.037a22.55,22.55,0,0,0-20.6,13.671,23.337,23.337,0,0,1,1.485,4.741l.045.234,14.8,79.005,1.216-4.355,14.62,78.067a19.351,19.351,0,0,0,18.876,15.952,18.957,18.957,0,0,0,3.632-.353,19.617,19.617,0,0,0,15.287-22.971Z" fill="#6967bf"/>
  <path id="Path_3041" data-name="Path 3041" d="M92.345,350.238C41.425,350.238,0,307.963,0,256s41.425-94.238,92.345-94.238a90.6,90.6,0,0,1,51.644,16.106c20.19,13.919-.648,46.943-21.54,32.538a52.809,52.809,0,0,0-30.1-9.376c-29.7,0-53.866,24.659-53.866,54.97s24.164,54.97,53.866,54.97c12.058,0,23.559-4.609,31.315-14.044,15.933-19.389,45.31,5.976,29.482,25.234-14.97,18.212-37.341,28.078-60.8,28.078Z" fill="#7776d0"/>
  <g id="Group_4488" data-name="Group 4488">
    <path id="Path_3042" data-name="Path 3042" d="M102.781,177.868c9.569,6.6,9.922,17.483,5.422,25.58a53.02,53.02,0,0,1,14.245,6.958c20.892,14.4,41.731-18.619,21.54-32.538a90.879,90.879,0,0,0-72.229-13.746,90.873,90.873,0,0,1,31.022,13.746Zm20.878,119.058a37.017,37.017,0,0,1-8.185,7.38c1.907,5.56,1.278,11.99-3.541,17.854a76.714,76.714,0,0,1-40.694,25.6,90.509,90.509,0,0,0,21.105,2.483c23.457,0,45.829-9.866,60.8-28.078C168.969,302.9,139.592,277.538,123.659,296.926Z" fill="#6967bf"/>
  </g>
  <path id="Path_3043" data-name="Path 3043" d="M256.312,275.694c23.754-7.644,40.966-29.636,40.966-55.521,0-32.208-26.641-58.411-59.388-58.411h-38.9A19.439,19.439,0,0,0,179.75,181.4V330.6a19.243,19.243,0,1,0,38.478,0V290.972l45.368,52.6a18.969,18.969,0,0,0,27.153,1.767,19.915,19.915,0,0,0,1.731-27.71ZM237.891,201.03c11.334,0,20.909,8.767,20.909,19.144s-9.575,19.144-20.909,19.144c-4.554,0-12.173.031-19.451.066-.036-7.237-.066-14.752-.066-19.209,0-3.827-.018-11.571-.039-19.144h19.556Z" fill="#7776d0"/>
  <path id="Path_3044" data-name="Path 3044" d="M292.481,317.633l-36.169-41.939c23.754-7.644,40.966-29.636,40.966-55.521,0-32.208-26.641-58.411-59.388-58.411h-38.9a18.922,18.922,0,0,0-4.285.489,59.329,59.329,0,0,1,48.653,39.472c8.784,2.264,15.442,9.8,15.442,18.45s-6.659,16.187-15.444,18.451A58.75,58.75,0,0,1,221.334,267.8a15.776,15.776,0,0,0-2.711,23.2l22.972,26.636a19.718,19.718,0,0,1,1.962,2.708L263.6,343.575a18.969,18.969,0,0,0,27.153,1.767A19.913,19.913,0,0,0,292.481,317.633Z" fill="#6967bf"/>
  <path id="Path_3045" data-name="Path 3045" d="M162.559,19.451V58.776a19.451,19.451,0,0,1-19.451,19.451H74.4L42.5,101.974V78.228H19.451A19.452,19.452,0,0,1,0,58.777V19.452A19.452,19.452,0,0,1,19.451,0H143.107a19.452,19.452,0,0,1,19.452,19.451Z" fill="#ffd54d"/>
  <path id="Path_3046" data-name="Path 3046" d="M143.108,0H101.9a19.451,19.451,0,0,1,19.451,19.451V58.776A19.452,19.452,0,0,1,101.9,78.227h41.207a19.451,19.451,0,0,0,19.451-19.451V19.451A19.45,19.45,0,0,0,143.108,0Z" fill="#ffc919"/>
  <path id="Path_3047" data-name="Path 3047" d="M459.837,492.549V453.224a19.451,19.451,0,0,0-19.451-19.451h-68.7l-31.9-23.747v23.747h-23.05a19.451,19.451,0,0,0-19.451,19.451v39.325A19.451,19.451,0,0,0,316.729,512H440.385a19.451,19.451,0,0,0,19.452-19.451Z" fill="#ffd54d"/>
  <path id="Path_3048" data-name="Path 3048" d="M440.386,433.772H399.179a19.451,19.451,0,0,1,19.451,19.451v39.325A19.451,19.451,0,0,1,399.179,512h41.207a19.45,19.45,0,0,0,19.451-19.451V453.223A19.451,19.451,0,0,0,440.386,433.772Z" fill="#ffc919"/>
  <path id="Path_3049" data-name="Path 3049" d="M511.974,407a28.888,28.888,0,0,0-54.125-14.02A28.888,28.888,0,0,0,403.724,407s-2.938,33.56,54.125,59.358C514.913,440.562,511.974,407,511.974,407Z" fill="#ff8ccc"/>
  <path id="Path_3050" data-name="Path 3050" d="M511.974,407a28.884,28.884,0,0,0-49.482-20.216A28.745,28.745,0,0,1,470.768,407s2.173,24.825-33.521,48.184a151.537,151.537,0,0,0,20.6,11.173C514.913,440.562,511.974,407,511.974,407Z" fill="#ff78c2"/>
  <path id="Path_3051" data-name="Path 3051" d="M268.909,127.155V53.4H328.74v73.759" fill="#ffd54d"/>
  <path id="Path_3052" data-name="Path 3052" d="M451.854,127.155V93.95h59.832v33.205" fill="#d9ddff"/>
  <path id="Path_3053" data-name="Path 3053" d="M360.382,127.155V0h59.831V127.155" fill="#ff8ccc"/>
  <path id="Path_3054" data-name="Path 3054" d="M481.77,0l9.342,18.928L512,21.963,496.885,36.7l3.568,20.8L481.77,47.678,463.087,57.5l3.568-20.8L451.54,21.963l20.888-3.035Z" fill="#ffd54d"/>
  <circle id="Ellipse_2180" data-name="Ellipse 2180" cx="51.499" cy="51.499" r="51.499" transform="translate(123.259 24.157)" fill="#a6f5cf"/>
  <path id="Path_3055" data-name="Path 3055" d="M174.758,24.157a51.334,51.334,0,0,0-20.6,4.287,51.521,51.521,0,0,1,0,94.424,51.5,51.5,0,1,0,20.6-98.711Z" fill="#8aedbd"/>
  <path id="Path_3056" data-name="Path 3056" d="M191.25,97.291a7.688,7.688,0,0,1-4.976-1.819l-16.5-13.909a7.726,7.726,0,0,1-2.746-5.907V48.1a7.726,7.726,0,1,1,15.452,0V72.064l13.75,11.594c5.2,4.385,2.447,13.633-4.984,13.633Z" fill="#fff"/>
</svg>
