<svg xmlns="http://www.w3.org/2000/svg" width="65.312" height="46.264" viewBox="0 0 65.312 46.264">
  <g id="Customer" transform="translate(0 -71.729)">
    <path id="Path_7931" data-name="Path 7931" d="M99.134,180.526a2.526,2.526,0,0,1-3.448.925l-1.118-.648a2.524,2.524,0,0,1-2.527,4.37l-2.466-1.422a2.5,2.5,0,0,1,.912,3.416l-.02.035a2.505,2.505,0,0,1-3.42.918l-2.118-1.226a2.425,2.425,0,0,1,.879,3.307l-.1.175a2.423,2.423,0,0,1-3.309.887L59.5,178.045a10.358,10.358,0,0,1-3.764-3.75l-1.623-2.779,3.208-8.043,5.406-6.88,7.345,4.241,4.722-2.488a3.6,3.6,0,0,1,3.42.04l2.332,1.348,1.453.839.847.489a7.857,7.857,0,0,1,.992.675l5.5,4.4a2.536,2.536,0,0,1-2.852,4.177l11.72,6.766a2.478,2.478,0,0,1,.939.953,2.516,2.516,0,0,1-.015,2.495Z" transform="translate(-46.929 -73.596)" fill="#ffcebf"/>
    <g id="Group_4906" data-name="Group 4906" transform="translate(19.676 84.337)">
      <path id="Path_7932" data-name="Path 7932" d="M266.861,273.057a2.523,2.523,0,0,1-3.389.957c-.02-.011-.04-.02-.06-.032l-1.118-.648.056.034-1.236-.714-.02-.011-1.1-.637.005.005-11.98-6.863a1,1,0,1,1,1-1.725l14.478,8.293a1.376,1.376,0,0,0,1.6-2.218,16.775,16.775,0,0,0-1.458-1.216l2.3,1.326a2.478,2.478,0,0,1,.939.953A2.515,2.515,0,0,1,266.861,273.057Z" transform="translate(-234.332 -250.463)" fill="#ffb09e"/>
      <path id="Path_7933" data-name="Path 7933" d="M251.72,307.842a2.522,2.522,0,0,1-3.447.923l-2.3-1.328-.049-.028-11.16-6.444a1,1,0,0,1,1-1.725l12.2,7.043a1.337,1.337,0,0,0,1.632-2.083l-1.083-1.127-.005-.005,1.1.637.02.011,1.236.714a2.523,2.523,0,0,1,.864,3.412Z" transform="translate(-222.837 -281.524)" fill="#ffb09e"/>
      <path id="Path_7934" data-name="Path 7934" d="M236.872,343.219l-.02.035a2.505,2.505,0,0,1-3.42.917l-2.1-1.212.023.016-.214-.125-.28-.161-1.851-1.072.04.025-5.644-3.26a.994.994,0,0,1-.349-1.385,1.024,1.024,0,0,1,1.381-.32l8.96,5.168a1.345,1.345,0,0,0,1.989-.9c0-.011,0-.023.007-.033a1.341,1.341,0,0,0-.341-1.187,8.19,8.19,0,0,0-1.4-1.249l2.417,1.394-.117-.066A2.5,2.5,0,0,1,236.872,343.219Z" transform="translate(-212.99 -313.983)" fill="#ffb09e"/>
      <path id="Path_7935" data-name="Path 7935" d="M173.623,193.922l-2.349-1.356.049.028Zm-6.233,5.028-.1.175a2.423,2.423,0,0,1-3.309.887l-2.3-1.328a2.423,2.423,0,0,0,3.309-.887l.1-.175a2.423,2.423,0,0,0-.839-3.282l-.04-.025,1.851,1.072.28.161.214.125a2.422,2.422,0,0,1,.834,3.278Zm-3.808-29.63-8.923,9.195-.854.562a3.386,3.386,0,0,1-1.431.531,3.714,3.714,0,0,1-2.746-6.621l7-5.309a.328.328,0,0,0-.252-.585,3.6,3.6,0,0,1,3.42.04l2.332,1.348Z" transform="translate(-148.186 -166.681)" fill="#ffb09e"/>
    </g>
    <path id="Path_7936" data-name="Path 7936" d="M192.855,154.225l5.5,7.195,3.12,7.727-1.623,2.78a10.372,10.372,0,0,1-3.765,3.75l-.52.3q-.049-.09-.107-.176a2.5,2.5,0,0,0-.832-.777l-17.936-10.355-.961-.555-6.632,3.829a2.536,2.536,0,0,1-2.853-4.176l5.5-4.4a7.839,7.839,0,0,1,.969-.664l4.6-2.658a3.593,3.593,0,0,1,3.47-.069l4.723,2.487Z" transform="translate(-143.343 -71.542)" fill="#ffcebf"/>
    <path id="Path_7937" data-name="Path 7937" d="M244.394,155.976l4.723,2.487-1.532.886a1.606,1.606,0,0,1-1.551.029l-3.94-2.074a3.592,3.592,0,0,0-3.46.062l2.29-1.322a3.593,3.593,0,0,1,3.47-.068Zm20.682,13.17-1.623,2.779a10.362,10.362,0,0,1-3.766,3.75l-.519.3c-.033-.058-.068-.118-.108-.175a10.353,10.353,0,0,0,2.093-2.547l.906-1.551a2.448,2.448,0,0,0,.005-2.46l-7.9-13.691,2.3-1.328,5.495,7.2Z" transform="translate(-206.949 -71.541)" fill="#ffb09e"/>
    <path id="Path_7938" data-name="Path 7938" d="M101.34,304.809l-1.745,3.023a1.762,1.762,0,0,1-2.407.645l-1.32-.762a1.762,1.762,0,0,1-.645-2.407l1.745-3.023a2.516,2.516,0,0,1,1.533-1.176,2.527,2.527,0,0,1,1.915.252A2.524,2.524,0,0,1,101.34,304.809Z" transform="translate(-82.374 -198.848)" fill="#ffcebf"/>
    <path id="Path_7939" data-name="Path 7939" d="M105.155,304.843l-1.746,3.023a1.762,1.762,0,0,1-2.407.645l-1.32-.762a1.76,1.76,0,0,1-.3-.216,1.762,1.762,0,0,0,2.07-.8l1.745-3.023a2.52,2.52,0,0,0-.08-2.652,2.493,2.493,0,0,1,1.111.332A2.525,2.525,0,0,1,105.155,304.843Z" transform="translate(-86.188 -198.883)" fill="#ffb09e"/>
    <path id="Path_7940" data-name="Path 7940" d="M134.267,323.822l-1.745,3.023a1.762,1.762,0,0,1-2.407.645l-1.319-.761a1.76,1.76,0,0,1-.645-2.407L129.9,321.3a2.515,2.515,0,0,1,1.533-1.176,2.452,2.452,0,0,1,.8-.08,2.482,2.482,0,0,1,1.111.332,2.523,2.523,0,0,1,.923,3.447Z" transform="translate(-110.93 -215.339)" fill="#ffcebf"/>
    <path id="Path_7941" data-name="Path 7941" d="M138.065,323.853l-1.745,3.023a1.762,1.762,0,0,1-2.407.644l-1.318-.761a1.79,1.79,0,0,1-.3-.218,1.763,1.763,0,0,0,2.071-.794l1.745-3.023a2.52,2.52,0,0,0-.08-2.652,2.489,2.489,0,0,1,1.111.332A2.524,2.524,0,0,1,138.065,323.853Z" transform="translate(-114.728 -215.369)" fill="#ffb09e"/>
    <path id="Path_7942" data-name="Path 7942" d="M168.3,347.318l-1.189,2.06a1.679,1.679,0,0,1-2.294.615l-1.463-.845a1.541,1.541,0,0,1-.233-.164,1.679,1.679,0,0,1-.381-2.131l1.189-2.06a2.516,2.516,0,0,1,1.533-1.176,2.527,2.527,0,0,1,1.915.252A2.524,2.524,0,0,1,168.3,347.318Z" transform="translate(-140.934 -235.713)" fill="#ffcebf"/>
    <path id="Path_7943" data-name="Path 7943" d="M172.254,347.345l-1.188,2.059a1.678,1.678,0,0,1-2.294.615l-1.463-.844a1.533,1.533,0,0,1-.234-.163,1.679,1.679,0,0,0,2.037-.736l1.188-2.059a2.523,2.523,0,0,0-.08-2.653,2.523,2.523,0,0,1,2.034,3.782Z" transform="translate(-144.89 -235.74)" fill="#ffb09e"/>
    <path id="Path_7944" data-name="Path 7944" d="M201.764,376.2l-.259.448a1.487,1.487,0,0,1-2.032.545l-1.794-1.036c-.026-.015-.053-.032-.079-.049a1.489,1.489,0,0,1-.466-1.984l.259-.448a2.516,2.516,0,0,1,1.533-1.176,2.527,2.527,0,0,1,1.915.252A2.524,2.524,0,0,1,201.764,376.2Z" transform="translate(-170.786 -260.76)" fill="#ffcebf"/>
    <path id="Path_7945" data-name="Path 7945" d="M206.108,376.233l-.259.449a1.487,1.487,0,0,1-2.032.546l-1.794-1.036-.08-.049a1.488,1.488,0,0,0,1.951-.59l.259-.449a2.523,2.523,0,0,0-.078-2.652,2.49,2.49,0,0,1,1.11.333A2.522,2.522,0,0,1,206.108,376.233Z" transform="translate(-175.13 -260.794)" fill="#ffb09e"/>
    <path id="Path_7946" data-name="Path 7946" d="M189.156,80.551a.993.993,0,0,1-.7-.292L184.6,76.407A1,1,0,1,1,186.007,75l3.853,3.853a1,1,0,0,1-.7,1.7Zm3.335-1.381a1,1,0,0,1-1-1V72.725a1,1,0,0,1,1.992,0v5.449a1,1,0,0,1-1,1Zm3.335,1.381a1,1,0,0,1-.7-1.7L198.975,75a1,1,0,0,1,1.408,1.408l-3.853,3.853A.993.993,0,0,1,195.827,80.551Z" transform="translate(-159.835 0)" fill="#62dbfb"/>
    <path id="Path_7947" data-name="Path 7947" d="M180.6,233.49l-10.01-5.779a4.327,4.327,0,0,0-4.223-.058l-5.021,3.105a4.928,4.928,0,0,1-1.85.463c-1.838.154-3.381-1.069-4.679-2.379l1.97-.162a2.536,2.536,0,0,0,3.225.582l6.631-3.829a4.433,4.433,0,0,1,4.878.522Z" transform="translate(-134.258 -132.861)" fill="#ffb09e"/>
    <path id="Path_7948" data-name="Path 7948" d="M16.884,119.429,5.428,139.271a.928.928,0,0,1-1.267.34l-3.7-2.134a.928.928,0,0,1-.34-1.267L11.58,116.367a.928.928,0,0,1,1.267-.34l3.7,2.134A.927.927,0,0,1,16.884,119.429Z" transform="translate(0 -38.309)" fill="#8795de"/>
    <path id="Path_7949" data-name="Path 7949" d="M26.738,124.224,15.282,144.066a.926.926,0,0,1-1.267.34l-2.652-1.531a.926.926,0,0,0,1.267-.34l11.456-19.842a.928.928,0,0,0-.327-1.26l2.64,1.524A.927.927,0,0,1,26.738,124.224Z" transform="translate(-9.855 -43.104)" fill="#6c7fd8"/>
    <path id="Path_7950" data-name="Path 7950" d="M369.219,114l11.456,19.842a.928.928,0,0,1-.34,1.267l-3.7,2.134a.928.928,0,0,1-1.267-.34L363.915,117.06a.928.928,0,0,1,.34-1.267l3.7-2.134A.928.928,0,0,1,369.219,114Z" transform="translate(-315.487 -36.254)" fill="#fedf30"/>
    <path id="Path_7951" data-name="Path 7951" d="M390.19,135.108l-2.645,1.527a.929.929,0,0,0,.333-1.263l-11.456-19.844a.928.928,0,0,0-1.268-.339l2.652-1.531a.929.929,0,0,1,1.268.339l11.456,19.844A.929.929,0,0,1,390.19,135.108Z" transform="translate(-325.342 -36.254)" fill="#fed402"/>
  </g>
</svg>
