<svg id="Group_4474" data-name="Group 4474" xmlns="http://www.w3.org/2000/svg" width="512" height="512" viewBox="0 0 512 512">
  <path id="Path_2890" data-name="Path 2890" d="M256,332.006a88,88,0,0,0-88,88V502H344V420.006a88,88,0,0,0-88-88Z" fill="#ade5ff"/>
  <path id="Path_2891" data-name="Path 2891" d="M414,356a87.9,87.9,0,0,0-73.449,39.544A88.038,88.038,0,0,1,344,420.006V502H502V444A88,88,0,0,0,414,356ZM168,420.006a88.032,88.032,0,0,1,3.449-24.462A87.994,87.994,0,0,0,10,444v58H168V420.006Z" fill="#a0e557"/>
  <circle id="Ellipse_2148" data-name="Ellipse 2148" cx="52" cy="52" r="52" transform="translate(204 228.01)" fill="#ffcdac"/>
  <circle id="Ellipse_2149" data-name="Ellipse 2149" cx="52" cy="52" r="52" transform="translate(46 252)" fill="#ffcdac"/>
  <circle id="Ellipse_2150" data-name="Ellipse 2150" cx="52" cy="52" r="52" transform="translate(362 252)" fill="#ffcdac"/>
  <path id="Path_2892" data-name="Path 2892" d="M251.722,69.16a4.771,4.771,0,0,1,8.557,0l18.561,37.608.144.021,41.359,6.01a4.771,4.771,0,0,1,2.644,8.138L294.751,148.46a4.77,4.77,0,0,0-1.372,4.223l6.666,38.863a4.772,4.772,0,0,1-6.923,5.03l-34.9-18.349a4.769,4.769,0,0,0-4.44,0l-34.9,18.349a4.772,4.772,0,0,1-6.923-5.03l6.666-38.863a4.773,4.773,0,0,0-1.372-4.223l-28.236-27.523a4.771,4.771,0,0,1,2.644-8.138l39.021-5.67a4.771,4.771,0,0,0,3.592-2.61Z" fill="#ffb954"/>
  <path id="Path_2893" data-name="Path 2893" d="M451.388,353.418a62,62,0,1,0-74.79-.011,97.75,97.75,0,0,0-33.087,22.52,98.6,98.6,0,0,0-50.123-46.5,62,62,0,1,0-74.776,0,98.6,98.6,0,0,0-50.123,46.5,97.736,97.736,0,0,0-33.087-22.52,62,62,0,1,0-74.79.011A98.15,98.15,0,0,0,0,444v58a10,10,0,0,0,10,10H502a10,10,0,0,0,10-10V444A98.15,98.15,0,0,0,451.388,353.418ZM372,304a42,42,0,1,1,42,42A42.047,42.047,0,0,1,372,304ZM214,280.006a42,42,0,1,1,42,42A42.047,42.047,0,0,1,214,280.006ZM56,304a42,42,0,1,1,42,42A42.047,42.047,0,0,1,56,304ZM20,444a77.986,77.986,0,0,1,140.61-46.491,97.925,97.925,0,0,0-2.61,22.5V492H20Zm158-23.994a78,78,0,0,1,156,0V492H314.167V460.473a10,10,0,0,0-20,0V492H178V420.006ZM492,492H354V420.006a97.928,97.928,0,0,0-2.61-22.5A77.986,77.986,0,0,1,492,444ZM313.687,82.187a9.966,9.966,0,0,0,7.071-2.929l34.314-34.314A10,10,0,1,0,340.929,30.8L306.615,65.115a10,10,0,0,0,7.072,17.072ZM191.242,79.258a10,10,0,1,0,14.142-14.143L171.07,30.8a10,10,0,0,0-14.143,14.143l34.315,34.314ZM256,41.487a10,10,0,0,0,10-10V10a10,10,0,0,0-20,0V31.487A10,10,0,0,0,256,41.487ZM190.221,102.9a14.771,14.771,0,0,0-8.188,25.194L208.3,153.7l-6.2,36.153a14.752,14.752,0,0,0,21.431,15.573L256,188.357l32.468,17.069A14.77,14.77,0,0,0,309.9,189.855L303.7,153.7l26.268-25.6A14.771,14.771,0,0,0,321.78,102.9l-36.3-5.275L269.246,64.734a14.771,14.771,0,0,0-26.492,0L226.52,97.628l-36.3,5.275Zm53.017,6.041L256,83.086l13.872,28.107a10,10,0,0,0,7.525,5.47l31.022,4.508L287.77,141.3a14.772,14.772,0,0,0-4.248,13.074l4.875,28.421-25.523-13.418a14.771,14.771,0,0,0-13.748,0L223.6,182.794l4.875-28.422a14.77,14.77,0,0,0-4.249-13.073L203.58,121.172l28.535-4.147a14.764,14.764,0,0,0,11.123-8.081Z"/>
  <path id="Path_2894" data-name="Path 2894" d="M304.17,431.54a10.005,10.005,0,1,0-7.07-2.931A10.09,10.09,0,0,0,304.17,431.54Z"/>
</svg>
