<svg xmlns="http://www.w3.org/2000/svg" width="36.752" height="44.166" viewBox="0 0 36.752 44.166">
  <g id="deployment" transform="translate(-2621.294 731.432)">
    <g id="Group_4533" data-name="Group 4533" transform="translate(2556.486 -737.57)">
      <path id="Path_3315" data-name="Path 3315" d="M179.495,239.381l-.027-.037-.128-.18V232.4l3.745,3V245.6Zm-14.445-.072-3.632,6.291V235.392l3.745-3v6.742Zm8.474,3.556H170.98V232.147h2.544Z" transform="translate(-89.068 -207.851)" fill="#8ac9fe" fill-rule="evenodd"/>
      <path id="Path_3316" data-name="Path 3316" d="M73.7,37.846a.863.863,0,0,0,.2.024.789.789,0,0,0,.671-.356l3.242-5.163h3.337V34.56a.746.746,0,0,0,.775.713h2.521a.745.745,0,0,0,.775-.713V32.351h3.337L91.8,37.514a.79.79,0,0,0,.671.356.861.861,0,0,0,.2-.024.725.725,0,0,0,.574-.689V28.531a.691.691,0,0,0-.291-.556l-3.24-2.384V15.73a10.728,10.728,0,0,0-6.159-9.506.833.833,0,0,0-.739,0,10.728,10.728,0,0,0-6.159,9.507v9.862l-3.239,2.383a.691.691,0,0,0-.291.556v8.626a.725.725,0,0,0,.574.689m9.971-4H82.7v-7.2h.972Zm8.023-4.974V34.5l-1.941-3.091a.555.555,0,0,0-.04-.051V27.416ZM78.2,15.732A9.271,9.271,0,0,1,83.184,7.67a9.271,9.271,0,0,1,4.979,8.061v15.2H85.22V25.934a.745.745,0,0,0-.775-.712H81.923a.746.746,0,0,0-.775.712v4.992H78.205V15.732Zm-3.53,13.143,1.981-1.458v3.929l-.005.006L74.674,34.5Zm8.51,7.689a.745.745,0,0,1,.775.712v4.916a.777.777,0,0,1-1.549,0V37.276A.745.745,0,0,1,83.184,36.563ZM101.56,49.591a.684.684,0,0,1-.227.5.81.81,0,0,1-.548.209h-35.2a.745.745,0,0,1-.775-.712.684.684,0,0,1,.227-.5.81.81,0,0,1,.548-.208h3.361a6.733,6.733,0,0,1,2.674-3.972,7.79,7.79,0,0,1,4.769-1.416,6.682,6.682,0,0,1,2.671-4V37.276a.777.777,0,0,1,1.549,0v7a.777.777,0,0,1-1.549,0V41.489a5.082,5.082,0,0,0-1.236,2.833.7.7,0,0,1-.291.5.826.826,0,0,1-.591.147,6.188,6.188,0,0,0-4.371,1.067,5.335,5.335,0,0,0-2.033,2.848H95.73a5.728,5.728,0,0,0-5.588-3.968h-.034a.753.753,0,0,1-.771-.643,5.185,5.185,0,0,0-2.027-3.535v5.306a.778.778,0,0,1-1.55,0V37.276a.778.778,0,0,1,1.55,0V39a6.769,6.769,0,0,1,3.471,4.517,7.161,7.161,0,0,1,6.54,5.367h3.464a.809.809,0,0,1,.548.208.684.684,0,0,1,.227.5Z" fill="#26a6fe"/>
    </g>
  </g>
</svg>
