<svg id="design" xmlns="http://www.w3.org/2000/svg" width="36.386" height="36.377" viewBox="0 0 36.386 36.377">
  <path id="Path_3255" data-name="Path 3255" d="M50.874,24.441q-.125.264-.245.565l-2.943,7.1L44.28,27.22l1.713-4.141c.075-.188.151-.37.213-.54Z" transform="translate(-16.502 -8.411)" fill="#e64c3c"/>
  <path id="Path_3256" data-name="Path 3256" d="M36.861,21.915c-.063,1.255-.194,2.51-.383,3.764l-4.379.709a30.967,30.967,0,0,1,.088-4.762V21.62Z" transform="translate(-11.944 -8.068)" fill="#4482c3"/>
  <path id="Path_3257" data-name="Path 3257" d="M19.887,7.371s.552,4.883-1.28,5.309S15,8.519,15,8.519l.119-3.212c.521.188.578-1.965,1.162-2.1s1.693,1.745,2.075,1.344Z" transform="translate(-5.593 -1.204)" fill="#fdd7ad"/>
  <path id="Path_3258" data-name="Path 3258" d="M23.188,23.96,21.9,28.139l-.351-.3L18.281,25,15,11a2.794,2.794,0,0,0,2.874,1.255,2.8,2.8,0,0,0,2.014-2.4Z" transform="translate(-5.593 -3.683)" fill="#e64c3c"/>
  <path id="Path_3259" data-name="Path 3259" d="M21.55,28.52l-3.269-2.836L15,11.68a2.794,2.794,0,0,0,2.874,1.255Z" transform="translate(-5.593 -4.364)" fill="#c03a2b"/>
  <path id="Path_3260" data-name="Path 3260" d="M10.108,29.143l-.05,7.8L5.108,35.11.1,23.032A.627.627,0,0,1,.44,22.21l5.22-2.158a.632.632,0,0,1,.822.339l.477,1.161.238.577.238.577.483,1.161.238.577.245.583.477,1.161.238.577.238.577.728,1.744.025.056Z" transform="translate(-0.023 -7.466)" fill="#f0c419"/>
  <path id="Path_3261" data-name="Path 3261" d="M9.589,23.624,6.7,24.829a.673.673,0,0,1-.245.044.627.627,0,0,1-.238-1.2l2.9-1.2.238.577Zm.966,2.321-1.744.722a.627.627,0,1,1-.477-1.161l1.738-.722.238.577Zm.954,2.315-2.892,1.2a.672.672,0,0,1-.238.044.627.627,0,0,1-.245-1.2l2.9-1.2.238.577Z" transform="translate(-2.177 -8.385)" fill="#b19046"/>
  <path id="Path_3262" data-name="Path 3262" d="M36.392,42.424A4.392,4.392,0,0,1,32,46.816H4.394a4.392,4.392,0,1,1,1.255-8.6,6.588,6.588,0,0,1,10.54-5.138,7.843,7.843,0,0,1,14.838,5.063A4.527,4.527,0,0,1,32,38.032a4.392,4.392,0,0,1,4.392,4.392Z" transform="translate(-0.006 -10.439)" fill="#e6e7e8"/>
  <path id="Path_3263" data-name="Path 3263" d="M18.427,3.364a3.18,3.18,0,0,1-1.487.954,3.184,3.184,0,0,1-1.75-.194L15.309.811a.824.824,0,0,1,.627-.772A.887.887,0,0,1,16.119.02a.825.825,0,0,1,.728.433l1.581,2.911Z" transform="translate(-5.663 -0.02)" fill="#2c2f38"/>
  <path id="Path_3264" data-name="Path 3264" d="M36.944,20.108a20.69,20.69,0,0,1-4.674-.295c.094-1.023.232-2.033.4-3.043,1.412.088,2.836.176,4.285.264A27.919,27.919,0,0,1,36.944,20.108Z" transform="translate(-12.027 -6.261)" fill="#95a5a5"/>
  <path id="Path_3265" data-name="Path 3265" d="M32.191,10.818a3.337,3.337,0,0,1-.235-4.812c1.9-2.1,2.658-3.53,2.61-4.888a.31.31,0,0,1,.528-.233c1.545,1.513,5.031,5.735,1.346,10.2" transform="translate(-11.553 -0.309)" fill="#805333"/>
  <path id="Path_3266" data-name="Path 3266" d="M37.312,12.073a.627.627,0,0,1-.5-1,3.485,3.485,0,0,0,.624-2.616.627.627,0,1,1,1.212-.323,4.706,4.706,0,0,1-.834,3.694A.627.627,0,0,1,37.312,12.073Z" transform="translate(-13.672 -2.863)" fill="#603e26"/>
  <path id="Path_3267" data-name="Path 3267" d="M24.255,48.645a.627.627,0,0,1-.577-.381,3.81,3.81,0,0,1-.307-1.5,3.764,3.764,0,0,1,7.171-1.6.628.628,0,0,1-1.136.535,2.485,2.485,0,0,0-2.271-1.441,2.51,2.51,0,0,0-2.51,2.51,2.558,2.558,0,0,0,.207,1.009.627.627,0,0,1-.577.873Z" transform="translate(-8.711 -16.033)" fill="#bdc3c7"/>
  <path id="Path_3268" data-name="Path 3268" d="M29.94,42.5a.627.627,0,0,1-.571-.367,1.882,1.882,0,0,0-1.706-1.095,1.85,1.85,0,0,0-1.164.409.627.627,0,1,1-.782-.981,3.091,3.091,0,0,1,1.947-.683,3.137,3.137,0,0,1,2.848,1.829.627.627,0,0,1-.571.888ZM13.627,39.156A.627.627,0,0,1,13,38.529a3.4,3.4,0,0,1,2.311-3.105.629.629,0,1,1,.4,1.192,2.157,2.157,0,0,0-1.457,1.913A.627.627,0,0,1,13.627,39.156Zm10.666-4.392a.627.627,0,0,1-.609-.78A3.908,3.908,0,0,1,27.43,31a.627.627,0,1,1,0,1.255A2.676,2.676,0,0,0,24.9,34.289.627.627,0,0,1,24.293,34.764Z" transform="translate(-4.847 -11.563)" fill="#bdc3c7"/>
  <path id="Path_3269" data-name="Path 3269" d="M53.994,17.088a.329.329,0,0,1-.075.282,11.215,11.215,0,0,0-1.9,3.143,2.17,2.17,0,0,1-.74.358A3.091,3.091,0,0,1,49.22,20.7c-.006,0-.006-.006-.013-.006a3.074,3.074,0,0,1-1.587-1.343,2.22,2.22,0,0,1-.27-.74,11.493,11.493,0,0,0,.885-3.6.31.31,0,0,1,.151-.251l3.52-2.2.91-.571.245,1.048.935,4.04Z" transform="translate(-17.646 -4.484)" fill="#f0c419"/>
  <path id="Path_3270" data-name="Path 3270" d="M52.815,12,50.9,16.637h-.006L49.22,20.7c-.006,0-.006-.006-.013-.006a3.074,3.074,0,0,1-1.587-1.343,2.22,2.22,0,0,1-.27-.74,11.493,11.493,0,0,0,.885-3.6.31.31,0,0,1,.151-.251l3.52-2.2.91-.571Z" transform="translate(-17.646 -4.484)" fill="#f3d55b"/>
  <path id="Path_3271" data-name="Path 3271" d="M54.934,13.048,53.585,16.3a.627.627,0,0,1-.577.389.593.593,0,0,1-.232-.05h-.006a.622.622,0,0,1-.339-.822l1.349-3.244.91-.571Z" transform="translate(-19.52 -4.484)" fill="#e57e25"/>
</svg>
