<svg id="development" xmlns="http://www.w3.org/2000/svg" width="42.009" height="40.791" viewBox="0 0 42.009 40.791">
  <path id="Path_3289" data-name="Path 3289" d="M167.674,328.621h-5.667c0,8.723-5.315,13.188-5.315,13.188h16.3s-5.315-4.465-5.315-13.188Zm0,0" transform="translate(-143.835 -301.658)" fill="#426175"/>
  <path id="Path_3290" data-name="Path 3290" d="M152.592,459.322H134.065a.807.807,0,0,1-.807-.808,2.573,2.573,0,0,1,2.573-2.573h15a2.573,2.573,0,0,1,2.573,2.573.807.807,0,0,1-.807.808Zm0,0" transform="translate(-122.324 -418.531)" fill="#cdd6df"/>
  <path id="Path_3291" data-name="Path 3291" d="M40.377,31.968H1.633A1.633,1.633,0,0,1,0,30.336V1.633A1.633,1.633,0,0,1,1.633,0H40.377a1.633,1.633,0,0,1,1.633,1.633v28.7a1.633,1.633,0,0,1-1.633,1.633Zm0,0" fill="#426175"/>
  <path id="Path_3292" data-name="Path 3292" d="M441.3,0h-4.541a1.633,1.633,0,0,1,1.633,1.633v28.7a1.633,1.633,0,0,1-1.633,1.633H441.3a1.633,1.633,0,0,0,1.633-1.633V1.633A1.633,1.633,0,0,0,441.3,0Zm0,0" transform="translate(-400.926)" fill="#2c4456"/>
  <path id="Path_3293" data-name="Path 3293" d="M28.844,29.875H66.12V52.147H28.844Zm0,0" transform="translate(-26.477 -27.424)" fill="#f2f2f2"/>
  <path id="Path_3294" data-name="Path 3294" d="M28.844,29.875H66.12v4.149H28.844Zm0,0" transform="translate(-26.477 -27.424)" fill="#46d1c0"/>
  <path id="Path_3295" data-name="Path 3295" d="M0,332.219V335.3a1.633,1.633,0,0,0,1.633,1.633H40.377a1.633,1.633,0,0,0,1.633-1.633v-3.077Zm0,0" transform="translate(0 -304.961)" fill="#cdd6df"/>
  <path id="Path_3296" data-name="Path 3296" d="M442.935,332.219h-4.541V335.3a1.633,1.633,0,0,1-1.633,1.633H441.3a1.633,1.633,0,0,0,1.633-1.633Zm0,0" transform="translate(-400.926 -304.961)" fill="#abb2ba"/>
  <path id="Path_3297" data-name="Path 3297" d="M141.549,123.831l3.541-2.316a.35.35,0,0,1,.2-.054.71.71,0,0,1,.647.673.472.472,0,0,1-.2.39l-2.827,1.858,2.827,1.858a.437.437,0,0,1,.2.39.7.7,0,0,1-.646.66.351.351,0,0,1-.2-.054l-3.541-2.316a.675.675,0,0,1-.3-.538A.7.7,0,0,1,141.549,123.831Zm11.874-5.574a.4.4,0,0,1-.054.215l-4.941,9.855a.488.488,0,0,1-.444.256.521.521,0,0,1-.525-.5.541.541,0,0,1,.04-.2l4.954-9.9a.41.41,0,0,1,.4-.242.549.549,0,0,1,.565.511Zm5.9,6.664-3.541,2.316a.309.309,0,0,1-.188.054.686.686,0,0,1-.646-.66.459.459,0,0,1,.188-.39l2.84-1.858-2.84-1.858a.5.5,0,0,1-.188-.39.7.7,0,0,1,.646-.673.309.309,0,0,1,.188.054l3.541,2.315a.7.7,0,0,1,.3.552.64.64,0,0,1-.3.539Zm0,0" transform="translate(-129.663 -108.085)" fill="#fd715c"/>
  <g id="Group_4524" data-name="Group 4524" transform="translate(28.66 3.935)">
    <path id="Path_3298" data-name="Path 3298" d="M349.887,49.135a.591.591,0,1,1,.591-.591.592.592,0,0,1-.591.591Zm3.238,0a.591.591,0,1,1,.591-.591.592.592,0,0,1-.591.591Zm3.238,0a.591.591,0,1,1,.591-.591.592.592,0,0,1-.591.591Zm0,0" transform="translate(-349.296 -47.953)" fill="#f2f2f2"/>
  </g>
</svg>
