<svg xmlns="http://www.w3.org/2000/svg" width="435.865" height="435.89" viewBox="0 0 435.865 435.89">
  <g id="Group_4476" data-name="Group 4476" transform="translate(-0.975 -0.972)">
    <g id="Digital_Marketing" data-name="Digital Marketing" transform="translate(0.974 0.971)">
      <path id="Path_2895" data-name="Path 2895" d="M173.713,87.82a8.807,8.807,0,0,1-6.25-15.057,8.523,8.523,0,0,0,2.652-6.156c0-4.83-1.7-5.3-16.951-20.55a8.618,8.618,0,0,0-12.406,0,8.807,8.807,0,0,1-15.057-6.25A8.807,8.807,0,0,0,116.893,31H96.627a8.807,8.807,0,0,0-8.807,8.807,8.807,8.807,0,0,1-15.057,6.25,8.618,8.618,0,0,0-6.156-2.652c-4.83,0-5.3,1.7-20.55,16.951a8.618,8.618,0,0,0,0,12.406,8.807,8.807,0,0,1-6.25,15.057A8.807,8.807,0,0,0,31,96.627v20.266a8.807,8.807,0,0,0,8.807,8.807,8.807,8.807,0,0,1,6.25,15.057,8.523,8.523,0,0,0,0,12.406l14.3,14.3a8.618,8.618,0,0,0,12.406,0,8.807,8.807,0,0,1,15.057,6.25,8.807,8.807,0,0,0,8.807,8.807h20.266a8.807,8.807,0,0,0,8.807-8.807,8.807,8.807,0,0,1,8.9-8.807c6.345,0,6.155,5.208,12.311,5.208s5.3-1.7,20.55-16.951a8.712,8.712,0,0,0,0-12.406,8.807,8.807,0,0,1,6.25-15.057,8.807,8.807,0,0,0,8.807-8.807V96.627a8.807,8.807,0,0,0-8.807-8.807Zm-81.726-5.3a28.41,28.41,0,1,1-12.542,31.918A28.41,28.41,0,0,1,91.987,82.517Z" transform="translate(253.346 253.37)" fill="#374f68"/>
      <path id="Path_2896" data-name="Path 2896" d="M148.611,87.82a8.807,8.807,0,0,1-6.25-15.057,8.523,8.523,0,0,0,2.652-6.156c0-4.83-1.7-5.3-16.951-20.55a8.618,8.618,0,0,0-12.406,0,8.807,8.807,0,0,1-15.057-6.25A8.807,8.807,0,0,0,91.791,31H71.525a8.807,8.807,0,0,0-8.807,8.807,8.807,8.807,0,0,1-15.057,6.25,7.671,7.671,0,0,0-4.83-2.462C8.644,108.37,79.859,179.868,144.823,145.587c-.568-5.114-5.019-5.019-5.019-10.985a8.807,8.807,0,0,1,8.807-8.9,8.807,8.807,0,0,0,8.807-8.807V96.627a8.807,8.807,0,0,0-8.807-8.807ZM105.9,121.533a28.41,28.41,0,1,1,.506-28.681,28.41,28.41,0,0,1-.506,28.681Z" transform="translate(278.448 253.37)" fill="#425b72"/>
      <rect id="Rectangle_77" data-name="Rectangle 77" width="151.52" height="113.64" rx="2" transform="translate(284.346 0.27)" fill="#db5669"/>
      <path id="Path_2897" data-name="Path 2897" d="M157.11,19.94V95.7H52.94A18.94,18.94,0,0,1,34,76.76V1H138.17A18.94,18.94,0,0,1,157.11,19.94Z" transform="translate(278.756 -0.73)" fill="#f26674"/>
      <path id="Path_2898" data-name="Path 2898" d="M152.74,91.38a18.94,18.94,0,0,1-18.94,18.94H20.16A18.94,18.94,0,0,1,1.22,91.38C1.22,10.98-.958,8.9,7.659,1.51L76.98,53.5,146.3,1.51C154.918,8.9,152.74,9.749,152.74,91.38Z" transform="translate(-0.974 3.59)" fill="#fc6"/>
      <path id="Path_2899" data-name="Path 2899" d="M127.11,91.38H22.94A18.94,18.94,0,0,1,4,72.44V17.988L51.35,53.5,120.67,1.51C129.288,8.9,127.11,9.749,127.11,91.38Z" transform="translate(24.656 3.59)" fill="#ffde76"/>
      <path id="Path_2900" data-name="Path 2900" d="M76.869,35.587,50.732,48.75A9.47,9.47,0,0,1,37,40.227V14.09a9.47,9.47,0,0,1,9.47-9.47c3.125,0,1.989,0,30.115,14.205a9.47,9.47,0,0,1,.284,16.762Z" transform="translate(304.165 29.931)" fill="#dad7e5"/>
      <path id="Path_2901" data-name="Path 2901" d="M140.321,6.029,71,58.019,1.68,6.029A18.372,18.372,0,0,1,14.18,1.2C135.491,1.2,133.029-.6,140.321,6.029Z" transform="translate(5.005 -0.929)" fill="#ffba55"/>
      <path id="Path_2902" data-name="Path 2902" d="M118.388,97.813,78.709,137.966a28.41,28.41,0,0,1-40.153,0l-27.274-26.8A28.41,28.41,0,0,1,6.832,76.884c2.462-4.451,2.083-3.5,44.6-46.024Z" transform="translate(16.236 252.184)" fill="#db5669"/>
      <path id="Path_2903" data-name="Path 2903" d="M100.338,83.608,74.864,109.556a28.41,28.41,0,0,1-40.153,0C5.638,80.483,5.733,81.146,3.46,76.884c2.462-4.451,2.083-3.5,44.6-46.024Z" transform="translate(20.082 252.184)" fill="#f26674"/>
      <path id="Path_2904" data-name="Path 2904" d="M50.679,106.293,11,66.14l26.8-26.8C81.078,83.47,78.9,80.629,80.415,83.47a18.94,18.94,0,0,1-29.736,22.823Z" transform="translate(83.946 324.01)" fill="#374f68"/>
      <path id="Path_2905" data-name="Path 2905" d="M71.945,83.47a18.94,18.94,0,0,1-29.736,3.883L12,56.67,29.33,39.34C72.608,83.47,70.43,80.629,71.945,83.47Z" transform="translate(92.416 324.01)" fill="#425b72"/>
      <path id="Path_2906" data-name="Path 2906" d="M202.35,151.326,75.073,211.65,8.12,144.7c13.542-28.41,1.8-3.6,60.324-127.277Z" transform="translate(59.552 138.347)" fill="#dad7e5"/>
      <path id="Path_2907" data-name="Path 2907" d="M174.815,132.007l-89.87,42.426a28.41,28.41,0,0,1-32.2-5.587L9.09,125.378,60.228,17.42Z" transform="translate(67.768 138.347)" fill="#edebf2"/>
      <path id="Path_2908" data-name="Path 2908" d="M83.41,58.408A37.88,37.88,0,0,1,72.236,85.113L18.73,31.608a37.88,37.88,0,0,1,64.68,26.8Z" transform="translate(149.419 164.407)" fill="#374f68"/>
      <path id="Path_2909" data-name="Path 2909" d="M72.972,54.807a18.94,18.94,0,0,1-24.054-2.083L19.94,23.745A37.88,37.88,0,0,1,72.972,54.807Z" transform="translate(159.667 164.504)" fill="#425b72"/>
      <g id="Group_4475" data-name="Group 4475" transform="translate(199.116 113.91)">
        <path id="Path_2910" data-name="Path 2910" d="M71.339,77.775A9.47,9.47,0,0,1,64.71,61.581L84.786,41.41A9.47,9.47,0,0,1,97.76,54.857C76.358,76.733,76.547,77.775,71.339,77.775ZM22,50.88V22.47a9.47,9.47,0,1,1,18.94,0V50.88a9.47,9.47,0,0,1-18.94,0Zm94.7,66.29H88.29a9.47,9.47,0,1,1,0-18.94H116.7a9.47,9.47,0,1,1,0,18.94Z" transform="translate(-22 -13)" fill="#f26674"/>
      </g>
      <path id="Path_2911" data-name="Path 2911" d="M66.626,36.713a28.41,28.41,0,0,1-28.41-32.1c3.125,0,1.989,0,30.115,14.205,5.3,2.462,9.944,11.743-1.7,17.9Z" transform="translate(312.42 29.847)" fill="#edebf2"/>
      <path id="Path_2912" data-name="Path 2912" d="M120.67,6.071,51.35,58.061,4,22.549V1.241C114.041,1.241,113.189-.747,120.67,6.071Z" transform="translate(24.656 -0.971)" fill="#fc6"/>
    </g>
  </g>
</svg>
