<svg xmlns="http://www.w3.org/2000/svg" width="43.498" height="43.439" viewBox="0 0 43.498 43.439">
  <g id="E-Commerce_" data-name="E-Commerce " transform="translate(0 -0.5)">
    <path id="Path_7912" data-name="Path 7912" d="M43.5,4.234V27.669a3.775,3.775,0,0,1-3.775,3.774H3.774A3.774,3.774,0,0,1,0,27.669V4.234A3.734,3.734,0,0,1,3.734.5H39.763A3.735,3.735,0,0,1,43.5,4.234Zm0,0" fill="#c4e2f2"/>
    <path id="Path_7913" data-name="Path 7913" d="M170.266,341.245l-8.773,2-8.774-2,1.2-5.035,7.2-2.647,7.944,2.647.389,1.63Zm0,0" transform="translate(-139.745 -304.767)" fill="#2d303b"/>
    <path id="Path_7914" data-name="Path 7914" d="M43.5,315.066v.444a3.775,3.775,0,0,1-3.775,3.775H3.774A3.774,3.774,0,0,1,0,315.51v-.444ZM30.522,324.32H17.1l.813-3.405H29.709Zm0,0" transform="translate(0 -287.842)" fill="#3c3f4d"/>
    <path id="Path_7915" data-name="Path 7915" d="M119.755,426.791v1.2H91.867v-1.2a2.8,2.8,0,0,1,2.8-2.8h22.281A2.8,2.8,0,0,1,119.755,426.791Zm0,0" transform="translate(-84.062 -387.51)" fill="#2d303b"/>
    <path id="Path_7916" data-name="Path 7916" d="M245.1,264.672h-19.7l.965-9.289h17.767Zm0,0" transform="translate(-206.256 -233.229)" fill="#83b2c6"/>
    <path id="Path_7917" data-name="Path 7917" d="M78.746,110.692l-.233,1.775-.745,5.672a2.052,2.052,0,0,1-2.035,1.785H66.845a2.052,2.052,0,0,1-2.035-1.785l-.977-7.447,7.457-2Zm0,0" transform="translate(-58.41 -99.003)" fill="#1f81a3"/>
    <path id="Path_7918" data-name="Path 7918" d="M114.049,153.1l-.745,5.672a2.052,2.052,0,0,1-2.035,1.785h-6.049a2.052,2.052,0,0,1-2.035-1.785l-.5-3.844a1.618,1.618,0,0,1,1.6-1.828Zm0,0" transform="translate(-93.945 -139.638)" fill="#2c92bf"/>
    <path id="Path_7919" data-name="Path 7919" d="M68.771,98.645v1.087a.922.922,0,0,1-.921.922H52.738a.922.922,0,0,1-.922-.922V98.645a.922.922,0,0,1,.922-.922H67.85a.922.922,0,0,1,.921.922Zm0,0" transform="translate(-47.414 -88.963)" fill="#1f81a3"/>
    <path id="Path_7920" data-name="Path 7920" d="M107.017,98.645v1.087a.922.922,0,0,1-.921.922H94.534a.922.922,0,0,1-.921-.922V98.645a.922.922,0,0,1,.921-.922H106.1a.922.922,0,0,1,.921.922Zm0,0" transform="translate(-85.66 -88.963)" fill="#2c92bf"/>
    <path id="Path_7921" data-name="Path 7921" d="M135.349,48.613a1.509,1.509,0,0,0-1.509,1.509v7.19a1.509,1.509,0,1,0,3.018,0v-7.19A1.509,1.509,0,0,0,135.349,48.613Zm0,0" transform="translate(-122.469 -44.026)" fill="#3c3f4d"/>
    <path id="Path_7922" data-name="Path 7922" d="M244.057,319.284h-19.7l.438-4.218h18.822Zm0,0" transform="translate(-205.298 -287.842)" fill="#2d303b"/>
    <path id="Path_7923" data-name="Path 7923" d="M243.734,255.379H225.967L223.7,277.165H246Zm0,0" transform="translate(-204.698 -233.225)" fill="#ff491f"/>
    <path id="Path_7924" data-name="Path 7924" d="M186.83,338.293h-12.35l-1.573,14.742h15.5Zm0,0" transform="translate(-158.217 -309.095)" fill="#ffe14d"/>
    <path id="Path_7925" data-name="Path 7925" d="M300.909,175a.666.666,0,0,1-.666-.666v-4.394a4.128,4.128,0,1,0-8.255,0v4.394a.666.666,0,1,1-1.331,0v-4.394a5.459,5.459,0,0,1,10.918,0v4.394a.666.666,0,0,1-.666.666Zm0,0" transform="translate(-265.963 -150.053)" fill="#fff"/>
    <path id="Path_7926" data-name="Path 7926" d="M226.107,369.152a3.533,3.533,0,0,1-3.529-3.529v-2.863a.666.666,0,1,1,1.332,0v2.863a2.2,2.2,0,1,0,4.394,0v-2.863a.666.666,0,0,1,1.331,0v2.863A3.532,3.532,0,0,1,226.107,369.152Zm0,0" transform="translate(-203.669 -330.875)" fill="#3c3f4d"/>
    <path id="Path_7927" data-name="Path 7927" d="M292.311,73.6h-2.841a.666.666,0,0,1,0-1.331h2.841a.666.666,0,1,1,0,1.331Zm0,0" transform="translate(-264.269 -65.675)" fill="#ff491f"/>
    <path id="Path_7928" data-name="Path 7928" d="M366.621,73.6h-9.232a.666.666,0,0,1,0-1.331h9.232a.666.666,0,1,1,0,1.331Zm0,0" transform="translate(-326.417 -65.675)" fill="#3c3f4d"/>
    <path id="Path_7929" data-name="Path 7929" d="M292.309,110.175h-2.841a.666.666,0,1,1,0-1.332h2.841a.666.666,0,1,1,0,1.332Zm0,0" transform="translate(-264.266 -99.139)" fill="#ff491f"/>
    <path id="Path_7930" data-name="Path 7930" d="M366.618,110.175h-9.232a.666.666,0,1,1,0-1.332h9.232a.666.666,0,1,1,0,1.332Zm0,0" transform="translate(-326.414 -99.139)" fill="#3c3f4d"/>
  </g>
</svg>
