<svg xmlns="http://www.w3.org/2000/svg" width="511.305" height="512" viewBox="0 0 511.305 512">
  <g id="Group_4467" data-name="Group 4467" transform="translate(-0.5)">
    <path id="Path_2841" data-name="Path 2841" d="M.5,85.977V361.44A44.359,44.359,0,0,0,44.86,405.8H467.44a44.359,44.359,0,0,0,44.36-44.36V85.977a43.888,43.888,0,0,0-43.89-43.891H44.39A43.887,43.887,0,0,0,.5,85.976Zm0,0" fill="#c4e2f2"/>
    <path id="Path_2842" data-name="Path 2842" d="M359.281,464.992l-103.129,23.5-103.136-23.5L167.145,405.8l84.628-31.118,93.38,31.118,4.57,19.16Zm0,0" fill="#2d303b"/>
    <path id="Path_2843" data-name="Path 2843" d="M511.8,356.219v5.219A44.372,44.372,0,0,1,467.437,405.8H44.86A44.362,44.362,0,0,1,.505,361.437v-5.218ZM359.281,464.992H201.54l9.559-40.027H349.724Zm0,0" fill="#3c3f4d"/>
    <path id="Path_2844" data-name="Path 2844" d="M420.063,497.945V512H92.245V497.945A32.954,32.954,0,0,1,125.2,464.992h261.91a32.954,32.954,0,0,1,32.954,32.953Zm0,0" fill="#2d303b"/>
    <path id="Path_2845" data-name="Path 2845" d="M420.063,497.945V512H148.582V497.945a32.956,32.956,0,0,1,32.965-32.953H387.109a32.954,32.954,0,0,1,32.954,32.953Zm0,0" fill="#3c3f4d"/>
    <path id="Path_2846" data-name="Path 2846" d="M93.324,100.137H302.172l26.61,256.082H66.718Zm0,0" fill="#ff491f"/>
    <path id="Path_2847" data-name="Path 2847" d="M196.012,182.934H341.187L359.68,356.219H177.52Zm0,0" fill="#ed3618"/>
    <path id="Path_2848" data-name="Path 2848" d="M215.84,182.934H361.012l18.5,173.285H197.344Zm0,0" fill="#ffe14d"/>
    <path id="Path_2849" data-name="Path 2849" d="M254.094,133.008a7.824,7.824,0,0,1-7.824-7.828V73.535a48.52,48.52,0,0,0-97.04,0V125.18a7.826,7.826,0,0,1-15.652,0V73.535a64.172,64.172,0,1,1,128.344,0V125.18a7.827,7.827,0,0,1-7.829,7.828Zm0,0" fill="#3c3f4d"/>
    <path id="Path_2850" data-name="Path 2850" d="M288.426,289.66a41.522,41.522,0,0,1-41.477-41.476V214.535a7.827,7.827,0,1,1,15.654,0v33.649a25.824,25.824,0,0,0,51.648,0V214.535a7.826,7.826,0,1,1,15.653,0v33.649A41.522,41.522,0,0,1,288.426,289.66Zm0,0" fill="#fff"/>
    <path id="Path_2851" data-name="Path 2851" d="M475.285,76.5A76.5,76.5,0,1,1,398.781,0,76.5,76.5,0,0,1,475.285,76.5Zm0,0" fill="#32cc77"/>
    <path id="Path_2852" data-name="Path 2852" d="M390.762,122.89a7.829,7.829,0,0,1-6.84-4.027L363.05,81.3a7.826,7.826,0,0,1,13.683-7.6L390.3,98.113l29.945-61.6a7.825,7.825,0,1,1,14.075,6.844L397.8,118.484a7.832,7.832,0,0,1-6.823,4.4c-.07,0-.141,0-.215,0Zm0,0" fill="#fff"/>
    <g id="Group_4466" data-name="Group 4466">
      <path id="Path_2853" data-name="Path 2853" d="M483.172,214.723H408.043a7.826,7.826,0,0,1,0-15.652h75.129a7.826,7.826,0,0,1,0,15.652Zm0,36.523H423.7a7.826,7.826,0,0,1,0-15.652h59.473a7.826,7.826,0,0,1,0,15.652Zm0,0" fill="#3c3f4d"/>
    </g>
  </g>
</svg>
