<svg xmlns="http://www.w3.org/2000/svg" width="28.058" height="38.168" viewBox="0 0 28.058 38.168">
  <g id="education" transform="translate(-67.813)">
    <path id="Path_3328" data-name="Path 3328" d="M210.632,168.18a6.126,6.126,0,0,0,3.442-1.3.591.591,0,0,0-.122-1.027l0,0a2.072,2.072,0,0,1-1.233-1.895v-3.095h-4.765v3.095a2.073,2.073,0,0,1-.985,1.764l-.014.009a.589.589,0,0,0-.058.984A6.4,6.4,0,0,0,210.632,168.18Z" transform="translate(-128.491 -148.874)" fill="#ffddce"/>
    <path id="Path_3329" data-name="Path 3329" d="M184.881,29.95a.881.881,0,0,0-.879-.882h-.33l-.006-1.329c-.012-2.785-2.309-3.808-4.857-3.826-2.537.04-4.829,1.072-4.817,3.867l0,.937,0,.392h-.313a1.259,1.259,0,0,0-1.258,1.26v1.142a1.259,1.259,0,0,0,1.26,1.258h.323a4.579,4.579,0,0,0,1.54,3.358,4.909,4.909,0,0,0,6.62-.028,4.58,4.58,0,0,0,1.512-3.371h.331a.881.881,0,0,0,.872-.89Z" transform="translate(-96.815 -22.131)" fill="#ffece4"/>
    <path id="Path_3330" data-name="Path 3330" d="M119.9,226.48l-.856-.171a2.042,2.042,0,0,1-.432-.139,5.133,5.133,0,0,1-6.866-.024c-.04-.035-.078-.071-.117-.107a2.065,2.065,0,0,1-.68.27l-.856.171a7.958,7.958,0,0,0-6.454,7.814v3.873a1.626,1.626,0,0,0,1.626,1.626h19.464a1.626,1.626,0,0,0,1.626-1.626v-3.873A7.958,7.958,0,0,0,119.9,226.48Z" transform="translate(-33.153 -209.189)" fill="#88a8d8"/>
    <path id="Path_3331" data-name="Path 3331" d="M285.835,228.1l-.856-.171a2.047,2.047,0,0,1-.432-.139,5.487,5.487,0,0,1-1.606.965,7.96,7.96,0,0,1,4.482,7.159v3.873a1.626,1.626,0,0,1-1.626,1.626h4.866a1.626,1.626,0,0,0,1.626-1.626v-3.873A7.958,7.958,0,0,0,285.835,228.1Z" transform="translate(-199.091 -210.813)" fill="#7296d1"/>
    <path id="Path_3332" data-name="Path 3332" d="M119.313,251.745c-3.023-2.046-7.6-2.172-9.455-2.129a.844.844,0,0,0-.825.845v12.191a.844.844,0,0,0,.864.845c1.779-.038,5.935.084,8.92,1.819a2.326,2.326,0,0,0,2.341,0c3.894-2.263,9.78-1.782,9.784-1.78V250.461a.844.844,0,0,0-.825-.845c-1.855-.043-6.432.083-9.455,2.129A1.2,1.2,0,0,1,119.313,251.745Z" transform="translate(-38.147 -231.002)" fill="#f7f4f7"/>
    <path id="Path_3333" data-name="Path 3333" d="M332.553,249.616a23.906,23.906,0,0,0-4.779.367.844.844,0,0,1,.737.838V263.74a23.75,23.75,0,0,1,4.866-.205V250.461A.844.844,0,0,0,332.553,249.616Z" transform="translate(-240.582 -231.002)" fill="#edeaed"/>
    <path id="Path_3334" data-name="Path 3334" d="M187.686,8.667A1.185,1.185,0,0,0,186.5,7.5h-5.257a3.817,3.817,0,0,0-3.817,3.817v2.522a.871.871,0,0,0,.584.822l.94.327a.505.505,0,0,0,.671-.478l0-1.779c0-.029,0-.057,0-.085a1.219,1.219,0,0,1,2.132-.722,5.186,5.186,0,0,0,5.093,1.855.611.611,0,0,1,.693.318h0a1.131,1.131,0,0,0,1.384.563.871.871,0,0,0,.584-.822V10.51a1.164,1.164,0,0,0-1.145-1.164A.69.69,0,0,1,187.686,8.667Z" transform="translate(-101.444 -6.941)" fill="#89808c"/>
    <path id="Path_3335" data-name="Path 3335" d="M241.795,30.283a.881.881,0,0,0-.879-.882h-.33l-.006-1.329c-.011-2.551-1.94-3.623-4.222-3.8a3,3,0,0,1,.568,1.758l0,7.03a4.58,4.58,0,0,1-1.512,3.371,5.289,5.289,0,0,1-1.492.932,4.96,4.96,0,0,0,1.855.366,5.037,5.037,0,0,0,3.3-1.3,4.58,4.58,0,0,0,1.512-3.371h.331a.881.881,0,0,0,.872-.89Z" transform="translate(-153.729 -22.464)" fill="#ffddce"/>
    <path id="Path_3336" data-name="Path 3336" d="M235.744,9.345a.69.69,0,0,1-.679-.679A1.185,1.185,0,0,0,233.881,7.5h-4.87a3.01,3.01,0,0,1,3.01,3.009v3.269a4.542,4.542,0,0,0,2.206,0,.611.611,0,0,1,.693.318h0a1.131,1.131,0,0,0,1.384.563.871.871,0,0,0,.584-.822V10.51A1.164,1.164,0,0,0,235.744,9.345Z" transform="translate(-148.823 -6.941)" fill="#756e78"/>
    <g id="Group_4537" data-name="Group 4537" transform="translate(70.155 20.52)">
      <path id="Path_3337" data-name="Path 3337" d="M121.722,275.275c-1.9-.044-6.49.08-9.707,2.03v14.8q.076-.038.15-.08c3.337-1.94,8.045-1.989,9.77-1.933a.646.646,0,0,0,.667-.647V276.176A.9.9,0,0,0,121.722,275.275Zm-11.9,2.03c-3.217-1.951-7.8-2.074-9.707-2.03a.9.9,0,0,0-.88.9v13.265a.646.646,0,0,0,.667.647c1.725-.056,6.434-.006,9.77,1.933q.074.043.15.08Z" transform="translate(-99.23 -275.268)" fill="#ecbe6b"/>
    </g>
    <path id="Path_3338" data-name="Path 3338" d="M337.493,275.274a25.475,25.475,0,0,0-5.111.393l.237,0a.9.9,0,0,1,.88.9v13.265a.645.645,0,0,1-.224.489,26.145,26.145,0,0,1,4.432-.239.646.646,0,0,0,.667-.647V276.175A.9.9,0,0,0,337.493,275.274Z" transform="translate(-244.846 -254.747)" fill="#e8ae4d"/>
    <path id="Path_3339" data-name="Path 3339" d="M239.394,301.475q-.162-.1-.328-.2v14.807l.013.007a2.481,2.481,0,0,0,2.5,0l.013-.007V301.276q-.166.1-.328.2A1.737,1.737,0,0,1,239.394,301.475Z" transform="translate(-158.487 -278.817)" fill="#e49542"/>
    <path id="Path_3340" data-name="Path 3340" d="M76.124,347.166l.971-.595v.948a.705.705,0,0,0,.705.705h.463a1.275,1.275,0,0,1,1.275,1.275v1.661a.8.8,0,0,1-.8.8H77.147a1.835,1.835,0,0,1-1.835-1.835v-1.506a1.7,1.7,0,0,1,.812-1.45Z" transform="translate(-6.94 -320.735)" fill="#ffece4"/>
    <path id="Path_3341" data-name="Path 3341" d="M383.41,347.166l-.971-.595v.948a.705.705,0,0,1-.705.705h-.463A1.275,1.275,0,0,0,380,349.5v1.661a.8.8,0,0,0,.8.8h1.595a1.835,1.835,0,0,0,1.835-1.835v-1.506a1.7,1.7,0,0,0-.812-1.45Z" transform="translate(-288.911 -320.735)" fill="#ffddce"/>
    <path id="Path_3342" data-name="Path 3342" d="M297.083,327.427a.559.559,0,0,0,.351,1.062,20.866,20.866,0,0,1,5.487-.912.559.559,0,1,0-.046-1.117A21.989,21.989,0,0,0,297.083,327.427Z" transform="translate(-211.823 -302.122)"/>
    <path id="Path_3343" data-name="Path 3343" d="M94.086,25.521v-.7a.559.559,0,1,0-1.118,0V26.8a.146.146,0,0,1-.144.125H92.36a1.836,1.836,0,0,0-1.834,1.834v1.661a1.357,1.357,0,0,0,1.356,1.356h1.086v2.913a.087.087,0,0,1-.09.088,21.7,21.7,0,0,0-9.217,1.565V22.791c3.086-1.651,7.278-1.745,8.972-1.705a.35.35,0,0,1,.062.008H92.7a.34.34,0,0,1,.264.333v.77a.559.559,0,1,0,1.118,0v-.77a1.451,1.451,0,0,0-.731-1.268v-.7a1.4,1.4,0,0,0-1.371-1.4q-.96-.021-1.92.03a8.445,8.445,0,0,0-3.214-1.343,5.327,5.327,0,0,1-1.165-.271h0a1.514,1.514,0,0,1-.9-1.383v-.016a6.089,6.089,0,0,0,.942-.682,5.094,5.094,0,0,0,1.666-3.247,1.444,1.444,0,0,0,1.238-1.437l0-1.889a1.447,1.447,0,0,0-.077-.457,1.425,1.425,0,0,0,.077-.462V3.569a1.731,1.731,0,0,0-1.7-1.723.13.13,0,0,1-.129-.129A1.752,1.752,0,0,0,85.058,0H79.8a4.393,4.393,0,0,0-4.282,3.473.559.559,0,1,0,1.094.23A3.27,3.27,0,0,1,79.8,1.118h5.257a.629.629,0,0,1,.626.616,1.244,1.244,0,0,0,1.228,1.229.608.608,0,0,1,.6.605V6.9a.312.312,0,0,1-.209.294.573.573,0,0,1-.7-.285A1.165,1.165,0,0,0,85.273,6.3a4.662,4.662,0,0,1-4.545-1.684,1.791,1.791,0,0,0-1.94-.493,1.722,1.722,0,0,0-1.167,1.561c0,.093,0-.017,0,1.816l-.868-.3a.312.312,0,0,1-.209-.294V6.2a.559.559,0,1,0-1.118,0v.7a1.428,1.428,0,0,0,.017.216,1.812,1.812,0,0,0-.39,1.126V9.381a1.821,1.821,0,0,0,1.623,1.806A5.093,5.093,0,0,0,78.37,14.42a6.28,6.28,0,0,0,.53.41v.257a1.505,1.505,0,0,1-.72,1.288h0a3.6,3.6,0,0,1-1.348.367,8.445,8.445,0,0,0-3.214,1.344q-.959-.052-1.92-.031a1.4,1.4,0,0,0-1.371,1.4v.7a1.452,1.452,0,0,0-.731,1.268v4.094c-.256.226-1.783.717-1.783,2.358v1.506A2.4,2.4,0,0,0,69.6,31.7v2.992A1.2,1.2,0,0,0,70.84,35.9c5.353-.174,8.4,1.236,9.459,1.851h0l.014.008a3.049,3.049,0,0,0,3.054,0l.015-.008h0c1.062-.615,4.108-2.025,9.458-1.85a1.2,1.2,0,0,0,1.244-1.205V31.7a2.4,2.4,0,0,0,1.785-2.315V27.881c0-1.639-1.537-2.14-1.785-2.359Zm-16.331-14.9a.559.559,0,0,0-.559-.545h-.324a.7.7,0,0,1-.7-.7c0-1.206-.005-1.145,0-1.224a1.431,1.431,0,0,0,.209.092l.94.327a1.064,1.064,0,0,0,1.414-1.007c0-2.07,0-1.8,0-1.836a.62.62,0,0,1,.423-.562.67.67,0,0,1,.733.185,5.733,5.733,0,0,0,5.641,2.026.053.053,0,0,1,.062.024,1.694,1.694,0,0,0,1.91.888l0,1.414a.322.322,0,0,1-.315.328h-.331a.559.559,0,0,0-.557.55,4.02,4.02,0,0,1-1.322,2.961,4.357,4.357,0,0,1-5.885.025,4.019,4.019,0,0,1-1.347-2.949Zm5.954,4.931A2.634,2.634,0,0,0,84.492,17a4.533,4.533,0,0,1-5.145-.159A2.605,2.605,0,0,0,80,15.425,5.352,5.352,0,0,0,83.708,15.555ZM77.043,17.84a6.453,6.453,0,0,0,1.348-.32,5.671,5.671,0,0,0,7.172.1c.168.049.908.193,1.076.225a7.411,7.411,0,0,1,1.443.433A14.075,14.075,0,0,0,82.2,20.279a.642.642,0,0,1-.723,0A14.075,14.075,0,0,0,75.6,18.273a7.406,7.406,0,0,1,1.443-.433Zm-5.32,1.333q1.015-.022,2.03.039a14.784,14.784,0,0,1,7.1,1.993,1.755,1.755,0,0,0,1.977,0c2.895-1.959,7.348-2.074,9.129-2.033a.284.284,0,0,1,.279.286v.5c-3.181-.019-7.078.518-9.762,2.224a1.171,1.171,0,0,1-1.267,0c-2.679-1.7-6.574-2.243-9.762-2.224v-.5A.284.284,0,0,1,71.724,19.173ZM68.931,29.386V27.881a1.219,1.219,0,0,1,.665-1.047,1.266,1.266,0,0,0,1.264,1.215h.463a.717.717,0,0,1,.716.716v1.661a.238.238,0,0,1-.237.237H70.207a1.277,1.277,0,0,1-1.276-1.276ZM70.8,34.781a.087.087,0,0,1-.09-.088V31.78H71.8a1.357,1.357,0,0,0,1.356-1.356V28.764a1.836,1.836,0,0,0-1.834-1.834H70.86a.146.146,0,0,1-.146-.143V21.428a.34.34,0,0,1,.264-.333h.008a.351.351,0,0,1,.061-.007c1.695-.04,5.886.054,8.972,1.705V36.346A21.71,21.71,0,0,0,70.8,34.781Zm11.74,2.137a1.932,1.932,0,0,1-1.4,0V23.378a2.318,2.318,0,0,0,1.4,0Zm12.209-7.532a1.277,1.277,0,0,1-1.276,1.276H91.882a.238.238,0,0,1-.237-.237V28.764a.717.717,0,0,1,.716-.716h.463a1.268,1.268,0,0,0,1.264-1.215l.12.074a1.149,1.149,0,0,1,.545.973v1.506Z"/>
  </g>
</svg>
