<svg xmlns="http://www.w3.org/2000/svg" width="512" height="500.402" viewBox="0 0 512 500.402">
  <g id="Group_4485" data-name="Group 4485" transform="translate(0 -5.799)">
    <path id="Path_2997" data-name="Path 2997" d="M490.6,161.4V474.7H21.405V161.4a29.151,29.151,0,0,1,29.154-29.143H461.45A29.151,29.151,0,0,1,490.6,161.4Z" fill="#dfeaef"/>
    <path id="Path_2998" data-name="Path 2998" d="M21.405,428.166H490.6V474.7H21.405Z" fill="#b4d0d5"/>
    <path id="Path_2999" data-name="Path 2999" d="M454.546,168.306V410.639H57.462V168.306Z" fill="#6ec17d"/>
    <path id="Path_3000" data-name="Path 3000" d="M512,446.7H.009v17.124A42.382,42.382,0,0,0,42.391,506.2H469.618A42.382,42.382,0,0,0,512,463.819Z" fill="#dfeaef"/>
    <path id="Path_3001" data-name="Path 3001" d="M283.77,476.448H228.239a28.881,28.881,0,0,1-28.881-28.881v-.872H312.65v.872A28.88,28.88,0,0,1,283.77,476.448ZM88.707,506.2H42.391A42.384,42.384,0,0,1,0,463.82V446.7H46.316V463.82A42.384,42.384,0,0,0,88.707,506.2Z" fill="#b4d0d5"/>
    <path id="Path_3002" data-name="Path 3002" d="M369.889,161.653v43.524a64.434,64.434,0,0,1-39.538,59.564,193.906,193.906,0,0,1-148.694,0,64.434,64.434,0,0,1-39.538-59.564V161.653Z" fill="#665e66"/>
    <path id="Path_3003" data-name="Path 3003" d="M285.854,277.251a193.849,193.849,0,0,1-104.2-12.506,64.434,64.434,0,0,1-39.538-59.564V161.657h59.7v43.524a64.434,64.434,0,0,0,39.538,59.564,192.714,192.714,0,0,0,44.5,12.506Z" fill="#454045"/>
    <path id="Path_3004" data-name="Path 3004" d="M369.889,161.653V179.1L276.67,228.49a44.187,44.187,0,0,1-41.33,0L142.121,179.1V161.653Z" fill="#454045"/>
    <path id="Path_3005" data-name="Path 3005" d="M426.07,90.08l-149.4-79.146a44.137,44.137,0,0,0-41.325,0L85.939,90.08a23.656,23.656,0,0,0,0,41.809l149.4,79.147a44.137,44.137,0,0,0,41.325,0l149.4-79.147a23.656,23.656,0,0,0,0-41.809Z" fill="#665e66"/>
    <path id="Path_3006" data-name="Path 3006" d="M322.466,295.656a6.182,6.182,0,0,1-6.181-6.18V189.1l-64.928-74.04a6.182,6.182,0,1,1,9.3-8.151L327.114,182.7a6.186,6.186,0,0,1,1.534,4.075v102.7A6.182,6.182,0,0,1,322.466,295.656Z" fill="#eab14d"/>
    <path id="Path_3007" data-name="Path 3007" d="M313.682,290.883,301.3,312.327a19.843,19.843,0,0,0,17.185,29.765h7.96a19.844,19.844,0,0,0,17.185-29.765L331.25,290.883a10.143,10.143,0,0,0-17.568,0Z" fill="#f4dd45"/>
    <g id="Group_4484" data-name="Group 4484">
      <path id="Path_3008" data-name="Path 3008" d="M250.615,382.313H95.94a7.726,7.726,0,0,1,0-15.452H250.614a7.726,7.726,0,1,1,0,15.452Zm-51.257-32.495H95.94a7.726,7.726,0,1,1,0-15.452H199.358a7.726,7.726,0,0,1,0,15.452Z" fill="#665e66"/>
    </g>
  </g>
</svg>
