<svg xmlns="http://www.w3.org/2000/svg" width="38.464" height="38.476" viewBox="0 0 38.464 38.476">
  <g id="finance" transform="translate(-0.501)">
    <path id="Path_3391" data-name="Path 3391" d="M113.163,223.578a2.245,2.245,0,0,0-3.163.266l-5.139,5.282h.005a2.3,2.3,0,0,0-2.2-1.653H94.151a8.985,8.985,0,0,0-3.608-.751,8.508,8.508,0,0,0-8.1,4.989l6.793,6.759.013-.01,1.17-1.128a3,3,0,0,1,2.086-.843H102.52a5.985,5.985,0,0,0,4.174-1.7l6.735-8.052A2.244,2.244,0,0,0,113.163,223.578Zm0,0" transform="translate(-75.786 -206.286)" fill="#fed2a4"/>
    <path id="Path_3392" data-name="Path 3392" d="M213.221,17.509A7.513,7.513,0,1,1,205.708,10a7.513,7.513,0,0,1,7.513,7.513Zm0,0" transform="translate(-182.837 -9.245)" fill="#ffe781"/>
    <path id="Path_3393" data-name="Path 3393" d="M22.32,344.28l-3.639,3.585-8.435-8.5,3.574-3.585a1.5,1.5,0,0,1,2.125,0l6.375,6.375a1.5,1.5,0,0,1,0,2.125Zm0,0" transform="translate(-9.013 -310.14)" fill="#e87288"/>
    <path id="Path_3394" data-name="Path 3394" d="M192.007,26.1a.752.752,0,1,0-1.063,0A.752.752,0,0,0,192.007,26.1ZM188.449,8.264A8.264,8.264,0,1,0,196.713,0a8.274,8.274,0,0,0-8.264,8.264Zm15.026,0A6.762,6.762,0,1,1,196.713,1.5,6.769,6.769,0,0,1,203.475,8.264Zm0,0" transform="translate(-173.824)"/>
    <path id="Path_3395" data-name="Path 3395" d="M9.155,75.237a.751.751,0,0,0,1.06.006l3.642-3.588a2.27,2.27,0,0,0,.535-2.331l.783-.756a2.24,2.24,0,0,1,1.564-.632h9.987a6.727,6.727,0,0,0,4.716-1.916c.052-.051-.4.478,6.814-8.14a3.005,3.005,0,0,0-4.573-3.9l-4.433,4.557a3.019,3.019,0,0,0-2.336-1.118H18.538a9.693,9.693,0,0,0-3.762-.751A9.3,9.3,0,0,0,6.3,61.47a2.244,2.244,0,0,0-2.009.623L.72,65.677a.751.751,0,0,0,0,1.06Zm5.621-17.068a8.2,8.2,0,0,1,3.307.688.75.75,0,0,0,.3.063h8.531a1.5,1.5,0,1,1,0,3.005h-6.13a.751.751,0,0,0,0,1.5h6.13a3,3,0,0,0,2.979-3.4c4.288-4.408,4.893-5.028,4.919-5.058a1.5,1.5,0,1,1,2.294,1.942l-6.738,8.056a5.231,5.231,0,0,1-3.641,1.465H16.74a3.735,3.735,0,0,0-2.608,1.053l-.638.616L7.608,62.217A7.757,7.757,0,0,1,14.775,58.169ZM5.358,63.155a.749.749,0,0,1,.93-.106c.13.079-.243-.261,6.507,6.48a.753.753,0,0,1,0,1.059L9.694,73.647,2.312,66.209ZM21.969,40.763v.857A2.254,2.254,0,0,0,22.707,46a.765.765,0,0,1,.76.665.752.752,0,0,1-.747.838,1.349,1.349,0,0,1-.964-.555.766.766,0,0,0-.967-.178.752.752,0,0,0-.195,1.132,3.117,3.117,0,0,0,1.374.978v.853a.767.767,0,0,0,.64.767.752.752,0,0,0,.863-.743v-.881a2.254,2.254,0,0,0-.738-4.378.765.765,0,0,1-.76-.665.752.752,0,0,1,.747-.838,1.191,1.191,0,0,1,.795.376.771.771,0,0,0,.983.084.752.752,0,0,0,.08-1.147,2.9,2.9,0,0,0-1.106-.692v-.875A.751.751,0,0,0,22.609,40,.766.766,0,0,0,21.969,40.763Zm0,0" transform="translate(0 -36.983)"/>
  </g>
</svg>
