<svg xmlns="http://www.w3.org/2000/svg" width="36.117" height="36.112" viewBox="0 0 36.117 36.112">
  <g id="game" transform="translate(0 -0.033)">
    <path id="Path_3370" data-name="Path 3370" d="M17.559,247.463a9.385,9.385,0,0,0-1,.054,9.6,9.6,0,0,0-7.972,7.945,9.028,9.028,0,0,0,13.722,8.707,6.519,6.519,0,0,1,2.912-1.023q.376-.033.762-.033.367,0,.727.026a6.53,6.53,0,0,1,2.956,1.033,9.028,9.028,0,0,0,13.71-8.713,9.6,9.6,0,0,0-7.972-7.941,9.323,9.323,0,0,0-1-.054Z" transform="translate(-7.927 -229.976)" fill="#ffd33f"/>
    <circle id="Ellipse_2203" data-name="Ellipse 2203" cx="1.806" cy="1.806" r="1.806" transform="translate(20.463 24.707)" fill="#ea3836"/>
    <path id="Path_3371" data-name="Path 3371" d="M84.206,302.656c-7.244,8.119-23.559,11.14-29.931,12.037a8.995,8.995,0,0,0,10.554.771,6.518,6.518,0,0,1,2.912-1.023c.252-.02.507-.03.764-.03s.487.008.727.026a6.53,6.53,0,0,1,2.956,1.033,9.028,9.028,0,0,0,13.71-8.713A8.56,8.56,0,0,0,84.206,302.656Z" transform="translate(-50.447 -281.276)" fill="#ffac3e"/>
    <path id="Path_3372" data-name="Path 3372" d="M79.834,315.719h2.407v3.009h3.009v2.408H82.242v3.009H79.834v-3.009H76.825v-2.408h3.009Z" transform="translate(-71.406 -293.417)" fill="#383856"/>
    <circle id="Ellipse_2204" data-name="Ellipse 2204" cx="1.806" cy="1.806" r="1.806" transform="translate(24.676 21.096)" fill="#91cece"/>
    <circle id="Ellipse_2205" data-name="Ellipse 2205" cx="1.806" cy="1.806" r="1.806" transform="translate(24.676 28.318)" fill="#91cece"/>
    <circle id="Ellipse_2206" data-name="Ellipse 2206" cx="1.806" cy="1.806" r="1.806" transform="translate(28.889 24.707)" fill="#ea3836"/>
    <path id="Path_3373" data-name="Path 3373" d="M238.934,215.742v-2.408h2.407v2.408" transform="translate(-222.08 -198.254)" fill="#874d1b"/>
    <path id="Path_3374" data-name="Path 3374" d="M296.4,353.653a1.785,1.785,0,0,1,.268.935,1.806,1.806,0,0,1-1.806,1.806,1.785,1.785,0,0,1-.935-.268,1.8,1.8,0,1,0,2.472-2.472Z" transform="translate(-273.197 -328.675)" fill="#d62121"/>
    <path id="Path_3375" data-name="Path 3375" d="M356.128,302.46a1.785,1.785,0,0,1,.268.935,1.805,1.805,0,0,1-1.806,1.806,1.785,1.785,0,0,1-.935-.268,1.8,1.8,0,1,0,2.472-2.472Z" transform="translate(-328.709 -281.093)" fill="#83b2b7"/>
    <path id="Path_3376" data-name="Path 3376" d="M415.852,353.653a1.785,1.785,0,0,1,.268.935,1.806,1.806,0,0,1-1.806,1.806,1.785,1.785,0,0,1-.935-.268,1.8,1.8,0,1,0,2.472-2.472Z" transform="translate(-384.22 -328.675)" fill="#d62121"/>
    <path id="Path_3377" data-name="Path 3377" d="M356.128,404.845a1.785,1.785,0,0,1,.268.935,1.805,1.805,0,0,1-1.806,1.806,1.785,1.785,0,0,1-.935-.268,1.8,1.8,0,1,0,2.472-2.472Z" transform="translate(-328.709 -376.256)" fill="#83b2b7"/>
    <path id="Path_3378" data-name="Path 3378" d="M76.825,360.2v.588h3.009V363.8h2.407v-3.009h3.009V358.38h-1C81.869,360.038,78.244,360.2,76.825,360.2Z" transform="translate(-71.406 -333.069)" fill="#202033"/>
    <path id="Path_3379" data-name="Path 3379" d="M238.934,221.247v.164h2.407v-1.977a4.553,4.553,0,0,1-2.407,1.813Z" transform="translate(-222.08 -203.924)" fill="#6b3713"/>
    <path id="Path_3380" data-name="Path 3380" d="M77.321,294.336H74.914v-2.407a.6.6,0,0,0-.6-.6H71.9a.6.6,0,0,0-.6.6v2.407H68.895a.6.6,0,0,0-.6.6v2.407a.6.6,0,0,0,.6.6H71.3v2.407a.6.6,0,0,0,.6.6h2.407a.6.6,0,0,0,.6-.6v-2.407h2.407a.6.6,0,0,0,.6-.6v-2.407a.6.6,0,0,0-.6-.6Zm-.6,2.408H74.312a.6.6,0,0,0-.6.6v2.407h-1.2v-2.407a.6.6,0,0,0-.6-.6H69.5v-1.2H71.9a.6.6,0,0,0,.6-.6v-2.407h1.2v2.407a.6.6,0,0,0,.6.6h2.407v1.2Zm13.241-1.806a2.407,2.407,0,1,0-2.407-2.407A2.408,2.408,0,0,0,89.96,294.938Zm0-3.611a1.2,1.2,0,1,1-1.2,1.2A1.2,1.2,0,0,1,89.96,291.327Zm0,6.019a2.407,2.407,0,1,0,2.407,2.407A2.408,2.408,0,0,0,89.96,297.345Zm0,3.611a1.2,1.2,0,1,1,1.2-1.2A1.2,1.2,0,0,1,89.96,300.957Zm-4.213-7.222a2.407,2.407,0,1,0,2.407,2.407A2.408,2.408,0,0,0,85.747,293.734Zm0,3.611a1.2,1.2,0,1,1,1.2-1.2A1.2,1.2,0,0,1,85.747,297.345Zm8.426-3.611a2.407,2.407,0,1,0,2.407,2.407A2.408,2.408,0,0,0,94.173,293.734Zm0,3.611a1.2,1.2,0,1,1,1.2-1.2A1.2,1.2,0,0,1,94.173,297.345Z" transform="translate(-63.476 -269.627)"/>
    <path id="Path_3381" data-name="Path 3381" d="M27.546,16.945a9.928,9.928,0,0,0-1.062-.06H19.864V14.478h-1.2v-1.2a2.408,2.408,0,0,0-2.407-2.407H13.243a1.2,1.2,0,1,1,0-2.407h9.63a2.407,2.407,0,0,0,0-4.815H19.864a1.2,1.2,0,0,1-1.2-1.2V.033h-1.2V2.44a2.408,2.408,0,0,0,2.407,2.407h3.009a1.2,1.2,0,0,1,0,2.407h-9.63a2.407,2.407,0,0,0,0,4.815h3.009a1.2,1.2,0,0,1,1.2,1.2v1.2h-1.2v2.407H9.632a9.816,9.816,0,0,0-1.063.06A10.17,10.17,0,0,0,.063,25.418,9.63,9.63,0,0,0,14.7,34.7a5.9,5.9,0,0,1,2.642-.933,9.285,9.285,0,0,1,1.4,0,5.94,5.94,0,0,1,2.683.944,9.63,9.63,0,0,0,14.63-9.29,10.169,10.169,0,0,0-8.508-8.47Zm-10.09-1.264h1.2v1.2h-1.2ZM32.765,32.133a8.421,8.421,0,0,1-10.706,1.55,7.1,7.1,0,0,0-3.231-1.121q-.384-.028-.769-.028c-.274,0-.542.011-.811.033a7.082,7.082,0,0,0-3.183,1.111,8.426,8.426,0,0,1-12.8-8.125A9.023,9.023,0,0,1,8.7,18.143a8.636,8.636,0,0,1,.933-.054H26.484a8.8,8.8,0,0,1,.933.05,9.025,9.025,0,0,1,7.439,7.41,8.364,8.364,0,0,1-2.092,6.584Z" transform="translate(0)"/>
  </g>
</svg>
