<svg xmlns="http://www.w3.org/2000/svg" width="36.155" height="40.173" viewBox="0 0 36.155 40.173">
  <g id="grocery" transform="translate(-5.001 -2)">
    <g id="Filled_outline" data-name="Filled outline" transform="translate(5.001 2)">
      <path id="Path_3431" data-name="Path 3431" d="M28.7,18.4a1.339,1.339,0,0,0,1.339-1.339,1.339,1.339,0,1,0,2.678,0V11.7h2.678V7.687L32.713,5.009V3h-8.7V5.009L22,7.017v8.7a1.339,1.339,0,0,0,2.678,0V17.06a1.339,1.339,0,1,0,2.678,0A1.339,1.339,0,0,0,28.7,18.4Z" transform="translate(-10.618 -2.33)" fill="#ffd782"/>
      <path id="Path_3432" data-name="Path 3432" d="M40.678,20v1.339a1.339,1.339,0,0,1-1.339,1.339H38V20Z" transform="translate(-15.905 -7.948)" fill="#ffd782"/>
      <path id="Path_3433" data-name="Path 3433" d="M34.782,46.13H13.356a3.407,3.407,0,0,1-3.348-2.678L8,32.739H40.138L38.13,43.451a3.407,3.407,0,0,1-3.348,2.678ZM14.026,18.678,10.678,30.06H8L12.017,16h24.1l4.017,14.06H37.46L34.112,18.678Z" transform="translate(-5.992 -6.626)" fill="#9b1e5a"/>
      <rect id="Rectangle_109" data-name="Rectangle 109" width="34.386" height="2.292" rx="1.146" transform="translate(0.764 23.688)" fill="#b459a1"/>
      <path id="Path_3434" data-name="Path 3434" d="M18,30h9.374v4.687H18Z" transform="translate(-9.296 -11.253)" fill="#fcf05a"/>
      <path id="Path_3435" data-name="Path 3435" d="M32,32h9.374v3.348H32Z" transform="translate(-13.923 -11.914)" fill="#87cee9"/>
      <path id="Path_3436" data-name="Path 3436" d="M23,30h2.678v4.687H23Z" transform="translate(-10.949 -11.253)" fill="#e97424"/>
      <g id="Group_4553" data-name="Group 4553" transform="translate(5.356 28.791)">
        <path id="Path_3437" data-name="Path 3437" d="M17.687,53.035H14.339L13,45h4.687ZM20.365,45h4.017v8.035H20.365Zm13.391,8.035H37.1L38.443,45H33.756Zm-2.678,0H27.06V45h4.017Z" transform="translate(-13 -45)" fill="#6b0c3e"/>
      </g>
      <rect id="Rectangle_110" data-name="Rectangle 110" width="8.405" height="3.057" rx="1.528" transform="translate(22.16 7.641) rotate(90)" fill="#e2a23b"/>
      <rect id="Rectangle_111" data-name="Rectangle 111" width="8.405" height="2.292" rx="1.146" transform="translate(19.103 7.641) rotate(90)" fill="#f9bb4b"/>
      <rect id="Rectangle_112" data-name="Rectangle 112" width="8.405" height="3.057" rx="1.528" transform="translate(16.811 7.641) rotate(90)" fill="#e2a23b"/>
      <rect id="Rectangle_113" data-name="Rectangle 113" width="6.877" height="2.292" rx="1.146" transform="translate(13.754 7.641) rotate(90)" fill="#f9bb4b"/>
      <path id="Path_3438" data-name="Path 3438" d="M17.722,2V4.4L15.713,6.41V10.7H11.026a.67.67,0,0,0-.644.485l-3.9,13.654a2,2,0,0,0-.045,3.845L8.361,38.959a4.061,4.061,0,0,0,4,3.214H33.791A4.063,4.063,0,0,0,37.8,38.948l1.924-10.26a2,2,0,0,0-.045-3.845l-3.9-13.654a.67.67,0,0,0-.644-.485H30.443V7.079L27.765,4.4V2Zm3.348,14.73a.67.67,0,0,1-1.339,0V10.7a.67.67,0,1,1,1.339,0Zm-.67,2.009a2,2,0,0,0,1.339-.522,1.978,1.978,0,0,0,2.678,0,1.99,1.99,0,0,0,3.225-.817h.793a2.009,2.009,0,0,0,2.009-2.009v-.67H32.62l2.954,10.043H33.121V22.086a.67.67,0,0,0-.67-.67h-8.7v-.67a.67.67,0,0,0-.67-.67H13.7a.67.67,0,0,0-.67.67v4.017H10.582l2.954-10.043h2.177v.67a2,2,0,0,0,2.756,1.861A2.009,2.009,0,0,0,20.4,18.739Zm3.348-2.009a.67.67,0,0,1-1.339,0V10.7a.67.67,0,1,1,1.339,0Zm4.017-2.009H29.1v.67a.67.67,0,0,1-.67.67h-.67ZM26.426,16.73a.67.67,0,0,1-1.339,0V10.7a.67.67,0,0,1,1.339,0ZM20.4,24.765V21.417h2.009v3.348Zm-6.026,0V21.417h2.009v3.348Zm3.348-3.348h1.339v3.348H17.722Zm6.026,1.339h8.035v2.009H23.748Zm-5.356-7.365a.67.67,0,0,1-1.339,0V10.7a.67.67,0,1,1,1.339,0Zm-6.86-3.348h4.182v1.339H13.035a.67.67,0,0,0-.642.481l-3.206,10.9H7.9ZM36.482,38.691a2.756,2.756,0,0,1-2.692,2.143H12.365A2.755,2.755,0,0,1,9.675,38.7l-1.859-9.92H38.344Zm2.665-11.248H7.009a.67.67,0,1,1,0-1.339H39.147a.67.67,0,1,1,0,1.339Zm-4.522-15.4,3.634,12.721H36.97l-3.206-10.9a.67.67,0,0,0-.642-.481H27.765V12.043ZM29.1,7.634V10.7H27.765a2,2,0,0,0-3.348-1.486,1.978,1.978,0,0,0-2.678,0,1.978,1.978,0,0,0-2.678,0,1.947,1.947,0,0,0-2.009-.4V6.964l2.009-2.009V3.339h7.365V4.955Z" transform="translate(-5.001 -2)"/>
      <path id="Path_3439" data-name="Path 3439" d="M14.009,53.374h3.348a.67.67,0,0,0,.67-.67V44.67a.67.67,0,0,0-.67-.67H12.67a.67.67,0,0,0-.66.78l1.339,8.035A.67.67,0,0,0,14.009,53.374Zm2.678-8.035v6.7H14.576l-1.115-6.7Zm3.348,8.035h4.017a.67.67,0,0,0,.67-.67V44.67a.67.67,0,0,0-.67-.67H20.035a.67.67,0,0,0-.67.67V52.7A.67.67,0,0,0,20.035,53.374Zm.67-8.035h2.678v6.7H20.7Zm12.721,8.035h3.348a.67.67,0,0,0,.66-.559l1.339-8.035a.67.67,0,0,0-.66-.78H33.426a.67.67,0,0,0-.67.67V52.7A.67.67,0,0,0,33.426,53.374Zm.67-8.035h3.227l-1.115,6.7H34.1ZM26.73,53.374h4.017a.67.67,0,0,0,.67-.67V44.67a.67.67,0,0,0-.67-.67H26.73a.67.67,0,0,0-.67.67V52.7A.67.67,0,0,0,26.73,53.374Zm.67-8.035h2.678v6.7H27.4Z" transform="translate(-7.314 -15.879)"/>
    </g>
  </g>
</svg>
