<svg id="Group_4895" data-name="Group 4895" xmlns="http://www.w3.org/2000/svg" width="44.747" height="45.356" viewBox="0 0 44.747 45.356">
  <path id="Path_7890" data-name="Path 7890" d="M144.5,399.265h3.353a.765.765,0,0,1,.763.763v7.836a.765.765,0,0,1-.763.763H144.5a.765.765,0,0,1-.763-.763v-7.836A.765.765,0,0,1,144.5,399.265Z" transform="translate(-131.799 -363.272)" fill="#fff" fill-rule="evenodd"/>
  <path id="Path_7891" data-name="Path 7891" d="M174.341,399.265h1.272a.765.765,0,0,1,.763.763v7.836a.765.765,0,0,1-.763.763h-1.272a.765.765,0,0,0,.763-.763v-7.836A.765.765,0,0,0,174.341,399.265Z" transform="translate(-159.557 -363.272)" fill="#fff" fill-rule="evenodd"/>
  <path id="Path_7892" data-name="Path 7892" d="M245.354,346.487H242a.765.765,0,0,0-.763.763v12.741a.765.765,0,0,0,.763.764h3.353a.765.765,0,0,0,.763-.764V347.25A.765.765,0,0,0,245.354,346.487Z" transform="translate(-220.236 -315.399)" fill="#fff" fill-rule="evenodd"/>
  <path id="Path_7893" data-name="Path 7893" d="M273.113,346.487H271.84a.765.765,0,0,1,.763.764v12.741a.765.765,0,0,1-.763.763h1.272a.765.765,0,0,0,.763-.763V347.251A.765.765,0,0,0,273.113,346.487Z" transform="translate(-247.995 -315.399)" fill="#fff" fill-rule="evenodd"/>
  <path id="Path_7894" data-name="Path 7894" d="M342.852,291.377H339.5a.765.765,0,0,0-.763.763V310a.765.765,0,0,0,.763.763h3.353a.765.765,0,0,0,.763-.763V292.14a.765.765,0,0,0-.763-.763Z" transform="translate(-308.672 -265.411)" fill="#fff" fill-rule="evenodd"/>
  <path id="Path_7895" data-name="Path 7895" d="M370.611,291.376h-1.273a.765.765,0,0,1,.763.763V310a.765.765,0,0,1-.763.763h1.273a.765.765,0,0,0,.763-.763V292.139A.765.765,0,0,0,370.611,291.376Z" transform="translate(-336.431 -265.41)" fill="#fff" fill-rule="evenodd"/>
  <path id="Path_7896" data-name="Path 7896" d="M437,241.8h3.353a.765.765,0,0,1,.763.763v22.471a.765.765,0,0,1-.763.763H437a.765.765,0,0,1-.763-.763V242.563A.765.765,0,0,1,437,241.8Z" transform="translate(-397.107 -220.442)" fill="#fff" fill-rule="evenodd"/>
  <path id="Path_7897" data-name="Path 7897" d="M466.835,241.8h1.272a.765.765,0,0,1,.763.763v22.471a.765.765,0,0,1-.763.763h-1.272a.765.765,0,0,0,.763-.763V242.563A.765.765,0,0,0,466.835,241.8Z" transform="translate(-424.866 -220.442)" fill="#fff" fill-rule="evenodd"/>
  <path id="Path_7898" data-name="Path 7898" d="M159.683,135.786a.742.742,0,1,1-.076-1.481l3.9-.212a.742.742,0,0,1,.772.845h0l-.563,3.868a.742.742,0,1,1-1.47-.209l.266-1.824A88.148,88.148,0,0,1,147.66,147.39a98.711,98.711,0,0,1-16.448,7.426.741.741,0,1,1-.488-1.4,97.25,97.25,0,0,0,16.2-7.315A86.648,86.648,0,0,0,161.5,135.687Z" transform="translate(-119.543 -122.744)" fill="#fff" fill-rule="evenodd"/>
  <path id="Path_7899" data-name="Path 7899" d="M61.187,184.229h7.826a.67.67,0,0,0,.641-.863,4.758,4.758,0,0,0-9.109,0,.67.67,0,0,0,.641.863Z" transform="translate(-56.311 -164.371)" fill="#fff" fill-rule="evenodd"/>
  <path id="Path_7900" data-name="Path 7900" d="M107.215,184.229a.67.67,0,0,0,.641-.863,4.762,4.762,0,0,0-5.224-3.334,4.762,4.762,0,0,1,3.884,3.334.67.67,0,0,1-.642.863Z" transform="translate(-94.513 -164.371)" fill="#fff" fill-rule="evenodd"/>
  <path id="Path_7901" data-name="Path 7901" d="M86.372,118.234a2.4,2.4,0,1,1-2.4,2.4,2.4,2.4,0,0,1,2.4-2.4Z" transform="translate(-77.583 -108.36)" fill="#fff" fill-rule="evenodd"/>
  <path id="Path_7902" data-name="Path 7902" d="M106.572,118.234a2.4,2.4,0,1,1-.335,4.786,2.4,2.4,0,0,0,0-4.763A2.415,2.415,0,0,1,106.572,118.234Z" transform="translate(-97.783 -108.36)" fill="#fff" fill-rule="evenodd"/>
  <path id="Path_7903" data-name="Path 7903" d="M260.462,184.229h7.826a.67.67,0,0,0,.641-.863,4.758,4.758,0,0,0-9.109,0,.67.67,0,0,0,.641.863Z" transform="translate(-237.065 -164.371)" fill="#fff" fill-rule="evenodd"/>
  <path id="Path_7904" data-name="Path 7904" d="M306.489,184.229a.67.67,0,0,0,.641-.863,4.762,4.762,0,0,0-5.224-3.334,4.762,4.762,0,0,1,3.884,3.334.67.67,0,0,1-.642.863Z" transform="translate(-275.266 -164.371)" fill="#fff" fill-rule="evenodd"/>
  <path id="Path_7905" data-name="Path 7905" d="M285.648,118.234a2.4,2.4,0,1,1-2.4,2.4,2.4,2.4,0,0,1,2.4-2.4Z" transform="translate(-258.338 -108.36)" fill="#fff" fill-rule="evenodd"/>
  <path id="Path_7906" data-name="Path 7906" d="M305.847,118.234a2.4,2.4,0,1,1-.335,4.786,2.4,2.4,0,0,0,0-4.763A2.415,2.415,0,0,1,305.847,118.234Z" transform="translate(-278.537 -108.36)" fill="#fff" fill-rule="evenodd"/>
  <path id="Path_7907" data-name="Path 7907" d="M151.768,189.061h9.282a.795.795,0,0,0,.761-1.024,5.643,5.643,0,0,0-10.8,0,.795.795,0,0,0,.761,1.024Z" transform="translate(-138.36 -168.038)" fill="#fff" fill-rule="evenodd"/>
  <path id="Path_7908" data-name="Path 7908" d="M206.365,189.06a.795.795,0,0,0,.761-1.024,5.648,5.648,0,0,0-6.2-3.955,5.648,5.648,0,0,1,4.607,3.955.795.795,0,0,1-.761,1.024Z" transform="translate(-183.674 -168.037)" fill="#fff" fill-rule="evenodd"/>
  <circle id="Ellipse_2257" data-name="Ellipse 2257" cx="2.852" cy="2.852" r="2.852" transform="translate(14.773 14.565) rotate(-80.8)" fill="#fff"/>
  <path id="Path_7909" data-name="Path 7909" d="M205.6,112.644a2.852,2.852,0,1,1-.4,5.677,2.853,2.853,0,0,0,0-5.65A2.9,2.9,0,0,1,205.6,112.644Z" transform="translate(-187.552 -103.29)" fill="#fff" fill-rule="evenodd"/>
  <path id="Path_7910" data-name="Path 7910" d="M19.009,38.378a.742.742,0,1,1-1.284.744,18.039,18.039,0,0,1,.763-19.342l-.85.243a.743.743,0,1,1-.407-1.429l3.07-.876a.743.743,0,0,1,.946.741l.113,3.138a.741.741,0,1,1-1.481.052l-.043-1.2a16.556,16.556,0,0,0-.827,17.933ZM43.358,14.359a.743.743,0,1,1,1.429-.407l.876,3.07a.743.743,0,0,1-.741.946l-3.138.113a.741.741,0,0,1-.052-1.481l1.2-.043a16.541,16.541,0,0,0-18.672-.368.743.743,0,1,1-.813-1.243,18.028,18.028,0,0,1,20.151.265Zm4.292,7.365a.742.742,0,1,1,1.284-.744,17.9,17.9,0,0,1,2.29,6.722.741.741,0,1,1-1.47.192,16.486,16.486,0,0,0-2.1-6.17Z" transform="translate(-15.281 -12.002)" fill="#fff" fill-rule="evenodd"/>
</svg>
