<svg xmlns="http://www.w3.org/2000/svg" width="33.811" height="33.971" viewBox="0 0 33.811 33.971">
  <g id="healthcare" transform="translate(-2.24 -2.198)">
    <path id="Path_3382" data-name="Path 3382" d="M11.188,23.611,8.614,16.2A1.775,1.775,0,0,0,6.592,14.88a1.708,1.708,0,0,0-1.3,2.107l2.647,8.174Zm18.507,0L32.268,16.2A1.775,1.775,0,0,1,34.29,14.88a1.708,1.708,0,0,1,1.3,2.107l-2.647,8.174Z" transform="translate(-1.296 -5.467)" fill="#ffac96"/>
    <path id="Path_3383" data-name="Path 3383" d="M15.627,28.413,10.605,25.47a1.7,1.7,0,0,0-2.159.386L6.614,20.2A1.775,1.775,0,0,0,4.592,18.88a1.708,1.708,0,0,0-1.3,2.107l2.471,9.22a2.243,2.243,0,0,0,.687,1.113l3.84,3.414a2.272,2.272,0,0,1,.761,1.7v1.818h6.817V32.334a4.545,4.545,0,0,0-2.246-3.921ZM34.563,18.88A1.775,1.775,0,0,0,32.54,20.2l-1.835,5.657a1.7,1.7,0,0,0-2.159-.386l-5.022,2.944a4.544,4.544,0,0,0-2.244,3.921v5.917H28.1V36.433a2.272,2.272,0,0,1,.761-1.7l3.84-3.414a2.243,2.243,0,0,0,.687-1.113l2.471-9.22a1.708,1.708,0,0,0-1.3-2.107Z" transform="translate(-0.432 -7.195)" fill="#ffbcab"/>
    <path id="Path_3384" data-name="Path 3384" d="M26.225,53v4.544h7.953V53H26.225Zm-2.272,0H16v4.544h7.953Z" transform="translate(-5.944 -21.944)" fill="#006df0"/>
    <path id="Path_3385" data-name="Path 3385" d="M32.691,11.925l-.4.4L25.057,19.56l-7.231-7.231-.4-.4A5.112,5.112,0,1,1,24.654,4.7l.4.4.4-.4a5.112,5.112,0,1,1,7.232,7.226Z" transform="translate(-5.911 -0.433)" fill="#d80027"/>
    <path id="Path_3386" data-name="Path 3386" d="M39.2,4.7a5.056,5.056,0,0,0-4.185-1.465,5.109,5.109,0,0,1,3.049,8.691l-.4.4L31,18.992l.568.568L38.8,12.329l.4-.4A5.112,5.112,0,0,0,39.2,4.7Z" transform="translate(-12.423 -0.433)" fill="#bd0022"/>
    <path id="Path_3387" data-name="Path 3387" d="M30.544,16.817V14.544h2.272V12.272H30.544V10H28.272v2.272H26v2.272h2.272v2.272Z" transform="translate(-10.263 -3.37)" fill="#f1f2f2"/>
    <path id="Path_3388" data-name="Path 3388" d="M33.912,33.005l-3.8,2.1a.492.492,0,1,0,.492.852l3.3-1.818a1.7,1.7,0,0,0,.749-2.05A1.688,1.688,0,0,1,33.912,33.005Zm-21.352,0,3.8,2.1a.492.492,0,1,1-.492.852l-3.3-1.818a1.7,1.7,0,0,1-.749-2.05,1.688,1.688,0,0,0,.749.914Z" transform="translate(-4.091 -12.912)" fill="#ffac96"/>
    <g id="Group_4545" data-name="Group 4545" transform="translate(2.24 2.198)">
      <path id="Path_3389" data-name="Path 3389" d="M22.554,11.272h-1.7v-1.7A.568.568,0,0,0,20.281,9H18.009a.568.568,0,0,0-.568.568v1.7h-1.7a.568.568,0,0,0-.568.568v2.272a.568.568,0,0,0,.568.568h1.7v1.7a.568.568,0,0,0,.568.568h2.272a.568.568,0,0,0,.568-.568v-1.7h1.7a.568.568,0,0,0,.568-.568V11.84A.568.568,0,0,0,22.554,11.272Zm-.568,2.272h-1.7a.568.568,0,0,0-.568.568v1.7H18.577v-1.7a.568.568,0,0,0-.568-.568h-1.7V12.408h1.7a.568.568,0,0,0,.568-.568v-1.7h1.136v1.7a.568.568,0,0,0,.568.568h1.7Zm12.912.773a2.6,2.6,0,0,0,.017-.3,2.284,2.284,0,0,0-1.806-2.221,2.313,2.313,0,0,0-2.67,1.687l-2.5,7.192a.927.927,0,0,0-.108.051l-5.022,2.943a5.122,5.122,0,0,0-2.528,4.408v5.351a.568.568,0,0,0-.568.568v4.544a.568.568,0,0,0,.568.568h7.953a.568.568,0,0,0,.568-.568V33.994a.568.568,0,0,0-.568-.568v-1.25A1.726,1.726,0,0,1,28.8,30.9l3.84-3.414a2.8,2.8,0,0,0,.863-1.392l2.465-9.22a2.246,2.246,0,0,0,.08-.591A2.283,2.283,0,0,0,34.9,14.317Zm-3.374-.5a1.2,1.2,0,0,1,1.352-.909,1.136,1.136,0,0,1,.9,1.108v.011a2.329,2.329,0,0,0-2.21,1.738l-1.585,4.891a2.386,2.386,0,0,0-.761-.216ZM27.666,37.971H20.849V34.562h6.817Zm7.209-21.387L32.4,25.809a1.693,1.693,0,0,1-.511.829l-3.846,3.414a2.872,2.872,0,0,0-.949,2.125v1.25H21.418V28.075a4.006,4.006,0,0,1,1.965-3.431L28.4,21.707a1.136,1.136,0,0,1,1.556.415,1.17,1.17,0,0,1,.114.863,1.136,1.136,0,0,1-.534.687l-3.255,1.88a.568.568,0,0,0,.568.983l3.255-1.88a2.243,2.243,0,0,0,1.062-1.38,2.276,2.276,0,0,0-.227-1.721L30.9,21.5l1.755-5.414a1.2,1.2,0,0,1,1.352-.909,1.136,1.136,0,0,1,.9,1.108A.978.978,0,0,1,34.875,16.584ZM18.009,33.426V28.075a5.122,5.122,0,0,0-2.528-4.408L10.46,20.719c-.034-.017-.074-.028-.108-.045L7.869,13.522a2.333,2.333,0,0,0-2.687-1.727,2.284,2.284,0,0,0-1.806,2.221,2.6,2.6,0,0,0,.017.3A2.283,2.283,0,0,0,2.24,16.288a2.511,2.511,0,0,0,.074.591l2.471,9.214a2.793,2.793,0,0,0,.863,1.4L9.483,30.9a1.711,1.711,0,0,1,.574,1.272v1.25a.568.568,0,0,0-.568.568v4.544a.568.568,0,0,0,.568.568h7.953a.568.568,0,0,0,.568-.568V33.994A.568.568,0,0,0,18.009,33.426Zm-13.5-19.41a1.136,1.136,0,0,1,.9-1.108,1.228,1.228,0,0,1,1.375.949l2.284,6.584a2.386,2.386,0,0,0-.761.216L6.733,15.794a2.357,2.357,0,0,0-2.221-1.767Zm5.726,16.036L6.4,26.638a1.684,1.684,0,0,1-.511-.835L3.41,16.584a1.2,1.2,0,0,1-.034-.3,1.136,1.136,0,0,1,.9-1.108,1.218,1.218,0,0,1,1.369.937L7.387,21.5l-.034.051a2.276,2.276,0,0,0-.227,1.721,2.243,2.243,0,0,0,1.062,1.38l3.255,1.88a.568.568,0,0,0,.568-.983l-3.255-1.88a1.136,1.136,0,0,1-.534-.687,1.17,1.17,0,0,1,.114-.863,1.136,1.136,0,0,1,1.551-.42l5.022,2.943a4.006,4.006,0,0,1,1.965,3.431v5.351H11.193v-1.25A2.857,2.857,0,0,0,10.238,30.052Zm7.2,7.919H10.624V34.562h6.817Z" transform="translate(-2.24 -5.136)" fill="#231f20"/>
      <path id="Path_3390" data-name="Path 3390" d="M32.663,3.865a5.677,5.677,0,0,0-8.036,0,5.68,5.68,0,0,0-8.036,8.029l7.635,7.635a.568.568,0,0,0,.8,0l7.635-7.635a5.684,5.684,0,0,0,0-8.029ZM24.627,18.324l-7.233-7.233a4.544,4.544,0,0,1,3.217-7.756,4.5,4.5,0,0,1,3.211,1.333l.4.4a.568.568,0,0,0,.8,0l.4-.4A4.543,4.543,0,0,1,31.86,11.09Z" transform="translate(-7.722 -2.198)" fill="#231f20"/>
    </g>
  </g>
</svg>
