<svg xmlns="http://www.w3.org/2000/svg" width="45.142" height="45.142" viewBox="0 0 45.142 45.142">
  <g id="hybrid" transform="translate(-18.5 -18.5)">
    <path id="Path_3213" data-name="Path 3213" d="M139.571,37.5,136,41.071l3.571,3.571M153.857,37.5l3.571,3.571-3.571,3.571M139.571,20v3.571m7.143,0V20" transform="translate(-105.643 0)" fill="none" stroke="#0097ee" stroke-linecap="round" stroke-linejoin="round" stroke-miterlimit="10" stroke-width="3"/>
    <path id="Path_3214" data-name="Path 3214" d="M48.214,20v3.571h3.214a7.143,7.143,0,0,1,7.143,7.143V51.428a7.143,7.143,0,0,1-7.143,7.143H30.714a7.143,7.143,0,0,1-7.143-7.143V30.714a7.143,7.143,0,0,1,7.143-7.143h3.214m0,35v3.571m7.143-3.571v3.571m7.143-3.571v3.571M20,48.214h3.571M20,41.071h3.571M20,33.928h3.571m35,14.285h3.571m-3.571-7.143h3.571m-3.571-7.143h3.571m-19.285,0L39.285,48.214" transform="translate(0 0)" fill="none" stroke="#0097ee" stroke-linecap="round" stroke-linejoin="round" stroke-miterlimit="10" stroke-width="3"/>
  </g>
</svg>
