<svg xmlns="http://www.w3.org/2000/svg" width="36.997" height="41.7" viewBox="0 0 36.997 41.7">
  <g id="iconcart" transform="translate(-13.502 -11.16)">
    <path id="Path_114894" data-name="Path 114894" d="M46.77,22.29a1,1,0,0,0-1-.87H40.26v-2a8.26,8.26,0,0,0-16.52,0v2H18.22a1,1,0,0,0-1,.87L13.51,50.43a1,1,0,0,0,.26.81c.42.45.88.91,1.38,1.36a1,1,0,0,0,.67.26H48.18a1,1,0,0,0,.67-.26,16.206,16.206,0,0,0,1.38-1.36,1,1,0,0,0,.26-.81Zm-21-2.89a6.26,6.26,0,1,1,12.52,0v2H25.74Zm22,31.46H16.21l-.66-.64,3.54-26.8H44.9l3.54,26.8Z" fill="#fff"/>
  </g>
</svg>
