<svg xmlns="http://www.w3.org/2000/svg" width="45.211" height="45.21" viewBox="0 0 45.211 45.21">
  <g id="Improved" transform="translate(0.006)">
    <path id="Path_7975" data-name="Path 7975" d="M15.69,10.616a1,1,0,0,0,.326,1.092l2.917,2.345-.982,3.611a1,1,0,0,0,1.517,1.1l3.131-2.05,3.131,2.05a1,1,0,0,0,1.517-1.1l-.982-3.611,2.917-2.344A1,1,0,0,0,28.6,9.924l-3.738-.182-1.328-3.5a1,1,0,0,0-1.875,0l-1.328,3.5L16.6,9.924a1,1,0,0,0-.905.692Zm4.98.524a1,1,0,0,0,.889-.646L22.6,7.753l1.041,2.741a1,1,0,0,0,.889.645l2.928.143-2.285,1.836a1,1,0,0,0-.339,1.045l.769,2.829-2.453-1.606a1,1,0,0,0-1.1,0L19.6,16.992l.769-2.828a1,1,0,0,0-.34-1.045l-2.285-1.836ZM21.893,3.3V.706a.706.706,0,0,1,1.413,0V3.3a.706.706,0,0,1-1.413,0Zm4.3,4.185a.706.706,0,0,1,.052-1l2.889-2.6a.706.706,0,0,1,.945,1.05l-2.889,2.6a.706.706,0,0,1-1-.052ZM15.065,3.937a.706.706,0,0,1,1-.052l2.889,2.6a.706.706,0,1,1-.945,1.05l-2.889-2.6a.706.706,0,0,1-.052-1Zm16.6,7.77,2.917,2.345L33.6,17.663a1,1,0,0,0,1.517,1.1l3.131-2.05,3.131,2.05a1,1,0,0,0,1.517-1.1l-.982-3.611,2.917-2.344a1,1,0,0,0-.579-1.784l-3.738-.182-1.328-3.5a1,1,0,0,0-1.875,0l-1.328,3.5-3.738.182a1,1,0,0,0-.58,1.783Zm4.654-.568a1,1,0,0,0,.889-.646l1.04-2.74,1.04,2.74a1,1,0,0,0,.889.646l2.928.143-2.285,1.836a1,1,0,0,0-.34,1.045l.769,2.829-2.453-1.606a1,1,0,0,0-1.1,0l-2.452,1.605.769-2.828a1,1,0,0,0-.34-1.045l-2.285-1.836ZM.37,11.707l2.917,2.345L2.3,17.663a1,1,0,0,0,1.517,1.1l3.131-2.05,3.131,2.05a1,1,0,0,0,1.517-1.1l-.982-3.611,2.917-2.344a1,1,0,0,0-.579-1.784L9.219,9.741l-1.328-3.5a1,1,0,0,0-1.875,0l-1.328,3.5L.949,9.924a1,1,0,0,0-.58,1.783Zm4.654-.568a1,1,0,0,0,.889-.646l1.04-2.74,1.04,2.74a1,1,0,0,0,.889.646l2.928.143L9.525,13.118a1,1,0,0,0-.34,1.045l.769,2.829L7.5,15.386a1,1,0,0,0-1.1,0L3.951,16.992l.769-2.828a1,1,0,0,0-.34-1.045L2.1,11.282ZM45.093,37.522a8.107,8.107,0,0,0-2.867-4.058,8.012,8.012,0,0,0-2.1-1.129,4.414,4.414,0,1,0-5.443,0,7.955,7.955,0,0,0-3.535,2.521,10.522,10.522,0,0,0-5.434-3.932,5.663,5.663,0,1,0-6.24,0,10.522,10.522,0,0,0-5.434,3.932,7.955,7.955,0,0,0-3.535-2.522,4.414,4.414,0,1,0-5.443,0,8.014,8.014,0,0,0-2.1,1.129A8.107,8.107,0,0,0,.105,37.521,2.33,2.33,0,0,0,.464,39.64a2.33,2.33,0,0,0,1.918.969h9.765v1.275a3.33,3.33,0,0,0,3.326,3.326H29.725a3.33,3.33,0,0,0,3.326-3.326V40.609h9.765a2.383,2.383,0,0,0,2.276-3.088ZM37.412,25.86a3,3,0,1,1-3,3A3,3,0,0,1,37.412,25.86ZM18.349,26.2a4.25,4.25,0,1,1,4.252,4.25h0a4.255,4.255,0,0,1-4.247-4.25Zm-10.562-.34a3,3,0,1,1-3,3A3,3,0,0,1,7.787,25.859ZM12.239,39.2H2.382A.925.925,0,0,1,1.6,38.8a.925.925,0,0,1-.146-.862,6.629,6.629,0,0,1,11.8-1.787A10.453,10.453,0,0,0,12.239,39.2Zm19.4,2.688A1.916,1.916,0,0,1,29.725,43.8H15.473a1.915,1.915,0,0,1-1.913-1.913V39.941a9.073,9.073,0,0,1,9.037-8.08h0a9.073,9.073,0,0,1,9.037,8.08ZM43.6,38.8a.925.925,0,0,1-.781.394H32.96a10.46,10.46,0,0,0-1.013-3.044,6.629,6.629,0,0,1,11.8,1.787A.925.925,0,0,1,43.6,38.8Z" transform="translate(0)" fill="#fff"/>
  </g>
</svg>
