<svg xmlns="http://www.w3.org/2000/svg" width="44" height="45" viewBox="0 0 44 45">
  <g id="Increased_Sales" transform="translate(-0.499)">
    <path id="Path_7979" data-name="Path 7979" d="M46.15,73.939c-2.234-2-4.817-.128-4.817-.128V63.3a.716.716,0,0,0-1.424,0V74.71A39.2,39.2,0,0,1,35.054,77.7V58.77a1.7,1.7,0,0,1,1.777-1.6h1.3a1.7,1.7,0,0,1,1.777,1.6v1.908a.716.716,0,0,0,1.424,0V58.77a3.054,3.054,0,0,0-3.2-2.875h-1.3a3.055,3.055,0,0,0-3.2,2.875v19.44a8.249,8.249,0,0,1-1.3.218V64.944a3.07,3.07,0,0,0-3.217-2.89H27.84a3.07,3.07,0,0,0-3.217,2.89V71.46l-1.3.622V69.913a2.764,2.764,0,0,0-2.9-2.6H18.513a2.764,2.764,0,0,0-2.9,2.6v5.841l-2.325,1.108L6.762,78.538a4.432,4.432,0,0,0-2.671,1.881,3.664,3.664,0,0,0-.448,3.022l.73,2.524a.722.722,0,0,0,.868.458.637.637,0,0,0,.51-.78l-.73-2.523a2.727,2.727,0,0,1,2.132-3.352l5.97-1.532L17.61,88.991a2.8,2.8,0,0,1-2.12,3.532l-4.511.92a2.987,2.987,0,0,1-3.527-1.928l-.916-3.165a.723.723,0,0,0-.868-.458.637.637,0,0,0-.51.78l.916,3.165A4.312,4.312,0,0,0,10.3,94.791a38.371,38.371,0,0,0,5.5-1.021,3.959,3.959,0,0,0,3.322-4.658L34.735,85.68a9.409,9.409,0,0,0,3.543-1.593l7.6-5.605A2.837,2.837,0,0,0,46.15,73.939ZM27.84,63.333h1.27a1.711,1.711,0,0,1,1.793,1.61V78.459l-4.493,0c-.413,0-.127-.248-.1-.265l1.294-.941a5.984,5.984,0,0,0,2.343-3.63,2.391,2.391,0,0,0-1.076-2.537,3.062,3.062,0,0,0-2.819-.294V64.944A1.711,1.711,0,0,1,27.84,63.333Zm-10.8,6.58a1.4,1.4,0,0,1,1.472-1.322h1.911A1.405,1.405,0,0,1,21.9,69.913v2.848l-4.855,2.314V69.913ZM44.97,77.494l-7.6,5.605A7.9,7.9,0,0,1,34.4,84.438L18.674,87.9,14.446,77.761l12.073-5.756a1.5,1.5,0,0,1,1.494.1,1.171,1.171,0,0,1,.533,1.257A4.755,4.755,0,0,1,26.7,76.257l-1.294.942a1.326,1.326,0,0,0-.5,1.586,1.572,1.572,0,0,0,1.5.951l5.189,0h0a9.589,9.589,0,0,0,5.133-1.459l5.8-3.662a2.176,2.176,0,0,1,2.6.215,1.66,1.66,0,0,1-.161,2.662Zm0,0" transform="translate(-2.67 -49.791)" fill="#fff"/>
    <path id="Path_7980" data-name="Path 7980" d="M13.922,38.771c0-1.408-1.447-2.553-3.227-2.553s-3.227,1.145-3.227,2.553,1.447,2.553,3.227,2.553S13.922,40.179,13.922,38.771Zm-4.815,0A1.454,1.454,0,0,1,10.7,37.514a1.292,1.292,0,1,1,0,2.514,1.454,1.454,0,0,1-1.589-1.257Zm-4.3-18.428,11.906-9.491,2.678,1.1a3.039,3.039,0,0,0,2.905-.334l6.481-4.935A2.341,2.341,0,0,0,31.3,9.213,2.306,2.306,0,0,0,33.815,7.22V1.993c0-.006,0-.012,0-.019C33.806.61,32.545,0,31.3,0h-6.55a2.306,2.306,0,0,0-2.519,1.993c0,2.191,2.819,1.993,2.819,1.993L20.1,7.751,17.384,6.639a3.018,3.018,0,0,0-2.946.366L1.229,17.535a1.716,1.716,0,0,0,.014,2.819,2.957,2.957,0,0,0,3.563-.011Zm-2.414-1.9L15.6,7.918a.871.871,0,0,1,1.031-.128L19.87,9.115a.988.988,0,0,0,.944-.109l6.831-5.2a.556.556,0,0,0,.191-.709.842.842,0,0,0-.76-.406h-2.33a.807.807,0,0,1-.881-.7.807.807,0,0,1,.881-.7H31.3c.241,0,.881,0,.881.693,0,.006,0,.011,0,.018V7.22a.906.906,0,0,1-1.763,0V5.155a.664.664,0,0,0-.5-.6.985.985,0,0,0-.889.13L21.159,10.68a1.063,1.063,0,0,1-1.016.117L16.931,9.483a.986.986,0,0,0-.958.119L3.643,19.431a1,1,0,0,1-1.247,0,.6.6,0,0,1,0-.986Zm0,0" fill="#fff"/>
  </g>
</svg>
