<svg xmlns="http://www.w3.org/2000/svg" width="50.557" height="55.914" viewBox="0 0 50.557 55.914">
  <g id="Increased" transform="translate(-0.499)">
    <path id="Path_7979" data-name="Path 7979" d="M52.554,79c-2.569-2.558-5.54-.164-5.54-.164V65.373a.819.819,0,1,0-1.638,0V79.99a44.631,44.631,0,0,1-5.584,3.831V59.576a2.046,2.046,0,0,1,2.044-2.044h1.5a2.046,2.046,0,0,1,2.044,2.044V62.02a.819.819,0,1,0,1.638,0V59.576A3.685,3.685,0,0,0,43.333,55.9h-1.5a3.686,3.686,0,0,0-3.682,3.681V84.471a8.607,8.607,0,0,1-1.5.279V67.483a3.7,3.7,0,0,0-3.7-3.7H31.5a3.7,3.7,0,0,0-3.7,3.7v8.345l-1.5.8V73.846a3.335,3.335,0,0,0-3.331-3.331h-2.2a3.335,3.335,0,0,0-3.331,3.331v7.48l-2.674,1.419-7.51,2.146a5.176,5.176,0,0,0-3.587,6.279L4.5,94.4A.819.819,0,1,0,6.09,93.99l-.84-3.231A3.517,3.517,0,0,1,7.7,86.467L14.569,84.5l5.161,13.773A3.668,3.668,0,0,1,17.29,102.8L12.1,103.979a3.4,3.4,0,0,1-4.057-2.469L6.992,97.458a.819.819,0,1,0-1.586.412l1.054,4.053a5.024,5.024,0,0,0,4.867,3.782,40.147,40.147,0,0,0,6.327-1.307,5.047,5.047,0,0,0,3.821-5.965l17.951-4.395A10.329,10.329,0,0,0,43.5,92l8.736-7.178A3.885,3.885,0,0,0,52.554,79ZM31.5,65.42h1.46a2.064,2.064,0,0,1,2.062,2.062V84.791l-5.168,0c-.475,0-.146-.318-.12-.339l1.489-1.206a7.785,7.785,0,0,0,2.7-4.649,3.248,3.248,0,0,0-4.479-3.626V67.483A2.064,2.064,0,0,1,31.5,65.42ZM19.075,73.846a1.7,1.7,0,0,1,1.693-1.693h2.2a1.7,1.7,0,0,1,1.693,1.693v3.647l-5.584,2.964v-6.61ZM51.2,83.555,42.46,90.733a8.672,8.672,0,0,1-3.424,1.714L20.953,96.874,16.09,83.9l13.886-7.371a1.61,1.61,0,0,1,2.332,1.742,6.193,6.193,0,0,1-2.121,3.7L28.7,83.177a1.829,1.829,0,0,0,1.151,3.25l5.968,0h0a10.212,10.212,0,0,0,5.9-1.868l6.669-4.69a2.307,2.307,0,0,1,2.989.276,2.272,2.272,0,0,1-.186,3.408Zm0,0" transform="translate(-2.67 -49.791)" fill="#fff"/>
    <path id="Path_7980" data-name="Path 7980" d="M13.922,49.011A3.227,3.227,0,1,0,10.7,52.238,3.231,3.231,0,0,0,13.922,49.011Zm-4.815,0A1.589,1.589,0,1,1,10.7,50.6a1.591,1.591,0,0,1-1.589-1.589Zm-4.3-23.3,11.906-12L19.39,15.1a2.519,2.519,0,0,0,2.905-.423l6.481-6.238s-.178,3.2,2.52,3.2a2.523,2.523,0,0,0,2.519-2.52V2.519c0-.008,0-.016,0-.024A2.385,2.385,0,0,0,31.3,0h-6.55a2.522,2.522,0,0,0-2.519,2.519c0,2.77,2.819,2.519,2.819,2.519L20.1,9.8,17.384,8.393a2.509,2.509,0,0,0-2.946.463L1.229,22.167a2.522,2.522,0,0,0,.014,3.563,2.484,2.484,0,0,0,3.563-.014Zm-2.414-2.4L15.6,10.01a.745.745,0,0,1,1.031-.162l3.238,1.675a.819.819,0,0,0,.944-.137L27.645,4.81A.819.819,0,0,0,27.077,3.4h-2.33a.882.882,0,0,1,0-1.763H31.3a.77.77,0,0,1,.881.876c0,.007,0,.015,0,.022v6.59a.882.882,0,0,1-1.763,0V6.517a.819.819,0,0,0-1.387-.59L21.159,13.5a.881.881,0,0,1-1.016.148l-3.212-1.661a.82.82,0,0,0-.958.151L3.643,24.562a.845.845,0,0,1-1.247,0,.883.883,0,0,1,0-1.246Zm0,0" fill="#fff"/>
  </g>
</svg>
