<svg xmlns="http://www.w3.org/2000/svg" width="43.144" height="44.447" viewBox="0 0 43.144 44.447">
  <g id="Increased_customer_" data-name="Increased_customer " transform="translate(-15.27 -8)">
    <path id="Path_7983" data-name="Path 7983" d="M48.96,32.318H44.254a.717.717,0,0,0-.717.717v18.7a.717.717,0,0,0,.717.717H48.96a.717.717,0,0,0,.717-.717v-18.7A.717.717,0,0,0,48.96,32.318Zm-.717,18.7H44.971V33.751h3.272Zm-8.02-13.756H35.518a.717.717,0,0,0-.717.717V51.73a.717.717,0,0,0,.717.717h4.705a.717.717,0,0,0,.717-.717V37.973A.717.717,0,0,0,40.223,37.256Zm-.717,13.756H36.234V38.69h3.272ZM57.7,27.875H52.991a.717.717,0,0,0-.717.717V51.73a.717.717,0,0,0,.717.717H57.7a.717.717,0,0,0,.717-.717V28.592A.717.717,0,0,0,57.7,27.875ZM56.98,51.013H53.708v-21.7H56.98ZM31.486,41.986H26.78a.717.717,0,0,0-.717.717V51.73a.717.717,0,0,0,.717.717h4.705a.717.717,0,0,0,.717-.717V42.7A.717.717,0,0,0,31.486,41.986Zm-.717,9.027H27.5V43.42h3.271ZM26.285,38.964a.717.717,0,0,1-.236-1.394A88.161,88.161,0,0,0,55.717,20.481l-1.745.095a.717.717,0,1,1-.078-1.432l3.763-.2a.717.717,0,0,1,.748.819l-.543,3.729a.717.717,0,0,1-1.419-.207l.256-1.756a89.574,89.574,0,0,1-30.179,17.4.714.714,0,0,1-.236.04ZM26.551,27.3a.717.717,0,0,0,.713.793H38.08a.717.717,0,0,0,.713-.793q-.018-.166-.045-.331H46.16a.717.717,0,0,0,.713-.793,5.286,5.286,0,0,0-3.065-4.254,3.035,3.035,0,1,0-4.409.006,5.356,5.356,0,0,0-2.2,1.858,6.148,6.148,0,0,0-2.144-1.5,3.467,3.467,0,1,0-4.772,0,6.147,6.147,0,0,0-2.144,1.5,5.356,5.356,0,0,0-2.2-1.858,3.036,3.036,0,1,0-4.409-.006,5.286,5.286,0,0,0-3.065,4.254.717.717,0,0,0,.713.793H26.6q-.027.165-.045.331ZM40,19.838a1.6,1.6,0,1,1,1.6,1.6A1.6,1.6,0,0,1,40,19.838Zm1.6,3.036a3.86,3.86,0,0,1,3.677,2.659H38.333q-.1-.236-.221-.464A3.893,3.893,0,0,1,41.6,22.874Zm-10.962-3.1A2.033,2.033,0,1,1,32.672,21.8,2.036,2.036,0,0,1,30.639,19.769Zm2.033,3.467a4.711,4.711,0,0,1,4.542,3.42H28.13A4.712,4.712,0,0,1,32.672,23.236Zm-10.53-3.4a1.6,1.6,0,1,1,1.6,1.6A1.6,1.6,0,0,1,22.142,19.838Zm-2.075,5.694a3.871,3.871,0,0,1,7.165-.464q-.12.227-.221.464Zm26.411-8.156a.717.717,0,0,1,1.239-.722,17.221,17.221,0,0,1,2.21,6.483.717.717,0,1,1-1.422.185,15.8,15.8,0,0,0-2.027-5.947Zm-23.54-5.545a.717.717,0,0,1,.207-.993,17.4,17.4,0,0,1,19.429.255l-.234-.82a.717.717,0,1,1,1.379-.393l.844,2.96a.717.717,0,0,1-.664.913l-3.076.11a.717.717,0,0,1-.051-1.433l1.152-.041a15.966,15.966,0,0,0-17.993-.352A.717.717,0,0,1,22.938,11.831Zm-4.074,21.6a.717.717,0,1,1-1.239.722,17.41,17.41,0,0,1,.736-18.65l-.818.233a.717.717,0,0,1-.393-1.379l2.96-.844a.717.717,0,0,1,.913.664l.11,3.076A.717.717,0,1,1,19.7,17.3l-.041-1.154a15.975,15.975,0,0,0-.795,17.281Z" fill="#fff"/>
  </g>
</svg>
