<svg xmlns="http://www.w3.org/2000/svg" width="486.973" height="486.999" viewBox="0 0 486.973 486.999">
  <g id="Group_4473" data-name="Group 4473" transform="translate(-12.514 -12.5)">
    <g id="Group_4472" data-name="Group 4472">
      <path id="Path_2873" data-name="Path 2873" d="M148.192,62.9H129.1a44.016,44.016,0,0,0-88.028.619c0,.116,0,.231.005.347a36.939,36.939,0,0,0,8.378,72.915h98.738a36.941,36.941,0,0,0,0-73.881Z" fill="#a4d4ff" fill-rule="evenodd"/>
      <g id="Group_4469" data-name="Group 4469">
        <path id="Path_2874" data-name="Path 2874" d="M385.688,26.5a7,7,0,0,1,0-14,113.723,113.723,0,0,1,113.8,113.834,6.973,6.973,0,1,1-13.946,0A99.7,99.7,0,0,0,385.688,26.5Z" fill="#66d4f1" fill-rule="evenodd"/>
        <path id="Path_2875" data-name="Path 2875" d="M465.821,126.333a7,7,0,1,1-14,0A65.994,65.994,0,0,0,385.688,60.2a7,7,0,1,1,0-14,80.147,80.147,0,0,1,80.133,80.135Z" fill="#66d4f1" fill-rule="evenodd"/>
        <path id="Path_2876" data-name="Path 2876" d="M385.688,93.867a6.973,6.973,0,0,1,0-13.946,46.379,46.379,0,0,1,46.041,40.568,6.973,6.973,0,0,1-13.836,1.75,32.439,32.439,0,0,0-32.205-28.372Z" fill="#66d4f1" fill-rule="evenodd"/>
      </g>
      <path id="Path_2877" data-name="Path 2877" d="M403.611,268.72h81.14a7.778,7.778,0,0,1,7.764,7.763V491.736a7.778,7.778,0,0,1-7.764,7.763h-81.14a7.778,7.778,0,0,1-7.763-7.763V276.483a7.777,7.777,0,0,1,7.763-7.763Z" fill="#636c77" fill-rule="evenodd"/>
      <g id="Group_4470" data-name="Group 4470">
        <path id="Path_2878" data-name="Path 2878" d="M415.785,301.478h56.791a2.007,2.007,0,0,1,2,2V318.9a2.007,2.007,0,0,1-2,2H415.785a2.007,2.007,0,0,1-2-2V303.481a2.007,2.007,0,0,1,2-2Zm-2,127.186a7,7,0,0,1,0-14h60.8a7,7,0,0,1,0,14Zm0,56.959a7,7,0,1,1,0-14h60.8a7,7,0,0,1,0,14Zm0-28.48a7,7,0,0,1,0-14h60.8a7,7,0,0,1,0,14Z" fill="#424852" fill-rule="evenodd"/>
      </g>
      <path id="Path_2879" data-name="Path 2879" d="M444.181,354.186a7,7,0,1,0-7-7A7.014,7.014,0,0,0,444.181,354.186Z" fill="#66d4f1" fill-rule="evenodd"/>
      <path id="Path_2880" data-name="Path 2880" d="M235.263,475.05H121.426c9.086-12.857,16.619-45.983,13.356-71.539h86.324c-3.263,25.557,5.075,58.683,14.157,71.539Z" fill="#cad0d7" fill-rule="evenodd"/>
      <path id="Path_2881" data-name="Path 2881" d="M101.139,470.629H255.55a14.476,14.476,0,0,1,14.434,14.434h0A14.477,14.477,0,0,1,255.55,499.5H101.139a14.476,14.476,0,0,1-14.434-14.434h0A14.477,14.477,0,0,1,101.139,470.629Z" fill="#e4e8eb" fill-rule="evenodd"/>
      <path id="Path_2882" data-name="Path 2882" d="M326.076,175.868a17.421,17.421,0,0,1,17.418,17.422v195.9A23.712,23.712,0,0,1,319.781,412.9H36.9A23.712,23.712,0,0,1,13.19,389.185V199.58A23.712,23.712,0,0,1,36.9,175.867H326.076Z" fill="#cad0d7" fill-rule="evenodd"/>
      <path id="Path_2883" data-name="Path 2883" d="M26.953,351.967H329.732V193.29a3.654,3.654,0,0,0-3.656-3.66H36.9a9.944,9.944,0,0,0-9.95,9.95Z" fill="#38a8d2" fill-rule="evenodd"/>
      <path id="Path_2884" data-name="Path 2884" d="M343.495,365.73v23.455A23.712,23.712,0,0,1,319.782,412.9H36.9A23.712,23.712,0,0,1,13.19,389.185V365.73Z" fill="#e4e8eb" fill-rule="evenodd"/>
      <path id="Path_2885" data-name="Path 2885" d="M165.177,395.92a7,7,0,1,1,0-14h26.167a7,7,0,0,1,0,14Zm66.285-134.45-.053-28.988a6.973,6.973,0,0,1,6.973-6.973v-.027h14.606v14h-7.621l.04,21.988Zm-2.59-51.949-27.885,27.885v20.939h-14V234.507a6.978,6.978,0,0,1,2.051-4.949l29.936-29.936Zm-91.326-9.9,29.936,29.936a6.976,6.976,0,0,1,2.05,4.949v23.838h-14V237.407l-27.885-27.885ZM111.12,257.4l.033-17.921h-5.571v-14h12.557v.027a6.973,6.973,0,0,1,6.973,6.973l-.046,24.921Z" fill="#cad0d7" fill-rule="evenodd"/>
      <path id="Path_2886" data-name="Path 2886" d="M256.437,242.482a10,10,0,1,1,10-10A10,10,0,0,1,256.437,242.482Z" fill="#b3a4ee" fill-rule="evenodd"/>
      <path id="Path_2887" data-name="Path 2887" d="M257.912,268.4c-16.788,0-25.212,20.339-13.341,32.21a5.6,5.6,0,0,1,0,7.92l-12.057,12.056a5.6,5.6,0,0,1-7.92,0c-11.87-11.87-32.21-3.447-32.21,13.342a5.6,5.6,0,0,1-5.6,5.6H169.735a5.6,5.6,0,0,1-5.6-5.6c0-16.809-20.324-25.227-32.21-13.342a5.6,5.6,0,0,1-7.92,0l-12.057-12.056a5.6,5.6,0,0,1,0-7.92c11.871-11.871,3.447-32.21-13.341-32.21a5.6,5.6,0,0,1-5.6-5.6v-6.522a2.007,2.007,0,0,1,2-2h39.632a2,2,0,0,1,2,1.913,41.662,41.662,0,0,0,83.236,0,2,2,0,0,1,2-1.913H261.51a2.007,2.007,0,0,1,2,2V262.8a5.6,5.6,0,0,1-5.6,5.6Z" fill="#fdcd56" fill-rule="evenodd"/>
      <path id="Path_2888" data-name="Path 2888" d="M202.21,256.454a24.049,24.049,0,0,1-47.9,0,2,2,0,0,1,1.995-2.182h43.911a2,2,0,0,1,1.994,2.182Z" fill="#f5b945" fill-rule="evenodd"/>
      <g id="Group_4471" data-name="Group 4471">
        <path id="Path_2889" data-name="Path 2889" d="M223.923,214.572a10,10,0,1,1,10-10A10,10,0,0,1,223.923,214.572Zm-91.327,0a10,10,0,1,1,10-10A10,10,0,0,1,132.6,214.572Zm-32.513,27.91a10,10,0,1,0-10-10A10,10,0,0,0,100.083,242.482Z" fill="#b3a4ee" fill-rule="evenodd"/>
      </g>
    </g>
  </g>
</svg>
