<svg xmlns="http://www.w3.org/2000/svg" width="124.5" height="124.5" viewBox="0 0 124.5 124.5">
  <g id="Group_4496" data-name="Group 4496" transform="translate(-1.75 -1.747)">
    <path id="Path_3118" data-name="Path 3118" d="M116.391,51.587,106.81,65.5l-.423,16.888L90.449,88,80.194,101.426,64,96.587l-16.194,4.839L37.55,88,21.613,82.385,21.19,65.5,11.609,51.587,21.19,37.676l.423-16.888,15.938-5.613L47.806,1.747,64,6.586,80.194,1.747,90.45,15.176l15.937,5.612.423,16.888Z" fill="#fff06d"/>
    <circle id="Ellipse_2186" data-name="Ellipse 2186" cx="34.67" cy="34.67" r="34.67" transform="translate(29.33 16.917)" fill="#54528e"/>
    <circle id="Ellipse_2187" data-name="Ellipse 2187" cx="26.67" cy="26.67" r="26.67" transform="translate(37.33 24.917)" fill="#eff4f9"/>
    <path id="Path_3119" data-name="Path 3119" d="M64,43.408A8.03,8.03,0,1,0,52.644,54.764L64,66.121,75.356,54.764A8.03,8.03,0,1,0,64,43.408Z" fill="#f37"/>
    <path id="Path_3120" data-name="Path 3120" d="M37.55,88,21.613,82.385l-.02-.79-.117-4.679L1.75,111.083,19.887,110l8.129,16.249L44.7,97.355Z" fill="#54528e"/>
    <path id="Path_3121" data-name="Path 3121" d="M37.55,88l-8.921-3.142-14.722,25.5,5.98-.357,2.68,5.357L38.012,88.6Z" fill="#f37"/>
    <path id="Path_3122" data-name="Path 3122" d="M90.45,88l15.937-5.613.02-.79.117-4.679,19.726,34.167L108.113,110l-8.129,16.249L83.3,97.355Z" fill="#54528e"/>
    <path id="Path_3123" data-name="Path 3123" d="M90.45,88l8.921-3.142,14.722,25.5-5.98-.357-2.68,5.357L89.988,88.6Z" fill="#f37"/>
  </g>
</svg>
