<svg xmlns="http://www.w3.org/2000/svg" width="32.766" height="40.191" viewBox="0 0 32.766 40.191">
  <g id="ios" transform="translate(-6.104 -2.251)">
    <path id="Path_3184" data-name="Path 3184" d="M26.221,0h.286a8.606,8.606,0,0,1-2.167,6.486,6.718,6.718,0,0,1-5.914,2.776,8.348,8.348,0,0,1,2.206-6.285A9.529,9.529,0,0,1,26.221,0ZM34.87,29.5v.079a23.384,23.384,0,0,1-3.346,6.45c-1.276,1.756-2.84,4.119-5.632,4.119-2.413,0-4.015-1.551-6.488-1.594-2.615-.042-4.054,1.3-6.445,1.634h-.815c-1.756-.254-3.173-1.645-4.206-2.9A25.389,25.389,0,0,1,2.1,22.687v-1.8a11.778,11.778,0,0,1,5.143-9.668,8.685,8.685,0,0,1,5.831-1.35,14.668,14.668,0,0,1,2.857.819,7.89,7.89,0,0,0,2.856.856,6.855,6.855,0,0,0,2-.612c1.97-.711,3.9-1.527,6.445-1.144a8.942,8.942,0,0,1,6.57,3.918,8.432,8.432,0,0,0-4.283,8.365A8.636,8.636,0,0,0,34.87,29.5Z" transform="translate(4 2.251)"/>
  </g>
</svg>
