<svg xmlns="http://www.w3.org/2000/svg" width="562.311" height="562.311" viewBox="0 0 562.311 562.311">
  <g id="Group_4461" data-name="Group 4461" transform="translate(-2.99 -2.99)">
    <path id="Path_2780" data-name="Path 2780" d="M192.48,60.773V274.027A38.773,38.773,0,0,1,153.707,312.8H56.773a37.042,37.042,0,0,1-6.591-.582A38.676,38.676,0,0,1,18,274.027V60.773A38.773,38.773,0,0,1,56.773,22h96.933A38.773,38.773,0,0,1,192.48,60.773Z" transform="translate(130.487 165.26)" fill="#5aaae7"/>
    <path id="Path_2781" data-name="Path 2781" d="M163.618,29.11V212.217a38.773,38.773,0,0,1-38.773,38.773H27.911a37.042,37.042,0,0,1-6.591-.582Z" transform="translate(159.349 227.07)" fill="#3d9ae2"/>
    <path id="Path_2782" data-name="Path 2782" d="M410.207,468.28v96.933H545.914V468.28ZM158.18,61.257l.1-58.16L119.407,3V119.32h29.08l58.16.1H235.63l.1-58.16Zm-48.467-.1H3.087l-.1,58.063H32.167l58.16.1h29.08V61.16Z" transform="translate(0 0.087)" fill="#ff9811"/>
    <path id="Path_2783" data-name="Path 2783" d="M234.867,41.773v87.24a9.693,9.693,0,0,1-9.693,9.693H50.693A9.693,9.693,0,0,1,41,129.013V41.773a9.693,9.693,0,0,1,9.693-9.693h29.08L99.16,3h77.547l19.387,29.08h29.08A9.693,9.693,0,0,1,234.867,41.773Z" transform="translate(330.434 0.087)" fill="#acabb1"/>
    <path id="Path_2784" data-name="Path 2784" d="M188.4,45l29.08,58.16H43L72.08,45Z" transform="translate(347.821 365.207)" fill="#ff5023"/>
    <path id="Path_2785" data-name="Path 2785" d="M50,55H88.773v58.16H50Z" transform="translate(408.674 452.141)" fill="#e6e7e8"/>
    <circle id="Ellipse_2141" data-name="Ellipse 2141" cx="29.08" cy="29.08" r="29.08" transform="translate(439.287 41.86)" fill="#e6e7e8"/>
    <path id="Path_2786" data-name="Path 2786" d="M91.124,64.014a18.04,18.04,0,0,1-.679,5.041L78.135,114.9H24.24a19.125,19.125,0,0,0,17.545-14.152L53.029,59.07a19.387,19.387,0,0,1,38.095,4.944Z" transform="translate(184.734 363.157)" fill="#1e81ce"/>
    <path id="Path_2787" data-name="Path 2787" d="M96.547,61.17H19l.1-58.16Z" transform="translate(139.18 0.174)" fill="#e6e7e8"/>
    <path id="Path_2788" data-name="Path 2788" d="M47.08,12A29.08,29.08,0,1,0,76.16,41.177v-.1A29.08,29.08,0,0,0,47.08,12Z" transform="translate(130.487 78.327)" fill="#787680"/>
    <path id="Path_2789" data-name="Path 2789" d="M119.32,3.087v58.16H3L3.1,2.99Z" transform="translate(0.087)" fill="#d1d3d4"/>
    <path id="Path_2790" data-name="Path 2790" d="M35.08,12A29.022,29.022,0,0,0,6,40.983v.1A29.08,29.08,0,1,0,35.08,12Z" transform="translate(26.167 78.327)" fill="#787680"/>
    <path id="Path_2791" data-name="Path 2791" d="M60.942,181.885,37.387,142.627V36H18V152.32a38.676,38.676,0,0,0,32.182,38.192,37.045,37.045,0,0,0,6.591.582H75.966a18.98,18.98,0,0,1-15.025-9.209Z" transform="translate(130.487 286.967)" fill="#3d9ae2"/>
    <path id="Path_2792" data-name="Path 2792" d="M163.8,102.109a19.387,19.387,0,0,0-23.749,13.765L128.8,157.554A19.2,19.2,0,0,1,110.194,171.8H110A19,19,0,0,1,93.715,162.5L70.16,123.24V36A58.16,58.16,0,0,0,12,94.16V210.48l9.693,38.773v29.08h116.32V258.947l19.387-29.08V208.445a60.254,60.254,0,0,1,1.939-15.025l.582-2.326,17.545-65.236a18.04,18.04,0,0,0,.679-5.041A19.387,19.387,0,0,0,163.8,102.109Z" transform="translate(78.327 286.967)" fill="#ffc477"/>
    <path id="Path_2793" data-name="Path 2793" d="M45,51H180.707V70.387H45Z" transform="translate(365.207 417.367)" fill="#ee8700"/>
    <path id="Path_2794" data-name="Path 2794" d="M60.773,25h58.16V44.387H60.773ZM22,25H41.387V44.387H22Z" transform="translate(165.26 191.34)" fill="#3d9ae2"/>
    <g id="Group_4460" data-name="Group 4460" transform="translate(70.94 170.714)">
      <path id="Path_2795" data-name="Path 2795" d="M48.038,72.773H67.424V92.159H48.038ZM78.291,61.9a29.8,29.8,0,0,0-41.119,0L23.465,48.19A48.467,48.467,0,0,1,92,48.19Z" transform="translate(107.056 98.867)" fill="#ff9811"/>
      <path id="Path_2796" data-name="Path 2796" d="M222.769,153.644a67.96,67.96,0,0,0-95.964,0L113.1,139.938a87.337,87.337,0,0,1,123.377,0Zm116.8-48.951H291.107V85.306h44.454l65.013-65.013L414.28,34l-67.853,67.853A9.693,9.693,0,0,1,339.574,104.693Zm61,123.173-65.013-65.013H291.107V143.466h48.467a9.692,9.692,0,0,1,6.852,2.839L414.28,214.16ZM58.467,133.773H19.693A9.693,9.693,0,0,1,10,124.08V27.146H29.387v87.24h29.08Z" transform="translate(-10 -20.293)" fill="#ff9811"/>
    </g>
  </g>
</svg>
