<svg xmlns="http://www.w3.org/2000/svg" width="59.176" height="50.508" viewBox="0 0 59.176 50.508">
  <g id="ipad" transform="translate(6598.176 -9246.492)">
    <g id="Group_4595" data-name="Group 4595" transform="translate(-6598.176 9246.492)">
      <path id="Path_3664" data-name="Path 3664" d="M35.753,0H5.907A5.746,5.746,0,0,0,.168,5.739V44.768a5.746,5.746,0,0,0,5.739,5.739H35.753a5.746,5.746,0,0,0,5.74-5.739V5.739A5.746,5.746,0,0,0,35.753,0ZM39.2,44.768a3.447,3.447,0,0,1-3.444,3.444H5.907a3.448,3.448,0,0,1-3.444-3.444V5.739A3.448,3.448,0,0,1,5.907,2.3H35.753A3.447,3.447,0,0,1,39.2,5.739Zm0,0" transform="translate(-0.168)"/>
      <path id="Path_3665" data-name="Path 3665" d="M157.536,42.668h-6.887a1.148,1.148,0,1,0,0,2.3h6.887a1.148,1.148,0,0,0,0-2.3ZM156.387,81.7a2.3,2.3,0,1,1-2.3-2.3A2.3,2.3,0,0,1,156.387,81.7Zm0,0" transform="translate(-133.429 -38.076)"/>
    </g>
    <g id="Group_4594" data-name="Group 4594" transform="translate(-6573.413 9257.108)">
      <circle id="Ellipse_2217" data-name="Ellipse 2217" cx="17" cy="17" r="17" transform="translate(0.413 -0.108)" fill="#fff"/>
      <path id="Path_3666" data-name="Path 3666" d="M19.125,0h.2A6.074,6.074,0,0,1,17.8,4.577a4.741,4.741,0,0,1-4.174,1.959A5.892,5.892,0,0,1,15.18,2.1,6.725,6.725,0,0,1,19.125,0Zm6.1,20.821v.056a16.5,16.5,0,0,1-2.362,4.553c-.9,1.239-2,2.907-3.975,2.907-1.7,0-2.834-1.095-4.579-1.125-1.846-.03-2.861.915-4.549,1.153H9.19A5.14,5.14,0,0,1,6.222,26.32,17.918,17.918,0,0,1,2.1,16.012V14.742a8.313,8.313,0,0,1,3.63-6.823,6.13,6.13,0,0,1,4.115-.953,10.353,10.353,0,0,1,2.017.578,5.568,5.568,0,0,0,2.015.6,4.838,4.838,0,0,0,1.414-.432,8.7,8.7,0,0,1,4.549-.807A6.311,6.311,0,0,1,24.48,9.674a5.951,5.951,0,0,0-3.023,5.9A6.1,6.1,0,0,0,25.229,20.821Z" transform="translate(2.611 1.785)"/>
    </g>
  </g>
</svg>
