<svg xmlns="http://www.w3.org/2000/svg" width="511.996" height="512" viewBox="0 0 511.996 512">
  <g id="Group_4492" data-name="Group 4492" transform="translate(-0.002)">
    <path id="Path_3068" data-name="Path 3068" d="M512,358.343V68.265a34.132,34.132,0,0,0-34.132-34.132H34.134A34.132,34.132,0,0,0,0,68.265V358.4l256,21.17Z" fill="#3c58a0"/>
    <path id="Path_3069" data-name="Path 3069" d="M196.268,402.286H315.734v82.89H196.268Z" fill="#d3dcfb"/>
    <path id="Path_3070" data-name="Path 3070" d="M273.067,485.589a7.726,7.726,0,0,1-7.726-7.726v-25.6a.808.808,0,0,0-.807-.807H247.467a.808.808,0,0,0-.807.807v25.6a7.726,7.726,0,0,1-15.452,0v-25.6A16.278,16.278,0,0,1,247.468,436h17.067a16.279,16.279,0,0,1,16.26,16.26v25.6a7.728,7.728,0,0,1-7.728,7.726Z" fill="#bec8f7"/>
    <path id="Path_3071" data-name="Path 3071" d="M34.133,361.223V85.334A17.067,17.067,0,0,1,51.2,68.267H460.8a17.067,17.067,0,0,1,17.067,17.067V361.173L256,379.57Z" fill="#9bd8f9"/>
    <path id="Path_3072" data-name="Path 3072" d="M477.866,34.133H454.174a34.131,34.131,0,0,1,34.132,34.132V358.342L244.138,378.589,256,379.57l256-21.228V68.265A34.131,34.131,0,0,0,477.866,34.133Z" fill="#2a428c"/>
    <path id="Path_3073" data-name="Path 3073" d="M367.467,477.868H144.534a8,8,0,0,0-8,8V504a8,8,0,0,0,8,8H367.467a8,8,0,0,0,8-8V485.868a8,8,0,0,0-8-8Z" fill="#e9efff"/>
    <path id="Path_3074" data-name="Path 3074" d="M367.226,477.868H343.532a8.241,8.241,0,0,1,8.241,8.242v17.649A8.24,8.24,0,0,1,343.531,512h23.7a8.24,8.24,0,0,0,8.241-8.242V486.11a8.242,8.242,0,0,0-8.241-8.242Z" fill="#d3dcfb"/>
    <path id="Path_3075" data-name="Path 3075" d="M460.8,68.268H437.107a17.067,17.067,0,0,1,17.067,17.067v277.8l23.694-1.965V85.334A17.066,17.066,0,0,0,460.8,68.268Z" fill="#73c3f9"/>
    <path id="Path_3076" data-name="Path 3076" d="M85.333,256V17.067A17.067,17.067,0,0,1,102.4,0H409.6a17.067,17.067,0,0,1,17.067,17.067V256L256,290.133Z" fill="#4fabf7"/>
    <path id="Path_3077" data-name="Path 3077" d="M409.6,0H385.906a17.067,17.067,0,0,1,17.067,17.067V260.739L426.667,256V17.067A17.067,17.067,0,0,0,409.6,0Z" fill="#1886ea"/>
    <path id="Path_3078" data-name="Path 3078" d="M242.29,151.851a8.52,8.52,0,0,1-3.356-6.784V42.667a8.533,8.533,0,0,1,8.533-8.533H384a8.533,8.533,0,0,1,8.533,8.533v102.4A8.533,8.533,0,0,1,384,153.6H278.084Z" fill="#e9efff"/>
    <circle id="Ellipse_2181" data-name="Ellipse 2181" cx="34.133" cy="34.133" r="34.133" transform="translate(136.534 85.334)" fill="#fcad6d"/>
    <path id="Path_3079" data-name="Path 3079" d="M384,34.133H360.306a8.533,8.533,0,0,1,8.533,8.533v102.4a8.533,8.533,0,0,1-8.533,8.533H384a8.533,8.533,0,0,0,8.533-8.533V42.666A8.533,8.533,0,0,0,384,34.133Z" fill="#d3dcfb"/>
    <path id="Path_3080" data-name="Path 3080" d="M257.906,162.425l-19.991,1.08-3.632,9.686a8.534,8.534,0,0,1-12.724,4.1l-20.59-13.768v0h0l-.022-.015-.005.015-60.546-.021A51.126,51.126,0,0,0,119.467,204.8V260.12h102.4v-41.6l7.6,5.068a17.067,17.067,0,0,0,25.448-8.207l15.394-41.05Z" fill="#4ce088"/>
    <path id="Path_3081" data-name="Path 3081" d="M140.394,163.515,160.005,179.2a17.065,17.065,0,0,0,21.323,0l19.617-15.693h0a51.2,51.2,0,0,0-60.552,0Z" fill="#e9efff"/>
    <path id="Path_3082" data-name="Path 3082" d="M170.667,85.333a34.062,34.062,0,0,0-11.847,2.115,34.143,34.143,0,0,1,0,64.036,34.136,34.136,0,1,0,11.847-66.151Z" fill="#fd995b"/>
    <path id="Path_3083" data-name="Path 3083" d="M257.906,162.425l-17.956.97,10.112,1.692-18.9,50.3a17.06,17.06,0,0,1-4.32,6.458l2.624,1.75a17.067,17.067,0,0,0,25.448-8.207l15.394-41.05Z" fill="#30c16b"/>
    <path id="Path_3084" data-name="Path 3084" d="M270.528,125.143a17.069,17.069,0,0,0-21.973,9.987l-10.642,28.38,32.4,10.822,10.206-27.217a17.066,17.066,0,0,0-9.987-21.972Z" fill="#fcad6d"/>
    <path id="Path_3085" data-name="Path 3085" d="M270.528,125.143a17.052,17.052,0,0,0-17.84,3.719,17.066,17.066,0,0,1,4.114,18.254l-7.566,20.177,21.074,7.04,10.206-27.217A17.068,17.068,0,0,0,270.528,125.143Z" fill="#fd995b"/>
    <path id="Path_3086" data-name="Path 3086" d="M214.14,197.073a7.725,7.725,0,0,0-7.726,7.727v55.32h15.453V204.8A7.727,7.727,0,0,0,214.14,197.073Z" fill="#30c16b"/>
    <path id="Path_3087" data-name="Path 3087" d="M273.073,144.262a7.727,7.727,0,0,1-7.5-9.6l17.066-68.267a7.727,7.727,0,1,1,14.992,3.747l-17.066,68.267A7.732,7.732,0,0,1,273.073,144.262Z" fill="#3c58a0"/>
    <path id="Path_3088" data-name="Path 3088" d="M426.667,361.491h-256l-8.07-52.746L170.667,256h256Z" fill="#d3dcfb"/>
    <path id="Path_3089" data-name="Path 3089" d="M85.333,256h85.334V361.491H85.333Z" fill="#ff4155"/>
    <path id="Path_3090" data-name="Path 3090" d="M402.972,256h23.694V361.491H402.972Z" fill="#bec8f7"/>
    <path id="Path_3091" data-name="Path 3091" d="M224.958,314.926H204.8a7.726,7.726,0,0,1,0-15.452h20.158a7.726,7.726,0,1,1,0,15.452Zm167.575,0H252.91a7.726,7.726,0,0,1,0-15.452H392.534a7.726,7.726,0,0,1,0,15.452Z" fill="#4ce088"/>
    <path id="Path_3092" data-name="Path 3092" d="M132.267,314.926h-8.533a7.726,7.726,0,0,1,0-15.452h8.533a7.726,7.726,0,0,1,0,15.452Z" fill="#e80054"/>
    <circle id="Ellipse_2182" data-name="Ellipse 2182" cx="17.067" cy="17.067" r="17.067" transform="translate(218.438 319.715) rotate(-76.83)" fill="#e9efff"/>
    <path id="Path_3093" data-name="Path 3093" d="M512,358.4H0v17.07A34.132,34.132,0,0,0,34.134,409.6H477.866A34.132,34.132,0,0,0,512,375.468Z" fill="#e9efff"/>
    <path id="Path_3094" data-name="Path 3094" d="M488.306,358.4v17.07A34.132,34.132,0,0,1,454.174,409.6h23.692A34.132,34.132,0,0,0,512,375.468V358.4Z" fill="#d3dcfb"/>
  </g>
</svg>
