<svg xmlns="http://www.w3.org/2000/svg" width="512.104" height="518.307" viewBox="0 0 512.104 518.307">
  <g id="Group_4487" data-name="Group 4487" transform="translate(0.072)">
    <path id="Path_3022" data-name="Path 3022" d="M323.5,402.9l.5,32.7c0,3.5,3.8,6.3,8.4,6.3l130-1c4.6,0,8.3-2.9,8.3-6.4l-.5-32.7c0-3.5-3.8-6.3-8.4-6.3l-130,1C327.2,396.5,323.5,399.4,323.5,402.9Z" fill="#d1d0df"/>
    <path id="Path_3023" data-name="Path 3023" d="M446.1,395.7h24.5v40.6H446.1Z" fill="#b5b5c6"/>
    <path id="Path_3024" data-name="Path 3024" d="M484.7,517.3H335.5c50.3,0,94.4-27.5,118.7-76.7l29.3-.2Z" fill="#f9a01e"/>
    <path id="Path_3025" data-name="Path 3025" d="M454.2,440.6c-24.3,49.1-68.4,76.7-118.7,76.7H312.4l-1.1-75.5Zm38-163.5-4.9,2-17.6-54.9-.2-.5a17.775,17.775,0,0,0-15.2-9.5,25.885,25.885,0,0,0-22,11.5l-.1.2a45.121,45.121,0,0,0-5.4,29c1.5,9.6,5.6,34.7,7.3,44.8a59.467,59.467,0,0,0-6.7,4.4L324.3,347.2l-11.9,5-6.8,2.9-3.1,1.3L275,290.8c.8.1,1.6.1,2.5.2,9.8.8,21.3.2,29.8-4.3,1.3-.7,2.5-1.4,3.7-2.2a44.88,44.88,0,0,0,11.8-11.6,22.629,22.629,0,0,0,1.3-2c.3-.5.6-1.1.9-1.6a43.372,43.372,0,0,0,4.2-10.6c.1-.4.2-.8.3-1.3v-.2a43.808,43.808,0,0,0-81.2-30.3c-2.1-5-4.5-10.8-7.1-17v-.1c-7.8-18.8-17-40.8-21.6-51.7l77-32.2a8.361,8.361,0,0,0-.8-15.7,31.841,31.841,0,1,1,37.4-45.5c4.7,8.8,3.1,23.9,2.2,30a9.826,9.826,0,0,0,.6,4.8,9.079,9.079,0,0,0,11.9,4.9L421,73.8l78,186.6a12.754,12.754,0,0,1-6.8,16.7Z" fill="#ffbb26"/>
    <path id="Path_3026" data-name="Path 3026" d="M271.5,297.9l27.8,66.4,195.2-81.6a18.785,18.785,0,0,0,10.1-24.6l-3.1-7.5c-8.4,4.1-17,8-25.7,11.7A465.982,465.982,0,0,1,271.5,297.9Z" fill="#f9a01e"/>
    <path id="Path_3027" data-name="Path 3027" d="M491.1,310.8l-17,63.8-.1-.1-.2.8a21.511,21.511,0,0,1-3.1,6.9s-4.9,8.1-9.6,15.1l-125,.1a53.637,53.637,0,0,1-17.5-38.6l-.2-9.1,5.9-2.5,103.1-43.1a51.623,51.623,0,0,1,6.7-4.4c-1.7-10.1-5.8-35.1-7.3-44.8v-.2c1.3-.1,2.5-.2,3.8-.3a33.924,33.924,0,0,1,1.2-9.5,25.329,25.329,0,0,1,1.2-3.6,42.118,42.118,0,0,1,4.4-12.3c5.9-9.2,21.4-13,26.9-2.5Z" fill="#efcdb1"/>
    <path id="Path_3028" data-name="Path 3028" d="M190.5,126.4,190,93.7c0-3.5-3.8-6.3-8.4-6.3l-130,1c-4.6,0-8.3,2.9-8.3,6.4l.5,32.7c0,3.5,3.8,6.3,8.4,6.3l130-1c4.6,0,8.3-2.8,8.3-6.4Z" fill="#d1d0df"/>
    <path id="Path_3029" data-name="Path 3029" d="M43.3,93H67.8v40.6H43.3Z" fill="#b5b5c6"/>
    <path id="Path_3030" data-name="Path 3030" d="M29.3.1H178.5C128.2.1,84.1,39.6,59.8,88.8L30.4,89Z" fill="#05becc"/>
    <path id="Path_3031" data-name="Path 3031" d="M59.8,88.7C84.1,39.6,128.2.1,178.5.1h23.1l1.1,87.5Z" fill="#01c6e1"/>
    <path id="Path_3032" data-name="Path 3032" d="M305.9,278.9c-9.8,5.5-25.4,4.7-33.6,3.7a3.049,3.049,0,0,0-3.4,2.7,2.851,2.851,0,0,0,.2,1.6l29.6,66.2a13.48,13.48,0,0,1-6.7,17.7c-19.3,8.6-54.3,24.3-69.2,31a2.389,2.389,0,0,1-3.1-3.2A37.79,37.79,0,1,0,150,394c3.6,10.7,15.8,20.4,22.6,25.1a3.077,3.077,0,0,1,.8,4.3,3.482,3.482,0,0,1-1.3,1.1L94.2,459.4,73.9,414c65.9-48.4,109.8-135,109.8-233.8q0-6.6-.3-13.2l16.5-7.4a11.321,11.321,0,0,1,14.9,5.7c8.5,18.9,24.8,55.5,31.7,70.9a2.348,2.348,0,0,0,3.1,1.2,2.433,2.433,0,0,0,1.3-1.5,37.8,37.8,0,0,1,72.8,20.4,38.573,38.573,0,0,1-17.8,22.6Z" fill="#c11f2f"/>
    <path id="Path_3033" data-name="Path 3033" d="M187.6,158.4l-80.2,35.9-10.1-4.7c-1.9,4.1-4,8.1-6.1,11.9-.3.6-.7,1.1-1,1.7a39.17,39.17,0,0,1-6.1,8A44.392,44.392,0,0,1,71,220.5l-4.4,1.8.5,3.1.3,1.6c.1.4,6.1,36.9,8,49a32.445,32.445,0,0,1-3.8,20.9,13.9,13.9,0,0,1-11.3,6,5.453,5.453,0,0,1-4.9-2.7L35.9,239.3l-1.8-5.8-1.8-5.8-3.1-9.6,16.5-62a25.847,25.847,0,0,1,2.6-5.9l.1-.2c0-.1,3-4.9,6.5-10.4l121.6-1A52.044,52.044,0,0,1,187.6,158.4Z" fill="#efcdb1"/>
    <path id="Path_3034" data-name="Path 3034" d="M317.8,254.8A31.694,31.694,0,0,1,303,273.6c-8.7,4.9-23.8,3.7-29.9,3a8.869,8.869,0,0,0-8.5,3.8,9.2,9.2,0,0,0-3.2,6.9,8.424,8.424,0,0,0,.7,3.5l30.2,72.3a7.052,7.052,0,0,1-2.7,2.1c-16.4,7.4-44.2,19.8-61.3,27.5a43.779,43.779,0,1,0-83.9,3.2c3.4,10,12.4,18.8,20.7,25.1L97.3,451.3l-84-187.7a12.745,12.745,0,0,1,6.5-16.9l5.3-2.4L44.5,305l.3.5A17.775,17.775,0,0,0,60,315h1a25.757,25.757,0,0,0,21.1-11.6l.1-.2a45.121,45.121,0,0,0,5.4-29c-1.5-9.7-5.6-34.7-7.3-44.8A56.606,56.606,0,0,0,100,210.8l89.8-40.2,11.7-5.2,1.1-.5a5.45,5.45,0,0,1,2.2-.5,5.16,5.16,0,0,1,4.8,3.1c5.3,11.8,13.6,30.5,20.8,46.5v.1c4.2,10,8,19.2,10.5,25.1a8.692,8.692,0,0,0,5.3,4.8,8.4,8.4,0,0,0,10.5-5.5,31.853,31.853,0,0,1,58.5-5.7,35.278,35.278,0,0,1,2.6,22Z" fill="#d22732"/>
    <path id="Path_3035" data-name="Path 3035" d="M510.1,255.8,427.4,58.1,347.8,91.4c.9-9.4,1-22.7-4.1-32.3a43.806,43.806,0,1,0-59.8,59l-80.1,33.5.4,1a15.4,15.4,0,0,0-5.6,1,59.094,59.094,0,0,0-8.5-16.8,20.136,20.136,0,0,0,2.9-2.2,11.5,11.5,0,0,0,3.4-8.2L196,93.7l6.8-.1a5.955,5.955,0,0,0,5.9-6.1L207.6,0l-12,.2,1,81.5-11.8.1a18.413,18.413,0,0,0-3.3-.3l-130,1a12.673,12.673,0,0,0-3.4.4L36.3,83l-1-83L23.3.2l1.1,88.9a5.933,5.933,0,0,0,6,5.9h6.9l.5,32.7a11.419,11.419,0,0,0,4.8,9.1c-2.3,3.7-4.1,6.5-4.4,7.1a35.428,35.428,0,0,0-4.2,9.3L16.6,218.7l4.5,14.2-6.5,2.9A24.834,24.834,0,0,0,2.1,268.6L91,467.2l83.3-37.3a8.6,8.6,0,0,0,3.7-3.1,9.129,9.129,0,0,0-2.2-12.7c-10.7-7.5-18.1-15.6-20.3-22.2a31.857,31.857,0,1,1,58.8,3.8,8.631,8.631,0,0,0-.2,7.2,8.311,8.311,0,0,0,11,4.2c14.9-6.7,49.9-22.4,69.2-31a19.27,19.27,0,0,0,8.1-6.8L313,365a59.775,59.775,0,0,0,10.8,27.6,14.8,14.8,0,0,0-2.9,2.2,11.268,11.268,0,0,0-3.4,8.1l.5,32.7h-6.8a6.017,6.017,0,0,0-5.9,6.1l1.1,75.5,12-.2-1-69.5,11.8-.1a16.856,16.856,0,0,0,3.3.3h.1l130-1a12.673,12.673,0,0,0,3.4-.4l11.8-.1,1,71,12-.2-1.1-76.9a5.933,5.933,0,0,0-6-5.9l-6.9.1v-.1l-.5-32.7a11.419,11.419,0,0,0-4.8-9.1c2.3-3.7,4.1-6.5,4.4-7.1a36.956,36.956,0,0,0,4.2-9.3l17.4-65.4-6.4-20,5.8-2.4a24.814,24.814,0,0,0,13.2-32.4Zm-443-30.3.3,1.6c.1.4,6.1,36.9,8,49A32.445,32.445,0,0,1,71.6,297a13.9,13.9,0,0,1-11.3,6,5.453,5.453,0,0,1-4.9-2.7L35.9,239.4l-1.8-5.8-1.8-5.8-3.1-9.6,16.5-62a25.847,25.847,0,0,1,2.6-5.9l.1-.2c0-.1,3-4.9,6.5-10.4l121.6-1a48.8,48.8,0,0,1,11.1,19.5l-80.2,35.9-10.1-4.7c-1.9,4.1-4,8.1-6.1,11.9-.3.6-.7,1.1-1,1.7a39.17,39.17,0,0,1-6.1,8A44.392,44.392,0,0,1,71,220.3l-4.4,1.8ZM49.9,94.8l133.4-1.1a2.506,2.506,0,0,1,.7.4l.4,32a3.891,3.891,0,0,1-2.3.7h-.3l-129.7,1a3.415,3.415,0,0,1-2.4-.7v-1.2l-.4-30.8.6-.3ZM289.5,365.2c-16.4,7.4-44.2,19.8-61.3,27.5a43.779,43.779,0,1,0-83.9,3.2c3.4,10,12.4,18.8,20.7,25.1L97.2,451.3l-84-187.7a12.745,12.745,0,0,1,6.5-16.9l5.3-2.4L44.4,305l.3.5A17.775,17.775,0,0,0,59.9,315h1A25.757,25.757,0,0,0,82,303.4l.1-.2a44.539,44.539,0,0,0,5.4-28.8v-.2c-1.5-9.7-5.6-34.7-7.3-44.8a56.606,56.606,0,0,0,19.7-18.6l89.8-40.2,5.9-2.6,5.8-2.6,1.1-.5a5.45,5.45,0,0,1,2.2-.5,5.16,5.16,0,0,1,4.8,3.1c5.3,11.8,13.6,30.5,20.8,46.5v.1c4.2,10,8,19.2,10.5,25.1a8.692,8.692,0,0,0,5.3,4.8,8.4,8.4,0,0,0,10.5-5.5,31.808,31.808,0,1,1,46.7,35c-8.7,4.9-23.8,3.7-29.9,3a8.869,8.869,0,0,0-8.5,3.8,9.2,9.2,0,0,0-3.2,6.9,8.424,8.424,0,0,0,.7,3.5L292.6,363a10.415,10.415,0,0,1-3.1,2.2Zm174.6,69.3-133.4,1.1a2.092,2.092,0,0,1-.6-.4l-.5-32a3.891,3.891,0,0,1,2.3-.7h.3l129.7-1a4.2,4.2,0,0,1,2.4.7v1.2l.4,30.8-.6.3Zm4.2-61.5a25.848,25.848,0,0,1-2.6,5.9l-.1.2c0,.1-3,5-6.5,10.4l-121.5,1a47.328,47.328,0,0,1-12.9-30.2l86.5-36.2c-1.8,3.4-3.6,7-5.3,10.6l10.9,5.1c2.2-4.7,4.6-9.3,7.1-13.7a40.288,40.288,0,0,1,9.9-11.4,44.1,44.1,0,0,1,9.3-5.9l4.4-1.8-.7-4.3-.1-.5c0-.1-.4-2.2-.9-5.6-1.8-10.8-5.6-34.2-7.1-43.4a32.331,32.331,0,0,1,3.8-20.9,13.9,13.9,0,0,1,11.3-6,5.453,5.453,0,0,1,4.9,2.7l17.6,54.9,1.8,5.7,1.8,5.7,5,15.7Zm23.9-95.9-4.9,2-17.6-54.9-.2-.5a17.775,17.775,0,0,0-15.2-9.5,25.885,25.885,0,0,0-22,11.5l-.1.2a44.421,44.421,0,0,0-5.4,28.8v.2c1.5,9.6,5.6,34.7,7.3,44.8a59.467,59.467,0,0,0-6.7,4.4L324.3,347.2l-5.9,2.5-6,2.5-6.8,2.9-3.1,1.3L275,290.8c.8.1,1.6.1,2.5.2,9.8.8,21.3.2,29.8-4.3,1.3-.7,2.5-1.4,3.7-2.2a38.69,38.69,0,0,0,5.9-4.8,48.818,48.818,0,0,0,5.9-6.9,22.629,22.629,0,0,0,1.3-2c.3-.5.6-1.1.9-1.6.8-1.5,1.5-3,2.2-4.5a43.5,43.5,0,0,0,2-6.1c.1-.4.2-.8.3-1.3v-.2a43.808,43.808,0,0,0-81.2-30.3c-2.1-5-4.5-10.8-7.1-17v-.1c-7.8-18.8-17-40.8-21.6-51.7l77-32.2a8.361,8.361,0,0,0-.8-15.7,31.841,31.841,0,1,1,37.4-45.5c4.7,8.8,3.1,23.9,2.2,30a9.826,9.826,0,0,0,.6,4.8,9.079,9.079,0,0,0,11.9,4.9L421,73.8l78,186.6a12.754,12.754,0,0,1-6.8,16.7Z"/>
    <path id="Path_3036" data-name="Path 3036" d="M123.372,475.73l10.668-5.5,13.832,26.848-10.668,5.5ZM37.183,497.01l13.832-26.848,10.668,5.5L47.851,502.505Zm49.175,21,.755-30.2,12,.3-.755,30.2ZM377.483,22.67l10.668-5.5,13.832,26.848-10.668,5.5Zm86.189,21.265L477.5,17.088l10.668,5.5L474.34,49.43ZM426.353,31.37l.755-30.2,12,.3-.755,30.2Z"/>
  </g>
</svg>
