<svg xmlns="http://www.w3.org/2000/svg" width="625.678" height="645.89" viewBox="0 0 625.678 645.89">
  <g id="Group_4459" data-name="Group 4459" transform="translate(-0.266)">
    <path id="Path_2762" data-name="Path 2762" d="M9.525,1.323c76.936,0,23.954,30.9,90.438,59.008,66.484,28.074,53.248-29.18,103.865,22.123,50.655,51.227-6.637,37.076,20.407,103.751,27.082,66.637,58.36,16.821,57.749,87.616.648,70.756-30.667,20.941-57.749,87.616-27.082,66.637,30.248,52.486-20.407,103.75-50.617,51.3-37.381-5.989-103.865,22.123s-13.5,58.97-90.438,58.97Z" transform="translate(343.949 49.143)" fill="#ffca28"/>
    <path id="Path_2763" data-name="Path 2763" d="M9.525,1.323V8.57c15.6,10.756,3.128,31.926,50.082,51.761,28.226,11.9,41.92,8.43,52.371,4.425q-6.111-1.921-12.015-4.425C33.479,32.219,86.461,1.323,9.525,1.323ZM170.72,60.255c-8.62-.839-14.99,4.081-25.022,6.675a128.984,128.984,0,0,1,17.775,15.486c50.616,51.265-6.637,37.114,20.407,103.75,27.082,66.675,58.36,16.859,57.749,87.654.61,70.756-30.667,20.941-57.749,87.616-27.082,66.637,30.21,52.486-20.407,103.75A129.037,129.037,0,0,1,145.7,480.673c19.072,4.959,24.717,18.385,58.131-15.486,50.655-51.265-6.637-37.114,20.445-103.75,27.082-66.675,58.36-16.859,57.711-87.616.61-70.794-30.667-20.979-57.711-87.616-27.082-66.675,30.21-52.524-20.445-103.789C188,66.4,178.425,60.98,170.72,60.255ZM96.759,479.147c-8.887-.61-20.559,1.106-37.152,8.125-46.917,19.835-34.482,41-50.082,51.761v7.247c76.936,0,23.954-30.934,90.4-59.008,4.386-1.831,8.353-3.28,12.053-4.463a50.045,50.045,0,0,0-15.219-3.662Z" transform="translate(343.949 49.143)" fill="#ecb200"/>
    <path id="Path_2764" data-name="Path 2764" d="M353.474,605.684a40.432,40.432,0,0,1-40.89,40.2H41.117A40.432,40.432,0,0,1,.265,605.722V40.244A40.432,40.432,0,0,1,41.117,0H312.584c22.657,0,40.89,17.927,40.89,40.241Z" transform="translate(0 0)" fill="#e4eff8"/>
    <path id="Path_2765" data-name="Path 2765" d="M316.343.015C340.946,271.94,111.932,593.376.324,617.864a40.6,40.6,0,0,0,38.6,27.463H310.393c22.657,0,40.89-17.927,40.89-40.2V39.684c0-20.292-15.143-36.847-34.94-39.669Z" transform="translate(2.191 0.559)" fill="#c4dcf0"/>
    <path id="Path_2766" data-name="Path 2766" d="M.794,506.226V1.587H313.647V506.226Z" transform="translate(19.649 58.949)" fill="#549ad4"/>
    <path id="Path_2767" data-name="Path 2767" d="M298.5,1.587C286.68,289.189,91.843,449.621.794,486.01V526.4H313.647V1.587Z" transform="translate(19.649 58.949)" fill="#3588cb"/>
    <path id="Path_2768" data-name="Path 2768" d="M308.34,155.89A151.392,151.392,0,1,1,156.948,4.5,151.392,151.392,0,0,1,308.34,155.89Z" transform="translate(196.527 167.074)" fill="#e4eff8"/>
    <path id="Path_2769" data-name="Path 2769" d="M156.8,4.5a151.392,151.392,0,0,0-96.16,268.187,151.27,151.27,0,0,1,212.5-213.451A151.392,151.392,0,0,0,156.8,4.5Z" transform="translate(196.678 167.074)" fill="#c4dcf0"/>
    <path id="Path_2770" data-name="Path 2770" d="M66.983,6.881a10.108,10.108,0,0,0-6.9,3.051L9.577,60.358a10.108,10.108,0,0,0,0,14.3l50.464,50.464c9.536,9.536,23.84-4.768,14.3-14.3L31.014,67.529,74.383,24.16a10.108,10.108,0,0,0-7.4-17.279Z" transform="translate(235.76 255.435)" fill="#c4dcf0"/>
    <path id="Path_2771" data-name="Path 2771" d="M66.683,6.88a10.108,10.108,0,0,0-6.942,3.051L9.315,60.357a10.108,10.108,0,0,0,0,14.3l50.426,50.464c9.536,9.536,23.84-4.768,14.3-14.3L30.676,67.528,74.045,24.159A10.108,10.108,0,0,0,66.683,6.88Z" transform="translate(226.028 255.436)" fill="#427096"/>
    <path id="Path_2772" data-name="Path 2772" d="M20.567,6.915A10.108,10.108,0,0,0,14.5,24.194L57.795,67.563,14.5,110.856c-10.146,9.46,4.73,24.412,14.228,14.3L79.27,74.7a10.108,10.108,0,0,0,0-14.3L28.73,9.967a10.108,10.108,0,0,0-8.163-3.051Z" transform="translate(402.443 255.4)" fill="#c4dcf0"/>
    <path id="Path_2773" data-name="Path 2773" d="M20.27,6.918A10.108,10.108,0,0,0,14.244,24.2L57.537,67.566,14.244,110.859c-10.146,9.46,4.692,24.412,14.228,14.3L78.973,74.7a10.108,10.108,0,0,0,0-14.3L28.51,9.97a10.108,10.108,0,0,0-8.2-3.052Z" transform="translate(392.67 255.397)" fill="#427096"/>
    <path id="Path_2774" data-name="Path 2774" d="M59.276,6.917A10.108,10.108,0,0,0,50.2,13.4L9.842,114.291c-5.035,12.549,13.732,20.064,18.767,7.552L68.964,20.878a10.108,10.108,0,0,0-9.65-14Z" transform="translate(324.141 255.322)" fill="#c4dcf0"/>
    <path id="Path_2775" data-name="Path 2775" d="M59.04,6.919A10.108,10.108,0,0,0,49.962,13.4L9.568,114.293c-5,12.549,13.732,20.064,18.767,7.552L68.728,20.879a10.108,10.108,0,0,0-9.688-14Z" transform="translate(314.346 255.321)" fill="#427096"/>
    <g id="Group_4458" data-name="Group 4458" transform="translate(40.545 131.178)">
      <path id="Path_2776" data-name="Path 2776" d="M11.429,3.477a10.108,10.108,0,0,0,0,20.178H31.645a10.108,10.108,0,1,0,0-20.216ZM72,3.477a10.108,10.108,0,0,0,0,20.178H92.217a10.108,10.108,0,0,0,0-20.216Zm60.572,0a10.108,10.108,0,1,0,0,20.178h20.216a10.108,10.108,0,1,0,0-20.216Zm60.572,0a10.108,10.108,0,1,0,0,20.178h20.216a10.108,10.108,0,0,0,0-20.216ZM11.429,64.049a10.108,10.108,0,0,0,0,20.178H31.645a10.108,10.108,0,1,0,0-20.216Zm60.572,0a10.108,10.108,0,0,0,0,20.178H92.217a10.108,10.108,0,1,0,0-20.216Zm60.572,0a10.108,10.108,0,1,0,0,20.178h20.216a10.108,10.108,0,1,0,0-20.216ZM11.429,124.583a10.108,10.108,0,1,0,0,20.216H31.645a10.108,10.108,0,1,0,0-20.216Zm60.572,0A10.108,10.108,0,1,0,72,144.8H92.217a10.108,10.108,0,0,0,0-20.216Zm60.572,0a10.108,10.108,0,0,0,0,20.216h10.07a10.108,10.108,0,0,0,0-20.216Zm-.076,60.534A10.108,10.108,0,1,0,142.6,195.225,10.108,10.108,0,0,0,132.5,185.117Zm-121.068.038a10.108,10.108,0,0,0,0,20.178H31.645a10.108,10.108,0,0,0,0-20.216Zm60.572,0a10.108,10.108,0,0,0,0,20.178H92.217a10.108,10.108,0,0,0,0-20.216Zm-60.572,60.5a10.108,10.108,0,0,0,0,20.178H31.645a10.108,10.108,0,0,0,0-20.216Zm60.572,0a10.108,10.108,0,0,0,0,20.178H92.217a10.108,10.108,0,0,0,0-20.216Zm60.572,0a10.108,10.108,0,1,0,0,20.178h10.07a10.108,10.108,0,0,0,0-20.216ZM11.429,306.223a10.108,10.108,0,0,0,0,20.178H31.645a10.108,10.108,0,0,0,0-20.216Zm60.572,0A10.108,10.108,0,0,0,72,326.4H92.217a10.108,10.108,0,0,0,0-20.216Z" transform="translate(-1.321 -3.439)" fill="#e4eff8"/>
    </g>
    <path id="Path_2777" data-name="Path 2777" d="M15.209,11.414a10.108,10.108,0,1,0,0,20.178H35.425a10.108,10.108,0,0,0,0-20.216Z" transform="translate(156.587 422.547)" fill="#c4dcf0"/>
    <path id="Path_2778" data-name="Path 2778" d="M10.825,13a10.108,10.108,0,0,0,0,20.178H31.041a10.108,10.108,0,1,0,0-20.216Z" transform="translate(39.828 481.531)" fill="#e4eff8"/>
    <path id="Path_2779" data-name="Path 2779" d="M12.413,13a10.108,10.108,0,0,0,0,20.178H32.629a10.108,10.108,0,1,0,0-20.216Zm60.572,0a10.108,10.108,0,1,0,0,20.178H93.2a10.108,10.108,0,1,0,0-20.216Zm60.572,0a10.108,10.108,0,1,0,0,20.178h20.216a10.108,10.108,0,0,0,0-20.216Z" transform="translate(98.812 481.531)" fill="#c4dcf0"/>
  </g>
</svg>
