<svg xmlns="http://www.w3.org/2000/svg" width="242.482" height="256.003" viewBox="0 0 242.482 256.003">
  <g id="Group_4464" data-name="Group 4464" transform="translate(-8.324)">
    <path id="Path_2802" data-name="Path 2802" d="M246.238,206.784l-38.4-38.4a7.078,7.078,0,0,0-10.01,0l-7.694,7.694a7.078,7.078,0,0,0,0,10.01l38.4,38.4a7.078,7.078,0,0,0,10.01,0l7.693-7.693a7.078,7.078,0,0,0,0-10.01Z" fill="#fc657e"/>
    <path id="Path_2803" data-name="Path 2803" d="M183.51,151.138a71.413,71.413,0,0,1-10.5,10.748l15.88,15.88a7.08,7.08,0,0,1,1.245-1.683l7.694-7.694a7.046,7.046,0,0,1,1.683-1.245Z" fill="#c7d7e5"/>
    <path id="Path_2804" data-name="Path 2804" d="M232.065,26.594H23.935A13.112,13.112,0,0,0,10.823,39.706V191.234a13.112,13.112,0,0,0,13.112,13.112H208.392l-18.253-18.253a7.078,7.078,0,0,1-1.245-8.327l-15.88-15.88a71.319,71.319,0,0,0,10.5-10.748l16,16.005a7.081,7.081,0,0,1,8.327,1.245l32.772,32.772a13.072,13.072,0,0,0,4.562-9.927V39.706a13.113,13.113,0,0,0-13.112-13.112Z" fill="#5290db"/>
    <circle id="Ellipse_2143" data-name="Ellipse 2143" cx="70.779" cy="70.779" r="70.779" transform="matrix(0.099, -0.995, 0.995, 0.099, 50.608, 170.798)" fill="#edf4fc"/>
    <circle id="Ellipse_2144" data-name="Ellipse 2144" cx="58.884" cy="58.884" r="58.884" transform="translate(44.701 107.306) rotate(-45)" fill="#70d6f9"/>
    <path id="Path_2805" data-name="Path 2805" d="M188.473,244.166c-32.468-17.548-88.467-17.554-120.945,0a4.965,4.965,0,1,0,4.721,8.735c29.576-15.983,82-15.945,111.5,0a4.965,4.965,0,1,0,4.72-8.736Z" fill="#5290db"/>
    <path id="Path_2806" data-name="Path 2806" d="M110.079,204.345v27.642a165.441,165.441,0,0,1,35.842,0V204.345Z" fill="#3a70bf"/>
    <path id="Path_2807" data-name="Path 2807" d="M232.064,24.094H23.936A15.63,15.63,0,0,0,8.324,39.706V191.234a15.629,15.629,0,0,0,15.612,15.611H207.375a2.5,2.5,0,1,0,0-5H23.936a10.623,10.623,0,0,1-10.612-10.611V39.706A10.624,10.624,0,0,1,23.936,29.094H232.065a10.623,10.623,0,0,1,10.612,10.612V191.234a10.54,10.54,0,0,1-3.158,7.553,2.5,2.5,0,1,0,3.512,3.558,15.5,15.5,0,0,0,4.646-11.111V39.706a15.631,15.631,0,0,0-15.613-15.612ZM193.266,246.4a7.412,7.412,0,0,0-3.6-4.433c-33.425-18.064-89.9-18.065-123.322,0a7.465,7.465,0,1,0,7.1,13.135c28.557-15.432,80.57-15.432,109.127,0a7.463,7.463,0,0,0,10.7-8.7Zm-4.986,3.307a2.464,2.464,0,0,1-3.338,1h0c-30.331-16.391-83.547-16.392-113.882,0a2.465,2.465,0,0,1-2.343-4.338c15.791-8.534,37.537-12.8,59.284-12.8s43.493,4.267,59.284,12.8a2.466,2.466,0,0,1,1,3.341Z"/>
    <path id="Path_2808" data-name="Path 2808" d="M145.921,202.583a2.5,2.5,0,0,0-2.5,2.5V231a2.5,2.5,0,0,0,5,0v-25.92A2.5,2.5,0,0,0,145.921,202.583Zm-35.842.125a2.5,2.5,0,0,0-2.5,2.5V231a2.5,2.5,0,0,0,5,0V205.208A2.5,2.5,0,0,0,110.079,202.708Z"/>
    <path id="Path_2809" data-name="Path 2809" d="M20.754,39.768V49.93H86.626A70.376,70.376,0,0,1,128,36.525H24A3.243,3.243,0,0,0,20.754,39.768ZM232,36.525H128a70.375,70.375,0,0,1,41.375,13.406h65.872V39.768A3.245,3.245,0,0,0,232,36.525Z" fill="#3a70bf"/>
    <path id="Path_2810" data-name="Path 2810" d="M24,36.525a3.243,3.243,0,0,0-3.243,3.243V49.93H40.118v-13.4Z" fill="#fc657e"/>
    <path id="Path_2811" data-name="Path 2811" d="M169.375,49.931a70.625,70.625,0,0,1,14.136,101.207l16.005,16.005a7.081,7.081,0,0,1,8.327,1.245l25.649,25.649a3.23,3.23,0,0,0,1.755-2.865V49.931Zm20.764,136.162a7.078,7.078,0,0,1-1.245-8.327l-15.88-15.88A70.744,70.744,0,1,1,86.625,49.931H20.754V191.173A3.243,3.243,0,0,0,24,194.416H198.462Z" fill="#9be5f9"/>
    <path id="Path_2812" data-name="Path 2812" d="M234.246,47.431H170.312a2.5,2.5,0,0,0,0,5h63.934a2.5,2.5,0,1,0,0-5Zm-148.308,0H21.754a2.5,2.5,0,0,0,0,5H85.939a2.5,2.5,0,0,0,0-5Z"/>
    <path id="Path_2813" data-name="Path 2813" d="M40.117,34.958a2.5,2.5,0,0,0-2.5,2.5V49.042a2.5,2.5,0,0,0,5,0V37.458A2.5,2.5,0,0,0,40.117,34.958Z"/>
    <path id="Path_2814" data-name="Path 2814" d="M232,34.025H24a5.749,5.749,0,0,0-5.742,5.743V191.173A5.749,5.749,0,0,0,24,196.916H197.958a2.5,2.5,0,1,0,0-5H24a.743.743,0,0,1-.742-.743V39.768A.743.743,0,0,1,24,39.025H232a.743.743,0,0,1,.742.743V191.173a.74.74,0,0,1-.276.579,2.5,2.5,0,1,0,3.149,3.884,5.72,5.72,0,0,0,2.128-4.462V39.768A5.75,5.75,0,0,0,232,34.025Z"/>
    <path id="Path_2815" data-name="Path 2815" d="M173.442,8.85a11.1,11.1,0,0,1-8.9-8.7c0-.2-.4-.2-.4,0a11.1,11.1,0,0,1-8.9,8.7c-.2,0-.2.3,0,.4a11.1,11.1,0,0,1,8.9,8.7c0,.2.4.2.4,0a11.1,11.1,0,0,1,8.9-8.7c.2-.1.2-.4,0-.4Z" fill="#f5c84c"/>
    <path id="Path_2816" data-name="Path 2816" d="M212,231.059a7.787,7.787,0,0,1-6.245-6.1c0-.14-.281-.14-.281,0a7.786,7.786,0,0,1-6.245,6.1c-.14,0-.14.21,0,.281a7.787,7.787,0,0,1,6.245,6.1c0,.14.281.14.281,0a7.786,7.786,0,0,1,6.245-6.1C212.143,231.269,212.143,231.059,212,231.059Z" fill="#70d6f9"/>
    <path id="Path_2817" data-name="Path 2817" d="M58.092,222.349h-2.3v-2.3a3.222,3.222,0,0,0-3.2-3.2,3.159,3.159,0,0,0-3.2,3.2v2.3h-2.3a3.222,3.222,0,0,0-3.2,3.2,3.159,3.159,0,0,0,3.2,3.2h2.3v2.3a3.222,3.222,0,0,0,3.2,3.2,3.159,3.159,0,0,0,3.2-3.2v-2.3h2.3a3.222,3.222,0,0,0,3.2-3.2A3.159,3.159,0,0,0,58.092,222.349Z" fill="#fc657e"/>
    <path id="Path_2818" data-name="Path 2818" d="M26.192,214.849a3.4,3.4,0,1,0,3.4,3.4,3.4,3.4,0,0,0-3.4-3.4Z" fill="#f5c84c"/>
    <path id="Path_2819" data-name="Path 2819" d="M135.242,8.849a3.4,3.4,0,1,0,3.4,3.4,3.4,3.4,0,0,0-3.4-3.4Z" fill="#87d147"/>
    <path id="Path_2820" data-name="Path 2820" d="M128,34.025A73.279,73.279,0,1,0,201.279,107.3,73.362,73.362,0,0,0,128,34.025Zm0,141.558A68.279,68.279,0,1,1,196.279,107.3,68.357,68.357,0,0,1,128,175.583Z"/>
    <path id="Path_2821" data-name="Path 2821" d="M128,45.92A61.384,61.384,0,1,0,189.384,107.3,61.454,61.454,0,0,0,128,45.92Zm0,117.768A56.384,56.384,0,1,1,184.384,107.3,56.448,56.448,0,0,1,128,163.688Zm120.006,41.329-38.4-38.4a9.576,9.576,0,0,0-13.545,0l-7.693,7.693a9.589,9.589,0,0,0,0,13.545l38.4,38.4a9.589,9.589,0,0,0,13.545,0l7.693-7.694a9.589,9.589,0,0,0,0-13.544Zm-3.535,10.01-7.693,7.693a4.586,4.586,0,0,1-6.476,0l-38.4-38.4a4.586,4.586,0,0,1,0-6.475l7.693-7.693a4.579,4.579,0,0,1,6.475,0l38.4,38.4A4.585,4.585,0,0,1,244.471,215.027Z"/>
    <path id="Path_2822" data-name="Path 2822" d="M200.812,164.9l-14.876-14.876a2.5,2.5,0,1,0-3.535,3.535l14.876,14.876a2.5,2.5,0,1,0,3.535-3.535Zm-10.791,10.453-14.5-14.5a2.5,2.5,0,1,0-3.535,3.535l14.5,14.5a2.5,2.5,0,1,0,3.535-3.535Z"/>
    <path id="Path_2823" data-name="Path 2823" d="M154.123,109.664h-3.979c-.5.155-1.014.3-1.535.412a.583.583,0,0,0-.461.567v5.031a.58.58,0,0,1-.581.581h-6.49a.58.58,0,0,1-.581-.581v-5.031a.582.582,0,0,0-.461-.567,19.634,19.634,0,0,1-6.308-2.614.584.584,0,0,0-.728.075l-3.558,3.558a.581.581,0,0,1-.822,0l-4.589-4.589a.581.581,0,0,1,0-.822l3.558-3.558a.583.583,0,0,0,.075-.728,19.634,19.634,0,0,1-2.614-6.308.583.583,0,0,0-.568-.461H119.45a.58.58,0,0,1-.581-.581v-6.49a.58.58,0,0,1,.581-.581h5.028V80.02a.82.82,0,0,0-.819-.819h-9.142a.82.82,0,0,0-.819.819v7.087a.82.82,0,0,1-.65.8,27.636,27.636,0,0,0-8.885,3.682.822.822,0,0,1-1.025-.106L98.126,86.47a.818.818,0,0,0-1.158,0L90.5,92.934a.818.818,0,0,0,0,1.158L95.516,99.1a.82.82,0,0,1,.106,1.025,27.659,27.659,0,0,0-3.682,8.885.822.822,0,0,1-.8.65H84.054a.819.819,0,0,0-.819.819v9.142a.82.82,0,0,0,.819.819h7.087a.82.82,0,0,1,.8.65,27.65,27.65,0,0,0,3.682,8.885A.821.821,0,0,1,95.516,131L90.5,136.016a.818.818,0,0,0,0,1.158l6.464,6.464a.818.818,0,0,0,1.158,0l5.012-5.012a.821.821,0,0,1,1.025-.106,27.659,27.659,0,0,0,8.885,3.682.822.822,0,0,1,.65.8v7.087a.82.82,0,0,0,.819.819h9.142a.819.819,0,0,0,.819-.819V143a.82.82,0,0,1,.65-.8,27.636,27.636,0,0,0,8.885-3.682.821.821,0,0,1,1.025.106l5.012,5.012a.818.818,0,0,0,1.158,0l6.464-6.464a.818.818,0,0,0,0-1.158L142.66,131a.821.821,0,0,1-.106-1.025,27.668,27.668,0,0,0,3.682-8.885.82.82,0,0,1,.8-.65h7.087a.82.82,0,0,0,.819-.819v-9.142a.817.817,0,0,0-.818-.818Z" fill="#fcdd86"/>
    <path id="Path_2824" data-name="Path 2824" d="M169.194,86.977h-5.031a.584.584,0,0,1-.568-.461,19.634,19.634,0,0,0-2.614-6.308.584.584,0,0,1,.075-.728l3.558-3.558a.581.581,0,0,0,0-.822l-4.589-4.589a.581.581,0,0,0-.822,0l-3.558,3.558a.583.583,0,0,1-.728.075,19.634,19.634,0,0,0-6.308-2.614.583.583,0,0,1-.461-.568V65.931a.58.58,0,0,0-.581-.581h-6.49a.58.58,0,0,0-.581.581v5.031a.584.584,0,0,1-.461.568,19.634,19.634,0,0,0-6.308,2.614.584.584,0,0,1-.728-.075l-3.558-3.558a.581.581,0,0,0-.822,0L124.03,75.1a.581.581,0,0,0,0,.822l3.558,3.558a.583.583,0,0,1,.075.728,19.634,19.634,0,0,0-2.614,6.308.583.583,0,0,1-.568.461H119.45a.58.58,0,0,0-.581.581v6.49a.581.581,0,0,0,.581.581h5.031a.584.584,0,0,1,.568.461,19.634,19.634,0,0,0,2.614,6.308.584.584,0,0,1-.075.728l-3.558,3.558a.581.581,0,0,0,0,.822l4.589,4.589a.581.581,0,0,0,.822,0L133,107.537a.583.583,0,0,1,.728-.075,19.634,19.634,0,0,0,6.308,2.614.583.583,0,0,1,.461.567v5.031a.581.581,0,0,0,.581.581h6.49a.58.58,0,0,0,.581-.581v-5.031a.582.582,0,0,1,.461-.567,19.634,19.634,0,0,0,6.308-2.614.584.584,0,0,1,.728.075l3.558,3.558a.581.581,0,0,0,.822,0l4.589-4.589a.581.581,0,0,0,0-.822l-3.558-3.558a.583.583,0,0,1-.075-.728A19.634,19.634,0,0,0,163.6,95.09a.583.583,0,0,1,.568-.461h5.031a.58.58,0,0,0,.581-.581v-6.49a.58.58,0,0,0-.581-.581Z" fill="#b2e26d"/>
    <path id="Path_2825" data-name="Path 2825" d="M134.5,107.909c-.258-.149-.523-.287-.773-.447a.584.584,0,0,0-.728.075l-3.558,3.558a.581.581,0,0,1-.822,0l-4.589-4.589a.581.581,0,0,1,0-.822l3.558-3.558a.583.583,0,0,0,.075-.728q-.457-.718-.854-1.478a17.05,17.05,0,1,0,7.691,7.989Z" fill="#f5c84c"/>
    <path id="Path_2826" data-name="Path 2826" d="M154.123,107.164h-3.748a2.5,2.5,0,0,0,0,5h2.067v5.779h-5.406a3.3,3.3,0,0,0-3.239,2.609,25.124,25.124,0,0,1-3.35,8.083,3.3,3.3,0,0,0,.446,4.136l3.823,3.823-4.087,4.086-3.823-3.823a3.3,3.3,0,0,0-4.136-.447,25.1,25.1,0,0,1-8.083,3.35,3.3,3.3,0,0,0-2.608,3.24v5.406H116.2V143a3.3,3.3,0,0,0-2.61-3.24,25.08,25.08,0,0,1-8.081-3.349,3.3,3.3,0,0,0-4.137.446l-3.823,3.822-4.086-4.086,3.823-3.823a3.3,3.3,0,0,0,.446-4.136,25.08,25.08,0,0,1-3.35-8.084,3.3,3.3,0,0,0-3.24-2.607h-5.4v-5.779h5.4a3.306,3.306,0,0,0,3.241-2.61,25.06,25.06,0,0,1,3.348-8.081,3.3,3.3,0,0,0-.445-4.137l-3.823-3.823,4.086-4.086,3.821,3.821a3.305,3.305,0,0,0,4.139.449,25.108,25.108,0,0,1,8.08-3.35,3.3,3.3,0,0,0,2.611-3.24V81.7h5.778V86.48a2.5,2.5,0,1,0,5,0V80.02a3.321,3.321,0,0,0-3.318-3.318h-9.142A3.322,3.322,0,0,0,111.2,80.02v5.766a30.053,30.053,0,0,0-7.227,3L99.9,84.7a3.4,3.4,0,0,0-4.694,0l-6.465,6.465a3.323,3.323,0,0,0,0,4.693l4.078,4.078a30.028,30.028,0,0,0-2.994,7.226H84.056a3.322,3.322,0,0,0-3.318,3.318v9.142a3.322,3.322,0,0,0,3.318,3.319h5.767a30.053,30.053,0,0,0,2.994,7.226l-4.08,4.079a3.324,3.324,0,0,0,0,4.692L95.2,145.4a3.4,3.4,0,0,0,4.694,0l4.078-4.078a30.011,30.011,0,0,0,7.227,2.995v5.766a3.322,3.322,0,0,0,3.318,3.319h9.142a3.322,3.322,0,0,0,3.318-3.319v-5.766a30.021,30.021,0,0,0,7.226-2.995l4.077,4.077a3.4,3.4,0,0,0,4.694,0l6.467-6.465a3.324,3.324,0,0,0,0-4.692l-4.078-4.078a30.042,30.042,0,0,0,2.994-7.226h5.766a3.323,3.323,0,0,0,3.319-3.319v-9.142a3.323,3.323,0,0,0-3.319-3.318Z"/>
    <path id="Path_2827" data-name="Path 2827" d="M169.193,84.477h-3.545a21.975,21.975,0,0,0-1.773-4.28l2.505-2.505a3.079,3.079,0,0,0,0-4.359l-4.587-4.587a3.153,3.153,0,0,0-4.359,0l-2.507,2.507a22.03,22.03,0,0,0-4.28-1.774V65.933a3.085,3.085,0,0,0-3.081-3.082h-6.49A3.085,3.085,0,0,0,138,65.933v3.544a21.944,21.944,0,0,0-4.279,1.774l-2.506-2.5a3.153,3.153,0,0,0-4.359,0l-4.591,4.591a3.086,3.086,0,0,0,0,4.355l2.507,2.506A21.983,21.983,0,0,0,123,84.477h-3.545a3.084,3.084,0,0,0-3.081,3.081v6.49a3.084,3.084,0,0,0,3.081,3.081H123a21.975,21.975,0,0,0,1.773,4.28l-2.509,2.509a3.085,3.085,0,0,0,0,4.355l4.591,4.591a3.156,3.156,0,0,0,4.355,0l2.508-2.507A22.11,22.11,0,0,0,138,112.13v3.544a3.084,3.084,0,0,0,3.081,3.081h6.49a3.084,3.084,0,0,0,3.081-3.081V112.13a22.03,22.03,0,0,0,4.28-1.774l2.509,2.509a3.155,3.155,0,0,0,4.355,0l4.585-4.585a3.079,3.079,0,0,0,0-4.361l-2.507-2.507a21.973,21.973,0,0,0,1.773-4.28h3.545a3.084,3.084,0,0,0,3.081-3.081v-6.49a3.084,3.084,0,0,0-3.081-3.082Zm-1.919,7.652h-3.112a3.065,3.065,0,0,0-3.008,2.421,17.123,17.123,0,0,1-2.281,5.5,3.065,3.065,0,0,0,.416,3.838l2.2,2.2-1.876,1.876-2.2-2.2a3.062,3.062,0,0,0-3.839-.416,17.078,17.078,0,0,1-5.505,2.281,3.065,3.065,0,0,0-2.421,3.008v3.112H143v-3.112a3.066,3.066,0,0,0-2.42-3.008,17.082,17.082,0,0,1-5.506-2.282,3.063,3.063,0,0,0-3.838.416l-2.2,2.2-1.875-1.875,2.2-2.2a3.067,3.067,0,0,0,.416-3.839,17.066,17.066,0,0,1-2.282-5.5,3.065,3.065,0,0,0-3.008-2.42H121.37V89.477h3.112a3.067,3.067,0,0,0,3.008-2.421,17.108,17.108,0,0,1,2.282-5.5,3.067,3.067,0,0,0-.416-3.839l-2.2-2.2,1.875-1.875,2.2,2.2a3.067,3.067,0,0,0,3.841.418,17.073,17.073,0,0,1,5.507-2.282A3.066,3.066,0,0,0,143,70.963V67.851h2.652v3.112a3.067,3.067,0,0,0,2.422,3.009,17.082,17.082,0,0,1,5.5,2.281,3.067,3.067,0,0,0,3.839-.416l2.2-2.2,1.875,1.875-2.2,2.2a3.065,3.065,0,0,0-.416,3.838,17.093,17.093,0,0,1,2.281,5.507,3.066,3.066,0,0,0,3.008,2.419h3.112Z"/>
    <path id="Path_2828" data-name="Path 2828" d="M152.691,85.321a2.5,2.5,0,0,0-3.535,0l-5.729,5.728-2.7-2.7a2.5,2.5,0,1,0-3.535,3.535l4.465,4.465a2.5,2.5,0,0,0,3.536,0l7.5-7.5a2.5,2.5,0,0,0,0-3.535ZM136.967,107.3a2.5,2.5,0,0,0-4.584,2,14.341,14.341,0,0,1,1.207,5.758,14.5,14.5,0,1,1-14.5-14.5,14.327,14.327,0,0,1,6.325,1.465,2.5,2.5,0,0,0,2.19-4.5,19.29,19.29,0,0,0-8.515-1.97,19.5,19.5,0,1,0,19.5,19.5,19.311,19.311,0,0,0-1.623-7.754Z"/>
  </g>
</svg>
