<svg xmlns="http://www.w3.org/2000/svg" width="41.11" height="41.11" viewBox="0 0 41.11 41.11">
  <g id="native" transform="translate(-2 -2)">
    <path id="Path_3185" data-name="Path 3185" d="M14.277,21.619A14.707,14.707,0,0,1,24.555,7.613V5.468A1.468,1.468,0,0,0,23.087,4H17.214a2.936,2.936,0,1,1-5.873,0H5.468A1.468,1.468,0,0,0,4,5.468v32.3a1.468,1.468,0,0,0,1.468,1.468H23.087a1.468,1.468,0,0,0,1.468-1.468V35.624A14.707,14.707,0,0,1,14.277,21.619Z" transform="translate(0.936 0.936)" fill="#14649a" stroke="#14649a" stroke-width="1"/>
    <path id="Path_3186" data-name="Path 3186" d="M26.96,36.94v1.765a2.939,2.939,0,0,1-2.936,2.936H6.4a2.939,2.939,0,0,1-2.936-2.936V6.4A2.939,2.939,0,0,1,6.4,3.468H24.023A2.939,2.939,0,0,1,26.96,6.4V8.169a14.6,14.6,0,0,1,1.468-.222V6.4a4.41,4.41,0,0,0-4.4-4.4H6.4A4.41,4.41,0,0,0,2,6.4v32.3a4.41,4.41,0,0,0,4.4,4.4H24.023a4.41,4.41,0,0,0,4.4-4.4V37.164a14.6,14.6,0,0,1-1.468-.223Z" transform="translate(0 0)" fill="#14649a"/>
    <path id="Path_3187" data-name="Path 3187" d="M23.075,18.522,15,14.8v8.658l8.075,3.729Zm.734-1.277,7.792-3.6-7.792-3.6-7.792,3.6Z" transform="translate(6.087 3.769)" fill="#14649a"/>
    <path id="Path_3188" data-name="Path 3188" d="M25.214,7A13.214,13.214,0,1,0,38.428,20.214,13.214,13.214,0,0,0,25.214,7Zm9.852,19.019-9.543,4.4a.752.752,0,0,1-.617,0l-9.543-4.4a.734.734,0,0,1-.426-.667V15.075a.734.734,0,0,1,.426-.667L24.906,10a.746.746,0,0,1,.617,0l9.543,4.4a.734.734,0,0,1,.426.667V25.353a.734.734,0,0,1-.426.667Z" transform="translate(4.682 2.341)" fill="#14649a"/>
    <path id="Path_3189" data-name="Path 3189" d="M21.5,17.008v8.659l8.075-3.726V13.283Z" transform="translate(9.13 5.283)" fill="#14649a"/>
  </g>
</svg>
