<svg xmlns="http://www.w3.org/2000/svg" width="26.811" height="38.844" viewBox="0 0 26.811 38.844">
  <g id="on-demand" transform="translate(-43.792 -6)">
    <path id="Path_3417" data-name="Path 3417" d="M45.792,10.229v1.95h19.5v-1.95A2.229,2.229,0,0,0,63.065,8H48.021A2.229,2.229,0,0,0,45.792,10.229ZM65.293,39.2v-1.95h-19.5V39.2a2.229,2.229,0,0,0,2.229,2.229H63.065A2.229,2.229,0,0,0,65.293,39.2Z" transform="translate(-1.682 -1.682)" fill="#4671c6"/>
    <path id="Path_3418" data-name="Path 3418" d="M95.471,200.1H92.128a.836.836,0,0,1-.836-.836v-.557a.836.836,0,0,1,.836-.836h3.343a.836.836,0,0,1,.836.836v.557A.836.836,0,0,1,95.471,200.1Z" transform="translate(-39.938 -161.329)" fill="#a4c9ff"/>
    <path id="Path_3419" data-name="Path 3419" d="M94.417,18.143H90.238a.7.7,0,1,1,0-1.393h4.179a.7.7,0,0,1,0,1.393Z" transform="translate(-38.467 -9.039)" fill="#e0ebfc"/>
    <path id="Path_3420" data-name="Path 3420" d="M63.612,10.816H44.11a.318.318,0,0,1-.318-.318V8.547A2.55,2.55,0,0,1,46.339,6H61.383A2.55,2.55,0,0,1,63.93,8.547V10.5A.318.318,0,0,1,63.612,10.816Zm-19.183-.637H63.293V8.547a1.912,1.912,0,0,0-1.91-1.91H46.339a1.912,1.912,0,0,0-1.91,1.91ZM61.383,40.068H46.339a2.55,2.55,0,0,1-2.547-2.547V35.57a.318.318,0,0,1,.318-.318h19.5a.318.318,0,0,1,.318.318v1.95A2.55,2.55,0,0,1,61.383,40.068ZM44.429,35.889v1.632a1.912,1.912,0,0,0,1.91,1.91H61.383a1.912,1.912,0,0,0,1.91-1.91V35.889Z" transform="translate(0 0)" fill="#3762cc"/>
    <path id="Path_3421" data-name="Path 3421" d="M45.792,34.25h19.5V59.323h-19.5Z" transform="translate(-1.682 -23.753)" fill="#6bdddd"/>
    <path id="Path_3422" data-name="Path 3422" d="M63.612,57.96H44.11a.318.318,0,0,1-.318-.318V32.568a.318.318,0,0,1,.318-.318h19.5a.318.318,0,0,1,.318.318V57.642A.318.318,0,0,1,63.612,57.96Zm-19.183-.637H63.293V32.887H44.429Z" transform="translate(0 -22.071)" fill="#3762cc"/>
    <path id="Path_3423" data-name="Path 3423" d="M81.31,73.969H74.064a1.935,1.935,0,0,1-1.935-1.935V65.185a1.935,1.935,0,0,1,1.935-1.935H81.31a1.935,1.935,0,0,1,1.935,1.935v6.848A1.935,1.935,0,0,1,81.31,73.969Z" transform="translate(-23.826 -48.136)" fill="#f9a7a7"/>
    <circle id="Ellipse_2212" data-name="Ellipse 2212" cx="4.086" cy="4.086" r="4.086" transform="translate(49.775 16.387)" fill="#e0ebfc"/>
    <path id="Path_3424" data-name="Path 3424" d="M107.379,116.845v-3.316a4.311,4.311,0,0,0,2.051-3.672v-9.073a.811.811,0,0,0-.811-.811h-1.531a.811.811,0,0,0-.811.811.811.811,0,0,0-.811-.811h-1.531a.811.811,0,0,0-.811.811.811.811,0,0,0-.811-.811h-1.531a.811.811,0,0,0-.811.811V93.537a1.525,1.525,0,0,0-1.525-1.525h-.1a1.525,1.525,0,0,0-1.525,1.525v16.319a4.31,4.31,0,0,0,2.051,3.672v3.317Z" transform="translate(-44.584 -72.319)" fill="#f9cfcf"/>
    <path id="Path_3425" data-name="Path 3425" d="M87.65,167.876v-6.859L86.1,163.1a.923.923,0,0,0-.185.552v2.66a.92.92,0,0,0,.166.525l1.958,2.826A4.293,4.293,0,0,1,87.65,167.876Z" transform="translate(-35.417 -130.339)" fill="#f9cfcf"/>
    <g id="Group_4551" data-name="Group 4551" transform="translate(50.18 19.374)">
      <path id="Path_3426" data-name="Path 3426" d="M105.7,115.481H97.184a.318.318,0,0,1-.318-.318V112.02a4.6,4.6,0,0,1-2.051-3.846V91.855a1.845,1.845,0,0,1,1.843-1.843h.1A1.845,1.845,0,0,1,98.6,91.855v6.23a1.122,1.122,0,0,1,.493-.113h1.531a1.126,1.126,0,0,1,.811.344,1.126,1.126,0,0,1,.811-.344h1.531a1.126,1.126,0,0,1,.811.344,1.126,1.126,0,0,1,.811-.344h1.531a1.131,1.131,0,0,1,1.129,1.129v9.073a4.6,4.6,0,0,1-2.051,3.846v3.143A.318.318,0,0,1,105.7,115.481Zm-8.193-.637h7.874v-3a.319.319,0,0,1,.151-.271,3.974,3.974,0,0,0,1.9-3.4V99.1a.493.493,0,0,0-.493-.493H105.4a.493.493,0,0,0-.493.493.318.318,0,0,1-.637,0,.493.493,0,0,0-.493-.493h-1.531a.493.493,0,0,0-.493.493.318.318,0,0,1-.637,0,.493.493,0,0,0-.493-.493H99.1a.493.493,0,0,0-.493.493.318.318,0,0,1-.637,0V91.855a1.208,1.208,0,0,0-1.207-1.207h-.1a1.208,1.208,0,0,0-1.207,1.207v16.319a3.973,3.973,0,0,0,1.9,3.4.318.318,0,0,1,.151.271Z" transform="translate(-93.08 -90.012)" fill="#3762cc"/>
      <path id="Path_3427" data-name="Path 3427" d="M86.358,156.6a.318.318,0,0,1-.262-.137l-1.957-2.826a1.234,1.234,0,0,1-.222-.707v-2.659a1.233,1.233,0,0,1,.248-.742l1.551-2.081a.318.318,0,0,1,.574.19V154.5a3.956,3.956,0,0,0,.359,1.653.318.318,0,0,1-.29.451Zm-.707-8-.977,1.311a.6.6,0,0,0-.122.362v2.659a.6.6,0,0,0,.109.344l.994,1.435c0-.071,0-.142,0-.213Zm.318,5.9h0Zm3.153-6.276a.318.318,0,0,1-.318-.318v-2.479a.318.318,0,0,1,.637,0v2.479A.318.318,0,0,1,89.122,148.225Zm3.153,0a.318.318,0,0,1-.318-.318v-2.479a.318.318,0,0,1,.637,0v2.479A.318.318,0,0,1,92.276,148.225Zm3.15,0a.318.318,0,0,1-.318-.318v-2.479a.318.318,0,0,1,.637,0v2.479A.318.318,0,0,1,95.425,148.225Z" transform="translate(-83.916 -136.339)" fill="#3762cc"/>
    </g>
    <path id="Path_3428" data-name="Path 3428" d="M151.957,32.252h-9.286a.8.8,0,0,1-.8-.8V24.8a.8.8,0,0,1,.8-.8h9.286a.8.8,0,0,1,.8.8v6.66A.8.8,0,0,1,151.957,32.252Z" transform="translate(-82.469 -15.134)" fill="#a4c9ff"/>
    <path id="Path_3429" data-name="Path 3429" d="M150.792,38.731a.794.794,0,0,1-.542-.214l-3.055-2.85a.478.478,0,0,1,.651-.7l2.919,2.723,2.616-3.886a.8.8,0,0,1,1.263-.076l1.516,1.754a.478.478,0,1,1-.723.625l-1.38-1.6-2.6,3.868A.794.794,0,0,1,150.792,38.731Z" transform="translate(-86.813 -23.083)" fill="#e0ebfc"/>
    <path id="Path_3430" data-name="Path 3430" d="M150.275,30.888h-9.286a1.116,1.116,0,0,1-1.114-1.114v-6.66A1.116,1.116,0,0,1,140.988,22h9.286a1.116,1.116,0,0,1,1.114,1.114v6.66A1.116,1.116,0,0,1,150.275,30.888Zm-9.286-8.252a.478.478,0,0,0-.478.478v6.66a.478.478,0,0,0,.478.478h9.286a.478.478,0,0,0,.478-.478v-6.66a.478.478,0,0,0-.478-.478Z" transform="translate(-80.786 -13.453)" fill="#3762cc"/>
  </g>
</svg>
