<svg xmlns="http://www.w3.org/2000/svg" width="460.801" height="475.244" viewBox="0 0 460.801 475.244">
  <g id="Group_4494" data-name="Group 4494" transform="translate(-25.6 -18.378)">
    <path id="Path_3095" data-name="Path 3095" d="M486.4,146.438V385.622H25.6V146.438a20.066,20.066,0,0,1,20.016-20.016H466.384A20.066,20.066,0,0,1,486.4,146.438Z" fill="#a6deff"/>
    <path id="Path_3096" data-name="Path 3096" d="M234.4,443.222l-21.6,43.2h86.4l-21.6-43.2" fill="#535251"/>
    <path id="Path_3097" data-name="Path 3097" d="M320.8,493.622H191.2a7.2,7.2,0,0,1,0-14.4H320.8C330.175,479.255,330.248,493.582,320.8,493.622Z" fill="#464544"/>
    <path id="Path_3098" data-name="Path 3098" d="M446.329,359.013a7.181,7.181,0,0,1-5.091-2.11l-29-29c-6.621-6.672,3.489-16.819,10.182-10.181l29,29C456.008,351,452.489,359.233,446.329,359.013Z" fill="#f8af39"/>
    <g id="Group_4493" data-name="Group 4493">
      <path id="Path_3099" data-name="Path 3099" d="M347.737,260.42a7.178,7.178,0,0,1-5.091-2.109l-11.594-11.6a7.2,7.2,0,1,1,10.182-10.182l11.593,11.6C357.418,252.409,353.9,260.639,347.737,260.42Zm46.4,0c-6.155.215-9.685-8.009-5.09-12.29l11.594-11.6a7.2,7.2,0,1,1,10.182,10.182l-11.595,11.6A7.18,7.18,0,0,1,394.136,260.42Zm-57.994,58c-6.159.216-9.683-8.011-5.09-12.291l11.594-11.6a7.2,7.2,0,1,1,10.181,10.182l-11.594,11.6a7.179,7.179,0,0,1-5.091,2.109ZM148,349.622H90.4a14.4,14.4,0,0,1-14.4-14.4v-86.4h86.4v86.4a14.4,14.4,0,0,1-14.4,14.4Z" fill="#f7a014"/>
    </g>
    <path id="Path_3100" data-name="Path 3100" d="M169.6,248.822a7.221,7.221,0,0,1-7.2,7.2H76a7.2,7.2,0,0,1,0-14.4h86.4a7.221,7.221,0,0,1,7.2,7.2Z" fill="#d78e0c"/>
    <path id="Path_3101" data-name="Path 3101" d="M126.4,241.622v28.8a7.2,7.2,0,1,1-14.4,0v-28.8Z" fill="#fe5022"/>
    <path id="Path_3102" data-name="Path 3102" d="M270.4,277.622H241.6a7.2,7.2,0,0,1-7.2-7.2v-14.4a14.417,14.417,0,0,1,14.4-14.4h14.4a14.417,14.417,0,0,1,14.4,14.4v14.4a7.2,7.2,0,0,1-7.2,7.2Zm-21.6-14.4h14.4v-7.21l-14.4.01Z" fill="#ea2b2d"/>
    <path id="Path_3103" data-name="Path 3103" d="M486.4,385.622v43.2a14.442,14.442,0,0,1-14.4,14.4H40a14.442,14.442,0,0,1-14.4-14.4v-43.2Z" fill="#6d7486"/>
    <path id="Path_3104" data-name="Path 3104" d="M227.2,421.622a7.207,7.207,0,0,1-2.735-.576,7.466,7.466,0,0,1-2.377-1.512,7.2,7.2,0,0,1-1.511-7.85,6.51,6.51,0,0,1,3.888-3.889,7.224,7.224,0,0,1,5.47,0,7.486,7.486,0,0,1,2.377,1.516,7.232,7.232,0,0,1,1.511,7.846,5.569,5.569,0,0,1-.646,1.3,12.239,12.239,0,0,1-.865,1.079,7.544,7.544,0,0,1-2.377,1.512A7.208,7.208,0,0,1,227.2,421.622Zm28.8,0a11.142,11.142,0,0,1-1.441-.144,4.7,4.7,0,0,1-1.294-.432,5.456,5.456,0,0,1-1.3-.651c-.359-.284-.717-.573-1.076-.861a7.44,7.44,0,0,1-1.947-6.553,4.681,4.681,0,0,1,.436-1.3,5.336,5.336,0,0,1,.646-1.294q.434-.543.865-1.079a7.326,7.326,0,0,1,7.847-1.516,7.486,7.486,0,0,1,2.377,1.516,11.167,11.167,0,0,1,.865,1.079,5.6,5.6,0,0,1,.646,1.294,7.238,7.238,0,0,1-1.511,7.85A7.59,7.59,0,0,1,256,421.622Zm28.8,0a7.207,7.207,0,0,1-2.735-.576,6.483,6.483,0,0,1-3.888-3.889,4.68,4.68,0,0,1-.436-1.3,6.986,6.986,0,0,1,4.324-8.065,7.193,7.193,0,0,1,7.847,1.516,7.367,7.367,0,0,1,1.511,2.373,6.788,6.788,0,0,1,0,5.473,5.57,5.57,0,0,1-.646,1.3q-.433.537-.865,1.079a7.59,7.59,0,0,1-5.112,2.089Z" fill="#e6e5e0"/>
    <path id="Path_3105" data-name="Path 3105" d="M331.323,212.822H184.875a14.4,14.4,0,0,1-13.884-10.579L140.224,90.422H375.975L345.207,202.243a14.4,14.4,0,0,1-13.884,10.579Z" fill="#ea2b2d"/>
    <path id="Path_3106" data-name="Path 3106" d="M176.793,97.622c-5.757.171-9.431-7.114-5.674-11.619l50.4-64.8c5.794-7.386,17.13,1.365,11.362,8.839l-50.4,64.8a7.19,7.19,0,0,1-5.688,2.78Zm165.607,0a7.171,7.171,0,0,1-5.379-2.415l-57.6-64.8c-6.209-7.032,4.452-16.6,10.758-9.569l57.6,64.8C351.964,90.032,348.378,97.826,342.4,97.622Z" fill="#2c435e"/>
    <path id="Path_3107" data-name="Path 3107" d="M256,184.022a7.2,7.2,0,0,1-7.2-7.2v-50.4a7.2,7.2,0,1,1,14.4,0v50.4A7.2,7.2,0,0,1,256,184.022Zm43.2,0a7.238,7.238,0,0,1-6.919-9.208l14.7-50.741c2.649-9.013,16.416-5.067,13.837,4.009l-14.7,50.74a7.209,7.209,0,0,1-6.923,5.2Zm-86.4,0a7.209,7.209,0,0,1-6.919-5.2l-14.695-50.741c-2.573-9.042,11.176-13.05,13.838-4.007l14.695,50.74a7.237,7.237,0,0,1-6.919,9.208Z" fill="#eae9e4"/>
    <path id="Path_3108" data-name="Path 3108" d="M385.635,97.622h-259.4c-9.374-.132-9.537-14.234,0-14.4h259.4C395.009,83.354,395.172,97.456,385.635,97.622Z" fill="#cb2527"/>
    <path id="Path_3109" data-name="Path 3109" d="M370.936,276.42l75.394,29-29,17.4-17.4,29Z" fill="#f7a014"/>
    <path id="Path_3110" data-name="Path 3110" d="M291.352,347.03a29.467,29.467,0,0,1-22.1,9.792h-26.5c-16.164.4-30.9-14.142-28.368-30.312l7.7-57.024a7.212,7.212,0,0,1,7.128-6.264H282.78a7.212,7.212,0,0,1,7.128,6.264l7.7,56.952A25.811,25.811,0,0,1,291.352,347.03Z" fill="#007af6"/>
  </g>
</svg>
