<svg id="Group_4497" data-name="Group 4497" xmlns="http://www.w3.org/2000/svg" width="126.059" height="204.348" viewBox="0 0 126.059 204.348">
  <path id="Path_3124" data-name="Path 3124" d="M121.276,63.224H98.947l25.421,119.511a17.893,17.893,0,0,1-17.5,21.613H23.628a17.893,17.893,0,0,1-17.5-21.613L31.546,63.224H9.218A5.516,5.516,0,0,1,5.354,53.77L56.455,3.6a12.546,12.546,0,0,1,17.583,0l51.1,50.175a5.516,5.516,0,0,1-3.863,9.454Zm0,0" transform="translate(-2.217)" fill="#ffeb99"/>
  <path id="Path_3125" data-name="Path 3125" d="M213.951,63.224H191.622l25.421,119.511a17.893,17.893,0,0,1-17.5,21.613H157.922V0a12.51,12.51,0,0,1,8.791,3.6l51.1,50.175a5.516,5.516,0,0,1-3.863,9.454Zm0,0" transform="translate(-94.893)" fill="#ffda44"/>
  <path id="Path_3126" data-name="Path 3126" d="M126.059,243.811V260.5c0,23.576-17.043,31.97-27.444,35.036a9.831,9.831,0,0,0-6.98,10.413l1.09,38.353H33.334l1.085-38.307a9.836,9.836,0,0,0-7.028-10.429C16.986,292.541,0,284.208,0,260.5V243.811a10.856,10.856,0,0,1,10.881-10.9A10.666,10.666,0,0,1,21.33,243.576V260.5A15.066,15.066,0,0,0,36.4,275.566H48.09a22.387,22.387,0,0,1,14.939-39.982l.577.038a22.385,22.385,0,0,1,12.1,39.944H89.661A15.066,15.066,0,0,0,104.729,260.5V243.576a10.666,10.666,0,0,1,10.45-10.664,10.855,10.855,0,0,1,10.879,10.9Zm0,0" transform="translate(0 -139.952)" fill="#2682ff"/>
  <path id="Path_3127" data-name="Path 3127" d="M220.951,243.81V260.5c0,23.576-17.043,31.97-27.444,35.036a9.831,9.831,0,0,0-6.98,10.413l1.09,38.353h-29.7V235.583l.577.037a22.385,22.385,0,0,1,12.1,39.944h13.952A15.066,15.066,0,0,0,199.622,260.5V243.575a10.666,10.666,0,0,1,10.45-10.664A10.855,10.855,0,0,1,220.951,243.81Zm0,0" transform="translate(-94.893 -139.951)" fill="#046eff"/>
</svg>
