<svg xmlns="http://www.w3.org/2000/svg" width="44" height="45" viewBox="0 0 44 45">
  <path id="Path_7978" data-name="Path 7978" d="M24.292,46.655a20.856,20.856,0,0,0,10.243,3.817l-.124,2.142a.836.836,0,0,0,.354.754.609.609,0,0,0,.737-.054l6.045-5.122a.843.843,0,0,0,.282-.618.862.862,0,0,0-.244-.64L36.145,41.6a.613.613,0,0,0-.712-.124.8.8,0,0,0-.417.682l-.131,2.256a26.173,26.173,0,0,1-11.643-4.187,22.87,22.87,0,0,1-7.716-8.987.645.645,0,0,0-.853-.349.836.836,0,0,0-.413.935A24.578,24.578,0,0,0,24.292,46.655ZM22.537,41.6a27.134,27.134,0,0,0,12.97,4.449.741.741,0,0,0,.7-.745l.085-1.464L40.029,47.5l-4.147,3.513.072-1.248a.882.882,0,0,0-.177-.591.651.651,0,0,0-.489-.262A19.378,19.378,0,0,1,25,45.282a23.6,23.6,0,0,1-7.134-7.853A24.894,24.894,0,0,0,22.537,41.6ZM43.358,70.74H41.639V61.154a.75.75,0,0,0-.688-.8H36.027a.75.75,0,0,0-.688.8V70.74H32.495V55.4a.75.75,0,0,0-.688-.8H26.882a.75.75,0,0,0-.688.8V70.74H23.35V49.389a.75.75,0,0,0-.688-.8H17.738a.75.75,0,0,0-.688.8V53.9q-.806-1.12-1.774-2.357a2.638,2.638,0,0,0,1.056-2.169A2.475,2.475,0,0,0,14.606,46.9l1.312-1.526a2.888,2.888,0,0,0,0-3.648,2,2,0,0,0-2.768-.346.073.073,0,0,1-.092.01A.093.093,0,0,1,13,41.309a2.339,2.339,0,0,0-2.168-2.031,2.339,2.339,0,0,0-2.167,2.031.093.093,0,0,1-.059.082.073.073,0,0,1-.092-.01,2,2,0,0,0-2.768.346,2.891,2.891,0,0,0,0,3.647L7.059,46.9a2.475,2.475,0,0,0-1.726,2.476,2.638,2.638,0,0,0,1.056,2.169,44.547,44.547,0,0,0-5.005,7.591,12.023,12.023,0,0,0-.1,10.829,10.5,10.5,0,0,0,9.355,5.874h.383A10.227,10.227,0,0,0,16.086,74.5H43.358a.75.75,0,0,0,.688-.8V71.539a.75.75,0,0,0-.687-.8Zm-6.644-8.786h3.549V70.74H36.714ZM27.57,56.2h3.55V70.74H27.57Zm-9.144-6.01h3.549V70.74H19.944q.231-.377.435-.775a12.023,12.023,0,0,0-.1-10.829,31.006,31.006,0,0,0-1.856-3.229V50.188ZM6.474,43.551a1.059,1.059,0,0,1,.245-.693.762.762,0,0,1,1.053-.131,1.283,1.283,0,0,0,1.361.141,1.652,1.652,0,0,0,.876-1.218.89.89,0,0,1,.824-.773.89.89,0,0,1,.824.773,1.652,1.652,0,0,0,.876,1.219,1.283,1.283,0,0,0,1.361-.141.762.762,0,0,1,1.053.131,1.1,1.1,0,0,1,0,1.386l-2.237,2.6H8.956l-2.237-2.6a1.059,1.059,0,0,1-.245-.693ZM7.51,48.445h6.645a.943.943,0,0,1,0,1.865H7.51a.943.943,0,0,1,0-1.865Zm3.311,25.794A9.155,9.155,0,0,1,2.469,69.15a10.11,10.11,0,0,1,.109-9.222,45.658,45.658,0,0,1,5.391-8.019H13.7a45.651,45.651,0,0,1,5.391,8.019A10.11,10.11,0,0,1,19.2,69.15a9.152,9.152,0,0,1-8.172,5.091l-.2,0ZM42.67,72.9H18.218q.279-.27.54-.563H42.67ZM14.058,65.171a2.883,2.883,0,0,1-.522,2.059,3.222,3.222,0,0,1-2.045,1.19V69a.75.75,0,0,1-.688.8.75.75,0,0,1-.688-.8v-.6a3.3,3.3,0,0,1-2.565-2.62.816.816,0,0,1,.5-.969.688.688,0,0,1,.833.582A1.879,1.879,0,0,0,10.8,66.88h.094a2.111,2.111,0,0,0,1.6-.694,1.106,1.106,0,0,0,.2-.821c-.057-.548-.336-1.218-1.993-1.535C8.386,63.387,7.846,62,7.8,60.908a3.02,3.02,0,0,1,2.24-3.137l.075-.019v-.608a.75.75,0,0,1,.688-.8.75.75,0,0,1,.688.8v.6a3.2,3.2,0,0,1,2.319,2.172.851.851,0,0,1-.368,1.047.657.657,0,0,1-.9-.428,1.778,1.778,0,0,0-1.7-1.27,2.353,2.353,0,0,0-.5.064,1.465,1.465,0,0,0-1.171,1.5c.012.3.046,1.1,1.749,1.42a3.4,3.4,0,0,1,3.135,2.92Z" transform="translate(-0.045 -30.84)" fill="#fff"/>
</svg>
