<svg id="pro" xmlns="http://www.w3.org/2000/svg" width="11.403" height="13.667" viewBox="0 0 11.403 13.667">
  <path id="Path_7685" data-name="Path 7685" d="M5.615,6.584a3.185,3.185,0,0,0,2.328-.964,3.185,3.185,0,0,0,.964-2.327A3.186,3.186,0,0,0,7.943.964,3.186,3.186,0,0,0,5.615,0,3.185,3.185,0,0,0,3.288.964a3.185,3.185,0,0,0-.964,2.327,3.185,3.185,0,0,0,.964,2.328,3.186,3.186,0,0,0,2.327.964ZM3.854,1.531A2.379,2.379,0,0,1,5.615.8a2.38,2.38,0,0,1,1.761.73,2.38,2.38,0,0,1,.73,1.761,2.38,2.38,0,0,1-.73,1.761,2.379,2.379,0,0,1-1.761.73,2.38,2.38,0,0,1-1.761-.73,2.379,2.379,0,0,1-.73-1.761A2.38,2.38,0,0,1,3.854,1.531Zm7.521,8.979a8.132,8.132,0,0,0-.111-.864,6.8,6.8,0,0,0-.212-.868,4.288,4.288,0,0,0-.357-.81,3.052,3.052,0,0,0-.538-.7,2.374,2.374,0,0,0-.773-.486A2.673,2.673,0,0,0,8.4,6.6a1,1,0,0,0-.535.227q-.278.181-.557.359a3.193,3.193,0,0,1-.721.318,2.8,2.8,0,0,1-1.764,0A3.185,3.185,0,0,1,4.1,7.188c-.207-.133-.4-.253-.558-.36A1,1,0,0,0,3.006,6.6a2.668,2.668,0,0,0-.987.179,2.371,2.371,0,0,0-.773.486,3.053,3.053,0,0,0-.538.7,4.3,4.3,0,0,0-.357.81,6.816,6.816,0,0,0-.212.868,8.076,8.076,0,0,0-.111.864c-.018.261-.027.533-.027.807a2.269,2.269,0,0,0,.674,1.717,2.426,2.426,0,0,0,1.737.633H8.992a2.426,2.426,0,0,0,1.737-.633,2.269,2.269,0,0,0,.674-1.717c0-.275-.009-.547-.028-.807Zm-1.2,1.944a1.634,1.634,0,0,1-1.185.413H2.411a1.634,1.634,0,0,1-1.185-.413A1.482,1.482,0,0,1,.8,11.317c0-.256.008-.509.025-.752a7.27,7.27,0,0,1,.1-.778,6.011,6.011,0,0,1,.187-.765A3.5,3.5,0,0,1,1.4,8.364a2.262,2.262,0,0,1,.4-.518,1.574,1.574,0,0,1,.514-.32A1.843,1.843,0,0,1,2.944,7.4c.028.015.078.043.159.1.165.107.354.23.564.364a3.967,3.967,0,0,0,.905.4,3.6,3.6,0,0,0,2.257,0,3.973,3.973,0,0,0,.906-.4c.215-.137.4-.256.564-.363.081-.053.131-.081.159-.1a1.844,1.844,0,0,1,.631.122,1.577,1.577,0,0,1,.514.32,2.257,2.257,0,0,1,.4.518,3.485,3.485,0,0,1,.291.658,6,6,0,0,1,.187.765,7.346,7.346,0,0,1,.1.778h0c.017.242.026.495.026.751a1.482,1.482,0,0,1-.425,1.137Zm0,0" fill="#fc7e58"/>
</svg>
