<svg xmlns="http://www.w3.org/2000/svg" width="40.925" height="40.51" viewBox="0 0 40.925 40.51">
  <g id="prototyp" transform="translate(-1 -0.994)">
    <path id="Path_3272" data-name="Path 3272" d="M11.241,17V41.826a4.55,4.55,0,0,0-1.377-3.257A4.631,4.631,0,0,0,2,41.761a4.549,4.549,0,0,0,1.33,3.276A4.644,4.644,0,0,0,6.62,46.4H41.6V17Z" transform="translate(-0.34 -5.549)" fill="#e2e7f6"/>
    <path id="Path_3273" data-name="Path 3273" d="M42,28v1.307a1.313,1.313,0,0,0,1.32,1.307H48.6a1.313,1.313,0,0,0,1.32-1.307V28" transform="translate(-13.937 -9.362)" fill="#d5883e"/>
    <path id="Path_3274" data-name="Path 3274" d="M2,39.4V14.746a4.7,4.7,0,0,1,4.042-4.712,4.652,4.652,0,0,1,3.635,1.107,4.553,4.553,0,0,1,1.564,3.431V39.4a4.55,4.55,0,0,0-1.377-3.257A4.631,4.631,0,0,0,2,39.333Z" transform="translate(-0.34 -3.121)" fill="#c8cded"/>
    <path id="Path_3275" data-name="Path 3275" d="M16.561,21.026,6,10.573,10.621,6,21.182,16.453h-2.64v1.96h-1.98Z" transform="translate(-1.7 -1.735)" fill="#f0ae42"/>
    <path id="Path_3276" data-name="Path 3276" d="M9.261,4.613,4.64,9.187,2.957,7.521A3.216,3.216,0,0,1,2,5.234,3.274,3.274,0,0,1,7.578,2.948Z" transform="translate(-0.34 -0.349)" fill="#b5b5b5"/>
    <path id="Path_3277" data-name="Path 3277" d="M6.621,5.645,4.937,3.979a3.28,3.28,0,0,0-1.694-.887A3.192,3.192,0,0,0,2.957,7.9l.693.686Z" transform="translate(-0.34 -0.727)" fill="#ccc"/>
    <path id="Path_3278" data-name="Path 3278" d="M6,10.574,10.618,6l1.98,1.96L7.98,12.534Z" transform="translate(-1.699 -1.736)" fill="#d5883e"/>
    <path id="Path_3279" data-name="Path 3279" d="M26.621,22H23.98v1.96H22v2.613l6.6,1.96Z" transform="translate(-7.138 -7.282)" fill="#f7d2b7"/>
    <path id="Path_3280" data-name="Path 3280" d="M28.69,25.846l-2.844,2.815,4.062,1.206Z" transform="translate(-8.446 -8.615)" fill="#686868"/>
    <path id="Path_3281" data-name="Path 3281" d="M34.522,44.493V41.88H33.049a5.81,5.81,0,0,0-.763-1.82l1.042-1.032-1.867-1.848-1.042,1.032a5.937,5.937,0,0,0-1.838-.755V36h-2.64v1.458a5.937,5.937,0,0,0-1.838.755L23.06,37.181l-1.867,1.848,1.042,1.032a5.81,5.81,0,0,0-.763,1.82H20v2.613h1.473a5.81,5.81,0,0,0,.763,1.82l-1.042,1.032,1.867,1.848L24.1,48.16a5.937,5.937,0,0,0,1.838.755v1.458h2.64V48.916a5.937,5.937,0,0,0,1.838-.755l1.042,1.032,1.867-1.848-1.042-1.032a5.81,5.81,0,0,0,.763-1.82Zm-7.261,1.96a3.267,3.267,0,1,1,3.3-3.267,3.284,3.284,0,0,1-3.3,3.267Z" transform="translate(-6.459 -12.136)" fill="#78a0d4"/>
    <path id="Path_3282" data-name="Path 3282" d="M12.726,8.4l-.933.924,7.784,7.7h.933V16.1Zm30.227.789a7.2,7.2,0,0,0-5.075-6.858,7.3,7.3,0,0,0-8.133,2.732,7.127,7.127,0,0,0,.19,8.5,8.1,8.1,0,0,1,1.8,4.954v.473h7.921v-.476a7.9,7.9,0,0,1,1.757-4.9,7.1,7.1,0,0,0,1.543-4.424Z" transform="translate(-3.669 -0.346)" fill="#f9d266"/>
    <path id="Path_3283" data-name="Path 3283" d="M45,32v.653a1.98,1.98,0,0,0,3.96,0V32" transform="translate(-14.957 -10.749)" fill="#f0ae42"/>
    <path id="Path_3284" data-name="Path 3284" d="M53.281,10.227H51.96A3.944,3.944,0,0,0,48,6.307V5A5.26,5.26,0,0,1,53.281,10.227Z" transform="translate(-15.976 -1.389)" fill="#fce797"/>
    <path id="Path_3285" data-name="Path 3285" d="M47.6,23.493h-1.32V18.92H44.96v4.573H43.64V18.92h-.66a1.96,1.96,0,1,1,1.98-1.96v.653h1.32V16.96a1.98,1.98,0,1,1,1.98,1.96H47.6Zm0-5.88h.66a.653.653,0,1,0-.66-.653ZM42.98,16.307a.653.653,0,1,0,0,1.307h.66V16.96A.657.657,0,0,0,42.98,16.307ZM48.591,42.44H41.66V41.133h6.931a2.94,2.94,0,1,0,0-5.88,3.616,3.616,0,0,1-3.63-3.593v-.98h1.32v.98a2.3,2.3,0,0,0,2.31,2.287,4.247,4.247,0,1,1,0,8.493Z" transform="translate(-13.597 -4.855)" fill="#f0ae42"/>
    <path id="Path_3286" data-name="Path 3286" d="M41.265,10.8H39.7a7.8,7.8,0,0,0-3.144-8.4,7.988,7.988,0,0,0-9.049,0,7.8,7.8,0,0,0-3.144,8.4h-7.9L7.7,2.137a3.956,3.956,0,0,0-5.554,0,3.859,3.859,0,0,0,0,5.5l.291.287A5.548,5.548,0,0,0,1,11.625V36.277a5.194,5.194,0,0,0,1.545,3.7A5.3,5.3,0,0,0,6.281,41.5H41.265a.657.657,0,0,0,.66-.653v-29.4A.657.657,0,0,0,41.265,10.8Zm-15.8-2.734a6.6,6.6,0,0,1,13.157.774,6.411,6.411,0,0,1-1.4,4.022,8.627,8.627,0,0,0-1.9,5.125H34v-3.92h.66a1.96,1.96,0,1,0-1.98-1.96v.653h-1.32V12.1a1.98,1.98,0,1,0-1.98,1.96h.66v3.92h-1.32a8.739,8.739,0,0,0-1.933-5.172,6.478,6.478,0,0,1-1.323-4.748ZM33.344,21.9a1.32,1.32,0,0,1-2.64,0ZM29.383,20.6a.657.657,0,0,1-.66-.653v-.653h6.6v.653a.657.657,0,0,1-.66.653Zm.66-7.84h-.66a.653.653,0,1,1,.66-.653Zm2.64,5.227h-1.32v-3.92h1.32ZM34,12.758V12.1a.66.66,0,1,1,.66.653ZM20.478,20.276l-1.83-.543,1.281-1.267Zm-3.266-.97-1.69-.5V17.331h1.32a.657.657,0,0,0,.66-.653V15.371h1.489l.507,1.674Zm-10-8.509L8.591,9.435l6.658,6.589h-.387a.657.657,0,0,0-.66.653v1.036Zm-.933-.924L5.234,8.838,8.921,5.188,9.968,6.225Zm10.561,4.19a.657.657,0,0,0-.66.653V15.1L9.524,8.511,10.9,7.148l6.988,6.916ZM4.927,2.3a2.6,2.6,0,0,1,1.844.756l1.217,1.2L4.3,7.913l-1.217-1.2A2.561,2.561,0,0,1,2.518,3.9,2.607,2.607,0,0,1,4.927,2.3ZM3.376,8.847l6.865,6.795V32.82q-.121-.135-.253-.261a5.285,5.285,0,0,0-7.668.289V11.625A4.229,4.229,0,0,1,3.376,8.847ZM40.6,40.2H6.281A3.981,3.981,0,0,1,3.46,39.029a3.9,3.9,0,0,1-1.14-2.808,4.016,4.016,0,0,1,3.9-3.864h.057a3.94,3.94,0,0,1,3.96,3.92.66.66,0,0,0,1.32,0V16.948l2.834,2.8a.661.661,0,0,0,.277.164l6.6,1.96a.675.675,0,0,0,.189.027.662.662,0,0,0,.53-.263.648.648,0,0,0,.1-.578l-1.98-6.533a.652.652,0,0,0-.166-.274L17.775,12.1h7.054a7.815,7.815,0,0,0,.91,1.5A7.421,7.421,0,0,1,27.4,18.165v1.78a1.97,1.97,0,0,0,1.98,1.96,2.64,2.64,0,0,0,5.281,0,1.97,1.97,0,0,0,1.98-1.96V18.161a7.3,7.3,0,0,1,1.617-4.5,7.839,7.839,0,0,0,.962-1.561H40.6Z" transform="translate(0 0)"/>
    <path id="Path_3287" data-name="Path 3287" d="M32.77,45.858a6.4,6.4,0,0,0,.444-1.058h.968a.657.657,0,0,0,.66-.653V41.533a.657.657,0,0,0-.66-.653h-.968a6.4,6.4,0,0,0-.444-1.058l.686-.678a.649.649,0,0,0,0-.924l-1.867-1.848a.665.665,0,0,0-.933,0l-.685.677a6.573,6.573,0,0,0-1.069-.438v-.958a.657.657,0,0,0-.66-.653H25.6a.657.657,0,0,0-.66.653v.958a6.573,6.573,0,0,0-1.069.439l-.685-.678a.684.684,0,0,0-.933,0L20.386,38.22a.649.649,0,0,0,0,.924l.685.678a6.4,6.4,0,0,0-.444,1.058H19.66a.657.657,0,0,0-.66.653v2.613a.657.657,0,0,0,.66.653h.968a6.4,6.4,0,0,0,.444,1.058l-.686.678a.649.649,0,0,0,0,.924l1.867,1.848a.665.665,0,0,0,.933,0l.685-.678a6.544,6.544,0,0,0,1.069.439v.958a.657.657,0,0,0,.66.653h2.64a.657.657,0,0,0,.66-.653v-.958a6.544,6.544,0,0,0,1.069-.44l.685.679a.684.684,0,0,0,.933,0l1.867-1.848a.649.649,0,0,0,0-.924ZM32.07,44a5.171,5.171,0,0,1-.678,1.616.648.648,0,0,0,.091.811l.576.57-.933.924-.576-.57a.665.665,0,0,0-.818-.091,5.256,5.256,0,0,1-1.633.671.655.655,0,0,0-.514.637v.8H26.261v-.8a.655.655,0,0,0-.514-.637,5.256,5.256,0,0,1-1.633-.671.665.665,0,0,0-.818.091l-.576.57L21.787,47l.576-.57a.648.648,0,0,0,.091-.811A5.171,5.171,0,0,1,21.776,44a.659.659,0,0,0-.644-.508H20.32V42.187h.812a.659.659,0,0,0,.644-.508,5.171,5.171,0,0,1,.678-1.616.648.648,0,0,0-.091-.811l-.576-.57.933-.924.576.57a.665.665,0,0,0,.818.091,5.253,5.253,0,0,1,1.633-.671.655.655,0,0,0,.514-.638v-.8h1.32v.8a.655.655,0,0,0,.514.638,5.253,5.253,0,0,1,1.633.671.665.665,0,0,0,.818-.091l.576-.57.933.924-.576.57a.648.648,0,0,0-.091.811,5.171,5.171,0,0,1,.681,1.616.659.659,0,0,0,.64.508h.812v1.307H32.71a.659.659,0,0,0-.64.508Z" transform="translate(-6.119 -11.789)"/>
    <path id="Path_3288" data-name="Path 3288" d="M28.96,28.52a3.92,3.92,0,1,0,3.96,3.92,3.94,3.94,0,0,0-3.96-3.92Zm0,6.533A2.613,2.613,0,1,1,31.6,32.44,2.627,2.627,0,0,1,28.96,35.053ZM44.142,10.227h1.32A5.26,5.26,0,0,0,40.182,5V6.307A3.944,3.944,0,0,1,44.142,10.227Zm-.99,20.253a2.3,2.3,0,0,1-2.31-2.287v-.98h-1.32v.98a3.616,3.616,0,0,0,3.63,3.593,2.94,2.94,0,1,1,0,5.88H36.221v1.307h6.931a4.247,4.247,0,1,0,0-8.493Z" transform="translate(-8.158 -1.389)"/>
  </g>
</svg>
