<svg xmlns="http://www.w3.org/2000/svg" width="129.481" height="141" viewBox="0 0 129.481 141">
  <g id="Group_4498" data-name="Group 4498" transform="translate(-20.75)">
    <circle id="Ellipse_2188" data-name="Ellipse 2188" cx="55.984" cy="55.984" r="55.984" transform="translate(29.382 0)" fill="#ffd15c"/>
    <path id="Path_3128" data-name="Path 3128" d="M40.013,319.267,20.75,352.657l22.482-1.194,10.214,20.068,17.819-30.892A55.927,55.927,0,0,1,40.013,319.267Zm90.817-.167a55.946,55.946,0,0,1-31.17,21.483l17.875,30.948,10.214-20.068,22.482,1.194L130.83,319.1Z" transform="translate(0 -230.531)" fill="#40596b"/>
    <circle id="Ellipse_2189" data-name="Ellipse 2189" cx="40.579" cy="40.579" r="40.579" transform="translate(44.787 15.405)" fill="#f8b64c"/>
    <path id="Path_3129" data-name="Path 3129" d="M207.316,126.533a2.12,2.12,0,0,0-1.166-3.608l-16.015-2.331a2.088,2.088,0,0,1-1.582-1.166l-7.161-14.516a2.117,2.117,0,0,0-3.8,0l-7.133,14.516a2.2,2.2,0,0,1-1.582,1.166l-16.015,2.331a2.12,2.12,0,0,0-1.166,3.608l11.574,11.3a2.139,2.139,0,0,1,.611,1.86l-2.72,15.932a2.114,2.114,0,0,0,3.081,2.22l14.322-7.522a2.068,2.068,0,0,1,1.971,0l14.322,7.522a2.126,2.126,0,0,0,3.081-2.22l-2.748-15.932a2.088,2.088,0,0,1,.611-1.86Z" transform="translate(-94.138 -74.935)" fill="#fff"/>
  </g>
</svg>
