<svg id="rating" xmlns="http://www.w3.org/2000/svg" width="18.505" height="17.733" viewBox="0 0 18.505 17.733">
  <path id="Path_3113" data-name="Path 3113" d="M18.456,7.2a.982.982,0,0,0-.847-.676l-5.341-.485L10.157,1.091a.983.983,0,0,0-1.809,0L6.236,6.034.894,6.519A.985.985,0,0,0,.336,8.24l4.037,3.54-1.19,5.244a.982.982,0,0,0,1.463,1.063l4.607-2.753,4.605,2.753a.983.983,0,0,0,1.463-1.063l-1.19-5.244,4.037-3.54A.984.984,0,0,0,18.456,7.2Zm0,0" transform="translate(0 -0.494)" fill="#ffc107"/>
</svg>
