<svg xmlns="http://www.w3.org/2000/svg" xmlns:xlink="http://www.w3.org/1999/xlink" width="46.513" height="52.549" viewBox="0 0 46.513 52.549">
  <defs>
    <linearGradient id="linear-gradient" x1="0.648" y1="1.118" x2="0.648" y2="0.03" gradientUnits="objectBoundingBox">
      <stop offset="0" stop-color="#00efd1"/>
      <stop offset="1" stop-color="#00acea"/>
    </linearGradient>
    <linearGradient id="linear-gradient-2" x1="1.239" y1="3.975" x2="1.239" y2="-2.147" xlink:href="#linear-gradient"/>
  </defs>
  <g id="react" transform="translate(3.701 4)">
    <path id="Path_3190" data-name="Path 3190" d="M45.675,12.123c-1.958-3.066-6.168-4.34-11.84-3.609-.2.023-.413.059-.613.082-.082-.188-.165-.377-.259-.566C30.522,2.854,27.184,0,23.552,0s-6.981,2.854-9.411,8.031c-.083.188-.177.377-.259.566-.212-.035-.413-.059-.613-.082-5.684-.743-9.882.543-11.84,3.609S.073,19.54,3.115,24.376q.614.977,1.309,1.9c-.472.637-.908,1.262-1.309,1.9-3.043,4.835-3.644,9.2-1.686,12.253,1.592,2.5,4.682,3.809,8.845,3.809a24.178,24.178,0,0,0,2.984-.2c.2-.023.413-.059.613-.082.083.189.165.377.26.566,2.441,5.177,5.778,8.031,9.41,8.031s6.982-2.854,9.411-8.031c.083-.189.177-.377.259-.566.212.035.413.059.614.082a22.2,22.2,0,0,0,2.983.2c4.163,0,7.253-1.309,8.845-3.809,1.958-3.066,1.356-7.418-1.686-12.253q-.614-.976-1.309-1.9c.472-.637.908-1.262,1.309-1.9,3.078-4.846,3.679-9.2,1.71-12.252Zm-29.4-3.089c1.993-4.245,4.646-6.675,7.276-6.675s5.283,2.43,7.276,6.675a.043.043,0,0,0,.012.023,41.786,41.786,0,0,0-7.3,2.488,40.811,40.811,0,0,0-7.3-2.488c.024,0,.024-.012.035-.024Zm17.9,17.241a51.86,51.86,0,0,1-.307,5.648,50.3,50.3,0,0,1-4.6,3.3A50.182,50.182,0,0,1,23.54,38.4a53.2,53.2,0,0,1-5.731-3.173,51.919,51.919,0,0,1-4.6-3.3,52.156,52.156,0,0,1,0-11.3,52.172,52.172,0,0,1,10.33-6.474,53.128,53.128,0,0,1,5.731,3.172,51.92,51.92,0,0,1,4.6,3.3,51.89,51.89,0,0,1,.307,5.649Zm2.252-3.432a38.179,38.179,0,0,1,3.255,3.432,38.237,38.237,0,0,1-3.255,3.431q.106-1.7.106-3.431T36.43,22.842Zm-3.043,12.43a37.682,37.682,0,0,1-1.616,6,37.153,37.153,0,0,1-5.377-1.651q2.129-1.119,4.162-2.405Q32.008,36.28,33.387,35.272ZM20.71,39.624a34.855,34.855,0,0,1-5.377,1.651,37.682,37.682,0,0,1-1.615-6c.908.672,1.851,1.321,2.83,1.934C17.927,38.091,19.319,38.893,20.71,39.624ZM10.675,29.706A38.3,38.3,0,0,1,7.42,26.274a38.246,38.246,0,0,1,3.255-3.432q-.106,1.7-.106,3.432T10.675,29.706Zm3.043-12.429a37.655,37.655,0,0,1,1.616-6,37.02,37.02,0,0,1,5.377,1.651q-2.129,1.119-4.162,2.405-1.443.932-2.83,1.946Zm16.828-1.946c-1.368-.872-2.76-1.686-4.163-2.405a34.845,34.845,0,0,1,5.378-1.651,37.755,37.755,0,0,1,1.616,6Q32.014,16.268,30.545,15.331ZM5.109,23.114C2.608,19.151,2,15.6,3.41,13.385,4.542,11.616,7,10.66,10.309,10.66a21.421,21.421,0,0,1,2.653.177h.023A42.442,42.442,0,0,0,11,19.387a43.981,43.981,0,0,0-5.059,4.965c-.295-.4-.578-.813-.837-1.238ZM12.951,41.7a21.3,21.3,0,0,1-2.653.177c-3.314,0-5.767-.943-6.9-2.724-1.415-2.217-.8-5.766,1.7-9.729.259-.413.543-.838.838-1.25a43.9,43.9,0,0,0,5.059,4.965,42.459,42.459,0,0,0,1.981,8.55c0,.012-.012.012-.023.012Zm17.877,1.816c-1.993,4.245-4.646,6.675-7.276,6.675s-5.283-2.43-7.276-6.675a.043.043,0,0,0-.012-.024A41.75,41.75,0,0,0,23.564,41a40.776,40.776,0,0,0,7.3,2.488c-.023,0-.023.012-.035.024ZM42,29.435c2.5,3.962,3.114,7.512,1.7,9.729S38.8,42.313,34.154,41.7H34.13a42.444,42.444,0,0,0,1.981-8.55,43.94,43.94,0,0,0,5.059-4.965c.283.413.566.825.825,1.25ZM36.1,19.4a42.428,42.428,0,0,0-1.981-8.55h.024c4.646-.6,8.125.318,9.54,2.535s.8,5.766-1.7,9.729c-.259.413-.543.838-.837,1.25A42.855,42.855,0,0,0,36.1,19.4Zm0,0" transform="translate(-4 -4)" fill="url(#linear-gradient)"/>
    <path id="Path_3191" data-name="Path 3191" d="M161.441,183.2A3.562,3.562,0,1,0,165,186.761a3.562,3.562,0,0,0-3.562-3.562Zm0,5.324a1.763,1.763,0,1,1,1.763-1.763A1.763,1.763,0,0,1,161.441,188.523Zm0,0" transform="translate(-141.889 -164.487)" fill="url(#linear-gradient-2)"/>
  </g>
</svg>
