<svg xmlns="http://www.w3.org/2000/svg" width="52.999" height="43.995" viewBox="0 0 52.999 43.995">
  <g id="Realtime" transform="translate(0 -145)">
    <path id="Path_7703" data-name="Path 7703" d="M636.546,1148.938a.712.712,0,0,1-.435-.124.729.729,0,0,1-.155-.993,5.9,5.9,0,0,0,1.118-3.508,6.022,6.022,0,0,0-1.615-4.1.7.7,0,0,1,.994-.994c1.211-.993,5.433-3.633,11.115.031v-.031a.714.714,0,0,1,1.025.994,6.035,6.035,0,0,0-.5,7.607.736.736,0,0,1-.186.993.624.624,0,0,1-.4.124.664.664,0,0,1-.559-.28l-.186-.279a57.093,57.093,0,0,1-7.017.745,12.939,12.939,0,0,1-2.919-.248A.91.91,0,0,1,636.546,1148.938Z" transform="translate(-615.527 -961.558)" fill="#3b566a"/>
    <path id="Path_7704" data-name="Path 7704" d="M49.708,178.873H3.291A3.313,3.313,0,0,1,0,175.582V148.291A3.313,3.313,0,0,1,3.291,145H49.708A3.313,3.313,0,0,1,53,148.291v27.291A3.313,3.313,0,0,1,49.708,178.873Z" fill="#3b566a"/>
    <path id="Path_7705" data-name="Path 7705" d="M130.131,256.688a.689.689,0,0,0,.683-.683V228.714a.717.717,0,0,0-.683-.714H83.714a.744.744,0,0,0-.714.714v27.291a.717.717,0,0,0,.714.683Z" transform="translate(-80.423 -80.423)" fill="#a4d9f4"/>
    <path id="Path_7706" data-name="Path 7706" d="M529.864,1430.223H509.528a.544.544,0,0,1-.528-.528v-3.167a.544.544,0,0,1,.528-.528h20.337a.544.544,0,0,1,.528.528v3.167A.544.544,0,0,1,529.864,1430.223Z" transform="translate(-493.197 -1241.227)" fill="#3b566a"/>
    <circle id="Ellipse_2245" data-name="Ellipse 2245" cx="0.502" cy="0.502" r="0.502" transform="translate(23.083 177.116)" fill="#ffe270"/>
    <ellipse id="Ellipse_2246" data-name="Ellipse 2246" cx="0.669" cy="0.502" rx="0.669" ry="0.502" transform="translate(25.759 177.116)" fill="#f5f5f5"/>
    <ellipse id="Ellipse_2247" data-name="Ellipse 2247" cx="0.669" cy="0.502" rx="0.669" ry="0.502" transform="translate(28.77 177.116)" fill="#6fb7ce"/>
    <path id="Path_7707" data-name="Path 7707" d="M396.1,875.2h-3.477a.623.623,0,0,1-.621-.621v-5.93a.63.63,0,0,1,.621-.652H396.1a.63.63,0,0,1,.621.652v5.93A.623.623,0,0,1,396.1,875.2Z" transform="translate(-379.829 -700.552)" fill="#ef5350"/>
    <path id="Path_7708" data-name="Path 7708" d="M611.1,813.19h-3.446a.63.63,0,0,1-.652-.621v-7.948a.63.63,0,0,1,.652-.621H611.1a.63.63,0,0,1,.652.621v7.948A.63.63,0,0,1,611.1,813.19Z" transform="translate(-588.154 -638.539)" fill="#4fba6f"/>
    <path id="Path_7709" data-name="Path 7709" d="M827.1,750.208h-3.477a.623.623,0,0,1-.621-.621v-9.935a.65.65,0,0,1,.621-.652H827.1a.65.65,0,0,1,.621.652v9.935A.623.623,0,0,1,827.1,750.208Z" transform="translate(-797.447 -575.557)" fill="#689f38"/>
    <path id="Path_7710" data-name="Path 7710" d="M1042.1,688.2h-3.446a.63.63,0,0,1-.652-.621V675.621a.63.63,0,0,1,.652-.621h3.446a.63.63,0,0,1,.652.621v11.954A.63.63,0,0,1,1042.1,688.2Z" transform="translate(-1005.772 -513.544)" fill="#ffc107"/>
    <path id="Path_7711" data-name="Path 7711" d="M1258.1,626.182h-3.478a.623.623,0,0,1-.621-.621v-13.94a.623.623,0,0,1,.621-.621h3.478a.623.623,0,0,1,.621.621v13.94A.623.623,0,0,1,1258.1,626.182Z" transform="translate(-1215.066 -451.532)" fill="#5c9cee"/>
    <path id="Path_7712" data-name="Path 7712" d="M366.587,1061.242H332.621a.621.621,0,1,1,0-1.242h33.967a.621.621,0,1,1,0,1.242Z" transform="translate(-321.692 -886.591)"/>
    <path id="Path_7713" data-name="Path 7713" d="M247.576,296.089a7.545,7.545,0,1,1,7.545-7.545A7.559,7.559,0,0,1,247.576,296.089Z" transform="translate(-232.548 -131.777)" fill="#ffe270"/>
    <path id="Path_7714" data-name="Path 7714" d="M297.961,333a5.93,5.93,0,1,0,5.93,5.93A5.956,5.956,0,0,0,297.961,333Z" transform="translate(-282.934 -182.163)" fill="#f5f5f5"/>
    <path id="Path_7715" data-name="Path 7715" d="M473.342,333H473v.9a.319.319,0,0,0,.342.31.293.293,0,0,0,.31-.31V333Z" transform="translate(-458.314 -182.163)" fill="#3b566a"/>
    <path id="Path_7716" data-name="Path 7716" d="M555.079,353.155A1.256,1.256,0,0,1,554.8,353l-.435.776a.328.328,0,1,0,.559.341l.435-.776Z" transform="translate(-537.102 -201.542)" fill="#ef5350"/>
    <path id="Path_7717" data-name="Path 7717" d="M614.69,419.279a1.263,1.263,0,0,0-.155-.279l-.776.466a.314.314,0,0,0-.124.435.351.351,0,0,0,.466.124l.745-.435A2.876,2.876,0,0,0,614.69,419.279Z" transform="translate(-594.54 -265.493)" fill="#3b566a"/>
    <path id="Path_7718" data-name="Path 7718" d="M636.242,513.341V513h-.9a.342.342,0,0,0,0,.683h.9Z" transform="translate(-615.284 -356.574)" fill="#ef5350"/>
    <path id="Path_7719" data-name="Path 7719" d="M614.69,595.379a1.45,1.45,0,0,0,.155-.31l-.745-.435a.341.341,0,0,0-.342.59l.776.435A1.261,1.261,0,0,0,614.69,595.379Z" transform="translate(-594.54 -435.631)" fill="#3b566a"/>
    <path id="Path_7720" data-name="Path 7720" d="M555.079,654.721l.279-.186-.435-.776a.328.328,0,1,0-.559.342l.435.776C554.893,654.814,554.986,654.783,555.079,654.721Z" transform="translate(-537.102 -492.8)" fill="#ef5350"/>
    <path id="Path_7721" data-name="Path 7721" d="M473.342,677.211h.31v-.9a.311.311,0,0,0-.31-.31.34.34,0,0,0-.342.31v.9Z" transform="translate(-458.314 -514.513)" fill="#3b566a"/>
    <path id="Path_7722" data-name="Path 7722" d="M379.279,654.721c.093.062.186.093.279.155l.466-.776a.341.341,0,0,0-.59-.342l-.435.776Z" transform="translate(-367.233 -492.8)" fill="#ef5350"/>
    <path id="Path_7723" data-name="Path 7723" d="M313.155,595.379l.186.279.745-.435a.35.35,0,0,0,.124-.466.314.314,0,0,0-.435-.124l-.776.435A1.447,1.447,0,0,0,313.155,595.379Z" transform="translate(-303.282 -435.631)" fill="#3b566a"/>
    <path id="Path_7724" data-name="Path 7724" d="M292,513.341a1.275,1.275,0,0,0,.031.342h.869a.342.342,0,1,0,0-.683h-.869A1.274,1.274,0,0,0,292,513.341Z" transform="translate(-282.934 -356.574)" fill="#ef5350"/>
    <path id="Path_7725" data-name="Path 7725" d="M313.155,419.279a2.862,2.862,0,0,0-.155.31l.776.435a.32.32,0,0,0,.31-.559l-.745-.466Z" transform="translate(-303.282 -265.493)" fill="#3b566a"/>
    <path id="Path_7726" data-name="Path 7726" d="M379.279,353.155l-.279.186.435.776a.341.341,0,1,0,.59-.341l-.466-.776A1.26,1.26,0,0,1,379.279,353.155Zm3.012,5.5a.345.345,0,0,0,.342-.342v-2.3a.342.342,0,0,0-.683,0v1.956h-2.08a.343.343,0,0,0,0,.683Z" transform="translate(-367.233 -201.542)" fill="#ef5350"/>
    <ellipse id="Ellipse_2248" data-name="Ellipse 2248" cx="1.004" cy="0.836" rx="1.004" ry="0.836" transform="translate(14.051 156.04)" fill="#3b566a"/>
  </g>
</svg>
