<svg xmlns="http://www.w3.org/2000/svg" xmlns:xlink="http://www.w3.org/1999/xlink" width="39.852" height="39.904" viewBox="0 0 39.852 39.904">
  <defs>
    <clipPath id="clip-path">
      <path id="Path_3254" data-name="Path 3254" d="M0-682.665H39.852v39.9H0Z" transform="translate(0 682.665)"/>
    </clipPath>
  </defs>
  <g id="requirement" transform="translate(-3 -0.002)">
    <g id="Group_4519" data-name="Group 4519" transform="translate(3 0.002)" clip-path="url(#clip-path)">
      <path id="Path_3215" data-name="Path 3215" d="M0,0V28.606a2.581,2.581,0,0,0,2.579,2.582h24.5a2.581,2.581,0,0,0,2.579-2.582V0Z" transform="translate(8.322 8.132)" fill="#f9f5f3"/>
      <path id="Path_3216" data-name="Path 3216" d="M-41.6,0V28.606a2.581,2.581,0,0,1-2.579,2.582h1.79a2.581,2.581,0,0,0,2.579-2.582V0Z" transform="translate(77.788 8.132)" fill="#f9eae0"/>
      <path id="Path_3217" data-name="Path 3217" d="M-221.168-162.325-231.232-172.4l-3.647,3.652,10.064,10.077a.622.622,0,0,0,.44.183h.556l2.833-2.837v-.557a.624.624,0,0,0-.182-.441" transform="translate(238.713 193.025)" fill="#a0c8ff"/>
      <path id="Path_3218" data-name="Path 3218" d="M-176.746-162.325-186.81-172.4l-.893.894,10.415,10.429a.623.623,0,0,1,.168.31l.557-.558v-.557a.624.624,0,0,0-.182-.441" transform="translate(194.291 193.025)" fill="#91b2fa"/>
      <path id="Path_3219" data-name="Path 3219" d="M-58.183-48.135v-2.77a.623.623,0,0,0-.04-.218l-3.567,3.572a.621.621,0,0,0,.218.04h2.767a.623.623,0,0,0,.623-.624" transform="translate(75.911 82.047)" fill="#f9eae0"/>
      <path id="Path_3220" data-name="Path 3220" d="M-35.506-6.092-37.33-4.266a1.292,1.292,0,0,0,0,1.826l1.824,1.826,3.647-3.652-1.824-1.826a1.288,1.288,0,0,0-1.824,0" transform="translate(39.58 25.129)" fill="#fa8ebb"/>
      <path id="Path_3221" data-name="Path 3221" d="M0-5.814.019-5.8l2.717,2.72.893-.894L1.805-5.8A1.288,1.288,0,0,0,0-5.814" transform="translate(4.092 24.834)" fill="#f57fb0"/>
      <path id="Path_3222" data-name="Path 3222" d="M-436.788,0h-24.5a2.581,2.581,0,0,0-2.579,2.582V6.456h29.658V2.582A2.581,2.581,0,0,0-436.788,0" transform="translate(472.188 3.167)" fill="#ffce69"/>
      <path id="Path_3223" data-name="Path 3223" d="M-28.876,0h-1.79a2.581,2.581,0,0,1,2.579,2.582V6.456h1.79V2.582A2.581,2.581,0,0,0-28.876,0" transform="translate(64.277 3.167)" fill="#ffbd61"/>
      <path id="Path_3224" data-name="Path 3224" d="M0-62.393A1.29,1.29,0,0,0,1.29-61.1a1.29,1.29,0,0,0,1.29-1.291v-2.582a1.29,1.29,0,0,0-1.29-1.291A1.29,1.29,0,0,0,0-64.975Z" transform="translate(12.19 66.851)" fill="#bdd3dd"/>
      <path id="Path_3225" data-name="Path 3225" d="M0-62.393A1.29,1.29,0,0,0,1.29-61.1a1.29,1.29,0,0,0,1.29-1.291v-2.582a1.29,1.29,0,0,0-1.29-1.291A1.29,1.29,0,0,0,0-64.975Z" transform="translate(31.532 66.851)" fill="#bdd3dd"/>
      <path id="Path_3226" data-name="Path 3226" d="M0-62.393A1.29,1.29,0,0,0,1.29-61.1a1.29,1.29,0,0,0,1.29-1.291v-2.582a1.29,1.29,0,0,0-1.29-1.291A1.29,1.29,0,0,0,0-64.975Z" transform="translate(18.638 66.851)" fill="#bdd3dd"/>
      <path id="Path_3227" data-name="Path 3227" d="M0-62.393A1.29,1.29,0,0,0,1.29-61.1a1.29,1.29,0,0,0,1.29-1.291v-2.582a1.29,1.29,0,0,0-1.29-1.291A1.29,1.29,0,0,0,0-64.975Z" transform="translate(25.085 66.851)" fill="#bdd3dd"/>
      <path id="Path_3228" data-name="Path 3228" d="M-14.438,0a1.283,1.283,0,0,0-.9.363,1.288,1.288,0,0,1,.394.928V3.874a1.287,1.287,0,0,1-.394.928,1.283,1.283,0,0,0,.9.363,1.29,1.29,0,0,0,1.29-1.291V1.291A1.29,1.29,0,0,0-14.438,0" transform="translate(47.26 0.585)" fill="#abc4d6"/>
      <path id="Path_3229" data-name="Path 3229" d="M-14.438,0a1.284,1.284,0,0,0-.9.363,1.287,1.287,0,0,1,.394.928V3.874a1.287,1.287,0,0,1-.394.928,1.283,1.283,0,0,0,.9.363,1.29,1.29,0,0,0,1.29-1.291V1.291A1.29,1.29,0,0,0-14.438,0" transform="translate(40.813 0.585)" fill="#abc4d6"/>
      <path id="Path_3230" data-name="Path 3230" d="M-14.438,0a1.283,1.283,0,0,0-.9.363,1.288,1.288,0,0,1,.394.928V3.874a1.287,1.287,0,0,1-.394.928,1.283,1.283,0,0,0,.9.363,1.29,1.29,0,0,0,1.29-1.291V1.291A1.29,1.29,0,0,0-14.438,0" transform="translate(34.365 0.585)" fill="#abc4d6"/>
      <path id="Path_3231" data-name="Path 3231" d="M-14.438,0a1.283,1.283,0,0,0-.9.363,1.287,1.287,0,0,1,.394.928V3.874a1.287,1.287,0,0,1-.394.928,1.283,1.283,0,0,0,.9.363,1.29,1.29,0,0,0,1.29-1.291V1.291A1.29,1.29,0,0,0-14.438,0" transform="translate(27.918 0.585)" fill="#abc4d6"/>
      <path id="Path_3232" data-name="Path 3232" d="M-196.92-255.729l-11.831-11.846a1.292,1.292,0,0,1,0-1.826l1.824-1.826a1.288,1.288,0,0,1,1.824,0l11.831,11.846v3.652Z" transform="translate(211 290.264)" fill="none" stroke="#000" stroke-linecap="round" stroke-linejoin="round" stroke-miterlimit="10" stroke-width="1"/>
      <path id="Path_3233" data-name="Path 3233" d="M0,0,.912.913" transform="translate(17.728 34.535)" fill="none" stroke="#000" stroke-linecap="round" stroke-linejoin="round" stroke-miterlimit="10" stroke-width="1"/>
      <path id="Path_3234" data-name="Path 3234" d="M-58.83,0l-3.647,3.652" transform="translate(66.551 20.863)" fill="none" stroke="#000" stroke-linecap="round" stroke-linejoin="round" stroke-miterlimit="10" stroke-width="1"/>
      <path id="Path_3235" data-name="Path 3235" d="M-58.83,0l-3.647,3.652" transform="translate(76.558 30.883)" fill="none" stroke="#000" stroke-linecap="round" stroke-linejoin="round" stroke-miterlimit="10" stroke-width="1"/>
      <path id="Path_3236" data-name="Path 3236" d="M0,0,10.007,10.02" transform="translate(5.897 22.689)" fill="none" stroke="#000" stroke-linecap="round" stroke-linejoin="round" stroke-miterlimit="10" stroke-width="1"/>
      <path id="Path_3237" data-name="Path 3237" d="M-62.4-177.618v-8.445a2.581,2.581,0,0,0-2.579-2.582h-1.29" transform="translate(100.378 191.812)" fill="none" stroke="#000" stroke-linecap="round" stroke-linejoin="round" stroke-miterlimit="10" stroke-width="1"/>
      <path id="Path_3238" data-name="Path 3238" d="M0-367.053H2.307a2.581,2.581,0,0,0,2.579-2.582V-389.84" transform="translate(33.094 406.372)" fill="none" stroke="#000" stroke-linecap="round" stroke-linejoin="round" stroke-miterlimit="10" stroke-width="1"/>
      <path id="Path_3239" data-name="Path 3239" d="M0,0V7.868A2.581,2.581,0,0,0,2.579,10.45H22.438" transform="translate(8.322 28.869)" fill="none" stroke="#000" stroke-linecap="round" stroke-linejoin="round" stroke-miterlimit="10" stroke-width="1"/>
      <path id="Path_3240" data-name="Path 3240" d="M-62.4,0h-1.29a2.581,2.581,0,0,0-2.579,2.582V18.2" transform="translate(74.589 3.167)" fill="none" stroke="#000" stroke-linecap="round" stroke-linejoin="round" stroke-miterlimit="10" stroke-width="1"/>
      <path id="Path_3241" data-name="Path 3241" d="M-62.4,0h-3.868" transform="translate(81.036 3.167)" fill="none" stroke="#000" stroke-linecap="round" stroke-linejoin="round" stroke-miterlimit="10" stroke-width="1"/>
      <path id="Path_3242" data-name="Path 3242" d="M-62.4,0h-3.869" transform="translate(87.484 3.167)" fill="none" stroke="#000" stroke-linecap="round" stroke-linejoin="round" stroke-miterlimit="10" stroke-width="1"/>
      <path id="Path_3243" data-name="Path 3243" d="M-62.181,0h-3.855" transform="translate(93.713 3.167)" fill="none" stroke="#000" stroke-linecap="round" stroke-linejoin="round" stroke-miterlimit="10" stroke-width="1"/>
      <path id="Path_3244" data-name="Path 3244" d="M0,0H29.658" transform="translate(8.322 9.623)" fill="none" stroke="#000" stroke-linecap="round" stroke-linejoin="round" stroke-miterlimit="10" stroke-width="1"/>
      <path id="Path_3245" data-name="Path 3245" d="M0,0H20.632" transform="translate(12.835 13.496)" fill="none" stroke="#000" stroke-linecap="round" stroke-linejoin="round" stroke-miterlimit="10" stroke-width="1"/>
      <path id="Path_3246" data-name="Path 3246" d="M0,0H20.632" transform="translate(12.835 17.37)" fill="none" stroke="#000" stroke-linecap="round" stroke-linejoin="round" stroke-miterlimit="10" stroke-width="1"/>
      <path id="Path_3247" data-name="Path 3247" d="M0,0H20.632" transform="translate(12.835 21.243)" fill="none" stroke="#000" stroke-linecap="round" stroke-linejoin="round" stroke-miterlimit="10" stroke-width="1"/>
      <path id="Path_3248" data-name="Path 3248" d="M0,0H20.632" transform="translate(12.835 25.117)" fill="none" stroke="#000" stroke-linecap="round" stroke-linejoin="round" stroke-miterlimit="10" stroke-width="1"/>
      <path id="Path_3249" data-name="Path 3249" d="M0,0H13.54" transform="translate(19.927 28.99)" fill="none" stroke="#000" stroke-linecap="round" stroke-linejoin="round" stroke-miterlimit="10" stroke-width="1"/>
      <path id="Path_3250" data-name="Path 3250" d="M0-62.393A1.29,1.29,0,0,0,1.29-61.1a1.29,1.29,0,0,0,1.29-1.291v-2.582a1.29,1.29,0,0,0-1.29-1.291A1.29,1.29,0,0,0,0-64.975Z" transform="translate(12.19 66.851)" fill="none" stroke="#000" stroke-linecap="round" stroke-linejoin="round" stroke-miterlimit="10" stroke-width="1"/>
      <path id="Path_3251" data-name="Path 3251" d="M0-62.393A1.29,1.29,0,0,0,1.29-61.1a1.29,1.29,0,0,0,1.29-1.291v-2.582a1.29,1.29,0,0,0-1.29-1.291A1.29,1.29,0,0,0,0-64.975Z" transform="translate(31.532 66.851)" fill="none" stroke="#000" stroke-linecap="round" stroke-linejoin="round" stroke-miterlimit="10" stroke-width="1"/>
      <path id="Path_3252" data-name="Path 3252" d="M0-62.393A1.29,1.29,0,0,0,1.29-61.1a1.29,1.29,0,0,0,1.29-1.291v-2.582a1.29,1.29,0,0,0-1.29-1.291A1.29,1.29,0,0,0,0-64.975Z" transform="translate(18.638 66.851)" fill="none" stroke="#000" stroke-linecap="round" stroke-linejoin="round" stroke-miterlimit="10" stroke-width="1"/>
      <path id="Path_3253" data-name="Path 3253" d="M0-62.393A1.29,1.29,0,0,0,1.29-61.1a1.29,1.29,0,0,0,1.29-1.291v-2.582a1.29,1.29,0,0,0-1.29-1.291A1.29,1.29,0,0,0,0-64.975Z" transform="translate(25.085 66.851)" fill="none" stroke="#000" stroke-linecap="round" stroke-linejoin="round" stroke-miterlimit="10" stroke-width="1"/>
    </g>
  </g>
</svg>
