<svg xmlns="http://www.w3.org/2000/svg" width="35.7" height="37.228" viewBox="0 0 35.7 37.228">
  <g id="restaurant" transform="translate(-10.505)">
    <path id="Path_3396" data-name="Path 3396" d="M18.728,265.111a.727.727,0,0,1-.727-.727V256.13a4.526,4.526,0,0,1,3.089-4.289l1.438-.483,1.43-.139.9-.644,2.793-.937a1.509,1.509,0,0,0,1.03-1.43v-2.456h6.728v2.456c0,.648.279,1.84.894,2.047l2.928.32L43,251.841a4.526,4.526,0,0,1,3.089,4.289v8.254a.727.727,0,0,1-.727.727h-3.8l-9.519-1.091-9.519,1.091Z" transform="translate(-6.951 -227.883)" fill="#f8f5f9"/>
    <path id="Path_3397" data-name="Path 3397" d="M246.052,297.493l6.24,2.095a4.526,4.526,0,0,1,3.089,4.289v7.89h1.454a.727.727,0,0,0,.727-.727v-8.254a4.526,4.526,0,0,0-3.089-4.289l-6.564-2.2a1.511,1.511,0,0,1-.431-.227Z" transform="translate(-218.42 -274.539)" fill="#dbd9ec"/>
    <path id="Path_3398" data-name="Path 3398" d="M150.755,249.638a1.509,1.509,0,0,0,1.03-1.43v-2.456h5.637v2.456c0,.648,1.505,1.223,2.12,1.43l-4.393,3.137Z" transform="translate(-130.052 -227.883)" fill="#f1ccbd"/>
    <path id="Path_3399" data-name="Path 3399" d="M229.623,248.208v-2.456h-2.181V249.3a1.509,1.509,0,0,0,1.03,1.43l.445.149,1.737-1.24a1.526,1.526,0,0,1-.866-.747A1.5,1.5,0,0,1,229.623,248.208Z" transform="translate(-201.163 -227.883)" fill="#eaad9c"/>
    <g id="Group_4548" data-name="Group 4548" transform="translate(20.037 21.527)">
      <path id="Path_3400" data-name="Path 3400" d="M143.468,298.38a.545.545,0,0,0,.771-.771l-1.546-1.546a1.512,1.512,0,0,1-.428.225l-.666.223Zm6.016.135a.544.544,0,0,0,.386-.16l1.845-1.845-.662-.222a1.509,1.509,0,0,1-.431-.228l-1.524,1.524a.545.545,0,0,0,.386.931Z" transform="translate(-141.6 -296.061)" fill="#e2dfe3"/>
    </g>
    <path id="Path_3401" data-name="Path 3401" d="M80.263,326.624v-4.988a1.459,1.459,0,0,1,.248-.812,6.855,6.855,0,0,0,1.152-3.361,6.979,6.979,0,0,0-1.4-4.592l2.333-.783.191.606a23.563,23.563,0,0,0,7,10.7,23.562,23.562,0,0,0,7-10.7l.191-.606,2.333.783a6.979,6.979,0,0,0-1.4,4.592,6.855,6.855,0,0,0,1.152,3.361,1.459,1.459,0,0,1,.248.812v4.988Z" transform="translate(-64.686 -289.396)" fill="#4f6d8f"/>
    <path id="Path_3402" data-name="Path 3402" d="M115.258,15.095l13.949,1.091V10.717A3.221,3.221,0,0,0,125.982,7.5h-7.5a3.221,3.221,0,0,0-3.225,3.217v4.378Z" transform="translate(-97.136 -6.955)" fill="#c6855b"/>
    <path id="Path_3403" data-name="Path 3403" d="M234.931,7.5H232.75a3.221,3.221,0,0,1,3.225,3.217v5.3l2.181.171V10.717A3.221,3.221,0,0,0,234.931,7.5Z" transform="translate(-206.086 -6.955)" fill="#c17e4e"/>
    <path id="Path_3404" data-name="Path 3404" d="M129.689,89.4h-.481V86.711h.481a1.346,1.346,0,1,1,0,2.693ZM122.3,97.137a6.524,6.524,0,0,0,3.255-.458,6.955,6.955,0,0,0,3.65-6.119V85.239A14.124,14.124,0,0,1,120,83.188a.289.289,0,0,0-.348.03,7.973,7.973,0,0,1-4.389,2.02V90.56a6.954,6.954,0,0,0,3.611,6.1A9.439,9.439,0,0,0,122.3,97.137Z" transform="translate(-97.137 -77.098)" fill="#f1ccbd"/>
    <path id="Path_3405" data-name="Path 3405" d="M173.074,112.05v5.227a6.137,6.137,0,0,1-8.157,6.1,7.171,7.171,0,0,0,2.7.83c.23.022.451.031.661.031a6.966,6.966,0,0,0,6.974-6.958v-5.322A14.3,14.3,0,0,1,173.074,112.05Z" transform="translate(-143.185 -103.815)" fill="#eaad9c"/>
    <path id="Path_3406" data-name="Path 3406" d="M160.474,159.8a.545.545,0,0,1-.545-.545v-1.123a.545.545,0,1,1,1.091,0v1.123A.545.545,0,0,1,160.474,159.8Zm6.362,0a.545.545,0,0,1-.545-.545v-1.123a.545.545,0,1,1,1.091,0v1.123A.545.545,0,0,1,166.837,159.8Z" transform="translate(-138.559 -146.129)" fill="#455e7e"/>
    <path id="Path_3407" data-name="Path 3407" d="M98.929,139.884h-.08a2.243,2.243,0,0,1-1.218-.413.545.545,0,1,1,.63-.89,1.15,1.15,0,0,0,1.337,0,.545.545,0,1,1,.63.891A2.271,2.271,0,0,1,98.929,139.884ZM91.474,134.9h.481V132.2h-.481a1.346,1.346,0,1,0,0,2.693Z" transform="translate(-73.834 -122.59)" fill="#eaad9c"/>
    <path id="Path_3408" data-name="Path 3408" d="M203.68,460.78V464.5h1.091V460.78q-.269.25-.545.491Q203.949,461.03,203.68,460.78Z" transform="translate(-179.129 -427.277)" fill="#455e7e"/>
    <path id="Path_3409" data-name="Path 3409" d="M169.375,316.5l2.906.945a.284.284,0,0,0,.372-.27v-2.416a.284.284,0,0,0-.372-.27l-2.906.945-2.906-.945a.284.284,0,0,0-.372.27v2.416a.284.284,0,0,0,.372.27Z" transform="translate(-144.279 -291.608)" fill="#4f6d8f"/>
    <circle id="Ellipse_2207" data-name="Ellipse 2207" cx="1.244" cy="1.244" r="1.244" transform="translate(23.852 23.114)" fill="#455e7e"/>
    <g id="Group_4549" data-name="Group 4549" transform="translate(24.551 26.794)">
      <circle id="Ellipse_2208" data-name="Ellipse 2208" cx="0.545" cy="0.545" r="0.545" fill="#e2dfe3"/>
      <circle id="Ellipse_2209" data-name="Ellipse 2209" cx="0.545" cy="0.545" r="0.545" transform="translate(0 2.181)" fill="#e2dfe3"/>
      <circle id="Ellipse_2210" data-name="Ellipse 2210" cx="0.545" cy="0.545" r="0.545" transform="translate(0 4.363)" fill="#e2dfe3"/>
    </g>
    <path id="Path_3410" data-name="Path 3410" d="M250.889,399.863h16.34a.693.693,0,0,0,.693-.693v-1.584a.693.693,0,0,0-.693-.693h-16.34a.693.693,0,0,0-.693.693v1.584A.693.693,0,0,0,250.889,399.863Z" transform="translate(-222.263 -368.034)" fill="#cfcce3"/>
    <path id="Path_3411" data-name="Path 3411" d="M456.642,396.891h-2.181a.693.693,0,0,1,.693.693v1.585a.693.693,0,0,1-.693.693h2.181a.693.693,0,0,0,.693-.693v-1.585A.693.693,0,0,0,456.642,396.891Z" transform="translate(-411.676 -368.033)" fill="#bab4dc"/>
    <circle id="Ellipse_2211" data-name="Ellipse 2211" cx="1.684" cy="1.684" r="1.684" transform="translate(35.113 19.004)" fill="#dbd8ea"/>
    <path id="Path_3412" data-name="Path 3412" d="M278,294.741a7.378,7.378,0,0,1,7.378,7.378v.049H270.626v-.049A7.378,7.378,0,0,1,278,294.741Z" transform="translate(-241.208 -273.31)" fill="#dbd8ea"/>
    <path id="Path_3413" data-name="Path 3413" d="M358.186,294.741a7.429,7.429,0,0,0-1.091.08,7.379,7.379,0,0,1,6.287,7.3v.049h2.181v-.049A7.378,7.378,0,0,0,358.186,294.741Z" transform="translate(-321.389 -273.31)" fill="#cfcce3"/>
    <path id="Path_3414" data-name="Path 3414" d="M335.753,426.095h2.957a1.256,1.256,0,0,0,1.256-1.256v-1.416a.5.5,0,0,0-.5-.5H335a.5.5,0,0,0-.5.5v1.416A1.255,1.255,0,0,0,335.753,426.095Z" transform="translate(-300.434 -392.169)" fill="#f1ccbd"/>
    <path id="Path_3415" data-name="Path 3415" d="M365.359,422.92h-2.181a.5.5,0,0,1,.5.5v1.416a1.256,1.256,0,0,1-1.256,1.256h2.181a1.256,1.256,0,0,0,1.256-1.256v-1.416a.5.5,0,0,0-.5-.5Z" transform="translate(-326.332 -392.169)" fill="#eaad9c"/>
    <path id="Path_3416" data-name="Path 3416" d="M28.277,13.672a.545.545,0,0,0,.545-.545V12a.545.545,0,0,0-1.091,0v1.123A.545.545,0,0,0,28.277,13.672ZM25.1,31.156a.545.545,0,1,0,.545.545.545.545,0,0,0-.545-.545Zm19.871-2.844H44.7A7.9,7.9,0,0,0,43.571,24.7a.545.545,0,0,0-.932.567,6.812,6.812,0,0,1,.972,3.048H29.982A6.842,6.842,0,0,1,36.8,21.976a6.758,6.758,0,0,1,4.266,1.495.545.545,0,1,0,.682-.852,7.925,7.925,0,0,0-2.777-1.428,2.229,2.229,0,1,0-4.341,0,7.886,7.886,0,0,0-2.16.99l-2.8-.941a.962.962,0,0,1-.658-.913V19.87a7.5,7.5,0,0,0,3.61-6.408v-.613a1.891,1.891,0,0,0,0-3.78V3.763A3.771,3.771,0,0,0,28.846,0h-7.5a3.771,3.771,0,0,0-3.77,3.763V9.069a1.891,1.891,0,0,0,0,3.78v.613a7.5,7.5,0,0,0,3.611,6.408v.455a.963.963,0,0,1-.658.913l-6.563,2.2A5.066,5.066,0,0,0,10.5,28.247v8.436a.545.545,0,0,0,1.091,0V28.246a3.977,3.977,0,0,1,2.717-3.771l1.053-.354a6.422,6.422,0,0,1,1.067,3.911,6.32,6.32,0,0,1-1.06,3.091,1.994,1.994,0,0,0-.341,1.117v4.442a.545.545,0,1,0,1.091,0V32.24a.908.908,0,0,1,.156-.509A7.414,7.414,0,0,0,17.521,28.1a7.49,7.49,0,0,0-1.092-4.338l1.127-.378a24.1,24.1,0,0,0,6.994,10.855v2.442a.545.545,0,0,0,1.091,0V34.24A24.222,24.222,0,0,0,27.8,32.056a1.232,1.232,0,0,0,.826.318h4.891v.3a1.8,1.8,0,0,0,.553,1.3v2.716a.545.545,0,0,0,1.091,0V34.463c.238.023,3.332,0,3.436-.022v2.241a.545.545,0,0,0,1.091,0v-2.9a1.792,1.792,0,0,0,.388-1.115v-.3h4.891a1.24,1.24,0,0,0,1.238-1.238V29.552a1.24,1.24,0,0,0-1.238-1.239ZM36.8,19.55a1.137,1.137,0,0,1,1.1,1.415,7.817,7.817,0,0,0-2.207,0,1.137,1.137,0,0,1,1.1-1.413Zm-4.18-9.389a.8.8,0,0,1,0,1.6Zm-15.039,1.6a.8.8,0,0,1,0-1.6Zm1.091,1.7V8.608a8.509,8.509,0,0,0,2.3-.77,8.522,8.522,0,0,0,1.766-1.185,14.736,14.736,0,0,0,2.544,1.229.545.545,0,1,0,.378-1.023,13.654,13.654,0,0,1-2.506-1.231.837.837,0,0,0-1,.089,7.431,7.431,0,0,1-1.667,1.147,7.413,7.413,0,0,1-1.809.633V3.762a2.679,2.679,0,0,1,2.679-2.672h7.5a2.679,2.679,0,0,1,2.679,2.672V7.648a13.649,13.649,0,0,1-3.49-.149.545.545,0,1,0-.186,1.075,14.741,14.741,0,0,0,3.676.169v4.719a6.429,6.429,0,0,1-12.858,0Zm8.142,10.38,1.02-.332v1.7l-1.02-.332a1.784,1.784,0,0,0,0-1.033Zm-.663-.931a1.784,1.784,0,0,0-2.1,0l-1.687-.549a.829.829,0,0,0-.419-.023l-.422-.422a2.048,2.048,0,0,0,.756-1.5,7.529,7.529,0,0,0,5.645,0,2.048,2.048,0,0,0,.753,1.5l-.423.423a.829.829,0,0,0-.415.024Zm-.351,1.448a.7.7,0,1,1-.7-.7A.7.7,0,0,1,25.795,24.358Zm-2.412.517-1.02.332v-1.7l1.02.332a1.786,1.786,0,0,0,0,1.033Zm4,4.677v1.3a23.046,23.046,0,0,1-2.292,2.41,23.015,23.015,0,0,1-6.5-10.226l1.877-.63.805.805v2.352a.83.83,0,0,0,1.086.789l1.687-.549a1.784,1.784,0,0,0,2.1,0l1.687.549a.83.83,0,0,0,1.086-.789V23.208l.8-.8,1.713.575a7.907,7.907,0,0,0-2.545,5.33h-.263A1.24,1.24,0,0,0,27.388,29.552Zm11.6,3.118a.711.711,0,0,1-.71.71H35.318a.711.711,0,0,1-.71-.71V31.3h4.377V32.67Zm6.13-1.534a.148.148,0,0,1-.148.148H40.075a1.051,1.051,0,0,0-1.049-1.078H34.566a1.052,1.052,0,0,0-1.049,1.078H28.626a.148.148,0,0,1-.148-.148V29.552a.148.148,0,0,1,.148-.148H44.967a.148.148,0,0,1,.148.148v1.584ZM25.1,28.975a.545.545,0,1,0,.545.545.545.545,0,0,0-.545-.545ZM21.915,11.458A.545.545,0,0,0,21.37,12v1.123a.545.545,0,0,0,1.091,0V12a.545.545,0,0,0-.545-.545ZM25.1,26.794a.545.545,0,1,0,.545.545.545.545,0,0,0-.545-.545Zm1.429-10.675a.545.545,0,0,0-.76-.131,1.15,1.15,0,0,1-1.337,0,.545.545,0,1,0-.63.89,2.454,2.454,0,0,0,1.3.415,2.272,2.272,0,0,0,1.3-.414.545.545,0,0,0,.131-.76Z"/>
  </g>
</svg>
