<svg id="Group_4463" data-name="Group 4463" xmlns="http://www.w3.org/2000/svg" width="512" height="512" viewBox="0 0 512 512">
  <circle id="Ellipse_2142" data-name="Ellipse 2142" cx="256" cy="256" r="256" fill="#a3d4ff"/>
  <path id="Path_2797" data-name="Path 2797" d="M88.734,344.731,256,512c141.383,0,256-114.616,256-256v-.72l-95.842-96.445Z" fill="#65b1fc"/>
  <path id="Path_2798" data-name="Path 2798" d="M329.852,123.125a121.636,121.636,0,0,0-76.88,27.224,67.745,67.745,0,0,0-108.7,53.959v.005a81.557,81.557,0,0,0,.852,163.109H329.853a122.149,122.149,0,0,0,0-244.3Z" fill="#7584f2"/>
  <path id="Path_2799" data-name="Path 2799" d="M329.852,367.422a122.148,122.148,0,1,0-76.88-217.072V367.422Z" fill="#606aea"/>
  <path id="Path_2800" data-name="Path 2800" d="M102.383,312.286l12.209-17.308a40.437,40.437,0,0,0,28.578,11.807c7.916,0,12.748-3.086,12.748-7.379,0-12.21-50.717-2.415-50.717-36.9,0-15.027,12.746-28.444,35.689-28.444,14.355,0,26.834,4.293,36.359,12.478l-12.611,16.5a42.134,42.134,0,0,0-26.164-9.258c-6.709,0-9.66,2.684-9.66,6.44,0,11.4,50.582,3.086,50.582,36.36,0,17.979-13.283,29.92-37.3,29.92-18.113,0-30.724-5.635-39.714-14.222ZM227.828,324.9v-6.44c-4.025,4.831-11.807,8.05-20.125,8.05-9.93,0-22.273-6.708-22.273-21.333,0-15.7,12.344-20.8,22.273-20.8,8.586,0,16.234,2.684,20.125,7.514V284.11c0-5.635-4.83-9.392-13.148-9.392a28.911,28.911,0,0,0-18.383,6.843l-7.379-13.015c8.318-7.111,19.455-10.063,29.383-10.063,15.564,0,30.189,5.77,30.189,25.895V324.9H227.828Zm0-16.637v-5.769c-2.146-2.952-6.977-4.562-11.539-4.562-5.5,0-10.33,2.415-10.33,7.514s4.83,7.513,10.33,7.513c4.563,0,9.393-1.61,11.539-4.7Z" fill="#fff"/>
  <g id="Group_4462" data-name="Group 4462">
    <path id="Path_2801" data-name="Path 2801" d="M301.752,324.9v-6.44c-4.025,4.831-11.807,8.05-20.125,8.05-9.928,0-22.272-6.708-22.272-21.333,0-15.7,12.344-20.8,22.272-20.8,8.588,0,16.234,2.684,20.125,7.514V284.11c0-5.635-4.83-9.392-13.149-9.392a28.906,28.906,0,0,0-18.381,6.843l-7.379-13.015c8.318-7.111,19.455-10.063,29.383-10.063,15.564,0,30.188,5.77,30.188,25.895V324.9H301.752Zm0-16.637v-5.769c-2.147-2.952-6.977-4.562-11.537-4.562-5.5,0-10.332,2.415-10.332,7.514s4.83,7.513,10.332,7.513c4.56,0,9.39-1.61,11.537-4.7Zm29.783,4.026,12.209-17.308a40.433,40.433,0,0,0,28.578,11.807c7.916,0,12.746-3.086,12.746-7.379,0-12.21-50.717-2.415-50.717-36.9,0-15.027,12.746-28.444,35.689-28.444,14.357,0,26.834,4.293,36.361,12.478l-12.613,16.5a42.129,42.129,0,0,0-26.162-9.258c-6.709,0-9.66,2.684-9.66,6.44,0,11.4,50.582,3.086,50.582,36.36,0,17.979-13.283,29.92-37.3,29.92C353.137,326.507,340.523,320.873,331.535,312.286Z" fill="#e9edf5"/>
  </g>
</svg>
