<svg id="Group_4490" data-name="Group 4490" xmlns="http://www.w3.org/2000/svg" width="461.059" height="512" viewBox="0 0 461.059 512">
  <path id="Path_3057" data-name="Path 3057" d="M300.453,396.992H232.324V159.168a27.178,27.178,0,0,1,27.18-27.176h13.773a27.177,27.177,0,0,1,27.176,27.176Zm0,0" fill="#abebf4"/>
  <path id="Path_3058" data-name="Path 3058" d="M300.453,280.984a370.448,370.448,0,0,1-68.129,24.27v91.738h68.13Zm0,0" fill="#8ed7e8"/>
  <path id="Path_3059" data-name="Path 3059" d="M202.73,396.992H134.6V219.2a23.7,23.7,0,0,1,23.7-23.7h20.734a23.7,23.7,0,0,1,23.7,23.7Zm0,0" fill="#b2e59c"/>
  <path id="Path_3060" data-name="Path 3060" d="M398.176,359.012H330.05V84.586a27,27,0,0,1,27-27h14.117a27,27,0,0,1,27,27Zm0,0" fill="#ffde55"/>
  <path id="Path_3061" data-name="Path 3061" d="M398.176,217.473a444.094,444.094,0,0,1-68.13,48.136v93.4h68.13Zm0,0" fill="#ffcd00"/>
  <path id="Path_3062" data-name="Path 3062" d="M104.559,310.363l136.98-72.71c17.1-9.079,37.063,5.835,33.2,24.8-2.828,13.867-9.265,28.5-22.718,39.395l-14.043,11.375a9.528,9.528,0,0,0,5.992,16.93l56.3.023a89.088,89.088,0,0,0,51.29-16.22l62.914-44.241a29.575,29.575,0,0,1,35.789,47.043l-82.41,67.715a89.11,89.11,0,0,1-35.375,17.7L151.84,446.4Zm0,0" fill="#ffe2d9"/>
  <path id="Path_3063" data-name="Path 3063" d="M180.445,381.77c-51.879-15.227-48.011-86.2-48.011-86.2l-27.875,14.8L151.844,446.4l137.683-33.712c-29.011-8.058-75.68-21.12-109.082-30.921Zm0,0" fill="#ffcfc2"/>
  <path id="Path_3064" data-name="Path 3064" d="M104.559,310.363l51.183,136.606a39.9,39.9,0,0,1-28.531,52.914L78.26,511A39.9,39.9,0,0,1,30.8,482.125L4.44,380.7a41.107,41.107,0,0,1,28.489-49.863Zm0,0" fill="#8ed7e8"/>
  <path id="Path_3065" data-name="Path 3065" d="M155.742,446.969l-7.98-21.3c-20.469-9.539-42.649-11.434-60.543-10.715a40.038,40.038,0,0,1-41.793-41.234,276.1,276.1,0,0,1,6.183-48.223l-18.68,5.34A41.108,41.108,0,0,0,4.441,380.7l26.364,101.43A39.9,39.9,0,0,0,78.262,511l48.949-11.117a39.9,39.9,0,0,0,28.531-52.914Zm0,0" fill="#7ac1dd"/>
  <path id="Path_3066" data-name="Path 3066" d="M111.191,454.625A22.714,22.714,0,1,1,88.477,431.91a22.712,22.712,0,0,1,22.714,22.715Zm0,0" fill="#ffeb99"/>
  <path id="Path_3067" data-name="Path 3067" d="M282.809,0H221.023a16.041,16.041,0,0,0,0,32.082h21.988L178.574,94.109l-30.55-15.8a16.05,16.05,0,0,0-18.758,2.949L4.656,206.824a16.043,16.043,0,1,0,22.774,22.6L143.746,112.219l30.3,15.672a16.041,16.041,0,0,0,18.5-2.692L266.766,53.75V78.371a16.043,16.043,0,0,0,32.086,0V16.043c0-.02,0-.035,0-.05,0-12.849-9.5-15.993-16.04-15.993Zm0,0" fill="#97f7e5"/>
</svg>
