<svg xmlns="http://www.w3.org/2000/svg" width="46.235" height="36.875" viewBox="0 0 46.235 36.875">
  <g id="Secure_" data-name="Secure " transform="translate(-0.793 -1.918)">
    <path id="Path_7981" data-name="Path 7981" d="M4.1,1.918A3.328,3.328,0,0,0,.793,5.229V30.535A3.328,3.328,0,0,0,4.1,33.842H24.6v1.652a3.315,3.315,0,0,0,3.3,3.3h9.639a3.311,3.311,0,0,0,3.295-3.3V33.842h2.9a3.322,3.322,0,0,0,3.3-3.307V5.229a3.32,3.32,0,0,0-3.3-3.311Zm0,2.2H43.729a1.076,1.076,0,0,1,1.1,1.107v4.946H3V5.225A1.082,1.082,0,0,1,4.1,4.123ZM3,12.376H44.827V30.535a1.073,1.073,0,0,1-1.1,1.107h-2.9v-3.42A3.307,3.307,0,0,0,38.5,25.081V23.1a5.774,5.774,0,0,0-11.548,0v1.98a3.305,3.305,0,0,0-2.342,3.141v3.42H4.109A1.082,1.082,0,0,1,3,30.535Zm29.719,7.159A3.536,3.536,0,0,1,36.295,23.1v1.822H29.135V23.1a3.544,3.544,0,0,1,3.582-3.565ZM8.506,21.183a1.1,1.1,0,0,0,0,2.2h11a1.1,1.1,0,1,0,0-2.2Zm0,5.5a1.1,1.1,0,0,0,0,2.2h7.7a1.1,1.1,0,0,0,0-2.2Zm19.394.441h9.639a1.071,1.071,0,0,1,1.094,1.1v7.272a1.069,1.069,0,0,1-1.094,1.1H27.9a1.073,1.073,0,0,1-1.107-1.1l.012-7.272a1,1,0,0,1,1.094-1.1Zm4.817,1.984a1.1,1.1,0,0,0-1.1,1.1v3.295a1.1,1.1,0,1,0,2.2,0V30.211a1.1,1.1,0,0,0-1.1-1.1Z" transform="translate(0 0)" fill="#fff"/>
  </g>
</svg>
