<svg xmlns="http://www.w3.org/2000/svg" width="45.29" height="45.296" viewBox="0 0 45.29 45.296">
  <g id="Social" transform="translate(0.001 0.008)">
    <g id="Group_4907" data-name="Group 4907" transform="translate(-0.001 -0.008)">
      <path id="Path_7952" data-name="Path 7952" d="M15.96,14.618,4.9,18.891A9.919,9.919,0,0,1,1.976,6.719a10.193,10.193,0,0,1,11.4-5.483,10.041,10.041,0,0,1,7.923,9.77,8.532,8.532,0,0,1-.055,1.009Zm13.93,28.91a9.918,9.918,0,0,1-3.849-8.892l9.073-8.946a8.9,8.9,0,0,1,1.023-.054,10.141,10.141,0,0,1,9.591,6.751,9.925,9.925,0,0,1-3.344,11.142Z" transform="translate(-0.999 -0.992)" fill="#f29c1f"/>
      <path id="Path_7953" data-name="Path 7953" d="M42.68,38.01A5.914,5.914,0,0,1,46,37a5.988,5.988,0,1,1-5.57,3.76Z" transform="translate(-13.71 -10.936)" fill="#fdd7ad"/>
      <path id="Path_7954" data-name="Path 7954" d="M54,55v1.24A12.847,12.847,0,0,1,51,58a13.032,13.032,0,0,1-10,0,12.847,12.847,0,0,1-3-1.76V55a6,6,0,0,1,6-6h4A6,6,0,0,1,54,55Z" transform="translate(-13.71 -13.704)" fill="#955ba5"/>
      <path id="Path_7955" data-name="Path 7955" d="M43,55v3.65A12.3,12.3,0,0,1,41,58V55a1,1,0,0,1,2,0Zm8,0v3a12.3,12.3,0,0,1-2,.65V55a1,1,0,0,1,2,0Z" transform="translate(-13.71 -13.704)" fill="#894b9d"/>
      <path id="Path_7956" data-name="Path 7956" d="M32.289,23.644a8.941,8.941,0,0,1-.179,1.769,8.677,8.677,0,0,1-6.7,6.7,8.942,8.942,0,0,1-1.769.179A8.647,8.647,0,0,1,15,23.644a8.939,8.939,0,0,1,.179-1.769,8.677,8.677,0,0,1,6.7-6.7A8.943,8.943,0,0,1,23.645,15,8.647,8.647,0,0,1,32.289,23.644Z" transform="translate(-0.999 -0.992)" fill="#4fba6f"/>
      <path id="Path_7957" data-name="Path 7957" d="M20.16,18.69a14.985,14.985,0,0,0-4.85,8.24A12.9,12.9,0,0,1,11,26.65,12.3,12.3,0,0,1,9,26a12.847,12.847,0,0,1-3-1.76V23a6,6,0,0,1,6-6h4a5.916,5.916,0,0,1,4.16,1.69Z" transform="translate(-0.999 -5.23)" fill="#3b97d3"/>
      <path id="Path_7958" data-name="Path 7958" d="M11,23v3.65A12.3,12.3,0,0,1,9,26V23a1,1,0,0,1,2,0Z" transform="translate(-0.999 -5.997)" fill="#2980ba"/>
      <path id="Path_7959" data-name="Path 7959" d="M27.063,3.371,28.1,2.333a.781.781,0,1,0-1.1-1.1L24.654,3.571a.781.781,0,0,0,0,1.1L27,7.018a.781.781,0,1,0,1.1-1.1l-.971-.971a18.763,18.763,0,0,1,17.6,18.7.781.781,0,0,0,1.562,0A20.327,20.327,0,0,0,27.063,3.371Zm-6.77,36.9a.781.781,0,1,0-1.1,1.1l.971.971a18.763,18.763,0,0,1-17.6-18.7.781.781,0,0,0-1.562,0A20.327,20.327,0,0,0,20.227,43.916l-1.039,1.038a.781.781,0,1,0,1.1,1.1l2.342-2.343a.781.781,0,0,0,0-1.1Z" transform="translate(-0.999 -0.992)" fill="#ff5364"/>
      <circle id="Ellipse_2258" data-name="Ellipse 2258" cx="6" cy="6" r="6" transform="translate(7 4)" fill="#fdd7ad"/>
      <path id="Path_7960" data-name="Path 7960" d="M27,35a1,1,0,0,1-.707-.293l-2-2a1,1,0,1,1,1.414-1.414L27,32.586l7.293-7.293a1,1,0,1,1,1.414,1.414l-8,8A1,1,0,0,1,27,35Z" transform="translate(-7.354 -7.349)" fill="#fff"/>
    </g>
  </g>
</svg>
