<svg xmlns="http://www.w3.org/2000/svg" width="629.678" height="629.678" viewBox="0 0 629.678 629.678">
  <g id="Group_4468" data-name="Group 4468" transform="translate(-4 -4)">
    <path id="Path_2854" data-name="Path 2854" d="M502.747,124.442A112.57,112.57,0,0,1,390.3,12H8V416.793H547.724V114.986a111.655,111.655,0,0,1-44.977,9.456Z" transform="translate(40.977 81.954)" fill="#f0f0f0"/>
    <path id="Path_2855" data-name="Path 2855" d="M4,48H633.678V92.977H4Z" transform="translate(0 450.747)" fill="#fab400"/>
    <path id="Path_2856" data-name="Path 2856" d="M4,48H48.977V92.977H4Z" transform="translate(0 450.747)" fill="#dc9600"/>
    <path id="Path_2857" data-name="Path 2857" d="M52.977,416.793H8V12H52.977Z" transform="translate(40.977 81.954)" fill="#d2d2d2"/>
    <path id="Path_2858" data-name="Path 2858" d="M68.977,52,24,141.954H68.977L113.954,52Zm89.954,0,44.977,89.954H158.931L113.954,52Z" transform="translate(204.885 491.724)" fill="#be7800"/>
    <path id="Path_2859" data-name="Path 2859" d="M181.419,48.977H158.931a44.977,44.977,0,0,0-89.954,0H46.488A22.489,22.489,0,0,0,24,71.465V93.954H203.908V71.465A22.489,22.489,0,0,0,181.419,48.977Z" transform="translate(204.885)" fill="#fab400"/>
    <path id="Path_2860" data-name="Path 2860" d="M68.977,48.977H46.488A22.489,22.489,0,0,0,24,71.465V93.954H46.488V71.465A22.489,22.489,0,0,1,68.977,48.977ZM125.2,5.585A44.447,44.447,0,0,0,68.977,48.977H91.465A44.876,44.876,0,0,1,125.2,5.585Z" transform="translate(204.885)" fill="#dc9600"/>
    <path id="Path_2861" data-name="Path 2861" d="M126.442,128.442H238.885A112.442,112.442,0,1,0,126.442,240.885Z" transform="translate(102.442 122.931)" fill="#fa6450"/>
    <path id="Path_2862" data-name="Path 2862" d="M26,115.694A112.555,112.555,0,0,0,113.694,28H26Z" transform="translate(225.373 245.862)" fill="#64c8f0"/>
    <path id="Path_2863" data-name="Path 2863" d="M14,26A112.44,112.44,0,0,0,126.442,138.442V26Z" transform="translate(102.442 225.373)" fill="#fab400"/>
    <path id="Path_2864" data-name="Path 2864" d="M136.442,128.442A112.44,112.44,0,0,0,24,16V128.442Z" transform="translate(204.885 122.931)" fill="#3cc8b4"/>
    <path id="Path_2865" data-name="Path 2865" d="M83.465,38H240.885V60.489H83.465Zm0,44.977H240.885v22.488H83.465ZM60.977,60.489H16V38H60.977Zm0,44.977H16V82.977H60.977Z" transform="translate(122.931 348.304)" fill="#505050"/>
    <path id="Path_2866" data-name="Path 2866" d="M36,26H58.489V138.442H36Z" transform="translate(327.816 225.373)" fill="#fa6450"/>
    <path id="Path_2867" data-name="Path 2867" d="M40,28H62.488v89.954H40Z" transform="translate(368.793 245.862)" fill="#3cc8b4"/>
    <path id="Path_2868" data-name="Path 2868" d="M44,24H66.488V158.931H44Z" transform="translate(409.77 204.885)" fill="#fab400"/>
    <path id="Path_2869" data-name="Path 2869" d="M48,32H70.488V76.977H48Z" transform="translate(450.747 286.839)" fill="#64c8f0"/>
    <path id="Path_2870" data-name="Path 2870" d="M133.954,183.908a89.954,89.954,0,1,1,89.954-89.954A89.954,89.954,0,0,1,133.954,183.908Z" transform="translate(409.77)" fill="#fab400"/>
    <path id="Path_2871" data-name="Path 2871" d="M66.488,93.954A89.916,89.916,0,0,1,145.2,4.776a89.921,89.921,0,1,0-11.244,179.132,90.481,90.481,0,0,0,11.244-.776A89.916,89.916,0,0,1,66.488,93.954Z" transform="translate(409.77 0)" fill="#dc9600"/>
    <path id="Path_2872" data-name="Path 2872" d="M137.954,61.972V43.982H127.778a35.884,35.884,0,0,0-3.834-9.254l7.2-7.2L118.423,14.814l-7.2,7.2a35.882,35.882,0,0,0-9.254-3.834V8H83.982V18.176a35.882,35.882,0,0,0-9.254,3.834l-7.2-7.2L54.814,27.531l7.2,7.2a35.885,35.885,0,0,0-3.834,9.254H48V61.972H58.176a35.887,35.887,0,0,0,3.834,9.254l-7.2,7.2L67.531,91.14l7.2-7.2a35.885,35.885,0,0,0,9.254,3.834V97.954h17.991V87.778a35.887,35.887,0,0,0,9.254-3.834l7.2,7.2L131.14,78.423l-7.2-7.2a35.885,35.885,0,0,0,3.834-9.254Zm-44.977,9a17.991,17.991,0,1,1,17.991-17.991A18.015,18.015,0,0,1,92.977,70.968Z" transform="translate(450.747 40.977)" fill="#f0f0f0"/>
  </g>
</svg>
