<svg xmlns="http://www.w3.org/2000/svg" width="62.697" height="62.638" viewBox="0 0 62.697 62.638">
  <g id="swift" transform="translate(0 -0.242)">
    <path id="Path_3447" data-name="Path 3447" d="M0,47.428c0,4.032,1.016,8.478,4.085,11.367,3.068,3.068,7.143,4.085,11.367,4.085H47.245c5.72,0,10.951-2.23,13.795-7.4A16.894,16.894,0,0,0,62.7,47.428V15.694c0-4.081-.98-8.445-4.085-11.367C55.545,1.26,51.47.242,47.245.242H15.452C11.3.242,7.09,1.263,4.085,4.268.987,7.366.176,11.42,0,15.635Z" fill="#ff5034"/>
    <path id="Path_3448" data-name="Path 3448" d="M93.313,102.6l.178-.71c2.6-10.361-3.73-22.675-14.5-29.128,4.736,6.394,6.809,14.15,4.973,20.9-.178.592-.355,1.184-.592,1.776a4.486,4.486,0,0,0-.947-.533A137.051,137.051,0,0,1,60.1,76.611,140.162,140.162,0,0,0,73.657,93.662c-3.493-1.954-13.143-9-19.3-14.564a31.015,31.015,0,0,0,2.6,3.611c5.092,6.512,11.782,14.5,19.774,20.662-5.624,3.434-13.558,3.73-21.432,0a32.071,32.071,0,0,1-5.506-3.256,32.971,32.971,0,0,0,14.742,12.67c7.46,3.2,14.979,2.96,20.485,0,.237-.118.474-.3.71-.414,2.664-1.362,7.874-2.723,10.716,2.723C97.28,116.337,98.76,109.233,93.313,102.6Z" transform="translate(-43.7 -63.64)" fill="#fff"/>
  </g>
</svg>
