<svg xmlns="http://www.w3.org/2000/svg" width="34.697" height="34.698" viewBox="0 0 34.697 34.698">
  <g id="tour" transform="translate(-15.999 -16)">
    <circle id="Ellipse_2191" data-name="Ellipse 2191" cx="16.785" cy="16.785" r="16.785" transform="translate(16.609 16.61)" fill="#ffa488"/>
    <path id="Path_3317" data-name="Path 3317" d="M136.436,24a16.691,16.691,0,0,0-9.316,2.824l4.834,4.838a2.249,2.249,0,0,0,3.181,0,3.476,3.476,0,0,1,4.915,0l.145.145a1.227,1.227,0,0,0,1.735,0,1.227,1.227,0,0,1,1.735,0l1.066,1.066a11.168,11.168,0,0,0,7.829,3.27A16.777,16.777,0,0,0,136.436,24Z" transform="translate(-103.089 -7.422)" fill="#31c292"/>
    <rect id="Rectangle_98" data-name="Rectangle 98" width="13.835" height="19.532" rx="6.918" transform="translate(20.068 28.207)" fill="#31c292"/>
    <circle id="Ellipse_2192" data-name="Ellipse 2192" cx="1.221" cy="1.221" r="1.221" transform="translate(21.696 47.739)" fill="#6e6e6e"/>
    <circle id="Ellipse_2193" data-name="Ellipse 2193" cx="1.221" cy="1.221" r="1.221" transform="translate(29.834 47.739)" fill="#6e6e6e"/>
    <path id="Path_3318" data-name="Path 3318" d="M140.626,31.614H139.47v-13.3a1.157,1.157,0,1,0-2.313,0v13.3H136v-13.3a2.313,2.313,0,0,1,4.626,0Z" transform="translate(-111.327 0)" fill="#6e6e6e"/>
    <path id="Path_3319" data-name="Path 3319" d="M112,248h1.157v13.3H112Zm3.47,0h1.157v13.3H115.47Zm3.47,0H120.1v13.3h-1.157Z" transform="translate(-89.062 -215.23)" fill="#7fddbb"/>
    <path id="Path_3320" data-name="Path 3320" d="M240.56,209.057l-6.267,13.028a1.157,1.157,0,0,0,.541,1.544l10.423,5.013,6.691-13.879Z" transform="translate(-202.409 -179.102)" fill="#ededed"/>
    <path id="Path_3321" data-name="Path 3321" d="M331.952,207.2l-10.423-5.013a1.157,1.157,0,1,1,1-2.084l10.423,5.013Z" transform="translate(-282.837 -170.689)" fill="#bebebe"/>
    <circle id="Ellipse_2194" data-name="Ellipse 2194" cx="3.47" cy="3.47" r="3.47" transform="translate(37.406 35.496)" fill="#bebebe"/>
    <path id="Path_3322" data-name="Path 3322" d="M282.277,389.385l.5-1.042,5.21,2.5-.5,1.042Z" transform="translate(-247.03 -345.428)" fill="#bebebe"/>
    <path id="Path_3323" data-name="Path 3323" d="M308.144,28.048,306.409,29.2l-3.47-2.313,1.735-2.313L304.1,24l-3.47,1.735-1.343-.806a2.313,2.313,0,0,0-2.826.348l-.458.458,9.632,5.886a1.157,1.157,0,0,0,1.421-.169L309.3,29.2Zm-4.38,19.844a3.491,3.491,0,0,0,.207-.542L302.4,46.6a5.62,5.62,0,0,0,.336-1.995l-.015-.985a3.483,3.483,0,0,0-1.226-.59l-.779.6a5.622,5.622,0,0,0-1.349,1.508l-1.566-.753a3.493,3.493,0,0,0-.294.5v0a3.485,3.485,0,0,0-.206.541l1.566.753a5.62,5.62,0,0,0-.336,1.995l.015.985a3.483,3.483,0,0,0,1.226.59l.779-.6a5.621,5.621,0,0,0,1.349-1.508l1.566.753A3.492,3.492,0,0,0,303.764,47.892Zm-3.918.34-.152.118,0-.193a4.461,4.461,0,0,1,.229-1.472l.934.449a4.462,4.462,0,0,1-1.008,1.1Zm1.509-2.14-.934-.449a4.462,4.462,0,0,1,1.008-1.1l.152-.118,0,.193A4.461,4.461,0,0,1,301.355,46.091Z" transform="translate(-259.761 -7.422)" fill="#dfdfdf"/>
    <g id="Group_4535" data-name="Group 4535" transform="translate(15.999 16)">
      <path id="Path_3324" data-name="Path 3324" d="M33.348,17.157a16.439,16.439,0,0,1,1.675.086l.119-1.15a17.557,17.557,0,0,0-4.784.165l.2,1.139a16.351,16.351,0,0,1,2.792-.24Zm-9.491,3.072-.679-.936a17.362,17.362,0,0,0-5.383,21.75l1.036-.514a16.205,16.205,0,0,1,5.026-20.3Zm10.05,29.3.039,1.156a17.316,17.316,0,0,0,4.786-.842l-.359-1.1a16.161,16.161,0,0,1-4.466.785ZM22.938,32.771H24.1v13.3H22.938Zm3.47,0h1.157v13.3H26.408Zm3.47,0h1.157v13.3H29.878Z" transform="translate(-15.999 -16)" fill="#3a312b"/>
      <path id="Path_3325" data-name="Path 3325" d="M94.9,33.906,84.477,28.893a1.737,1.737,0,0,0-2.315.811l-3.126,6.5V30.457a2.9,2.9,0,0,0-2.891-2.891H73.831V18.313a2.313,2.313,0,0,0-4.626,0v9.253H66.891A2.9,2.9,0,0,0,64,30.457V45.492a2.9,2.9,0,0,0,1.906,2.718,1.735,1.735,0,1,0,3.2.173H73.93a1.735,1.735,0,1,0,3.2-.173,2.9,2.9,0,0,0,1.834-2.077l8.166,3.928a.578.578,0,0,0,.772-.27L95.17,34.678a.578.578,0,0,0-.27-.772ZM83.726,29.878a.575.575,0,0,1,.25.057l9.9,4.763-.5,1.042-9.9-4.763a.579.579,0,0,1-.271-.771h0a.579.579,0,0,1,.522-.327ZM70.361,18.313a1.157,1.157,0,0,1,2.313,0v9.253H70.361ZM68.048,48.962a.578.578,0,1,1-.578-.578A.578.578,0,0,1,68.048,48.962Zm7.518.578a.578.578,0,1,1,.578-.578.578.578,0,0,1-.578.578Zm.578-2.313H66.891a1.737,1.737,0,0,1-1.735-1.735V30.457a1.737,1.737,0,0,1,1.735-1.735H69.2v2.891h1.157V28.722h2.313v2.891h1.157V28.722h2.313a1.737,1.737,0,0,1,1.735,1.735v8.151l-1.984,4.124a1.735,1.735,0,0,0,.811,2.315l1.168.562A1.737,1.737,0,0,1,76.144,47.227Zm10.965,1.541-9.9-4.763a.578.578,0,0,1-.27-.772L82.5,31.68a1.726,1.726,0,0,0,.478.34l9.9,4.763Z" transform="translate(-60.53 -16)" fill="#3a312b"/>
      <path id="Path_3326" data-name="Path 3326" d="M228.174,120.616a4.048,4.048,0,1,0,1.893,5.4A4.048,4.048,0,0,0,228.174,120.616Zm1.049,4.355-1.037-.5a5.62,5.62,0,0,0,.336-1.995l0-.2A2.9,2.9,0,0,1,229.224,124.971Zm-3.595,1.136-.152.118,0-.193a4.462,4.462,0,0,1,.229-1.472l.934.449a4.461,4.461,0,0,1-1.008,1.1Zm.575-2.589a4.462,4.462,0,0,1,1.008-1.1l.152-.118,0,.193a4.461,4.461,0,0,1-.229,1.472Zm.221-2.145c.079,0,.158,0,.237.011l-.158.122a5.621,5.621,0,0,0-1.349,1.508l-1.036-.5a2.9,2.9,0,0,1,2.306-1.143Zm-2.809,2.184,1.037.5a5.621,5.621,0,0,0-.336,1.995l0,.2A2.9,2.9,0,0,1,223.616,123.557Zm2.563,3.588.158-.123a5.621,5.621,0,0,0,1.349-1.508l1.037.5a2.9,2.9,0,0,1-2.544,1.131Zm-5.387,2.11.5-1.042,5.21,2.5-.5,1.042Zm5.738-19.981a1.807,1.807,0,0,0-2.553,0,.649.649,0,0,1-.917,0l-.145-.145a4.059,4.059,0,0,0-5.733,0,1.66,1.66,0,0,1-1.181.489v1.157a2.809,2.809,0,0,0,2-.828,2.9,2.9,0,0,1,4.1,0l.145.145a1.807,1.807,0,0,0,2.553,0,.649.649,0,0,1,.917,0l1.066,1.066a11.663,11.663,0,0,0,7.793,3.429,16.16,16.16,0,0,1,.475,2.942l1.154-.079a17.187,17.187,0,0,0-1.8-6.581l-1.033.519a16.124,16.124,0,0,1,.847,2.018,10.511,10.511,0,0,1-6.622-3.067Z" transform="translate(-201.543 -101.298)" fill="#3a312b"/>
      <path id="Path_3327" data-name="Path 3327" d="M288.277,18.806l9.632,5.886a1.73,1.73,0,0,0,2.131-.254l2.248-2.247a.578.578,0,0,0,0-.818l-1.157-1.157a.578.578,0,0,0-.73-.072l-1.414.943-2.64-1.76,1.368-1.824a.578.578,0,0,0-.054-.756l-.578-.578a.578.578,0,0,0-.668-.108l-3.186,1.593-1.071-.642a2.887,2.887,0,0,0-3.532.435l-.458.458a.578.578,0,0,0,.107.9Zm3.288-.8,1.343.806a.578.578,0,0,0,.556.021l2.9-1.449-1.306,1.741a.578.578,0,0,0,.142.828l3.47,2.313a.578.578,0,0,0,.642,0l1.34-.894.412.412-1.839,1.839a.577.577,0,0,1-.71.084l-9-5.5a1.732,1.732,0,0,1,2.056-.2Z" transform="translate(-268.339 -16)" fill="#3a312b"/>
    </g>
  </g>
</svg>
