<svg id="watch" xmlns="http://www.w3.org/2000/svg" width="10.851" height="10.851" viewBox="0 0 10.851 10.851">
  <path id="Path_7683" data-name="Path 7683" d="M238.522,122.645l-1.513-1.135V119.2a.42.42,0,1,0-.84,0v2.521a.419.419,0,0,0,.168.336l1.681,1.261a.42.42,0,0,0,.5-.672Z" transform="translate(-231.164 -116.262)" fill="#fc7e58"/>
  <path id="Path_7684" data-name="Path 7684" d="M5.425,0a5.425,5.425,0,1,0,5.425,5.425A5.431,5.431,0,0,0,5.425,0Zm0,10.01A4.585,4.585,0,1,1,10.01,5.425,4.59,4.59,0,0,1,5.425,10.01Z" fill="#fc7e58"/>
</svg>
