<svg id="Group_4457" data-name="Group 4457" xmlns="http://www.w3.org/2000/svg" width="512" height="511.43" viewBox="0 0 512 511.43">
  <path id="Path_2741" data-name="Path 2741" d="M184.176,417.71H327.234v59.212H184.176Zm0,0" fill="#5a5a5a"/>
  <path id="Path_2742" data-name="Path 2742" d="M485.156,426H26.254A26.254,26.254,0,0,1,0,399.75V26.254A26.254,26.254,0,0,1,26.254,0h458.9A26.254,26.254,0,0,1,511.41,26.254v373.5A26.254,26.254,0,0,1,485.156,426Zm0,0" fill="#ffd86e"/>
  <path id="Path_2743" data-name="Path 2743" d="M511.414,26.258V399.75A26.254,26.254,0,0,1,485.16,426H453.09a26.254,26.254,0,0,0,26.254-26.254V26.258A26.254,26.254,0,0,0,453.09,0h32.07A26.254,26.254,0,0,1,511.414,26.258Zm0,0" fill="#ffb509"/>
  <path id="Path_2744" data-name="Path 2744" d="M511.41,362.754H0v37A26.254,26.254,0,0,0,26.254,426h458.9A26.254,26.254,0,0,0,511.41,399.75Zm0,0" fill="#838383"/>
  <path id="Path_2745" data-name="Path 2745" d="M511.414,362.75v37A26.254,26.254,0,0,1,485.16,426H453.09a26.254,26.254,0,0,0,26.254-26.254v-37Zm0,0" fill="#5a5a5a"/>
  <path id="Path_2746" data-name="Path 2746" d="M512,89.563H.57V26.253A26.253,26.253,0,0,1,26.82,0H485.742A26.254,26.254,0,0,1,512,26.254Zm0,0" fill="#acacac"/>
  <path id="Path_2747" data-name="Path 2747" d="M512,26.25V89.566H479.344V26.25A26.253,26.253,0,0,0,453.086,0h32.66A26.252,26.252,0,0,1,512,26.25Zm0,0" fill="#9c9c9c"/>
  <path id="Path_2748" data-name="Path 2748" d="M373.594,511.426H137.816a5.146,5.146,0,0,1-5.144-5.145V489.605a20.477,20.477,0,0,1,20.476-20.476H358.262a20.477,20.477,0,0,1,20.476,20.476v16.676a5.146,5.146,0,0,1-5.143,5.145Zm0,0" fill="#838383"/>
  <path id="Path_2749" data-name="Path 2749" d="M378.738,489.6v16.683a5.147,5.147,0,0,1-5.148,5.145H355.426V489.6a20.477,20.477,0,0,0-20.469-20.473H358.27A20.472,20.472,0,0,1,378.738,489.6Zm0,0" fill="#5a5a5a"/>
  <g id="Group_4456" data-name="Group 4456">
    <path id="Path_2750" data-name="Path 2750" d="M58.477,186.492a7.48,7.48,0,0,1-5.305-2.2l-24.2-24.2a7.5,7.5,0,0,1,0-10.606l24.2-24.2a7.5,7.5,0,1,1,10.61,10.606l-18.9,18.9,18.9,18.9a7.5,7.5,0,0,1-5.3,12.8Zm57.859,0a7.5,7.5,0,0,1-5.3-12.8l18.9-18.9-18.9-18.9a7.5,7.5,0,0,1,10.61-10.606l24.2,24.2a7.5,7.5,0,0,1,0,10.605l-24.2,24.2a7.48,7.48,0,0,1-5.3,2.2Zm-37.613,0a7.508,7.508,0,0,1-6.981-10.246l19.016-48.4a7.5,7.5,0,1,1,13.961,5.488L85.7,181.734A7.5,7.5,0,0,1,78.723,186.5Zm11.922,45.285h-52a7.5,7.5,0,1,1,0-15h52a7.5,7.5,0,0,1,0,15Zm119.773,0H118.992a7.5,7.5,0,1,1,0-15h91.426a7.5,7.5,0,0,1,0,15ZM60.8,264.336H38.645a7.5,7.5,0,0,1,0-15H60.8a7.5,7.5,0,0,1,0,15Zm134.871,0H182.176a7.5,7.5,0,0,1,0-15h13.492a7.5,7.5,0,0,1,0,15Zm-41.528,0H87.884a7.5,7.5,0,1,1,0-15h66.258a7.5,7.5,0,0,1,0,15Zm91.274,0h-25.27a7.5,7.5,0,0,1,0-15h25.27a7.5,7.5,0,1,1,0,15ZM197.04,160.762H170.387a7.5,7.5,0,1,1,0-15h26.652a7.5,7.5,0,0,1,0,15Zm192.464,0H226.887a7.5,7.5,0,0,1,0-15H389.5a7.5,7.5,0,1,1,0,15Zm-24.7,33.965H298.934a7.5,7.5,0,1,1,0-15H364.8a7.5,7.5,0,1,1,0,15Zm-90.57,0H251.586a7.5,7.5,0,1,1,0-15H274.23a7.5,7.5,0,1,1,0,15Zm-48.37,0H170.383a7.5,7.5,0,1,1,0-15h55.476a7.5,7.5,0,1,1,0,15ZM154.238,296.621h-52a7.5,7.5,0,0,1,0-15h52a7.5,7.5,0,0,1,0,15Zm-75.64,0H38.645a7.5,7.5,0,1,1,0-15H78.6a7.5,7.5,0,0,1,0,15Zm169.9,0H180.574a7.5,7.5,0,1,1,0-15H248.5a7.5,7.5,0,0,1,0,15Zm0,0" fill="#838383"/>
  </g>
  <path id="Path_2751" data-name="Path 2751" d="M296.664,263.39H463.816V320H296.664Zm0,87.481H463.816v52.492H296.664Zm0,0" fill="#64dcfc"/>
  <path id="Path_2752" data-name="Path 2752" d="M444.05,263.39h19.766V320H444.051Zm0,87.481h19.766v52.492H444.051Zm0,0" fill="#00d1fc"/>
  <path id="Path_2753" data-name="Path 2753" d="M477.656,275.688H282.824a7.46,7.46,0,0,1-7.46-7.461V230.71a7.46,7.46,0,0,1,7.461-7.461H477.656a7.46,7.46,0,0,1,7.461,7.461v37.516a7.46,7.46,0,0,1-7.46,7.46Zm0,84.121H282.824a7.46,7.46,0,0,1-7.46-7.461V314.832a7.46,7.46,0,0,1,7.46-7.46H477.656a7.46,7.46,0,0,1,7.461,7.461v37.515a7.46,7.46,0,0,1-7.46,7.46Zm0,84.121H282.824a7.46,7.46,0,0,1-7.46-7.461V398.953a7.46,7.46,0,0,1,7.46-7.46H477.656a7.46,7.46,0,0,1,7.461,7.461v37.515a7.46,7.46,0,0,1-7.46,7.46Zm0,0" fill="#0396fd"/>
  <path id="Path_2754" data-name="Path 2754" d="M485.117,230.71v37.517a7.46,7.46,0,0,1-7.46,7.46H460.344a7.458,7.458,0,0,0,7.46-7.46V230.71a7.458,7.458,0,0,0-7.46-7.461h17.312a7.46,7.46,0,0,1,7.461,7.461Zm0,84.118v37.516a7.456,7.456,0,0,1-7.46,7.465H460.344a7.454,7.454,0,0,0,7.46-7.465V314.828a7.458,7.458,0,0,0-7.46-7.46h17.312a7.46,7.46,0,0,1,7.461,7.461Zm0,84.129v37.516a7.46,7.46,0,0,1-7.46,7.46H460.344a7.458,7.458,0,0,0,7.46-7.46V398.957a7.453,7.453,0,0,0-7.46-7.46h17.312a7.455,7.455,0,0,1,7.461,7.46Zm0,0" fill="#0077f0"/>
  <path id="Path_2755" data-name="Path 2755" d="M340.363,256.969H303.22a7.5,7.5,0,0,1,0-15h37.148a7.5,7.5,0,1,1,0,15Zm116.9,0H404.82a7.5,7.5,0,0,1,0-15h52.438a7.5,7.5,0,0,1,0,15Zm-78.66,0h-12.02a7.5,7.5,0,1,1,0-15H378.6a7.5,7.5,0,1,1,0,15ZM340.363,341.09H303.22a7.5,7.5,0,0,1,0-15h37.148a7.5,7.5,0,1,1,0,15Zm116.9,0H404.82a7.5,7.5,0,0,1,0-15h52.438a7.5,7.5,0,0,1,0,15Zm-78.66,0h-12.02a7.5,7.5,0,1,1,0-15H378.6a7.5,7.5,0,0,1,0,15Zm-38.239,84.12H303.22a7.5,7.5,0,0,1,0-15h37.148a7.5,7.5,0,1,1,0,15Zm116.9,0H404.82a7.5,7.5,0,1,1,0-15h52.438a7.5,7.5,0,0,1,0,15Zm-78.66,0h-12.02a7.5,7.5,0,0,1,0-15H378.6a7.5,7.5,0,0,1,0,15Zm0,0" fill="#e7e7e7"/>
  <path id="Path_2756" data-name="Path 2756" d="M64.145,44.563A14.936,14.936,0,1,1,49.211,29.629,14.933,14.933,0,0,1,64.145,44.563Zm0,0" fill="#ff5770"/>
  <path id="Path_2757" data-name="Path 2757" d="M121.816,44.563a14.933,14.933,0,1,1-14.933-14.934,14.93,14.93,0,0,1,14.933,14.934Zm0,0" fill="#ffd86e"/>
  <path id="Path_2758" data-name="Path 2758" d="M179.492,44.563a14.934,14.934,0,1,1-14.933-14.934,14.932,14.932,0,0,1,14.933,14.934Zm0,0" fill="#80e0dc"/>
  <path id="Path_2759" data-name="Path 2759" d="M64.137,44.566a14.923,14.923,0,0,1-25.227,10.8,14.917,14.917,0,0,0,9.953-25.718,3.46,3.46,0,0,1,.352-.012A14.923,14.923,0,0,1,64.137,44.566Zm0,0" fill="#ff435f"/>
  <path id="Path_2760" data-name="Path 2760" d="M121.813,44.566a14.928,14.928,0,0,1-25.234,10.8,14.919,14.919,0,0,0,9.964-25.718,3.154,3.154,0,0,1,.34-.012,14.922,14.922,0,0,1,14.93,14.933Zm0,0" fill="#ffb509"/>
  <path id="Path_2761" data-name="Path 2761" d="M179.492,44.566a14.93,14.93,0,0,1-25.238,10.8,14.917,14.917,0,0,0,9.953-25.718,3.441,3.441,0,0,1,.352-.012,14.933,14.933,0,0,1,14.933,14.933Zm0,0" fill="#00a8b0"/>
</svg>
